<?xml version="1.0" encoding="utf-8"?>
<!-- Generator: Adobe Illustrator 16.0.4, SVG Export Plug-In . SVG Version: 6.00 Build 0)  -->
<!DOCTYPE svg PUBLIC "-//W3C//DTD SVG 1.1//EN" "http://www.w3.org/Graphics/SVG/1.1/DTD/svg11.dtd">
<svg version="1.1" id="Calque_1" xmlns="http://www.w3.org/2000/svg" xmlns:xlink="http://www.w3.org/1999/xlink" x="0px" y="0px"
	 width="1920px" height="1080px" viewBox="0 0 1920 1080" enable-background="new 0 0 1920 1080" xml:space="preserve">
<g>
	<g opacity="0.4">
		<g>
			<polygon fill="#434A54" points="256,-9 256,309 288,309 288,95 1145,95 1145,309 1176,309 1176,-9 			"/>
			<rect x="288" y="16" fill="#A9B2BC" width="857" height="57"/>
			<polyline opacity="0.2" fill="#FFFFFF" points="630,95 1145,95 1145,309 1176,309 1176,-9 630,-9 			"/>
		</g>
		<g>
			<line fill="#434A54" x1="357.101" y1="157.501" x2="356.765" y2="157.501"/>
			<path fill="#434A54" d="M482.351,195.131l-18.934-15.896h-56.047l46.628,39.683l-79.709,66.901
				c-3.612,3.071-5.812,7.363-6.196,12.093c-0.38,4.732,1.097,9.314,4.167,12.929l1.28,1.509c3.379,3.967,8.305,6.248,13.524,6.248
				c4.204,0,8.293-1.507,11.5-4.237l83.773-71.299l83.77,71.299c3.212,2.73,7.297,4.237,11.507,4.237
				c5.209,0,10.151-2.281,13.518-6.262l1.276-1.495c3.074-3.615,4.565-8.197,4.174-12.929c-0.38-4.729-2.576-9.022-6.221-12.119
				l-79.674-66.875l46.626-39.683h-56.041L482.351,195.131z"/>
			<path fill="#A9B2BC" d="M606.885,157.874V138.83l-12.602-9.533c-4.479-3.452-12.113-6.03-17.743-6.03H387.196
				c-5.641,0-13.261,2.593-17.753,6.03l-12.342,9.485v18.72L606.885,157.874z"/>
			<path fill="#434A54" d="M606.677,157.485l-249.576,0.016l0,0h-1.182v7.845c0,6.796,3.056,11.964,7.531,13.387
				c0.801,0.25,1.63,0.424,2.506,0.424h41.324l0.091,0.077h56.047l-0.104-0.083h38.062l-0.103,0.083h56.041l0.089-0.077h40.376
				c0.877,0,1.702-0.174,2.5-0.424c4.467-1.422,7.521-6.591,7.521-13.387v-7.845L606.677,157.485z"/>
		</g>
		<g>
			<line fill="#434A54" x1="782.406" y1="157.501" x2="782.07" y2="157.501"/>
			<path fill="#434A54" d="M907.656,195.131l-18.934-15.896h-56.047l46.628,39.683l-79.709,66.901
				c-3.611,3.071-5.812,7.363-6.195,12.093c-0.379,4.732,1.097,9.314,4.167,12.929l1.28,1.509c3.379,3.967,8.304,6.248,13.524,6.248
				c4.204,0,8.293-1.507,11.5-4.237l83.774-71.299l83.77,71.299c3.212,2.73,7.298,4.237,11.507,4.237
				c5.21,0,10.151-2.281,13.518-6.262l1.276-1.495c3.073-3.615,4.565-8.197,4.174-12.929c-0.38-4.729-2.575-9.022-6.221-12.119
				l-79.674-66.875l46.626-39.683h-56.041L907.656,195.131z"/>
			<path fill="#A9B2BC" d="M1032.19,157.874V138.83l-12.603-9.533c-4.479-3.452-12.113-6.03-17.742-6.03H812.501
				c-5.641,0-13.261,2.593-17.753,6.03l-12.342,9.485v18.72L1032.19,157.874z"/>
			<path fill="#434A54" d="M1031.981,157.485l-249.576,0.016l0,0h-1.182v7.845c0,6.796,3.056,11.964,7.531,13.387
				c0.801,0.25,1.63,0.424,2.505,0.424h41.324l0.091,0.077h56.047l-0.104-0.083h38.062l-0.102,0.083h56.041l0.089-0.077h40.378
				c0.876,0,1.7-0.174,2.499-0.424c4.467-1.422,7.521-6.591,7.521-13.387v-7.845L1031.981,157.485z"/>
		</g>
		<g>
			<polygon fill="#434A54" points="1176,-9 1176,309 1209,309 1209,95 2066,95 2066,309 2098,309 2098,-9 			"/>
			<rect x="1209" y="16" fill="#A9B2BC" width="857" height="57"/>
			<polyline opacity="0.2" fill="#FFFFFF" points="1551,95 2066,95 2066,309 2098,309 2098,-9 1551,-9 			"/>
		</g>
		<path fill="#434A54" d="M1507.335,101.036l0.006-0.003c-0.561-2.99-1.132-4.356-1.475-5.172l-0.318-0.801
			c-0.373-0.942-0.598-1.509-0.49-2.244c0.056-0.406,0.214-0.841,0.381-1.301c0.073-0.206,0.148-0.412,0.214-0.613l0.229-0.688
			c0.784-2.345,1.668-5.002,0.463-6.939c-0.581-0.928-1.574-1.557-2.962-1.874c-0.592-4.193-1.36-8.47-2.267-12.615l-0.041-0.214
			c-2.486-11.429-6.07-22.441-10.682-32.807c-3.74-8.378-7.14-14.048-8.795-16.612l-0.154-0.292l-1.176-88.256
			c0-1.62-0.314-5.775-0.62-9.792c-0.29-3.812-0.587-7.753-0.587-9.168c0-14.331-5.396-27.883-15.616-39.231
			c1.049-1.87,1.988-3.455,2.927-4.944c0.228-0.361,0.242-0.799,0.037-1.166c-0.396-0.713-1.549-0.785-2.016-0.083
			c-0.932,1.412-1.847,2.835-2.744,4.27c-0.98-1.006-2.006-1.996-3.064-2.958c1.015-1.556,2.006-3.124,2.963-4.706
			c0.224-0.362,0.235-0.796,0.032-1.165c-0.404-0.724-1.574-0.763-2.018-0.065c-0.963,1.504-1.979,2.958-2.899,4.244
			c-1.542-1.307-3.119-2.539-4.707-3.672c0.739-1.714,1.506-3.599,2.338-5.735l0.167-0.643l-0.282-0.407
			c-0.478-0.703-1.734-0.58-2.071,0.229c-0.759,1.827-1.581,3.607-2.288,5.095c-0.622-0.413-1.258-0.8-1.891-1.194
			c0.902-2.79,1.812-5.384,2.786-7.896l0.166-0.644l-0.282-0.409c-0.479-0.699-1.737-0.578-2.075,0.236
			c-1.016,2.5-1.959,4.964-2.836,7.367c-0.603-0.347-1.201-0.702-1.809-1.033c0.871-1.567,1.733-3.136,2.554-4.726
			c0.193-0.368,0.181-0.796-0.031-1.147c-0.437-0.725-1.617-0.713-2.021,0.027c-0.902,1.646-1.871,3.251-2.752,4.668
			c-0.522-0.26-1.049-0.515-1.575-0.766c0.65-2.017,1.285-3.83,1.935-5.518l0.163-0.643l-0.28-0.411
			c-0.483-0.701-1.748-0.561-2.071,0.239c-0.757,1.845-1.439,3.585-2.074,5.287c-0.536-0.233-1.08-0.462-1.626-0.687
			c0.406-1.206,0.804-2.416,1.185-3.632l0.118-0.64l-0.284-0.384c-0.512-0.704-1.775-0.522-2.066,0.321
			c-0.389,1.157-0.808,2.303-1.242,3.441c-1.326-0.497-2.674-0.949-4.028-1.381c0.205-1.486,0.455-3.04,0.785-4.759
			c0.067-0.347-0.023-0.703-0.245-0.971c-0.568-0.689-1.84-0.415-2.039,0.472c-0.325,1.504-0.623,3.015-0.909,4.527
			c-1.387-0.397-2.78-0.761-4.188-1.084c0.095-2.188,0.236-3.813,0.46-5.939c0.037-0.33-0.064-0.643-0.279-0.882l-0.438-0.375
			h-0.419c-0.603,0-1.112,0.446-1.189,1.039l-0.141,1.087c-0.2,1.549-0.38,2.97-0.535,4.53c-0.26-0.052-0.515-0.115-0.772-0.164
			c-0.035-1.242-0.092-2.237-0.162-3.496l-0.058-1.002c-0.034-0.633-0.542-1.109-1.18-1.109c-0.315,0-0.623,0.128-0.84,0.353
			l-0.329,0.441l0.014,0.397c0.045,1.412,0.047,2.656,0.029,3.973c-0.839-0.133-1.683-0.251-2.532-0.356
			c-0.272-1.79-0.505-3.732-0.703-5.925c-0.053-0.614-0.562-1.077-1.183-1.077c-0.323,0-0.632,0.13-0.847,0.36l-0.331,0.454
			l0.029,0.411c0.117,1.698,0.26,3.529,0.456,5.485c-0.462-0.046-0.91-0.062-1.366-0.101c-0.194-0.886-0.393-1.771-0.598-2.647
			c-0.2-0.875-1.483-1.145-2.047-0.45c-0.223,0.276-0.308,0.635-0.229,0.976c0.137,0.643,0.252,1.289,0.374,1.934
			c-1.21-0.07-2.415-0.103-3.609-0.123c-0.021-0.159-0.049-0.325-0.064-0.479c-0.258-2.677-0.421-5.161-0.494-7.593
			c-0.019-0.638-0.532-1.137-1.174-1.137c-0.313,0-0.618,0.125-0.832,0.343l-0.338,0.434l0.004,0.396
			c0.032,2.668,0.116,5.259,0.255,7.7c0.004,0.099,0.008,0.212,0.011,0.319c-0.676,0.011-1.349,0.041-2.024,0.066
			c0-1.757-0.029-3.62-0.103-5.819c-0.024-0.632-0.541-1.127-1.176-1.127c-0.312,0-0.612,0.125-0.83,0.342l-0.336,0.435l0.005,0.394
			c0.017,2.028-0.057,4.066-0.132,5.796c0,0.032-0.006,0.068-0.008,0.098c-1.3,0.086-2.597,0.188-3.909,0.331
			c-0.294-1.887-0.534-3.899-0.735-6.115c-0.059-0.611-0.566-1.067-1.184-1.067c-0.324,0-0.635,0.13-0.85,0.361l-0.327,0.452
			l0.027,0.407c0.146,2.135,0.327,4.237,0.542,6.265c-0.654,0.092-1.309,0.189-1.957,0.293c-0.012-1.458-0.049-2.917-0.095-4.375
			c-0.024-0.632-0.54-1.126-1.179-1.126c-0.31,0-0.609,0.123-0.826,0.343l-0.337,0.435l0.003,0.394
			c0.016,1.655-0.032,3.314-0.089,4.79c-0.78,0.149-1.563,0.328-2.342,0.501c-0.073-0.178-0.158-0.373-0.216-0.542
			c-0.718-2.099-1.309-4.005-1.812-5.827c-0.234-0.863-1.509-1.101-2.052-0.398c-0.22,0.282-0.294,0.646-0.207,0.993
			c0.5,2.006,1.025,4.003,1.599,5.989c0.037,0.122,0.072,0.268,0.107,0.404c-0.634,0.162-1.272,0.316-1.903,0.49
			c-0.276-1.503-0.569-3.005-0.89-4.502c-0.187-0.88-1.461-1.166-2.036-0.478c-0.224,0.27-0.313,0.622-0.249,0.971
			c0.269,1.428,0.52,2.976,0.769,4.714c-0.862,0.271-1.714,0.561-2.562,0.854c-0.456-2.109-0.935-4.213-1.459-6.308
			c-0.226-0.874-1.491-1.12-2.047-0.426c-0.221,0.277-0.302,0.636-0.222,0.989c0.476,2.113,0.849,4.22,1.148,6
			c0.033,0.201,0.053,0.44,0.076,0.662c-0.374,0.144-0.758,0.279-1.13,0.427c-0.261-1.139-0.534-2.277-0.816-3.413
			c-0.223-0.877-1.496-1.121-2.049-0.426c-0.221,0.279-0.3,0.639-0.221,0.984c0.286,1.274,0.539,2.552,0.769,3.833
			c-0.547,0.24-1.091,0.503-1.635,0.757c-0.054-0.126-0.117-0.267-0.164-0.384c-0.795-2.001-1.686-4.091-2.801-6.574
			c-0.354-0.782-1.546-0.854-2.015-0.136c-0.22,0.333-0.259,0.75-0.104,1.118c0.959,2.272,1.787,4.534,2.469,6.445
			c0.075,0.212,0.143,0.464,0.212,0.695c-0.51,0.258-1.023,0.507-1.524,0.776c-0.664-1.614-1.276-2.993-2.027-4.665
			c-0.353-0.783-1.533-0.849-2.011-0.137c-0.222,0.33-0.263,0.75-0.109,1.124c0.757,1.788,1.333,3.295,1.917,4.908
			c-0.65,0.375-1.288,0.781-1.93,1.175c-0.064-0.154-0.138-0.316-0.197-0.466c-0.896-2.279-1.949-4.76-3.304-7.807
			c-0.349-0.782-1.544-0.851-2.017-0.14c-0.219,0.333-0.26,0.75-0.104,1.122c1.027,2.413,2.042,5.03,3.291,8.484
			c0.032,0.079,0.057,0.165,0.086,0.244c-0.659,0.439-1.322,0.87-1.963,1.326c-0.613-1.613-1.245-3.221-1.905-4.818
			c-0.333-0.803-1.589-0.933-2.07-0.234l-0.293,0.591l0.177,0.459c0.733,1.904,1.37,3.801,1.949,5.581
			c-0.532,0.406-1.057,0.816-1.575,1.236c-0.391-0.903-0.788-1.801-1.19-2.694c-0.352-0.789-1.539-0.858-2.012-0.143
			c-0.225,0.331-0.263,0.748-0.11,1.12c0.473,1.114,0.915,2.237,1.342,3.364c-0.487,0.429-0.968,0.864-1.442,1.304
			c-0.742-1.402-1.468-2.859-2.163-4.345c-0.363-0.77-1.552-0.825-2.018-0.111c-0.219,0.334-0.251,0.756-0.088,1.121
			c0.765,1.728,1.558,3.449,2.378,5.153c-0.845,0.834-1.607,1.622-2.305,2.384c-0.798-1.173-1.612-2.334-2.433-3.489
			c-0.481-0.676-1.632-0.584-2.01,0.13c-0.195,0.371-0.169,0.821,0.071,1.177c0.848,1.25,1.698,2.576,2.653,4.136
			c-9.3,11.013-14.208,24.005-14.208,37.644c0,1.414-0.317,5.23-0.625,8.923c-0.324,3.899-0.661,7.927-0.661,9.532l-1.511,84.656
			l-3.989,8.964c-4.708,8.996-8.789,19.625-12.143,31.629c-2.486,8.898-3.927,16.262-4.61,20.186l-0.067-0.128l-0.335,2.525
			c-1.369,0.321-2.352,0.952-2.922,1.88c-1.189,1.938-0.306,4.585,0.472,6.923l0.225,0.68c0.066,0.199,0.14,0.401,0.213,0.604
			c0.169,0.464,0.329,0.901,0.386,1.308c0.104,0.734-0.121,1.302-0.49,2.244l-0.323,0.811c-0.343,0.812-0.911,2.183-1.473,5.167
			l0.008,0.002c-0.41,1.564-1.021,7.741,0.358,10.637c1.047,2.182,2.654,2.841,4.643,3.479c0.886,0.284,2.737,0.022,4.371-0.238
			c0.728-0.114,1.479-0.23,1.993-0.251c0.489,0.568,0.928,1.155,1.357,1.724c1.837,2.441,3.703,4.978,8.266,4.317
			c4.815-0.703,7.561-4.008,7.479-8.922c2.892-0.384,5.559-2.085,6.818-4.43c1.106-2.051,1.011-4.32-0.265-6.391
			c-1.655-2.677-3.74-3.316-5.755-3.934c-0.963-0.295-1.957-0.601-2.937-1.138c-1.473-0.806-2.951-1.619-4.397-2.469
			c-0.142-0.082-0.248-0.148-0.33-0.2c0.116-0.244,0.251-0.571,0.34-1.019c0.424-2.111,0.511-4.128,0.603-6.264l0.019-0.39
			l-0.019-0.495l-0.282-0.29c-0.193-0.206-0.442-0.309-0.699-0.359l3.259-15.337l1.104-1.449
			c3.75,16.333,19.923,29.864,43.868,36.602l-3.646,6.527c-2.686,0.424-15.688,2.756-18.873,8.592c-0.859,1.572-0.965,3.25-0.327,5
			l-0.909,0.911l0.736,3.677l0.699,0.061c0.068,0.006,6.882,0.612,14.357,0.612c7.834,0,13.537-0.642,16.812-1.872l7.343-1.512
			v0.761l0.919,0.021c0,0,0.431,0.008,1.136,0.008c4.666,0,10.615-0.344,12.469-1.992l0.835-1.518l-0.314-3.422l-0.955-0.72
			l-0.013-3.609l0.279-1.67l-1.148-5.43c1.368,0.049,2.698,0.077,4.012,0.085c-0.846,2.841-2.488,9.173-1.147,11.505l-0.374,5.272
			l0.832,0.149c0.191,0.035,4.708,0.838,7.099,0.838c0.465,0,0.833-0.03,1.118-0.09l0.296-0.064l0.789-0.869
			c2.415,1.12,11.186,4.747,23.363,4.747c4.777,0,9.556-0.573,14.196-1.703l0.692-0.167l0.164-4.5l-0.955-0.874
			c0.258-0.676,0.502-1.806,0.436-3.603c0.096-0.367,0.157-1.046-0.246-1.926c-1.337-2.884-6.509-5.545-15.222-7.847l-6.649-3.146
			c27.595-5.423,47.909-19.99,53.229-38.048l2.397,6.974l1.716,13.657l0.017,0.394c0.087,2.04,0.177,4.15,0.601,6.261
			c0.084,0.416,0.204,0.727,0.34,1.015c-0.08,0.054-0.188,0.12-0.325,0.202c-1.345,0.79-2.711,1.542-4.078,2.291l-0.323,0.18
			c-0.981,0.537-1.977,0.843-2.938,1.138c-2.016,0.619-4.099,1.258-5.755,3.933c-1.276,2.07-1.371,4.34-0.265,6.392
			c1.264,2.345,3.927,4.045,6.817,4.428c-0.079,4.91,2.665,8.216,7.481,8.924c4.557,0.652,6.432-1.874,8.265-4.318
			c0.429-0.572,0.87-1.161,1.362-1.732c0.434,0.016,1.226,0.138,1.989,0.258c1.632,0.257,3.487,0.512,4.369,0.235
			c1.991-0.635,3.597-1.293,4.642-3.475C1508.358,108.779,1507.744,102.6,1507.335,101.036z"/>
		<g>
			<line fill="#434A54" x1="1278.449" y1="157.501" x2="1278.113" y2="157.501"/>
			<path fill="#434A54" d="M1403.701,195.131l-18.935-15.896h-56.047l46.627,39.683l-79.709,66.901
				c-3.61,3.071-5.812,7.363-6.195,12.093c-0.38,4.732,1.098,9.314,4.167,12.929l1.279,1.509c3.379,3.967,8.307,6.248,13.525,6.248
				c4.204,0,8.293-1.507,11.5-4.237l83.773-71.299l83.771,71.299c3.212,2.73,7.297,4.237,11.507,4.237
				c5.208,0,10.15-2.281,13.517-6.262l1.276-1.495c3.073-3.615,4.565-8.197,4.174-12.929c-0.381-4.729-2.576-9.022-6.221-12.119
				l-79.674-66.875l46.625-39.683h-56.04L1403.701,195.131z"/>
			<path fill="#A9B2BC" d="M1528.234,157.874V138.83l-12.602-9.533c-4.479-3.452-12.115-6.03-17.743-6.03h-189.345
				c-5.641,0-13.261,2.593-17.752,6.03l-12.344,9.485v18.72L1528.234,157.874z"/>
			<path fill="#434A54" d="M1528.025,157.485l-249.576,0.016l0,0h-1.181v7.845c0,6.796,3.056,11.964,7.53,13.387
				c0.8,0.25,1.629,0.424,2.505,0.424h41.325l0.091,0.077h56.047l-0.104-0.083h38.062l-0.103,0.083h56.04l0.09-0.077h40.377
				c0.877,0,1.701-0.174,2.5-0.424c4.467-1.422,7.521-6.591,7.521-13.387v-7.845L1528.025,157.485z"/>
		</g>
		<g>
			<line fill="#434A54" x1="1703.755" y1="157.501" x2="1703.419" y2="157.501"/>
			<path fill="#434A54" d="M1829.004,195.131l-18.933-15.896h-56.047l46.628,39.683l-79.709,66.901
				c-3.611,3.071-5.812,7.363-6.195,12.093c-0.381,4.732,1.098,9.314,4.167,12.929l1.279,1.509
				c3.379,3.967,8.305,6.248,13.524,6.248c4.204,0,8.294-1.507,11.501-4.237l83.772-71.299l83.77,71.299
				c3.214,2.73,7.298,4.237,11.507,4.237c5.21,0,10.151-2.281,13.519-6.262l1.276-1.495c3.072-3.615,4.564-8.197,4.173-12.929
				c-0.38-4.729-2.575-9.022-6.22-12.119l-79.674-66.875l46.626-39.683h-56.041L1829.004,195.131z"/>
			<path fill="#A9B2BC" d="M1953.539,157.874V138.83l-12.602-9.533c-4.479-3.452-12.113-6.03-17.743-6.03h-189.344
				c-5.641,0-13.261,2.593-17.753,6.03l-12.343,9.485v18.72L1953.539,157.874z"/>
			<path fill="#434A54" d="M1953.332,157.485l-249.577,0.016l0,0h-1.183v7.845c0,6.796,3.057,11.964,7.531,13.387
				c0.801,0.25,1.63,0.424,2.506,0.424h41.323l0.092,0.077h56.047l-0.103-0.083h38.062l-0.103,0.083h56.041l0.089-0.077h40.376
				c0.877,0,1.702-0.174,2.5-0.424c4.467-1.422,7.521-6.591,7.521-13.387v-7.845L1953.332,157.485z"/>
		</g>
		<path fill="#434A54" d="M577.415,94.946l0.006-0.002c-0.513-2.734-1.037-3.979-1.348-4.725l-0.291-0.73
			c-0.34-0.857-0.542-1.377-0.448-2.047c0.053-0.369,0.196-0.765,0.35-1.184c0.066-0.189,0.137-0.379,0.195-0.563l0.207-0.626
			c0.717-2.14,1.527-4.566,0.424-6.335c-0.529-0.849-1.436-1.422-2.702-1.709c-1.086-7.683-2.755-15.372-4.98-22.943l-0.078-0.223
			c-2.485-8.353-5.579-16.28-9.191-23.579l-0.094-0.176c-2.394-4.809-4.409-8.133-5.471-9.794l-1.162-103.34
			c0-1.738-0.288-6.223-0.563-10.559c-0.264-4.128-0.537-8.396-0.537-9.938c0-36.608-28.201-66.706-63.868-69.404
			c0.037-0.052,0.072-0.107,0.101-0.163c2.515-4.921,5.455-10.029,9.243-16.057c6.22-3.57,13.096-6.51,19.009-8.916
			c0.469-0.188,0.732-0.667,0.637-1.164c-0.1-0.514-0.549-0.889-1.068-0.889l-0.351,0.059c-4.313,1.456-8.208,2.973-11.769,4.589
			c1.01-0.936,2.017-1.866,3.014-2.787c2.537-1.963,5.323-3.986,9.035-6.561c0.375-0.258,0.538-0.723,0.401-1.154
			c-0.142-0.462-0.579-0.784-1.061-0.784l-0.354,0.033l-0.205,0.125c-3.959,2.389-7.466,4.747-10.607,7.141
			c0.283-0.427,0.565-0.854,0.849-1.281c0.945-0.898,1.892-1.795,2.83-2.695c0.347-0.333,0.455-0.81,0.279-1.244
			c-0.056-0.141-0.141-0.267-0.242-0.375l0.295-0.447c0.225-0.337,0.249-0.746,0.061-1.093c-0.355-0.665-1.437-0.768-1.917-0.168
			c-1.116,1.378-2.269,2.867-3.624,4.68c-0.854,0.75-1.675,1.484-2.475,2.211c0.948-1.502,1.898-2.978,2.823-4.414l1.484-1.125
			c0.358-0.27,0.496-0.717,0.354-1.137c-0.039-0.118-0.098-0.225-0.171-0.32c0.38-0.591,0.759-1.182,1.137-1.774
			c0.231-0.363,0.249-0.796,0.047-1.161c-0.392-0.709-1.542-0.802-2.035-0.127c-0.528,0.728-1.054,1.458-1.576,2.19
			c-0.105-0.227-0.277-0.409-0.484-0.53c0.356-0.426,0.713-0.854,1.068-1.274l0.381-0.586l-0.23-0.498
			c-0.179-0.386-0.592-0.646-1.029-0.646l-0.517,0.062l-0.253,0.262c-0.111,0.115-0.221,0.229-0.331,0.343
			c-0.336-0.272-0.846-0.353-1.249-0.186c0.023-0.213-0.016-0.434-0.121-0.634c-0.359-0.688-1.413-0.849-1.921-0.252
			c-0.058,0.066-0.113,0.134-0.171,0.2c0.156-0.402,0.31-0.805,0.465-1.208c0.136-0.356,0.096-0.733-0.113-1.035
			c-0.474-0.693-1.743-0.586-2.103,0.208c-0.479,1.055-0.955,2.114-1.419,3.175c-0.503-0.2-1.141-0.027-1.453,0.439
			c-0.853,1.282-1.638,2.48-2.368,3.613c0.116-0.373,0.233-0.744,0.35-1.114c0.396-1.26,0.79-2.518,1.175-3.772
			c0.106-0.344,0.048-0.703-0.161-0.987c-0.503-0.68-1.782-0.543-2.096,0.277c-0.996,2.614-1.846,4.956-2.593,7.154
			c-0.156,0.192-0.245,0.429-0.249,0.685l0.02,0.002c-0.05,0.143-0.096,0.283-0.143,0.426c-0.051-0.01-0.105-0.019-0.158-0.021
			c-0.018-0.031-0.039-0.061-0.06-0.089c-0.281-0.375-0.822-0.548-1.279-0.433c-0.06-0.988-0.139-2.004-0.236-3.066
			c0.533-1.565,1.062-3.128,1.587-4.685l1.926-3.064c0.218-0.345,0.229-0.767,0.029-1.127c-0.378-0.684-1.449-0.812-1.94-0.193
			c-0.631,0.81-1.256,1.632-1.871,2.458c-0.047-0.16-0.129-0.31-0.245-0.441c-0.051-0.057-0.107-0.109-0.168-0.156l0.391-1.189
			c0.113-0.339,0.058-0.703-0.152-0.994c-0.245-0.338-0.681-0.55-1.1-0.497c-0.424-0.437-1.283-0.431-1.726,0.039
			c-0.212,0.226-0.315,0.52-0.295,0.831l0.136,2.005l-0.148,0.353c-0.209,0.098-0.381,0.251-0.5,0.445
			c-0.118-0.446-0.481-0.777-0.938-0.858c-0.264-0.617-0.534-1.236-0.81-1.851c-0.336-0.755-1.533-0.827-2.019-0.156
			c-0.21,0.29-0.266,0.653-0.154,0.992c0.632,1.916,1.266,3.855,1.853,5.676l0.156,1.958c-0.323,0.906-0.629,1.809-0.916,2.703
			c-0.229-0.201-0.549-0.319-0.891-0.29l0.015-0.07c0.078-0.339,0.011-0.674-0.185-0.942c-0.038-0.052-0.079-0.099-0.123-0.143
			c-0.147-2.29-0.343-4.731-0.598-7.445c-0.058-0.613-0.578-1.075-1.205-1.075c-0.331,0-0.648,0.13-0.871,0.36
			c-0.218,0.226-0.331,0.525-0.323,0.846c0.046,1.415,0.097,2.834,0.148,4.254c0.043,1.231,0.088,2.463,0.129,3.698
			c-0.616-1.829-1.31-3.802-2.092-5.972c-0.046-0.358-0.251-0.652-0.543-0.822c-0.249-1.519-0.513-3.036-0.785-4.547
			c-0.104-0.578-0.618-0.999-1.221-0.999c-0.345,0-0.668,0.141-0.887,0.388c-0.213,0.241-0.31,0.559-0.27,0.888
			c0.137,1.17,0.278,2.341,0.42,3.514c-0.294-0.61-0.593-1.225-0.899-1.838c-0.362-0.732-1.549-0.764-2.01-0.094
			c-0.209,0.304-0.258,0.676-0.126,1.021c0.01,0.024,0.02,0.052,0.03,0.076c-0.225-0.228-0.535-0.362-0.876-0.363
			c-0.162-0.3-0.323-0.603-0.488-0.901c-0.375-0.683-1.499-0.676-1.912-0.033l-0.266,0.559l0.196,0.428
			c0.456,0.992,0.878,1.927,1.276,2.82c-0.232-0.111-0.506-0.133-0.758-0.07c-0.438-1.158-0.906-2.361-1.4-3.621
			c-0.337-0.825-1.606-0.954-2.11-0.256c-0.217,0.301-0.273,0.682-0.156,1.044c0.335,1.024,0.672,2.049,1.014,3.075l-0.462-0.074
			c-0.429,0-0.839,0.255-1.021,0.636l-0.095,0.3c-0.188-0.462-0.375-0.927-0.568-1.39c-0.325-0.768-1.51-0.896-1.993-0.243
			c-0.21,0.284-0.269,0.646-0.161,0.995l0.221,0.709c-0.183,0.106-0.334,0.261-0.437,0.448c-0.201,0.365-0.182,0.798,0.049,1.159
			l1.724,2.679c0.292,0.943,0.584,1.888,0.876,2.832c-2.506-3.362-5.393-6.775-8.734-10.329l-0.409-0.337h-0.371
			c-0.428,0-0.841,0.262-1.025,0.653c-0.176,0.375-0.122,0.803,0.142,1.121c1.989,2.419,3.627,4.473,5.132,6.427
			c0.019,0.163,0.075,0.326,0.175,0.475l0.995,1.505c0.723,1.094,1.446,2.188,2.168,3.284c-2.837-2.103-5.968-4.182-9.462-6.289
			l-0.32-0.16h-0.243c-0.478,0-0.913,0.319-1.057,0.777c-0.135,0.43,0.026,0.895,0.398,1.155c4.943,3.426,10.661,7.539,15.629,12.08
			l0.179,0.281c2.407,8.294,4.124,15.155,5.386,21.527c-31.028,7.329-53.239,35.338-53.239,67.742c0,1.537-0.29,5.671-0.57,9.672
			c-0.295,4.206-0.602,8.557-0.602,10.285l-1.538,102.163l-3.175,6.417c-11.786,21.278-16.157,47.346-16.817,51.655
			c-1.254,0.294-2.152,0.869-2.673,1.719c-1.088,1.77-0.28,4.188,0.432,6.322l0.203,0.613c0.061,0.186,0.13,0.376,0.199,0.565
			c0.152,0.419,0.297,0.815,0.347,1.185c0.094,0.667-0.11,1.186-0.446,2.042l-0.295,0.735c-0.311,0.746-0.832,1.995-1.346,4.727
			l0.006,0.002c-0.375,1.426-0.931,7.066,0.33,9.711c0.951,1.99,2.417,2.593,4.234,3.176c0.812,0.255,2.504,0.019,3.991-0.216
			c0.666-0.105,1.351-0.212,1.82-0.229c0.447,0.518,0.848,1.052,1.239,1.572c1.675,2.23,3.392,4.539,7.546,3.942
			c4.394-0.641,6.901-3.66,6.831-8.146c2.639-0.348,5.068-1.903,6.222-4.042c1.01-1.872,0.923-3.944-0.243-5.835
			c-1.512-2.443-3.414-3.026-5.251-3.591c-0.879-0.27-1.786-0.548-2.68-1.037c-1.347-0.738-2.695-1.479-4.017-2.255
			c-0.127-0.077-0.226-0.137-0.3-0.185c0.106-0.221,0.229-0.519,0.31-0.928c0.386-1.929,0.465-3.769,0.546-5.719l0.019-0.355
			l-0.019-0.451l-0.255-0.266c-0.177-0.187-0.403-0.281-0.639-0.328l3.925-18.458l0.615-1.406
			c2.844,18.973,18.276,34.384,41.997,41.75l-3.235,5.79c-2.451,0.388-14.321,2.518-17.229,7.844
			c-0.783,1.435-0.882,2.969-0.298,4.566l-0.831,0.831l0.672,3.356l0.639,0.057c0.062,0.004,6.281,0.558,13.105,0.558
			c7.152,0,12.358-0.587,15.348-1.709l6.704-1.38v0.695l0.839,0.021c0,0,0.393,0.007,1.037,0.007c4.257,0,9.688-0.315,11.382-1.818
			l0.761-1.386l-0.285-3.124l-0.872-0.657l-0.011-3.295l0.255-1.525l-0.955-4.509c1.149,0.028,2.303,0.041,3.452,0.021
			c-0.793,2.747-2.098,8.084-0.932,10.112l-0.34,4.812l0.759,0.136c0.176,0.032,4.297,0.765,6.479,0.765
			c0.425,0,0.76-0.026,1.021-0.082l0.268-0.06l0.723-0.793c2.205,1.021,10.212,4.333,21.328,4.333c4.363,0,8.724-0.522,12.96-1.554
			l0.631-0.153l0.151-4.107l-0.873-0.797c0.235-0.617,0.458-1.649,0.398-3.29c0.086-0.334,0.144-0.955-0.227-1.759
			c-1.218-2.632-5.943-5.061-13.895-7.164l-6.617-3.13c25.507-6.257,43.588-22.306,47.757-42.339l2.17,9.897l1.094,10.365
			l0.016,0.36c0.08,1.861,0.161,3.787,0.546,5.714c0.08,0.377,0.19,0.662,0.314,0.927c-0.075,0.049-0.173,0.109-0.3,0.184
			c-1.262,0.743-2.546,1.446-3.832,2.15l-0.187,0.103c-0.894,0.492-1.801,0.771-2.681,1.041c-1.839,0.563-3.742,1.148-5.251,3.589
			c-1.166,1.891-1.253,3.963-0.243,5.836c1.153,2.14,3.584,3.693,6.224,4.043c-0.073,4.481,2.433,7.501,6.829,8.145
			c4.154,0.605,5.875-1.716,7.548-3.944c0.391-0.521,0.792-1.058,1.24-1.578c0.396,0.012,1.115,0.126,1.813,0.235
			c1.486,0.234,3.182,0.468,3.991,0.215c1.82-0.579,3.285-1.18,4.238-3.174C578.348,102.017,577.789,96.376,577.415,94.946z
			 M469.668-195.016l0.088,0.323c-0.001,1.153-0.006,2.31-0.017,3.464c-0.388-0.746-0.791-1.493-1.205-2.241
			c-0.433-1.808-0.922-3.642-1.476-5.532C468.011-197.628,468.877-196.305,469.668-195.016z M489.445-189.338
			c0.334-1.26,0.688-2.554,1.066-3.899c0.342-0.579,0.691-1.158,1.051-1.73c1.369-1.287,2.855-2.606,4.48-3.973
			c-1.479,2.341-2.793,4.57-3.973,6.737C491.143-191.225,490.271-190.274,489.445-189.338z M465.849-192.525
			c0.023,0.088,0.044,0.176,0.065,0.261c-0.49-0.512-0.996-1.017-1.509-1.517l-0.298-0.56c-0.225-0.769-0.453-1.535-0.688-2.301
			C464.238-195.297,465.06-193.914,465.849-192.525z M461.896-205.918c0.338,1.034,0.713,2.197,1.107,3.44
			c-0.959-1.435-1.989-2.933-3.099-4.505c-0.337-0.892-0.68-1.781-1.032-2.668C459.885-208.421,460.898-207.175,461.896-205.918z"/>
		<path fill="#434A54" d="M1012.184,93.095h0.009c-0.608-3.249-1.231-4.735-1.602-5.622l-0.35-0.874
			c-0.404-1.023-0.648-1.64-0.534-2.44c0.062-0.441,0.236-0.917,0.42-1.421c0.08-0.221,0.16-0.441,0.232-0.659l0.245-0.746
			c0.851-2.546,1.815-5.436,0.502-7.544c-0.63-1.009-1.709-1.691-3.216-2.034c-0.946-6.717-2.282-13.495-3.996-20.256
			c-4.797-18.908-11.45-33.012-16.121-41.384l-0.104-0.208c-1.791-3.214-3.142-5.348-3.785-6.333l-0.732-1.119l-0.961-85.74
			c0-1.739-0.288-6.221-0.566-10.555c-0.263-4.116-0.535-8.372-0.535-9.903c0-22.337-10.378-42.782-27.73-55.787
			c2.265,1.343,4.363,2.911,6.313,4.718l0.458,0.336h0.396c0.503,0,0.96-0.302,1.161-0.768c0.201-0.464,0.113-0.985-0.238-1.363
			c-5.745-6.146-13.09-9.82-22.451-11.229c-0.22-0.096-0.443-0.19-0.666-0.282c0.167,0.015,0.332,0.032,0.496,0.047
			c9.157,0.946,17.318,4.832,24.261,11.549l0.46,0.355h0.411c0.499,0,0.951-0.295,1.157-0.755c0.206-0.459,0.123-0.981-0.222-1.364
			c-0.972-1.069-1.993-2.052-3.034-2.994h0.303c0.503,0,0.961-0.302,1.165-0.771c0.201-0.465,0.109-0.984-0.24-1.356
			c-6.125-6.562-13.857-10.526-22.458-11.541c7.445-0.982,14.059-0.222,20.37,2.345l0.481,0.094c0.587,0,1.091-0.406,1.226-0.984
			c0.132-0.571-0.146-1.153-0.675-1.41c-4.948-2.442-10.059-3.629-15.621-3.629c-4.409,0-9.005,0.743-14.166,2.304
			c1.514-0.518,3.035-1.007,4.578-1.413c8.813-2.322,18.008-1.557,26.772,2.232l0.296,0.106h0.213c0.579,0,1.079-0.4,1.217-0.972
			c0.138-0.568-0.132-1.152-0.656-1.42c-1.317-0.674-2.657-1.243-4.011-1.763c0.568-0.018,1.053-0.411,1.186-0.979
			c0.134-0.572-0.143-1.153-0.67-1.413c-8.657-4.272-17.927-5.087-26.928-2.355c-5.782,1.75-10.914,4.887-15.878,7.92
			c-1.619,0.991-3.241,1.974-4.885,2.917c-1.486-0.03-2.975-0.017-4.441,0.043c-1.557-0.898-3.095-1.837-4.632-2.778
			c-4.973-3.038-10.115-6.18-15.902-7.935c-9.007-2.73-18.276-1.916-26.927,2.355c-0.529,0.261-0.805,0.841-0.674,1.413
			c0.132,0.568,0.62,0.962,1.188,0.979c-1.351,0.52-2.694,1.087-4.011,1.76c-0.524,0.269-0.795,0.852-0.66,1.421
			c0.138,0.574,0.637,0.973,1.217,0.973l0.314-0.022l0.193-0.083c8.768-3.792,17.96-4.558,26.775-2.232
			c1.632,0.429,3.251,0.945,4.854,1.5c-5.283-1.621-9.971-2.392-14.451-2.392c-5.562,0-10.669,1.187-15.616,3.627
			c-0.527,0.264-0.803,0.846-0.668,1.416c0.135,0.579,0.639,0.983,1.225,0.983l0.483-0.097c6.575-2.676,13.479-3.4,21.323-2.211
			c-8.441,0.894-16.373,4.944-22.568,11.578c-0.351,0.374-0.443,0.894-0.242,1.358c0.201,0.469,0.66,0.771,1.165,0.771l0.309-0.036
			c-1.051,0.945-2.064,1.957-3.045,3.034c-0.338,0.377-0.424,0.897-0.221,1.356c0.206,0.462,0.661,0.759,1.159,0.759l0.578-0.07
			l0.298-0.288c6.703-6.488,14.815-10.365,24.112-11.528c-0.246,0.107-0.491,0.215-0.737,0.327
			c-9.021,1.486-16.132,5.123-21.737,11.122c-0.348,0.375-0.44,0.894-0.239,1.357c0.204,0.466,0.66,0.768,1.163,0.768l0.563-0.068
			l0.293-0.271c1.794-1.663,3.711-3.123,5.783-4.395c-16.828,13.05-26.886,33.238-26.886,55.128c0,1.528-0.289,5.651-0.569,9.637
			c-0.295,4.204-0.601,8.55-0.601,10.279L840.38,0.441l-5.165,12.027c-7.785,14.906-12.646,31.481-15.369,42.826
			c-1.93,8.054-2.923,14.027-3.233,16.033c-1.492,0.348-2.561,1.034-3.182,2.045c-1.297,2.108-0.334,4.991,0.516,7.534l0.239,0.73
			c0.072,0.216,0.152,0.435,0.234,0.657c0.183,0.503,0.356,0.979,0.418,1.421c0.112,0.797-0.132,1.414-0.536,2.437l-0.35,0.876
			c-0.369,0.889-0.99,2.375-1.6,5.621l0.008,0.002c-0.445,1.7-1.111,8.416,0.392,11.564c1.138,2.375,2.881,3.089,5.045,3.78
			c0.964,0.306,2.982,0.022,4.755-0.257c0.791-0.125,1.606-0.251,2.166-0.273c0.529,0.617,1.006,1.252,1.47,1.872
			c1.993,2.655,4.023,5.402,8.986,4.697c5.234-0.765,8.218-4.361,8.133-9.7c3.142-0.416,6.037-2.266,7.41-4.813
			c1.203-2.229,1.1-4.696-0.289-6.949c-1.799-2.91-4.066-3.604-6.258-4.276c-1.045-0.321-2.126-0.65-3.349-1.322
			c-1.549-0.851-3.099-1.702-4.623-2.599c-0.152-0.089-0.268-0.162-0.356-0.217c0.124-0.265,0.272-0.62,0.37-1.105
			c0.46-2.293,0.554-4.487,0.651-6.807l0.02-0.426l-0.02-0.537l-0.304-0.316c-0.213-0.224-0.481-0.335-0.761-0.391l4.313-20.29
			l0.194-0.362c0.619,19.95,14.597,36.583,37.427,45.201l-4.696,8.403c-2.922,0.46-17.055,2.999-20.517,9.342
			c-0.934,1.709-1.05,3.535-0.355,5.438l-0.988,0.988l0.802,3.996l0.761,0.068c0.075,0.007,7.478,0.664,15.6,0.664
			c8.518,0,14.721-0.699,18.28-2.037l7.983-1.642v0.83l0.998,0.024c0,0,0.468,0.009,1.236,0.009c5.068,0,11.535-0.376,13.551-2.166
			l0.909-1.65l-0.339-3.722l-1.04-0.78l-0.012-3.924l0.304-1.816l-1.276-6.006c1.111,0.034,2.223,0.052,3.327,0.052
			c0.37,0,0.737-0.016,1.108-0.02c-0.9,3.002-2.78,10.086-1.3,12.671l-0.406,5.73l0.906,0.162c0.208,0.038,5.117,0.911,7.715,0.911
			c0.506,0,0.904-0.032,1.216-0.098l0.321-0.07l0.859-0.946c2.625,1.216,12.158,5.16,25.397,5.16h0.002
			c5.192,0,10.384-0.623,15.428-1.851l0.751-0.183l0.182-4.891l-1.038-0.949c0.277-0.735,0.546-1.963,0.474-3.918
			c0.103-0.398,0.171-1.136-0.271-2.093c-1.451-3.136-7.077-6.028-16.545-8.532l-9.443-4.469
			c24.648-6.865,42.512-23.545,45.718-44.109l4.322,18.562l0.021,0.428c0.093,2.217,0.19,4.512,0.65,6.809
			c0.091,0.45,0.226,0.789,0.373,1.101c-0.09,0.058-0.205,0.129-0.355,0.217c-1.437,0.844-2.897,1.65-4.356,2.45l-0.43,0.239
			c-1.064,0.583-2.146,0.914-3.189,1.236c-2.192,0.672-4.458,1.368-6.257,4.273c-1.388,2.252-1.492,4.719-0.29,6.949
			c1.373,2.548,4.269,4.398,7.411,4.814c-0.085,5.337,2.897,8.933,8.133,9.701c4.958,0.719,6.991-2.041,8.984-4.693
			c0.466-0.623,0.944-1.26,1.48-1.883c0.473,0.017,1.33,0.151,2.161,0.28c1.773,0.28,3.791,0.559,4.75,0.256
			c2.165-0.689,3.91-1.404,5.046-3.778C1013.295,101.516,1012.63,94.797,1012.184,93.095z M888.52-171.718
			c1.989,0,4.126,0.13,6.653,0.409c-0.419,0.106-0.837,0.215-1.255,0.329c-3.99-0.223-7.94-0.155-11.374,0.338
			c-6.64,0.947-12.598,3.363-17.799,7.207c6.402-5.193,13.636-7.897,22.022-8.247C887.353-171.709,887.936-171.718,888.52-171.718z
			 M941.048-170.981c-3.53-0.506-7.202-0.6-12.141-0.292c-0.355-0.09-0.717-0.162-1.073-0.246c3.064-0.352,5.602-0.523,8.128-0.523
			c0,0,0.005,0,0.007,0c8.532,0.032,16.256,2.872,23.017,8.409C953.752-167.542,947.755-170.024,941.048-170.981z M937.873-181.148
			c-6.218,1.386-11.952,4.177-17.493,6.878l-0.979,0.475c4.278-2.391,8.691-4.814,13.346-6.55
			c7.943-2.967,16.368-3.008,24.634-0.213C951.052-182.387,944.456-182.615,937.873-181.148z M890.002-180.178
			c4.638,1.73,9.038,4.144,13.299,6.526l-0.951-0.459c-5.537-2.696-11.262-5.485-17.472-6.871
			c-6.582-1.467-13.173-1.239-19.501,0.587C873.644-183.187,882.066-183.143,890.002-180.178z"/>
		<path fill="#434A54" d="M1930.545,93.095h0.009c-0.608-3.249-1.232-4.735-1.602-5.622l-0.351-0.874
			c-0.403-1.023-0.647-1.64-0.534-2.44c0.062-0.441,0.235-0.917,0.42-1.421c0.08-0.221,0.161-0.441,0.232-0.659l0.245-0.746
			c0.852-2.546,1.815-5.436,0.502-7.544c-0.63-1.009-1.709-1.691-3.216-2.034c-0.946-6.717-2.281-13.495-3.996-20.256
			c-4.796-18.908-11.45-33.012-16.12-41.384l-0.105-0.208c-1.79-3.214-3.141-5.348-3.785-6.333l-0.73-1.119l-0.962-85.74
			c0-1.739-0.288-6.221-0.566-10.555c-0.264-4.116-0.535-8.372-0.535-9.903c0-22.337-10.377-42.782-27.729-55.787
			c2.266,1.343,4.363,2.911,6.312,4.718l0.459,0.336h0.395c0.504,0,0.962-0.302,1.162-0.768c0.202-0.464,0.113-0.985-0.238-1.363
			c-5.745-6.146-13.09-9.82-22.451-11.229c-0.22-0.096-0.442-0.19-0.665-0.282c0.166,0.015,0.332,0.032,0.495,0.047
			c9.158,0.946,17.319,4.832,24.262,11.549l0.461,0.355h0.41c0.499,0,0.951-0.295,1.157-0.755c0.206-0.459,0.122-0.981-0.222-1.364
			c-0.971-1.069-1.992-2.052-3.035-2.994h0.304c0.504,0,0.96-0.302,1.165-0.771c0.201-0.465,0.11-0.984-0.24-1.356
			c-6.125-6.562-13.857-10.526-22.457-11.541c7.445-0.982,14.059-0.222,20.369,2.345l0.481,0.094c0.587,0,1.092-0.406,1.226-0.984
			c0.132-0.571-0.146-1.153-0.676-1.41c-4.947-2.442-10.058-3.629-15.62-3.629c-4.409,0-9.006,0.743-14.165,2.304
			c1.512-0.518,3.034-1.007,4.576-1.413c8.813-2.322,18.009-1.557,26.771,2.232l0.297,0.106h0.212c0.58,0,1.08-0.4,1.218-0.972
			c0.138-0.568-0.132-1.152-0.655-1.42c-1.319-0.674-2.659-1.243-4.011-1.763c0.567-0.018,1.052-0.411,1.185-0.979
			c0.134-0.572-0.143-1.153-0.67-1.413c-8.657-4.272-17.927-5.087-26.928-2.355c-5.782,1.75-10.913,4.887-15.879,7.92
			c-1.618,0.991-3.241,1.974-4.886,2.917c-1.484-0.03-2.974-0.017-4.441,0.043c-1.555-0.898-3.094-1.837-4.63-2.778
			c-4.974-3.038-10.115-6.18-15.902-7.935c-9.007-2.73-18.275-1.916-26.928,2.355c-0.529,0.261-0.805,0.841-0.672,1.413
			c0.131,0.568,0.618,0.962,1.186,0.979c-1.351,0.52-2.693,1.087-4.011,1.76c-0.523,0.269-0.794,0.852-0.659,1.421
			c0.137,0.574,0.638,0.973,1.217,0.973l0.314-0.022l0.192-0.083c8.769-3.792,17.961-4.558,26.775-2.232
			c1.633,0.429,3.251,0.945,4.855,1.5c-5.283-1.621-9.973-2.392-14.45-2.392c-5.562,0-10.67,1.187-15.618,3.627
			c-0.526,0.264-0.801,0.846-0.668,1.416c0.136,0.579,0.64,0.983,1.225,0.983l0.484-0.097c6.574-2.676,13.479-3.4,21.323-2.211
			c-8.441,0.894-16.373,4.944-22.568,11.578c-0.352,0.374-0.444,0.894-0.242,1.358c0.202,0.469,0.66,0.771,1.165,0.771l0.308-0.036
			c-1.052,0.945-2.063,1.957-3.044,3.034c-0.339,0.377-0.425,0.897-0.222,1.356c0.206,0.462,0.661,0.759,1.16,0.759l0.577-0.07
			l0.298-0.288c6.703-6.488,14.814-10.365,24.111-11.528c-0.245,0.107-0.492,0.215-0.737,0.327
			c-9.021,1.486-16.132,5.123-21.738,11.122c-0.347,0.375-0.439,0.894-0.237,1.357c0.204,0.466,0.66,0.768,1.163,0.768l0.562-0.068
			l0.294-0.271c1.794-1.663,3.709-3.123,5.783-4.395c-16.828,13.05-26.887,33.238-26.887,55.128c0,1.528-0.288,5.651-0.568,9.637
			c-0.297,4.204-0.602,8.55-0.602,10.279l-1.269,84.268l-5.165,12.027c-7.785,14.906-12.646,31.481-15.37,42.826
			c-1.93,8.054-2.922,14.027-3.232,16.033c-1.493,0.348-2.561,1.034-3.183,2.045c-1.296,2.108-0.333,4.991,0.517,7.534l0.238,0.73
			c0.072,0.216,0.153,0.435,0.234,0.657c0.182,0.503,0.356,0.979,0.418,1.421c0.113,0.797-0.131,1.414-0.536,2.437l-0.349,0.876
			c-0.369,0.889-0.992,2.375-1.601,5.621l0.008,0.002c-0.445,1.7-1.111,8.416,0.392,11.564c1.138,2.375,2.881,3.089,5.045,3.78
			c0.965,0.306,2.982,0.022,4.756-0.257c0.792-0.125,1.606-0.251,2.167-0.273c0.528,0.617,1.006,1.252,1.47,1.872
			c1.993,2.655,4.021,5.402,8.985,4.697c5.235-0.765,8.219-4.361,8.133-9.7c3.142-0.416,6.036-2.266,7.411-4.813
			c1.203-2.229,1.098-4.696-0.29-6.949c-1.798-2.91-4.065-3.604-6.258-4.276c-1.046-0.321-2.126-0.65-3.349-1.322
			c-1.549-0.851-3.1-1.702-4.623-2.599c-0.151-0.089-0.268-0.162-0.356-0.217c0.125-0.265,0.273-0.62,0.371-1.105
			c0.46-2.293,0.554-4.487,0.651-6.807l0.021-0.426l-0.021-0.537l-0.304-0.316c-0.214-0.224-0.48-0.335-0.761-0.391l4.314-20.29
			l0.192-0.362c0.621,19.95,14.599,36.583,37.427,45.201l-4.694,8.403c-2.922,0.46-17.056,2.999-20.519,9.342
			c-0.932,1.709-1.05,3.535-0.354,5.438l-0.987,0.988l0.802,3.996l0.76,0.068c0.076,0.007,7.479,0.664,15.601,0.664
			c8.519,0,14.72-0.699,18.281-2.037l7.982-1.642v0.83l0.998,0.024c0,0,0.467,0.009,1.235,0.009c5.068,0,11.534-0.376,13.55-2.166
			l0.91-1.65l-0.341-3.722l-1.039-0.78l-0.012-3.924l0.305-1.816l-1.274-6.006c1.109,0.034,2.221,0.052,3.325,0.052
			c0.369,0,0.736-0.016,1.108-0.02c-0.901,3.002-2.781,10.086-1.3,12.671l-0.406,5.73l0.906,0.162
			c0.207,0.038,5.117,0.911,7.714,0.911c0.508,0,0.904-0.032,1.217-0.098l0.32-0.07l0.86-0.946c2.626,1.216,12.158,5.16,25.397,5.16
			h0.002c5.191,0,10.385-0.623,15.427-1.851l0.752-0.183l0.182-4.891l-1.038-0.949c0.278-0.735,0.545-1.963,0.473-3.918
			c0.104-0.398,0.173-1.136-0.271-2.093c-1.449-3.136-7.076-6.028-16.544-8.532l-9.443-4.469
			c24.649-6.865,42.513-23.545,45.72-44.109l4.321,18.562l0.02,0.428c0.096,2.217,0.192,4.512,0.652,6.809
			c0.091,0.45,0.226,0.789,0.373,1.101c-0.089,0.058-0.205,0.129-0.355,0.217c-1.437,0.844-2.896,1.65-4.355,2.45l-0.431,0.239
			c-1.063,0.583-2.146,0.914-3.188,1.236c-2.192,0.672-4.459,1.368-6.258,4.273c-1.389,2.252-1.492,4.719-0.289,6.949
			c1.372,2.548,4.268,4.398,7.41,4.814c-0.086,5.337,2.897,8.933,8.134,9.701c4.958,0.719,6.989-2.041,8.983-4.693
			c0.466-0.623,0.945-1.26,1.48-1.883c0.472,0.017,1.331,0.151,2.161,0.28c1.771,0.28,3.792,0.559,4.751,0.256
			c2.163-0.689,3.909-1.404,5.045-3.778C1931.656,101.516,1930.99,94.797,1930.545,93.095z M1806.88-171.718
			c1.988,0,4.126,0.13,6.654,0.409c-0.42,0.106-0.838,0.215-1.255,0.329c-3.99-0.223-7.941-0.155-11.374,0.338
			c-6.641,0.947-12.599,3.363-17.8,7.207c6.401-5.193,13.637-7.897,22.022-8.247C1805.713-171.709,1806.297-171.718,1806.88-171.718
			z M1859.409-170.981c-3.529-0.506-7.202-0.6-12.142-0.292c-0.354-0.09-0.717-0.162-1.072-0.246
			c3.064-0.352,5.603-0.523,8.128-0.523c0.003,0,0.006,0,0.006,0c8.533,0.032,16.257,2.872,23.019,8.409
			C1872.112-167.542,1866.115-170.024,1859.409-170.981z M1856.233-181.148c-6.219,1.386-11.95,4.177-17.492,6.878l-0.979,0.475
			c4.277-2.391,8.691-4.814,13.345-6.55c7.943-2.967,16.368-3.008,24.634-0.213C1869.413-182.387,1862.817-182.615,1856.233-181.148
			z M1808.363-180.178c4.637,1.73,9.037,4.144,13.299,6.526l-0.953-0.459c-5.536-2.696-11.262-5.485-17.472-6.871
			c-6.582-1.467-13.172-1.239-19.5,0.587C1792.004-183.187,1800.427-183.143,1808.363-180.178z"/>
	</g>
	<g>
		<polygon fill="#434A54" points="37,236 37,554 69,554 69,339 926,339 926,554 959,554 959,236 		"/>
		<rect x="69" y="261" fill="#A9B2BC" width="857" height="57"/>
		<polyline opacity="0.2" fill="#FFFFFF" points="412,339 926,339 926,554 959,554 959,236 412,236 		"/>
	</g>
	<g>
		<path fill="#646D78" d="M79.514,223.745l0.001,3.222c0.006,3.706,2.978,6.704,6.64,6.701l347.121-0.46
			c3.662-0.004,6.625-3.011,6.621-6.719l-0.003-3.221L79.514,223.745z"/>
		<path fill="#434A54" d="M407.708,215.781l-0.246-184.673c-0.004-3.768-3.061-6.82-6.833-6.814l-282.38,0.373
			c-3.766,0.004-6.819,3.063-6.814,6.836l0.243,184.671L407.708,215.781z"/>
		<path fill="#A9B2BC" d="M74.126,216.003l0.005,4.024c0.005,4.628,3.064,8.379,6.834,8.375l357.486-0.473
			c3.769-0.003,6.821-3.764,6.813-8.394l-0.005-4.019L74.126,216.003z"/>
		<path fill="#CDD0DA" d="M229.312,215.8c0.321,3.003,2.837,5.354,5.932,5.351l48.916-0.064c3.09-0.006,5.601-2.362,5.912-5.368
			L229.312,215.8z"/>
		
			<rect x="123.094" y="37.507" transform="matrix(1 -0.0013 0.0013 1 -0.1583 0.3423)" fill="#CDD0DA" width="272.947" height="165.445"/>
		<polygon fill="#A9B2BC" points="396.149,202.772 123.203,203.132 122.985,37.687 		"/>
		<g>
			<circle fill="#A9B2BC" cx="259.57" cy="30.615" r="3.96"/>
			<circle fill="#434A54" cx="259.596" cy="30.641" r="2.337"/>
			<path fill="#A9B2BC" d="M257.26,30.878c0-1.161,0.939-2.104,2.098-2.105c1.163,0,2.106,0.939,2.108,2.101
				c0.002,1.161-0.938,2.105-2.101,2.105C258.206,32.979,257.261,32.042,257.26,30.878z"/>
			<circle fill="#E4E4E4" cx="260.191" cy="30.045" r="0.704"/>
		</g>
	</g>
	<path fill="#434A54" d="M367.409,345.564l0.007-0.003c-0.561-2.99-1.133-4.356-1.475-5.172l-0.319-0.802
		c-0.371-0.941-0.596-1.509-0.49-2.244c0.057-0.406,0.214-0.84,0.381-1.3c0.074-0.207,0.149-0.413,0.215-0.614l0.228-0.688
		c0.784-2.344,1.669-5.002,0.463-6.938c-0.582-0.929-1.574-1.558-2.962-1.874c-0.593-4.192-1.359-8.471-2.267-12.615l-0.039-0.214
		c-2.487-11.429-6.071-22.442-10.683-32.807c-3.74-8.379-7.139-14.048-8.796-16.612l-0.154-0.293l-1.176-88.256
		c0-1.62-0.314-5.775-0.622-9.792c-0.287-3.812-0.586-7.753-0.586-9.167c0-14.332-5.396-27.883-15.616-39.232
		c1.049-1.871,1.988-3.455,2.927-4.944c0.227-0.362,0.244-0.8,0.038-1.167c-0.396-0.713-1.55-0.785-2.016-0.083
		c-0.932,1.413-1.847,2.835-2.744,4.27c-0.981-1.006-2.006-1.996-3.064-2.958c1.015-1.555,2.005-3.124,2.963-4.706
		c0.223-0.362,0.235-0.796,0.031-1.164c-0.404-0.725-1.574-0.764-2.018-0.066c-0.962,1.505-1.979,2.958-2.899,4.244
		c-1.542-1.306-3.119-2.538-4.707-3.672c0.74-1.714,1.506-3.598,2.338-5.734l0.167-0.644l-0.282-0.407
		c-0.479-0.703-1.734-0.579-2.071,0.23c-0.759,1.827-1.582,3.607-2.288,5.095c-0.622-0.412-1.258-0.8-1.891-1.193
		c0.902-2.791,1.813-5.384,2.786-7.896l0.166-0.643l-0.282-0.41c-0.479-0.699-1.736-0.579-2.075,0.236
		c-1.015,2.5-1.958,4.964-2.835,7.367c-0.604-0.347-1.203-0.702-1.811-1.033c0.872-1.567,1.734-3.136,2.555-4.726
		c0.193-0.368,0.182-0.796-0.032-1.147c-0.437-0.725-1.616-0.713-2.018,0.027c-0.903,1.646-1.873,3.251-2.753,4.668
		c-0.522-0.26-1.048-0.515-1.576-0.765c0.652-2.017,1.286-3.831,1.934-5.518l0.164-0.644l-0.28-0.411
		c-0.482-0.701-1.748-0.561-2.071,0.239c-0.757,1.846-1.439,3.585-2.074,5.288c-0.537-0.234-1.08-0.462-1.625-0.687
		c0.405-1.206,0.803-2.417,1.184-3.632l0.118-0.639l-0.283-0.384c-0.513-0.705-1.777-0.521-2.066,0.321
		c-0.39,1.157-0.809,2.303-1.243,3.441c-1.328-0.497-2.673-0.949-4.029-1.381c0.205-1.485,0.456-3.039,0.786-4.758
		c0.067-0.347-0.023-0.703-0.246-0.971c-0.567-0.689-1.839-0.415-2.039,0.472c-0.325,1.504-0.623,3.015-0.91,4.527
		c-1.387-0.397-2.779-0.761-4.186-1.084c0.094-2.187,0.235-3.812,0.458-5.939c0.037-0.329-0.064-0.643-0.28-0.882l-0.436-0.375
		h-0.419c-0.602,0-1.113,0.446-1.19,1.039l-0.14,1.087c-0.2,1.55-0.38,2.97-0.535,4.531c-0.26-0.053-0.514-0.116-0.772-0.165
		c-0.035-1.242-0.092-2.237-0.161-3.495l-0.058-1.003c-0.034-0.632-0.542-1.109-1.179-1.109c-0.317,0-0.624,0.128-0.84,0.353
		l-0.33,0.441l0.014,0.397c0.043,1.412,0.047,2.656,0.029,3.973c-0.839-0.133-1.683-0.25-2.531-0.357
		c-0.273-1.789-0.505-3.732-0.705-5.925c-0.053-0.614-0.562-1.076-1.183-1.076c-0.322,0-0.631,0.13-0.846,0.36l-0.332,0.454
		l0.029,0.411c0.118,1.699,0.26,3.529,0.457,5.485c-0.461-0.046-0.909-0.062-1.367-0.101c-0.194-0.885-0.393-1.771-0.599-2.646
		c-0.199-0.875-1.482-1.146-2.045-0.451c-0.221,0.276-0.307,0.636-0.23,0.976c0.136,0.643,0.252,1.289,0.375,1.934
		c-1.21-0.07-2.415-0.102-3.61-0.123c-0.021-0.158-0.048-0.325-0.064-0.478c-0.259-2.677-0.421-5.161-0.495-7.593
		c-0.019-0.638-0.533-1.137-1.174-1.137c-0.313,0-0.618,0.124-0.833,0.343l-0.336,0.434l0.003,0.396
		c0.032,2.668,0.116,5.259,0.255,7.7c0.004,0.099,0.008,0.212,0.011,0.319c-0.675,0.011-1.35,0.041-2.025,0.067
		c0-1.757-0.028-3.621-0.102-5.819c-0.024-0.632-0.541-1.127-1.176-1.127c-0.312,0-0.613,0.125-0.83,0.342l-0.337,0.435l0.005,0.394
		c0.017,2.028-0.055,4.066-0.132,5.796c0,0.033-0.006,0.068-0.007,0.098c-1.299,0.086-2.596,0.188-3.909,0.331
		c-0.293-1.887-0.536-3.899-0.736-6.114c-0.059-0.611-0.566-1.068-1.185-1.068c-0.325,0-0.633,0.13-0.848,0.362l-0.328,0.452
		l0.027,0.408c0.146,2.135,0.328,4.237,0.542,6.265c-0.655,0.092-1.308,0.189-1.957,0.293c-0.012-1.458-0.047-2.917-0.094-4.374
		c-0.025-0.632-0.541-1.126-1.177-1.126c-0.312,0-0.612,0.123-0.829,0.343l-0.336,0.435l0.004,0.394
		c0.015,1.656-0.033,3.314-0.089,4.791c-0.781,0.148-1.563,0.328-2.343,0.5c-0.072-0.179-0.158-0.374-0.216-0.542
		c-0.717-2.099-1.309-4.006-1.81-5.828c-0.235-0.862-1.51-1.1-2.053-0.397c-0.22,0.282-0.294,0.646-0.207,0.993
		c0.499,2.006,1.025,4.003,1.598,5.989c0.037,0.122,0.071,0.269,0.107,0.404c-0.634,0.162-1.272,0.315-1.902,0.491
		c-0.278-1.503-0.571-3.006-0.891-4.502c-0.188-0.88-1.461-1.166-2.037-0.478c-0.223,0.27-0.313,0.621-0.248,0.97
		c0.268,1.428,0.52,2.977,0.767,4.715c-0.861,0.27-1.712,0.561-2.561,0.854c-0.456-2.11-0.934-4.213-1.458-6.308
		c-0.227-0.874-1.492-1.12-2.048-0.426c-0.22,0.277-0.301,0.636-0.222,0.989c0.476,2.113,0.848,4.22,1.149,6.001
		c0.032,0.201,0.052,0.44,0.076,0.662c-0.374,0.143-0.758,0.278-1.129,0.426c-0.261-1.14-0.535-2.278-0.816-3.413
		c-0.223-0.877-1.497-1.121-2.05-0.427c-0.221,0.28-0.3,0.64-0.221,0.984c0.288,1.274,0.539,2.552,0.771,3.833
		c-0.548,0.241-1.092,0.503-1.636,0.757c-0.054-0.126-0.118-0.266-0.163-0.384c-0.796-2.001-1.686-4.09-2.802-6.574
		c-0.352-0.782-1.546-0.854-2.013-0.136c-0.22,0.332-0.259,0.75-0.105,1.117c0.959,2.272,1.787,4.534,2.469,6.446
		c0.075,0.212,0.142,0.464,0.21,0.695c-0.509,0.257-1.022,0.507-1.524,0.776c-0.664-1.615-1.277-2.993-2.028-4.666
		c-0.352-0.783-1.532-0.848-2.009-0.137c-0.223,0.33-0.263,0.75-0.109,1.124c0.758,1.788,1.332,3.295,1.917,4.909
		c-0.65,0.375-1.288,0.78-1.929,1.174c-0.065-0.154-0.139-0.317-0.198-0.466c-0.896-2.278-1.949-4.76-3.303-7.807
		c-0.35-0.783-1.545-0.851-2.016-0.141c-0.22,0.333-0.259,0.75-0.104,1.123c1.026,2.413,2.043,5.03,3.292,8.484
		c0.03,0.079,0.055,0.165,0.083,0.245c-0.658,0.439-1.32,0.87-1.961,1.325c-0.614-1.613-1.245-3.221-1.906-4.818
		c-0.332-0.803-1.588-0.932-2.069-0.233l-0.294,0.591l0.177,0.46c0.734,1.903,1.37,3.8,1.95,5.58
		c-0.533,0.406-1.058,0.816-1.576,1.236c-0.391-0.903-0.788-1.801-1.19-2.693c-0.352-0.789-1.537-0.859-2.012-0.144
		c-0.223,0.331-0.262,0.748-0.109,1.121c0.471,1.114,0.914,2.236,1.341,3.364c-0.488,0.429-0.969,0.864-1.443,1.303
		c-0.742-1.402-1.467-2.859-2.163-4.344c-0.364-0.769-1.552-0.825-2.019-0.112c-0.218,0.335-0.251,0.756-0.086,1.122
		c0.764,1.728,1.557,3.449,2.377,5.153c-0.844,0.834-1.606,1.622-2.306,2.383c-0.796-1.172-1.61-2.334-2.432-3.489
		c-0.481-0.676-1.63-0.584-2.009,0.13c-0.196,0.371-0.169,0.821,0.071,1.177c0.848,1.25,1.699,2.577,2.654,4.136
		c-9.301,11.014-14.21,24.005-14.21,37.645c0,1.413-0.317,5.229-0.624,8.922c-0.325,3.9-0.66,7.928-0.66,9.532l-1.51,84.656
		l-3.991,8.964c-4.708,8.997-8.789,19.625-12.142,31.629c-2.486,8.898-3.927,16.262-4.61,20.186l-0.068-0.129l-0.334,2.525
		c-1.37,0.321-2.352,0.952-2.921,1.879c-1.19,1.938-0.307,4.585,0.47,6.923l0.226,0.681c0.065,0.198,0.139,0.401,0.212,0.604
		c0.168,0.463,0.33,0.9,0.386,1.307c0.104,0.734-0.121,1.302-0.491,2.244l-0.323,0.811c-0.343,0.813-0.912,2.184-1.473,5.167
		l0.008,0.002c-0.409,1.563-1.02,7.74,0.36,10.637c1.045,2.181,2.652,2.842,4.64,3.479c0.888,0.283,2.739,0.022,4.372-0.238
		c0.728-0.113,1.479-0.23,1.993-0.251c0.489,0.568,0.93,1.155,1.358,1.724c1.835,2.441,3.704,4.978,8.266,4.318
		c4.816-0.703,7.559-4.008,7.48-8.923c2.892-0.383,5.556-2.084,6.817-4.429c1.107-2.051,1.013-4.32-0.265-6.391
		c-1.655-2.676-3.74-3.316-5.754-3.934c-0.962-0.295-1.958-0.6-2.937-1.137c-1.473-0.807-2.95-1.619-4.398-2.47
		c-0.141-0.082-0.248-0.148-0.329-0.2c0.116-0.244,0.25-0.571,0.341-1.019c0.423-2.111,0.51-4.127,0.6-6.264l0.019-0.39
		l-0.019-0.495l-0.281-0.291c-0.194-0.206-0.441-0.309-0.7-0.358l3.26-15.337l1.103-1.448c3.75,16.332,19.923,29.864,43.868,36.601
		l-3.646,6.527c-2.685,0.424-15.688,2.757-18.873,8.592c-0.859,1.572-0.966,3.25-0.327,5.001l-0.91,0.911l0.736,3.677l0.701,0.061
		c0.068,0.006,6.882,0.612,14.356,0.612c7.833,0,13.537-0.642,16.812-1.872l7.342-1.512v0.762l0.919,0.021
		c0,0,0.431,0.009,1.136,0.009c4.666,0,10.616-0.345,12.468-1.993l0.835-1.518l-0.313-3.422l-0.955-0.72l-0.012-3.609l0.278-1.671
		l-1.149-5.429c1.37,0.048,2.699,0.077,4.013,0.084c-0.846,2.841-2.488,9.173-1.148,11.505l-0.374,5.272l0.833,0.149
		c0.191,0.035,4.707,0.839,7.097,0.839c0.466,0,0.833-0.03,1.118-0.091l0.295-0.065l0.79-0.869
		c2.416,1.12,11.188,4.747,23.364,4.747c4.778,0,9.556-0.572,14.198-1.702l0.69-0.167l0.166-4.5l-0.957-0.873
		c0.257-0.676,0.501-1.806,0.435-3.603c0.096-0.368,0.158-1.046-0.247-1.927c-1.336-2.884-6.508-5.544-15.22-7.847l-6.649-3.146
		c27.593-5.422,47.909-19.989,53.228-38.048l2.398,6.975l1.715,13.657l0.017,0.393c0.086,2.041,0.177,4.15,0.6,6.262
		c0.084,0.415,0.206,0.727,0.34,1.015c-0.081,0.054-0.189,0.12-0.326,0.203c-1.343,0.789-2.71,1.542-4.077,2.29l-0.325,0.18
		c-0.981,0.537-1.976,0.843-2.936,1.138c-2.017,0.619-4.1,1.259-5.754,3.932c-1.277,2.07-1.373,4.341-0.267,6.393
		c1.264,2.344,3.927,4.045,6.817,4.428c-0.079,4.91,2.666,8.216,7.481,8.924c4.558,0.653,6.432-1.874,8.266-4.317
		c0.428-0.573,0.869-1.161,1.361-1.732c0.434,0.015,1.226,0.138,1.991,0.257c1.63,0.257,3.486,0.513,4.368,0.235
		c1.99-0.634,3.596-1.293,4.641-3.475C368.433,353.308,367.819,347.128,367.409,345.564z"/>
	<g>
		<line fill="#434A54" x1="138.771" y1="402.03" x2="138.436" y2="402.03"/>
		<path fill="#434A54" d="M264.022,439.66l-18.934-15.897h-56.047l46.627,39.683l-79.708,66.901
			c-3.612,3.072-5.812,7.363-6.196,12.094c-0.379,4.731,1.098,9.313,4.167,12.928l1.28,1.509c3.379,3.967,8.306,6.248,13.524,6.248
			c4.204,0,8.293-1.506,11.5-4.236l83.773-71.298l83.771,71.298c3.212,2.73,7.296,4.236,11.506,4.236
			c5.209,0,10.151-2.281,13.518-6.262l1.276-1.495c3.074-3.614,4.565-8.196,4.174-12.928c-0.381-4.731-2.576-9.022-6.221-12.119
			l-79.674-66.875l46.626-39.683h-56.041L264.022,439.66z"/>
		<path fill="#A9B2BC" d="M388.556,402.403v-19.044l-12.602-9.533c-4.479-3.453-12.113-6.029-17.743-6.029H168.867
			c-5.641,0-13.261,2.593-17.753,6.029l-12.343,9.484v18.72L388.556,402.403z"/>
		<path fill="#434A54" d="M388.348,402.014l-249.577,0.016l0,0h-1.18v7.845c0,6.796,3.055,11.964,7.53,13.387
			c0.801,0.25,1.629,0.425,2.505,0.425h41.325l0.091,0.076h56.047l-0.103-0.083h38.061l-0.102,0.083h56.041l0.089-0.076h40.376
			c0.878,0,1.703-0.175,2.501-0.425c4.467-1.422,7.521-6.591,7.521-13.387v-7.845L388.348,402.014z"/>
	</g>
	<g>
		<path fill="#646D78" d="M504.819,223.745l0,3.222c0.007,3.706,2.979,6.704,6.641,6.701l347.121-0.46
			c3.662-0.004,6.625-3.011,6.621-6.719l-0.004-3.221L504.819,223.745z"/>
		<path fill="#434A54" d="M833.013,215.781l-0.246-184.673c-0.005-3.768-3.061-6.82-6.833-6.814l-282.38,0.373
			c-3.766,0.004-6.819,3.063-6.815,6.836l0.243,184.671L833.013,215.781z"/>
		<path fill="#A9B2BC" d="M499.432,216.003l0.005,4.024c0.005,4.628,3.064,8.379,6.834,8.375l357.486-0.473
			c3.769-0.003,6.821-3.764,6.813-8.394l-0.005-4.019L499.432,216.003z"/>
		<path fill="#CDD0DA" d="M654.616,215.8c0.322,3.003,2.837,5.354,5.933,5.351l48.916-0.064c3.091-0.006,5.601-2.362,5.912-5.368
			L654.616,215.8z"/>
		
			<rect x="548.399" y="37.507" transform="matrix(1 -0.0013 0.0013 1 -0.1579 0.9031)" fill="#CDD0DA" width="272.947" height="165.445"/>
		<polygon fill="#A9B2BC" points="821.454,202.772 548.507,203.132 548.29,37.687 		"/>
		<g>
			<circle fill="#A9B2BC" cx="684.875" cy="30.615" r="3.96"/>
			<circle fill="#434A54" cx="684.901" cy="30.641" r="2.337"/>
			<path fill="#A9B2BC" d="M682.565,30.878c0-1.161,0.938-2.104,2.098-2.105c1.164,0,2.106,0.939,2.108,2.101
				c0.002,1.161-0.938,2.105-2.101,2.105C683.511,32.979,682.566,32.042,682.565,30.878z"/>
			<circle fill="#E4E4E4" cx="685.496" cy="30.045" r="0.703"/>
		</g>
	</g>
	<g>
		<line fill="#434A54" x1="564.076" y1="402.03" x2="563.741" y2="402.03"/>
		<path fill="#434A54" d="M689.328,439.66l-18.935-15.897h-56.046l46.627,39.683l-79.708,66.901
			c-3.612,3.072-5.812,7.363-6.196,12.094c-0.379,4.731,1.098,9.313,4.167,12.928l1.28,1.509c3.379,3.967,8.305,6.248,13.524,6.248
			c4.204,0,8.293-1.506,11.5-4.236l83.774-71.298l83.77,71.298c3.212,2.73,7.297,4.236,11.507,4.236
			c5.208,0,10.15-2.281,13.518-6.262l1.275-1.495c3.074-3.614,4.565-8.196,4.174-12.928c-0.38-4.731-2.575-9.022-6.22-12.119
			l-79.674-66.875l46.626-39.683H708.25L689.328,439.66z"/>
		<path fill="#A9B2BC" d="M813.861,402.403v-19.044l-12.602-9.533c-4.479-3.453-12.113-6.029-17.742-6.029H594.173
			c-5.641,0-13.261,2.593-17.754,6.029l-12.342,9.484v18.72L813.861,402.403z"/>
		<path fill="#434A54" d="M813.653,402.014l-249.577,0.016l0,0h-1.181v7.845c0,6.796,3.056,11.964,7.531,13.387
			c0.801,0.25,1.63,0.425,2.506,0.425h41.324l0.091,0.076h56.046l-0.103-0.083h38.062l-0.102,0.083h56.041l0.088-0.076h40.377
			c0.877,0,1.702-0.175,2.5-0.425c4.468-1.422,7.522-6.591,7.522-13.387v-7.845L813.653,402.014z"/>
	</g>
	<g>
		<polygon fill="#434A54" points="959,236 959,554 990,554 990,339 1847,339 1847,554 1879,554 1879,236 		"/>
		<rect x="990" y="261" fill="#A9B2BC" width="857" height="57"/>
		<polyline opacity="0.2" fill="#FFFFFF" points="1334,339 1847,339 1847,554 1879,554 1879,236 1334,236 		"/>
	</g>
	<g>
		<path fill="#646D78" d="M1000.862,223.745l0.001,3.222c0.007,3.706,2.978,6.704,6.641,6.701l347.121-0.46
			c3.661-0.004,6.626-3.011,6.621-6.719l-0.005-3.221L1000.862,223.745z"/>
		<path fill="#434A54" d="M1329.057,215.781l-0.246-184.673c-0.004-3.768-3.061-6.82-6.833-6.814l-282.38,0.373
			c-3.767,0.004-6.82,3.063-6.815,6.836l0.243,184.671L1329.057,215.781z"/>
		<path fill="#A9B2BC" d="M995.475,216.003l0.006,4.024c0.005,4.628,3.064,8.379,6.834,8.375l357.484-0.473
			c3.771-0.003,6.822-3.764,6.815-8.394l-0.006-4.019L995.475,216.003z"/>
		<path fill="#CDD0DA" d="M1150.66,215.8c0.322,3.003,2.837,5.354,5.934,5.351l48.915-0.064c3.091-0.006,5.601-2.362,5.911-5.368
			L1150.66,215.8z"/>
		
			<rect x="1044.443" y="37.507" transform="matrix(1 -0.0013 0.0013 1 -0.1575 1.5571)" fill="#CDD0DA" width="272.946" height="165.445"/>
		<polygon fill="#A9B2BC" points="1317.497,202.772 1044.552,203.132 1044.334,37.687 		"/>
		<g>
			<circle fill="#A9B2BC" cx="1180.919" cy="30.615" r="3.96"/>
			<circle fill="#434A54" cx="1180.945" cy="30.641" r="2.337"/>
			<circle fill="#A9B2BC" cx="1180.712" cy="30.876" r="2.103"/>
			<circle fill="#E4E4E4" cx="1181.54" cy="30.045" r="0.704"/>
		</g>
	</g>
	<path fill="#434A54" d="M1289.006,345.564l0.006-0.003c-0.562-2.99-1.132-4.356-1.475-5.172l-0.318-0.802
		c-0.372-0.941-0.598-1.509-0.49-2.244c0.056-0.406,0.213-0.84,0.38-1.3c0.073-0.207,0.149-0.413,0.215-0.614l0.229-0.688
		c0.784-2.344,1.667-5.002,0.462-6.938c-0.58-0.929-1.573-1.558-2.962-1.874c-0.59-4.192-1.358-8.471-2.267-12.615l-0.039-0.214
		c-2.488-11.429-6.072-22.442-10.683-32.807c-3.74-8.379-7.14-14.048-8.795-16.612l-0.154-0.293l-1.176-88.256
		c0-1.62-0.314-5.775-0.621-9.792c-0.289-3.812-0.587-7.753-0.587-9.167c0-14.332-5.396-27.883-15.616-39.232
		c1.05-1.871,1.988-3.455,2.928-4.944c0.228-0.362,0.243-0.8,0.037-1.167c-0.396-0.713-1.548-0.785-2.016-0.083
		c-0.932,1.413-1.847,2.835-2.744,4.27c-0.981-1.006-2.006-1.996-3.064-2.958c1.015-1.555,2.005-3.124,2.963-4.706
		c0.224-0.362,0.235-0.796,0.031-1.164c-0.403-0.725-1.573-0.764-2.018-0.066c-0.962,1.505-1.979,2.958-2.899,4.244
		c-1.542-1.306-3.119-2.538-4.707-3.672c0.74-1.714,1.507-3.598,2.338-5.734l0.169-0.644l-0.283-0.407
		c-0.479-0.703-1.734-0.579-2.071,0.23c-0.759,1.827-1.581,3.607-2.288,5.095c-0.621-0.412-1.257-0.8-1.891-1.193
		c0.902-2.791,1.812-5.384,2.786-7.896l0.165-0.643l-0.281-0.41c-0.479-0.699-1.736-0.579-2.075,0.236
		c-1.016,2.5-1.959,4.964-2.836,7.367c-0.603-0.347-1.201-0.702-1.811-1.033c0.872-1.567,1.734-3.136,2.556-4.726
		c0.192-0.368,0.181-0.796-0.031-1.147c-0.437-0.725-1.616-0.713-2.021,0.027c-0.902,1.646-1.871,3.251-2.752,4.668
		c-0.521-0.26-1.049-0.515-1.576-0.765c0.652-2.017,1.286-3.831,1.935-5.518l0.164-0.644l-0.28-0.411
		c-0.482-0.701-1.748-0.561-2.072,0.239c-0.756,1.846-1.438,3.585-2.073,5.288c-0.537-0.234-1.079-0.462-1.625-0.687
		c0.405-1.206,0.803-2.417,1.184-3.632l0.118-0.639l-0.284-0.384c-0.513-0.705-1.776-0.521-2.065,0.321
		c-0.389,1.157-0.809,2.303-1.243,3.441c-1.327-0.497-2.674-0.949-4.027-1.381c0.203-1.485,0.455-3.039,0.785-4.758
		c0.066-0.347-0.024-0.703-0.246-0.971c-0.568-0.689-1.84-0.415-2.04,0.472c-0.324,1.504-0.622,3.015-0.908,4.527
		c-1.387-0.397-2.78-0.761-4.187-1.084c0.094-2.187,0.235-3.812,0.458-5.939c0.037-0.329-0.064-0.643-0.279-0.882l-0.437-0.375
		h-0.419c-0.604,0-1.113,0.446-1.189,1.039l-0.141,1.087c-0.2,1.55-0.381,2.97-0.534,4.531c-0.261-0.053-0.517-0.116-0.773-0.165
		c-0.034-1.242-0.092-2.237-0.162-3.495l-0.058-1.003c-0.034-0.632-0.543-1.109-1.179-1.109c-0.316,0-0.624,0.128-0.84,0.353
		l-0.329,0.441l0.013,0.397c0.044,1.412,0.047,2.656,0.029,3.973c-0.839-0.133-1.683-0.25-2.531-0.357
		c-0.274-1.789-0.506-3.732-0.705-5.925c-0.052-0.614-0.562-1.076-1.182-1.076c-0.323,0-0.632,0.13-0.847,0.36l-0.33,0.454
		l0.027,0.411c0.117,1.699,0.26,3.529,0.457,5.485c-0.462-0.046-0.91-0.062-1.367-0.101c-0.193-0.885-0.393-1.771-0.598-2.646
		c-0.199-0.875-1.482-1.146-2.047-0.451c-0.222,0.276-0.306,0.636-0.229,0.976c0.136,0.643,0.253,1.289,0.375,1.934
		c-1.211-0.07-2.415-0.102-3.61-0.123c-0.022-0.158-0.049-0.325-0.063-0.478c-0.26-2.677-0.422-5.161-0.495-7.593
		c-0.019-0.638-0.532-1.137-1.174-1.137c-0.313,0-0.618,0.124-0.832,0.343l-0.337,0.434l0.003,0.396
		c0.032,2.668,0.116,5.259,0.255,7.7c0.004,0.099,0.008,0.212,0.011,0.319c-0.675,0.011-1.349,0.041-2.024,0.067
		c0-1.757-0.029-3.621-0.103-5.819c-0.024-0.632-0.541-1.127-1.176-1.127c-0.312,0-0.612,0.125-0.83,0.342l-0.337,0.435l0.006,0.394
		c0.017,2.028-0.056,4.066-0.132,5.796c0,0.033-0.007,0.068-0.009,0.098c-1.298,0.086-2.596,0.188-3.908,0.331
		c-0.294-1.887-0.534-3.899-0.735-6.114c-0.06-0.611-0.565-1.068-1.185-1.068c-0.323,0-0.634,0.13-0.85,0.362l-0.326,0.452
		l0.027,0.408c0.146,2.135,0.326,4.237,0.542,6.265c-0.654,0.092-1.309,0.189-1.957,0.293c-0.012-1.458-0.048-2.917-0.095-4.374
		c-0.024-0.632-0.541-1.126-1.178-1.126c-0.312,0-0.611,0.123-0.828,0.343l-0.336,0.435l0.003,0.394
		c0.015,1.656-0.032,3.314-0.088,4.791c-0.781,0.148-1.564,0.328-2.343,0.5c-0.073-0.179-0.159-0.374-0.216-0.542
		c-0.718-2.099-1.31-4.006-1.811-5.828c-0.235-0.862-1.51-1.1-2.053-0.397c-0.22,0.282-0.294,0.646-0.206,0.993
		c0.498,2.006,1.024,4.003,1.598,5.989c0.036,0.122,0.071,0.269,0.107,0.404c-0.635,0.162-1.272,0.315-1.903,0.491
		c-0.275-1.503-0.57-3.006-0.89-4.502c-0.188-0.88-1.46-1.166-2.036-0.478c-0.223,0.27-0.313,0.621-0.249,0.97
		c0.269,1.428,0.521,2.977,0.768,4.715c-0.861,0.27-1.713,0.561-2.561,0.854c-0.457-2.11-0.935-4.213-1.459-6.308
		c-0.227-0.874-1.49-1.12-2.047-0.426c-0.221,0.277-0.302,0.636-0.223,0.989c0.476,2.113,0.849,4.22,1.15,6.001
		c0.032,0.201,0.052,0.44,0.076,0.662c-0.374,0.143-0.759,0.278-1.132,0.426c-0.26-1.14-0.533-2.278-0.814-3.413
		c-0.223-0.877-1.497-1.121-2.05-0.427c-0.221,0.28-0.301,0.64-0.221,0.984c0.286,1.274,0.539,2.552,0.77,3.833
		c-0.548,0.241-1.092,0.503-1.636,0.757c-0.054-0.126-0.117-0.266-0.163-0.384c-0.796-2.001-1.686-4.09-2.802-6.574
		c-0.353-0.782-1.547-0.854-2.014-0.136c-0.22,0.332-0.259,0.75-0.104,1.117c0.959,2.272,1.785,4.534,2.467,6.446
		c0.076,0.212,0.144,0.464,0.212,0.695c-0.509,0.257-1.022,0.507-1.524,0.776c-0.664-1.615-1.276-2.993-2.027-4.666
		c-0.353-0.783-1.532-0.848-2.01-0.137c-0.223,0.33-0.263,0.75-0.109,1.124c0.757,1.788,1.333,3.295,1.918,4.909
		c-0.651,0.375-1.289,0.78-1.93,1.174c-0.065-0.154-0.139-0.317-0.198-0.466c-0.896-2.278-1.948-4.76-3.303-7.807
		c-0.35-0.783-1.546-0.851-2.018-0.141c-0.219,0.333-0.259,0.75-0.103,1.123c1.026,2.413,2.043,5.03,3.291,8.484
		c0.03,0.079,0.056,0.165,0.084,0.245c-0.658,0.439-1.321,0.87-1.962,1.325c-0.614-1.613-1.244-3.221-1.905-4.818
		c-0.332-0.803-1.589-0.932-2.069-0.233l-0.294,0.591l0.177,0.46c0.733,1.903,1.37,3.8,1.95,5.58
		c-0.532,0.406-1.059,0.816-1.576,1.236c-0.391-0.903-0.788-1.801-1.19-2.693c-0.353-0.789-1.538-0.859-2.011-0.144
		c-0.225,0.331-0.264,0.748-0.11,1.121c0.472,1.114,0.914,2.236,1.341,3.364c-0.487,0.429-0.969,0.864-1.442,1.303
		c-0.742-1.402-1.467-2.859-2.163-4.344c-0.363-0.769-1.552-0.825-2.018-0.112c-0.219,0.335-0.252,0.756-0.087,1.122
		c0.764,1.728,1.558,3.449,2.377,5.153c-0.845,0.834-1.606,1.622-2.306,2.383c-0.797-1.172-1.61-2.334-2.433-3.489
		c-0.481-0.676-1.63-0.584-2.009,0.13c-0.195,0.371-0.169,0.821,0.071,1.177c0.848,1.25,1.699,2.577,2.654,4.136
		c-9.301,11.014-14.21,24.005-14.21,37.645c0,1.413-0.317,5.229-0.624,8.922c-0.325,3.9-0.66,7.928-0.66,9.532l-1.511,84.656
		l-3.991,8.964c-4.707,8.997-8.788,19.625-12.142,31.629c-2.485,8.898-3.927,16.262-4.609,20.186l-0.068-0.129l-0.334,2.525
		c-1.371,0.321-2.353,0.952-2.923,1.879c-1.19,1.938-0.307,4.585,0.472,6.923l0.225,0.681c0.066,0.198,0.14,0.401,0.213,0.604
		c0.168,0.463,0.329,0.9,0.386,1.307c0.104,0.734-0.12,1.302-0.49,2.244l-0.323,0.811c-0.343,0.813-0.912,2.184-1.473,5.167
		l0.008,0.002c-0.409,1.563-1.02,7.74,0.359,10.637c1.045,2.181,2.653,2.842,4.641,3.479c0.887,0.283,2.738,0.022,4.372-0.238
		c0.728-0.113,1.479-0.23,1.993-0.251c0.488,0.568,0.929,1.155,1.357,1.724c1.836,2.441,3.704,4.978,8.266,4.318
		c4.816-0.703,7.561-4.008,7.48-8.923c2.892-0.383,5.557-2.084,6.817-4.429c1.106-2.051,1.012-4.32-0.266-6.391
		c-1.655-2.676-3.739-3.316-5.755-3.934c-0.962-0.295-1.956-0.6-2.936-1.137c-1.473-0.807-2.95-1.619-4.398-2.47
		c-0.141-0.082-0.247-0.148-0.329-0.2c0.116-0.244,0.251-0.571,0.341-1.019c0.423-2.111,0.51-4.127,0.602-6.264l0.018-0.39
		l-0.018-0.495l-0.282-0.291c-0.194-0.206-0.441-0.309-0.699-0.358l3.259-15.337l1.104-1.448
		c3.749,16.332,19.922,29.864,43.867,36.601l-3.646,6.527c-2.686,0.424-15.688,2.757-18.873,8.592
		c-0.858,1.572-0.966,3.25-0.327,5.001l-0.91,0.911l0.736,3.677l0.7,0.061c0.068,0.006,6.883,0.612,14.357,0.612
		c7.833,0,13.537-0.642,16.812-1.872l7.342-1.512v0.762l0.92,0.021c0,0,0.431,0.009,1.136,0.009c4.666,0,10.616-0.345,12.468-1.993
		l0.835-1.518l-0.312-3.422l-0.956-0.72l-0.012-3.609l0.278-1.671l-1.149-5.429c1.37,0.048,2.699,0.077,4.013,0.084
		c-0.846,2.841-2.488,9.173-1.147,11.505l-0.374,5.272l0.833,0.149c0.191,0.035,4.708,0.839,7.098,0.839
		c0.466,0,0.833-0.03,1.118-0.091l0.296-0.065l0.789-0.869c2.415,1.12,11.186,4.747,23.363,4.747c4.777,0,9.557-0.572,14.197-1.702
		l0.69-0.167l0.166-4.5l-0.956-0.873c0.258-0.676,0.501-1.806,0.436-3.603c0.095-0.368,0.157-1.046-0.246-1.927
		c-1.336-2.884-6.51-5.544-15.222-7.847l-6.648-3.146c27.593-5.422,47.908-19.989,53.227-38.048l2.398,6.975l1.715,13.657
		l0.018,0.393c0.087,2.041,0.177,4.15,0.6,6.262c0.085,0.415,0.205,0.727,0.341,1.015c-0.08,0.054-0.189,0.12-0.326,0.203
		c-1.343,0.789-2.709,1.542-4.076,2.29l-0.324,0.18c-0.981,0.537-1.977,0.843-2.938,1.138c-2.016,0.619-4.099,1.259-5.753,3.932
		c-1.278,2.07-1.374,4.341-0.268,6.393c1.266,2.344,3.927,4.045,6.818,4.428c-0.079,4.91,2.665,8.216,7.481,8.924
		c4.558,0.653,6.432-1.874,8.266-4.317c0.428-0.573,0.869-1.161,1.361-1.732c0.434,0.015,1.226,0.138,1.99,0.257
		c1.631,0.257,3.486,0.513,4.368,0.235c1.991-0.634,3.597-1.293,4.641-3.475C1290.029,353.308,1289.414,347.128,1289.006,345.564z"
		/>
	<g>
		<line fill="#434A54" x1="1060.12" y1="402.03" x2="1059.785" y2="402.03"/>
		<path fill="#434A54" d="M1185.371,439.66l-18.935-15.897h-56.046l46.628,39.683l-79.709,66.901
			c-3.612,3.072-5.812,7.363-6.196,12.094c-0.38,4.731,1.098,9.313,4.167,12.928l1.28,1.509c3.379,3.967,8.305,6.248,13.524,6.248
			c4.204,0,8.293-1.506,11.5-4.236l83.773-71.298l83.77,71.298c3.212,2.73,7.298,4.236,11.507,4.236
			c5.21,0,10.15-2.281,13.518-6.262l1.275-1.495c3.074-3.614,4.566-8.196,4.175-12.928c-0.381-4.731-2.576-9.022-6.222-12.119
			l-79.672-66.875l46.624-39.683h-56.039L1185.371,439.66z"/>
		<path fill="#A9B2BC" d="M1309.905,402.403v-19.044l-12.603-9.533c-4.479-3.453-12.114-6.029-17.742-6.029h-189.344
			c-5.641,0-13.262,2.593-17.754,6.029l-12.343,9.484v18.72L1309.905,402.403z"/>
		<path fill="#434A54" d="M1309.696,402.014l-249.576,0.016l0,0h-1.181v7.845c0,6.796,3.055,11.964,7.53,13.387
			c0.801,0.25,1.63,0.425,2.506,0.425h41.323l0.092,0.076h56.046l-0.103-0.083h38.062l-0.103,0.083h56.039l0.089-0.076h40.379
			c0.875,0,1.7-0.175,2.499-0.425c4.467-1.422,7.521-6.591,7.521-13.387v-7.845L1309.696,402.014z"/>
	</g>
	<g>
		<path fill="#646D78" d="M1426.168,223.745v3.222c0.008,3.706,2.979,6.704,6.641,6.701l347.121-0.46
			c3.662-0.004,6.625-3.011,6.62-6.719l-0.003-3.221L1426.168,223.745z"/>
		<path fill="#434A54" d="M1754.361,215.781l-0.245-184.673c-0.004-3.768-3.061-6.82-6.834-6.814l-282.38,0.373
			c-3.767,0.004-6.819,3.063-6.816,6.836l0.244,184.671L1754.361,215.781z"/>
		<path fill="#A9B2BC" d="M1420.78,216.003l0.006,4.024c0.005,4.628,3.064,8.379,6.833,8.375l357.485-0.473
			c3.771-0.003,6.823-3.764,6.814-8.394l-0.005-4.019L1420.78,216.003z"/>
		<path fill="#CDD0DA" d="M1575.966,215.8c0.32,3.003,2.837,5.354,5.933,5.351l48.915-0.064c3.091-0.006,5.602-2.362,5.912-5.368
			L1575.966,215.8z"/>
		
			<rect x="1469.748" y="37.507" transform="matrix(1 -0.0013 0.0013 1 -0.1571 2.1178)" fill="#CDD0DA" width="272.947" height="165.445"/>
		<polygon fill="#A9B2BC" points="1742.803,202.772 1469.856,203.132 1469.641,37.687 		"/>
		<g>
			<circle fill="#A9B2BC" cx="1606.224" cy="30.615" r="3.96"/>
			<circle fill="#434A54" cx="1606.25" cy="30.641" r="2.337"/>
			<path fill="#A9B2BC" d="M1603.913,30.878c0-1.161,0.939-2.104,2.099-2.105c1.163,0,2.106,0.939,2.109,2.101
				c0.001,1.161-0.938,2.105-2.102,2.105C1604.86,32.979,1603.914,32.042,1603.913,30.878z"/>
			<circle fill="#E4E4E4" cx="1606.845" cy="30.045" r="0.704"/>
		</g>
	</g>
	<g>
		<line fill="#434A54" x1="1485.426" y1="402.03" x2="1485.09" y2="402.03"/>
		<path fill="#434A54" d="M1610.676,439.66l-18.934-15.897h-56.047l46.628,39.683l-79.709,66.901
			c-3.612,3.072-5.812,7.363-6.195,12.094c-0.381,4.731,1.098,9.313,4.167,12.928l1.28,1.509c3.379,3.967,8.305,6.248,13.523,6.248
			c4.203,0,8.294-1.506,11.501-4.236l83.773-71.298l83.77,71.298c3.212,2.73,7.296,4.236,11.507,4.236
			c5.209,0,10.15-2.281,13.518-6.262l1.275-1.495c3.074-3.614,4.565-8.196,4.175-12.928c-0.381-4.731-2.576-9.022-6.222-12.119
			l-79.674-66.875l46.626-39.683h-56.04L1610.676,439.66z"/>
		<path fill="#A9B2BC" d="M1735.21,402.403v-19.044l-12.602-9.533c-4.479-3.453-12.114-6.029-17.742-6.029h-189.345
			c-5.641,0-13.261,2.593-17.754,6.029l-12.342,9.484v18.72L1735.21,402.403z"/>
		<path fill="#434A54" d="M1735.002,402.014l-249.576,0.016l0,0h-1.182v7.845c0,6.796,3.055,11.964,7.53,13.387
			c0.802,0.25,1.63,0.425,2.506,0.425h41.324l0.091,0.076h56.047l-0.103-0.083h38.062l-0.103,0.083h56.04l0.09-0.076h40.376
			c0.877,0,1.702-0.175,2.5-0.425c4.468-1.422,7.521-6.591,7.521-13.387v-7.845L1735.002,402.014z"/>
	</g>
	<path fill="#434A54" d="M1707.38,339.474l0.007-0.002c-0.514-2.733-1.037-3.979-1.35-4.724l-0.289-0.731
		c-0.34-0.857-0.543-1.376-0.449-2.047c0.053-0.369,0.196-0.764,0.35-1.183c0.066-0.19,0.136-0.379,0.196-0.563l0.206-0.627
		c0.717-2.14,1.527-4.567,0.423-6.335c-0.528-0.848-1.436-1.422-2.702-1.709c-1.084-7.683-2.754-15.371-4.98-22.942l-0.076-0.224
		c-2.485-8.353-5.58-16.28-9.193-23.578l-0.094-0.176c-2.394-4.809-4.407-8.134-5.471-9.794l-1.163-103.341
		c0-1.738-0.286-6.222-0.563-10.56c-0.265-4.128-0.535-8.396-0.535-9.938c0-36.608-28.201-66.706-63.868-69.404
		c0.036-0.052,0.07-0.107,0.1-0.163c2.516-4.921,5.454-10.029,9.243-16.057c6.22-3.57,13.096-6.51,19.009-8.915
		c0.47-0.188,0.731-0.667,0.637-1.165c-0.101-0.514-0.55-0.889-1.067-0.889l-0.352,0.059c-4.313,1.456-8.208,2.974-11.77,4.59
		c1.011-0.937,2.017-1.867,3.015-2.788c2.537-1.963,5.323-3.986,9.034-6.561c0.376-0.259,0.538-0.724,0.402-1.154
		c-0.143-0.462-0.579-0.784-1.06-0.784l-0.355,0.034l-0.205,0.125c-3.96,2.388-7.465,4.747-10.607,7.14
		c0.283-0.426,0.566-0.854,0.849-1.281c0.944-0.898,1.892-1.795,2.829-2.695c0.348-0.333,0.455-0.81,0.279-1.244
		c-0.056-0.142-0.14-0.267-0.241-0.375l0.294-0.447c0.226-0.337,0.25-0.745,0.062-1.093c-0.355-0.666-1.438-0.768-1.918-0.168
		c-1.115,1.378-2.269,2.866-3.624,4.679c-0.853,0.751-1.675,1.485-2.474,2.212c0.948-1.502,1.897-2.979,2.822-4.414l1.484-1.126
		c0.358-0.27,0.495-0.717,0.355-1.137c-0.042-0.118-0.099-0.225-0.172-0.32c0.379-0.591,0.759-1.182,1.137-1.775
		c0.23-0.362,0.247-0.796,0.046-1.161c-0.393-0.71-1.542-0.802-2.034-0.128c-0.529,0.728-1.054,1.458-1.576,2.19
		c-0.106-0.227-0.278-0.409-0.485-0.531c0.357-0.426,0.713-0.853,1.069-1.273l0.381-0.585l-0.23-0.499
		c-0.179-0.385-0.592-0.646-1.028-0.646l-0.516,0.062l-0.254,0.262c-0.111,0.114-0.22,0.229-0.331,0.343
		c-0.335-0.272-0.845-0.353-1.248-0.186c0.022-0.213-0.017-0.434-0.122-0.633c-0.358-0.689-1.413-0.849-1.92-0.252
		c-0.059,0.066-0.112,0.134-0.17,0.2c0.154-0.402,0.309-0.805,0.463-1.208c0.137-0.357,0.097-0.733-0.112-1.036
		c-0.476-0.693-1.743-0.585-2.103,0.208c-0.479,1.055-0.954,2.115-1.419,3.175c-0.504-0.2-1.142-0.027-1.454,0.439
		c-0.853,1.282-1.637,2.481-2.367,3.613c0.116-0.373,0.233-0.744,0.35-1.114c0.396-1.26,0.79-2.517,1.176-3.772
		c0.106-0.343,0.048-0.703-0.161-0.987c-0.504-0.68-1.782-0.543-2.096,0.277c-0.996,2.614-1.846,4.957-2.595,7.154
		c-0.154,0.192-0.243,0.429-0.247,0.685l0.019,0.002c-0.049,0.143-0.096,0.284-0.143,0.426c-0.052-0.01-0.106-0.019-0.158-0.021
		c-0.018-0.03-0.039-0.06-0.061-0.089c-0.282-0.375-0.822-0.548-1.278-0.433c-0.062-0.987-0.14-2.004-0.237-3.065
		c0.533-1.566,1.064-3.128,1.588-4.686l1.926-3.063c0.217-0.345,0.229-0.768,0.029-1.127c-0.378-0.684-1.449-0.812-1.941-0.192
		c-0.63,0.81-1.256,1.632-1.871,2.458c-0.046-0.161-0.128-0.311-0.243-0.441c-0.052-0.058-0.107-0.109-0.167-0.156l0.389-1.189
		c0.114-0.34,0.059-0.703-0.151-0.995c-0.245-0.337-0.681-0.55-1.101-0.497c-0.423-0.436-1.283-0.431-1.726,0.039
		c-0.212,0.226-0.316,0.52-0.294,0.831l0.135,2.005l-0.146,0.353c-0.209,0.097-0.383,0.251-0.502,0.444
		c-0.118-0.446-0.48-0.776-0.936-0.857c-0.265-0.618-0.535-1.237-0.812-1.852c-0.337-0.754-1.532-0.827-2.019-0.156
		c-0.211,0.29-0.265,0.653-0.154,0.992c0.631,1.917,1.267,3.855,1.854,5.677l0.154,1.958c-0.321,0.906-0.628,1.809-0.916,2.703
		c-0.228-0.201-0.549-0.319-0.89-0.29l0.016-0.07c0.077-0.338,0.01-0.673-0.187-0.942c-0.037-0.052-0.08-0.099-0.122-0.143
		c-0.147-2.29-0.345-4.732-0.599-7.446c-0.059-0.613-0.577-1.074-1.204-1.074c-0.332,0-0.649,0.129-0.871,0.36
		c-0.218,0.225-0.332,0.525-0.322,0.846c0.045,1.415,0.095,2.833,0.147,4.253c0.044,1.232,0.088,2.463,0.129,3.698
		c-0.615-1.829-1.31-3.801-2.092-5.971c-0.045-0.359-0.251-0.653-0.544-0.822c-0.249-1.52-0.513-3.036-0.784-4.548
		c-0.104-0.578-0.618-0.998-1.221-0.998c-0.345,0-0.669,0.14-0.887,0.388c-0.214,0.24-0.309,0.559-0.27,0.887
		c0.136,1.17,0.277,2.341,0.419,3.514c-0.294-0.61-0.593-1.225-0.897-1.837c-0.362-0.733-1.551-0.764-2.011-0.095
		c-0.21,0.304-0.257,0.676-0.127,1.021c0.012,0.024,0.021,0.052,0.032,0.077c-0.226-0.228-0.537-0.362-0.877-0.363
		c-0.161-0.3-0.323-0.604-0.488-0.902c-0.374-0.682-1.499-0.676-1.912-0.033l-0.267,0.56l0.196,0.427
		c0.455,0.992,0.877,1.927,1.276,2.82c-0.231-0.11-0.507-0.133-0.758-0.07c-0.438-1.158-0.905-2.361-1.4-3.621
		c-0.338-0.825-1.606-0.954-2.108-0.256c-0.219,0.301-0.273,0.682-0.156,1.044c0.334,1.024,0.672,2.049,1.014,3.074l-0.463-0.074
		c-0.43,0-0.839,0.255-1.02,0.636l-0.097,0.3c-0.187-0.462-0.374-0.926-0.567-1.39c-0.324-0.768-1.51-0.895-1.993-0.243
		c-0.21,0.284-0.267,0.646-0.159,0.995l0.221,0.709c-0.184,0.106-0.336,0.261-0.437,0.448c-0.202,0.365-0.183,0.798,0.049,1.159
		l1.724,2.679c0.292,0.943,0.584,1.888,0.875,2.832c-2.505-3.362-5.392-6.775-8.732-10.328l-0.41-0.337h-0.372
		c-0.428,0-0.84,0.262-1.024,0.653c-0.176,0.375-0.122,0.802,0.142,1.121c1.989,2.42,3.627,4.472,5.132,6.426
		c0.02,0.163,0.076,0.326,0.176,0.475l0.995,1.505c0.724,1.094,1.447,2.187,2.169,3.283c-2.837-2.103-5.969-4.182-9.462-6.289
		l-0.321-0.16h-0.242c-0.479,0-0.913,0.32-1.058,0.777c-0.135,0.43,0.025,0.895,0.399,1.155c4.943,3.426,10.66,7.54,15.628,12.08
		l0.181,0.282c2.406,8.294,4.121,15.155,5.384,21.527c-31.026,7.329-53.237,35.338-53.237,67.742c0,1.537-0.29,5.672-0.572,9.672
		c-0.294,4.205-0.6,8.557-0.6,10.284l-1.539,102.163l-3.174,6.417c-11.787,21.277-16.158,47.345-16.818,51.655
		c-1.253,0.293-2.152,0.869-2.673,1.719c-1.089,1.77-0.279,4.187,0.433,6.321l0.203,0.614c0.061,0.185,0.13,0.375,0.198,0.564
		c0.152,0.419,0.297,0.815,0.348,1.185c0.093,0.667-0.111,1.185-0.446,2.042l-0.295,0.736c-0.311,0.745-0.832,1.994-1.346,4.726
		l0.006,0.002c-0.374,1.427-0.931,7.066,0.331,9.711c0.95,1.99,2.417,2.593,4.233,3.177c0.812,0.255,2.505,0.018,3.991-0.217
		c0.666-0.105,1.352-0.212,1.82-0.229c0.446,0.518,0.847,1.053,1.238,1.572c1.675,2.23,3.393,4.539,7.546,3.943
		c4.394-0.642,6.902-3.661,6.832-8.147c2.639-0.348,5.067-1.902,6.222-4.042c1.01-1.872,0.922-3.943-0.243-5.835
		c-1.512-2.443-3.414-3.026-5.252-3.591c-0.879-0.27-1.786-0.547-2.681-1.037c-1.347-0.738-2.694-1.479-4.016-2.255
		c-0.128-0.077-0.227-0.137-0.302-0.184c0.106-0.221,0.229-0.52,0.312-0.929c0.387-1.928,0.466-3.769,0.548-5.719l0.017-0.356
		l-0.017-0.451l-0.256-0.267c-0.178-0.187-0.404-0.281-0.64-0.328l3.925-18.457l0.615-1.407
		c2.845,18.973,18.277,34.384,41.997,41.75l-3.235,5.789c-2.45,0.388-14.32,2.518-17.229,7.845
		c-0.785,1.435-0.882,2.969-0.299,4.566l-0.831,0.831l0.672,3.356l0.641,0.058c0.062,0.004,6.281,0.558,13.104,0.558
		c7.152,0,12.357-0.587,15.349-1.71l6.702-1.379v0.695l0.84,0.02c0,0,0.392,0.008,1.037,0.008c4.257,0,9.688-0.316,11.382-1.819
		l0.762-1.386l-0.286-3.124l-0.872-0.656l-0.01-3.295l0.255-1.525l-0.955-4.508c1.149,0.027,2.305,0.04,3.451,0.021
		c-0.793,2.747-2.097,8.083-0.932,10.111l-0.341,4.812l0.76,0.137c0.176,0.032,4.297,0.765,6.479,0.765
		c0.426,0,0.761-0.026,1.022-0.082l0.268-0.06l0.722-0.793c2.206,1.022,10.213,4.333,21.329,4.333c4.363,0,8.723-0.522,12.96-1.554
		l0.63-0.153l0.152-4.107l-0.873-0.796c0.235-0.618,0.459-1.65,0.397-3.291c0.087-0.334,0.145-0.955-0.226-1.758
		c-1.217-2.632-5.942-5.062-13.894-7.165l-6.616-3.13c25.507-6.257,43.587-22.305,47.756-42.339l2.17,9.898l1.094,10.364l0.016,0.36
		c0.081,1.861,0.162,3.787,0.548,5.714c0.078,0.377,0.188,0.663,0.312,0.927c-0.074,0.049-0.174,0.109-0.299,0.184
		c-1.263,0.743-2.547,1.447-3.832,2.151l-0.187,0.102c-0.894,0.492-1.802,0.771-2.681,1.041c-1.84,0.564-3.743,1.148-5.251,3.59
		c-1.166,1.891-1.254,3.963-0.243,5.835c1.152,2.14,3.585,3.694,6.224,4.043c-0.072,4.481,2.432,7.502,6.829,8.145
		c4.154,0.605,5.874-1.716,7.548-3.944c0.39-0.52,0.791-1.058,1.24-1.578c0.396,0.012,1.115,0.126,1.812,0.235
		c1.486,0.234,3.183,0.468,3.991,0.216c1.82-0.58,3.285-1.181,4.238-3.175C1708.313,346.545,1707.755,340.904,1707.38,339.474z
		 M1599.633,49.513l0.089,0.323c-0.002,1.153-0.007,2.309-0.017,3.464c-0.388-0.746-0.792-1.494-1.205-2.241
		c-0.434-1.809-0.923-3.642-1.478-5.533C1597.976,46.9,1598.841,48.224,1599.633,49.513z M1619.41,55.191
		c0.334-1.26,0.688-2.554,1.066-3.899c0.342-0.58,0.69-1.158,1.05-1.731c1.37-1.288,2.855-2.606,4.481-3.973
		c-1.479,2.341-2.794,4.57-3.974,6.737C1621.107,53.303,1620.236,54.254,1619.41,55.191z M1595.813,52.003
		c0.023,0.089,0.044,0.176,0.066,0.261c-0.491-0.512-0.996-1.017-1.51-1.516l-0.297-0.56c-0.225-0.769-0.453-1.535-0.688-2.301
		C1594.203,49.232,1595.024,50.615,1595.813,52.003z M1591.861,38.61c0.337,1.035,0.714,2.197,1.106,3.44
		c-0.959-1.435-1.989-2.932-3.1-4.505c-0.337-0.892-0.68-1.78-1.032-2.668C1589.85,36.107,1590.863,37.354,1591.861,38.61z"/>
	<path fill="#434A54" d="M793.855,337.624h0.009c-0.609-3.25-1.231-4.735-1.602-5.622l-0.349-0.874
		c-0.405-1.023-0.648-1.64-0.535-2.439c0.062-0.441,0.236-0.917,0.42-1.421c0.081-0.221,0.16-0.441,0.231-0.659l0.246-0.746
		c0.852-2.546,1.815-5.436,0.501-7.544c-0.629-1.009-1.709-1.69-3.215-2.034c-0.946-6.717-2.282-13.494-3.995-20.256
		c-4.798-18.908-11.451-33.012-16.122-41.384l-0.104-0.208c-1.791-3.213-3.142-5.347-3.784-6.333l-0.732-1.118l-0.962-85.741
		c0-1.74-0.289-6.221-0.567-10.555c-0.263-4.116-0.535-8.373-0.535-9.903c0-22.337-10.377-42.782-27.729-55.787
		c2.265,1.343,4.363,2.912,6.312,4.718l0.458,0.336h0.396c0.503,0,0.961-0.302,1.162-0.768c0.201-0.464,0.112-0.985-0.239-1.363
		c-5.745-6.146-13.089-9.819-22.451-11.229c-0.219-0.096-0.443-0.19-0.665-0.282c0.166,0.015,0.332,0.032,0.495,0.048
		c9.157,0.945,17.319,4.831,24.261,11.549l0.46,0.355h0.411c0.499,0,0.952-0.296,1.157-0.755c0.206-0.459,0.123-0.98-0.222-1.365
		c-0.971-1.069-1.992-2.052-3.035-2.994h0.304c0.503,0,0.96-0.302,1.165-0.771c0.201-0.465,0.109-0.984-0.241-1.355
		c-6.125-6.562-13.856-10.526-22.457-11.541c7.445-0.983,14.058-0.222,20.369,2.345l0.481,0.094c0.587,0,1.092-0.406,1.227-0.984
		c0.131-0.571-0.147-1.153-0.676-1.411c-4.947-2.441-10.058-3.629-15.621-3.629c-4.409,0-9.005,0.743-14.166,2.304
		c1.513-0.518,3.035-1.007,4.578-1.413c8.813-2.322,18.008-1.557,26.771,2.232l0.297,0.106h0.212c0.579,0,1.079-0.4,1.217-0.972
		c0.137-0.569-0.131-1.152-0.657-1.42c-1.317-0.673-2.657-1.243-4.01-1.763c0.568-0.018,1.052-0.411,1.185-0.979
		c0.133-0.571-0.143-1.153-0.67-1.413c-8.656-4.272-17.927-5.087-26.928-2.355c-5.781,1.75-10.913,4.887-15.878,7.92
		c-1.619,0.991-3.241,1.974-4.885,2.918c-1.486-0.031-2.975-0.017-4.441,0.042c-1.558-0.899-3.096-1.837-4.632-2.779
		c-4.973-3.038-10.115-6.18-15.902-7.935c-9.007-2.73-18.277-1.915-26.927,2.355c-0.53,0.261-0.805,0.841-0.673,1.413
		c0.132,0.568,0.62,0.962,1.187,0.979c-1.351,0.52-2.694,1.087-4.011,1.761c-0.523,0.269-0.794,0.852-0.659,1.421
		c0.139,0.573,0.637,0.973,1.217,0.973l0.313-0.022l0.194-0.083c8.767-3.792,17.96-4.557,26.775-2.232
		c1.632,0.429,3.251,0.945,4.854,1.5c-5.283-1.62-9.97-2.392-14.451-2.392c-5.562,0-10.669,1.188-15.617,3.627
		c-0.527,0.265-0.802,0.846-0.668,1.416c0.136,0.578,0.639,0.982,1.225,0.982l0.483-0.097c6.574-2.676,13.478-3.399,21.323-2.211
		c-8.441,0.895-16.373,4.944-22.568,11.579c-0.351,0.373-0.443,0.893-0.241,1.357c0.201,0.469,0.659,0.771,1.164,0.771l0.309-0.036
		c-1.051,0.945-2.064,1.957-3.044,3.034c-0.338,0.378-0.424,0.897-0.221,1.356c0.206,0.462,0.661,0.76,1.159,0.76l0.577-0.07
		l0.297-0.287c6.704-6.488,14.816-10.366,24.112-11.529c-0.246,0.107-0.492,0.216-0.737,0.328
		c-9.021,1.486-16.132,5.123-21.738,11.122c-0.348,0.375-0.44,0.894-0.239,1.358c0.204,0.466,0.661,0.768,1.164,0.768l0.563-0.068
		l0.293-0.271c1.794-1.664,3.71-3.123,5.783-4.395c-16.827,13.049-26.886,33.237-26.886,55.127c0,1.528-0.289,5.651-0.568,9.637
		c-0.296,4.204-0.602,8.55-0.602,10.279l-1.269,84.268l-5.165,12.027c-7.785,14.906-12.646,31.481-15.37,42.826
		c-1.93,8.055-2.923,14.027-3.233,16.033c-1.493,0.348-2.56,1.035-3.182,2.045c-1.297,2.108-0.333,4.991,0.516,7.534l0.239,0.73
		c0.072,0.216,0.152,0.436,0.234,0.657c0.182,0.503,0.356,0.979,0.417,1.421c0.113,0.797-0.131,1.415-0.535,2.437l-0.35,0.876
		c-0.37,0.889-0.991,2.375-1.6,5.621l0.008,0.003c-0.445,1.701-1.111,8.416,0.391,11.564c1.138,2.375,2.881,3.089,5.045,3.78
		c0.965,0.305,2.982,0.022,4.756-0.258c0.792-0.125,1.607-0.25,2.166-0.272c0.529,0.617,1.006,1.252,1.47,1.871
		c1.993,2.656,4.023,5.403,8.986,4.698c5.235-0.766,8.218-4.362,8.133-9.701c3.142-0.415,6.036-2.266,7.41-4.813
		c1.204-2.229,1.099-4.696-0.289-6.949c-1.798-2.91-4.066-3.604-6.258-4.276c-1.045-0.321-2.125-0.65-3.348-1.322
		c-1.549-0.852-3.099-1.702-4.622-2.6c-0.152-0.09-0.268-0.162-0.357-0.218c0.125-0.264,0.273-0.62,0.37-1.105
		c0.46-2.293,0.555-4.487,0.651-6.807l0.021-0.426l-0.021-0.538l-0.303-0.315c-0.213-0.224-0.481-0.336-0.761-0.392l4.313-20.29
		l0.195-0.362c0.619,19.95,14.597,36.583,37.426,45.201l-4.696,8.404c-2.921,0.46-17.055,2.998-20.517,9.342
		c-0.933,1.709-1.051,3.534-0.355,5.438l-0.988,0.988l0.802,3.996l0.761,0.068c0.075,0.007,7.478,0.663,15.601,0.663
		c8.518,0,14.72-0.699,18.28-2.037l7.982-1.641v0.829l0.998,0.024c0,0,0.468,0.01,1.236,0.01c5.068,0,11.535-0.376,13.55-2.167
		l0.91-1.65l-0.34-3.722l-1.039-0.779l-0.012-3.924l0.305-1.817l-1.276-6.006c1.111,0.034,2.223,0.052,3.326,0.052
		c0.371,0,0.737-0.016,1.109-0.021c-0.901,3.002-2.78,10.087-1.299,12.672l-0.406,5.73l0.905,0.162
		c0.208,0.039,5.118,0.912,7.715,0.912c0.507,0,0.904-0.033,1.216-0.098l0.321-0.07l0.859-0.946
		c2.626,1.215,12.158,5.16,25.398,5.16h0.001c5.192,0,10.385-0.623,15.429-1.851l0.751-0.182l0.182-4.892l-1.039-0.949
		c0.278-0.735,0.546-1.963,0.475-3.918c0.102-0.397,0.171-1.136-0.271-2.093c-1.45-3.136-7.077-6.028-16.545-8.532l-9.443-4.469
		c24.649-6.865,42.512-23.545,45.719-44.109l4.322,18.562l0.021,0.427c0.094,2.217,0.191,4.512,0.65,6.809
		c0.092,0.45,0.226,0.789,0.374,1.101c-0.089,0.058-0.206,0.13-0.355,0.218c-1.436,0.843-2.897,1.649-4.356,2.449l-0.43,0.239
		c-1.064,0.583-2.146,0.914-3.19,1.237c-2.191,0.671-4.458,1.367-6.256,4.272c-1.389,2.252-1.493,4.72-0.291,6.949
		c1.373,2.548,4.269,4.398,7.411,4.815c-0.085,5.336,2.897,8.932,8.133,9.7c4.958,0.719,6.991-2.041,8.984-4.693
		c0.466-0.623,0.945-1.261,1.481-1.883c0.472,0.017,1.33,0.15,2.161,0.279c1.773,0.28,3.792,0.56,4.75,0.256
		c2.165-0.689,3.91-1.404,5.046-3.778C794.966,346.044,794.301,339.326,793.855,337.624z M670.19,72.811
		c1.989,0,4.126,0.13,6.654,0.41c-0.419,0.105-0.837,0.215-1.256,0.329c-3.989-0.223-7.94-0.155-11.373,0.338
		c-6.64,0.946-12.599,3.362-17.799,7.207c6.402-5.193,13.637-7.898,22.022-8.247C669.023,72.819,669.607,72.811,670.19,72.811z
		 M722.719,73.547c-3.529-0.506-7.201-0.6-12.141-0.292c-0.355-0.09-0.717-0.162-1.073-0.245c3.064-0.352,5.603-0.524,8.128-0.524
		c0,0,0.006,0,0.008,0c8.532,0.032,16.255,2.872,23.017,8.409C735.423,76.986,729.426,74.504,722.719,73.547z M719.543,63.38
		c-6.218,1.386-11.951,4.177-17.492,6.879l-0.979,0.474c4.277-2.39,8.691-4.814,13.345-6.55c7.944-2.967,16.368-3.008,24.635-0.212
		C732.723,62.142,726.127,61.913,719.543,63.38z M671.673,64.35c4.637,1.73,9.037,4.145,13.298,6.526l-0.952-0.458
		c-5.536-2.696-11.262-5.486-17.472-6.871c-6.583-1.467-13.173-1.238-19.501,0.587C655.315,61.341,663.738,61.386,671.673,64.35z"/>
</g>
</svg>
