<?xml version="1.0" encoding="utf-8"?>
<!-- Generator: Adobe Illustrator 16.0.4, SVG Export Plug-In . SVG Version: 6.00 Build 0)  -->
<!DOCTYPE svg PUBLIC "-//W3C//DTD SVG 1.1//EN" "http://www.w3.org/Graphics/SVG/1.1/DTD/svg11.dtd">
<svg version="1.1" id="Calque_1" xmlns="http://www.w3.org/2000/svg" xmlns:xlink="http://www.w3.org/1999/xlink" x="0px" y="0px"
	 width="300px" height="300px" viewBox="0 0 300 300" enable-background="new 0 0 300 300" xml:space="preserve">
<polygon fill="#FF6868" points="259.034,49.804 256.394,80.151 285.142,90.223 272.789,118.069 296.711,136.929 275.985,159.254 
	292.486,184.859 265.636,199.246 272.928,228.822 242.859,233.711 240.155,264.054 210.129,258.915 197.718,286.733 
	170.987,272.123 150.213,294.406 129.674,271.907 102.793,286.236 90.673,258.291 60.595,263.114 58.206,232.747 28.191,227.545 
	35.793,198.046 9.093,183.379 25.862,157.947 5.371,135.407 29.488,116.797 17.426,88.824 46.279,79.053 43.954,48.68 
	74.416,48.808 82.079,19.325 110.85,29.336 127.671,3.939 151.635,22.75 175.791,4.19 192.346,29.763 221.219,20.051 
	228.573,49.613 "/>
<path fill="#BF4E4E" d="M165.562,135.434l7.585-6.906c0,0,22.81,3.118,40.279-23.35c8.074-9.618,14.233-33.466,14.233-33.466
	l48.651,37.024l-3.521,9.332l23.922,18.86l-20.726,22.325l16.501,25.605l-26.851,14.387l7.292,29.576l-30.068,4.889l-2.704,30.343
	l-30.026-5.139l-12.411,27.818l-26.73-14.61l-16.113,16.901l-42.285-52.483h76.907V226.47l-8.104,0.433v-41.155h-7.69
	l-10.335-43.463c0,0,9.073,0.715,7.949-3.426C170.817,134.078,165.562,135.434,165.562,135.434z"/>
<path fill="#BF4E4E" d="M220.062,77.819h-23.314c-2.143,13.724-8.737,31.223-18.004,44.273
	C203.782,119.055,215.713,91.354,220.062,77.819z"/>
<g>
	<rect x="112.589" y="226.47" fill="#FFFFFF" width="76.907" height="10.071"/>
	<rect x="112.589" y="226.47" fill="#FFFFFF" width="38.035" height="10.071"/>
	<path fill="none" stroke="#FFFFFF" stroke-width="1.2164" stroke-miterlimit="10" d="M224.371,82.987
		c0.017-0.046,0.033-0.092,0.05-0.138c0.134-0.381,0.264-0.755,0.388-1.124c0.07-0.206,0.137-0.404,0.203-0.606
		c0.063-0.187,0.127-0.377,0.187-0.561c0.093-0.28,0.179-0.551,0.266-0.82c0.018-0.057,0.036-0.116,0.054-0.172
		c1.509-4.75,2.142-7.854,2.142-7.854h-30.665c0.05-0.895,0.11-1.798,0.11-2.635H150.69H127.1h-16.494h-5.633
		c0,0.837,0.057,1.741,0.107,2.635H74.423c0,0,1.822,9.213,6.988,20.462c0.069,0.151,0.141,0.303,0.211,0.454
		c0.116,0.251,0.231,0.5,0.351,0.753c1.152,2.433,2.457,4.937,3.924,7.435c0.005,0.007,0.008,0.014,0.012,0.02
		c0.238,0.404,0.479,0.806,0.725,1.208c0.115,0.191,0.231,0.382,0.35,0.572c0.084,0.136,0.169,0.271,0.254,0.407
		c0.497,0.794,1.006,1.588,1.538,2.38c10.902,16.21,23.65,20.438,25.75,21.017c0.452,0.125,0.88,0.235,1.31,0.346
		c2.47,0.74,5.077,1.265,7.825,1.545c3.573,0.443,5.267,0.216,5.267,0.216c2.413,2.671,4.95,5.043,7.609,6.928
		c-1.872,0.037-3.378,1.535-3.378,3.402c0,1.891,1.539,3.426,3.423,3.426h4.519l-10.331,43.463h-7.674v41.155h27.595h30.701v-41.155
		h-7.69l-10.335-43.463h4.531c1.88,0,3.418-1.535,3.418-3.426c0-1.884-1.534-3.423-3.418-3.423h-2.336
		c2.647-1.88,5.172-4.244,7.585-6.906c0,0,1.922,0.833,8.664-0.601c5.337-1.136,13.098-3.178,21.723-11.16
		C214.453,106.848,220.924,92.76,224.371,82.987z M123.752,122.092c-25.055-3.041-36.977-30.747-41.315-44.273h23.302
		C107.883,91.539,114.481,109.038,123.752,122.092z M173.151,191.391v28.625H150.69h-20.011v-28.625h1.582h3.989h2.086h4.146h8.208
		H173.151z M196.329,77.819h23.315c-4.351,13.535-16.281,41.236-41.318,44.273C187.592,109.042,194.188,91.542,196.329,77.819z"/>
	<path fill="#FFFFFF" d="M104.527,71.577c0,0,4.558-0.359,7.076-3.237c2.532-2.895,3.178-6.537,3.178-6.537s0.779,4.318,3.837,6.656
		c2.727,2.085,6.655,2.938,6.655,2.938s-4.257,0.66-6.655,3.058c-2.399,2.399-3.658,6.836-3.658,6.836
		S113.342,71.697,104.527,71.577z"/>
</g>
</svg>
