<?xml version="1.0" encoding="utf-8"?>
<!-- Generator: Adobe Illustrator 16.0.4, SVG Export Plug-In . SVG Version: 6.00 Build 0)  -->
<!DOCTYPE svg PUBLIC "-//W3C//DTD SVG 1.1//EN" "http://www.w3.org/Graphics/SVG/1.1/DTD/svg11.dtd">
<svg version="1.1" id="Calque_1" xmlns="http://www.w3.org/2000/svg" xmlns:xlink="http://www.w3.org/1999/xlink" x="0px" y="0px"
	 width="1404px" height="772px" viewBox="0 0 1404 772" enable-background="new 0 0 1404 772" xml:space="preserve">
<g>
	<polygon fill="none" points="46.545,53.876 47.421,720.562 1358.726,719.111 1357.841,52.42 	"/>
	<path fill="#A9B2BC" d="M1404.319,27.365c-0.014-15.184-12.336-27.482-27.544-27.458L27.462,1.407
		C12.283,1.424-0.02,13.756,0,28.951l0.976,744.167l1404.329-1.582L1404.319,27.365z M702.628,12.122
		c8.814-0.021,15.968,7.113,15.986,15.927c0.008,8.817-7.136,15.971-15.944,15.985c-8.81,0.01-15.954-7.125-15.978-15.937
		C686.677,19.282,693.821,12.122,702.628,12.122z M47.421,720.562L46.545,53.876l1311.295-1.457l0.885,666.691L47.421,720.562z"/>
	<path fill="#A9B2BC" d="M702.493,19.258c-4.679,0.012-8.456,3.809-8.456,8.489c0.005,4.687,3.809,8.46,8.484,8.46
		c4.683,0,8.476-3.802,8.466-8.482C710.977,23.048,707.177,19.258,702.493,19.258z M705.858,27.223
		c-1.562,0.003-2.845-1.265-2.845-2.83c0-1.569,1.269-2.835,2.833-2.838c1.56,0,2.828,1.264,2.832,2.828
		C708.689,25.95,707.421,27.221,705.858,27.223z"/>
</g>
<g>
</g>
<g>
</g>
<g>
</g>
<g>
</g>
<g>
</g>
<g>
</g>
<g>
</g>
<g>
</g>
<g>
</g>
<g>
</g>
<g>
</g>
<g>
</g>
<g>
</g>
<g>
</g>
<g>
</g>
</svg>
