<?xml version="1.0" encoding="utf-8"?>
<!-- Generator: Adobe Illustrator 16.0.4, SVG Export Plug-In . SVG Version: 6.00 Build 0)  -->
<!DOCTYPE svg PUBLIC "-//W3C//DTD SVG 1.1//EN" "http://www.w3.org/Graphics/SVG/1.1/DTD/svg11.dtd">
<svg version="1.1" id="Calque_1" xmlns="http://www.w3.org/2000/svg" xmlns:xlink="http://www.w3.org/1999/xlink" x="0px" y="0px"
	 width="1024px" height="1024px" viewBox="0 0 1024 1024" enable-background="new 0 0 1024 1024" xml:space="preserve">
<path fill="#00DACE" stroke="#434A54" stroke-width="7" stroke-miterlimit="10" d="M488.244,247.626c-0.259,0-0.518-0.01-0.776-0.01
	c-118.107,0-213.757,95.66-213.757,213.665c0,118.003,95.649,213.662,213.757,213.662c0.259,0,0.518-0.008,0.776-0.008
	c117.751-0.419,213.082-95.912,213.082-213.652C701.326,343.535,605.995,248.049,488.244,247.626z"/>
<g>
	<path fill="#FFFFFF" d="M487.814,255.706l0.147,0.002c0.107,0.002,0.215,0.004,0.314,0.004
		c48.665,0.107,95.694,17.482,132.88,49.011l-7.896,3.095c-0.653,0.256-1.239,0.657-1.714,1.174l-4.104,4.459
		c-0.981,1.065-1.406,2.529-1.147,3.955l0.939,5.192c0.356,1.966,1.935,3.48,3.912,3.755l2.366,0.329l2.021,5.039l-3.988,0.669
		c-1.214,0.204-2.297,0.883-3.008,1.888l-1.186,1.675l-2.922-1.138l-1.453-1.671l-3.063-4.95l-1.584-7.626
		c-0.453-2.182-2.376-3.684-4.521-3.684c-0.305,0-0.613,0.03-0.923,0.093l-6.93,1.404c-1.216,0.246-2.282,0.971-2.958,2.011
		l-1.935,2.976c-0.488,0.75-0.747,1.625-0.747,2.52v1.074l-3.601,0.833c-1.193,0.276-2.228,1.015-2.877,2.053l-4.224,6.754
		c-0.46,0.735-0.703,1.584-0.703,2.451v4.383c0,2.553,2.069,4.624,4.623,4.624h4.914c0.957,0,1.89-0.297,2.671-0.85l1.938-1.371
		c-0.113,1.286,0.315,2.562,1.186,3.518c0.876,0.963,2.117,1.513,3.42,1.513h1.168l-1.209,7.151
		c-0.091,0.536-0.085,1.067,0.005,1.576l-2.102-0.422c-0.3-0.06-0.604-0.09-0.909-0.09c-0.331,0-0.663,0.036-0.988,0.107
		l-9.951,2.177c-1.526,0.334-2.781,1.417-3.335,2.878l-2.098,5.535c-0.28,0.738-0.366,1.536-0.25,2.317l1.723,11.612
		c0.228,1.534,1.209,2.852,2.614,3.51l1.58,0.739l-7.17,3.984c-1.468,0.815-2.378,2.362-2.378,4.042v9.563l-21.426,15.456
		c-1.559,1.125-2.259,3.096-1.759,4.952l1.937,7.19c0.341,1.267,1.188,2.291,2.289,2.878c-1.386,0.812-2.271,2.302-2.285,3.947
		l-0.163,17.9c-0.011,1.137,0.398,2.238,1.148,3.092l20.17,22.975c0.878,1,2.145,1.573,3.475,1.573h8.773
		c1.276,0,2.465-0.524,3.318-1.403h13.007c1.164,0,2.284-0.439,3.139-1.229l3.223-2.979h5.226l3.547,3.556
		c0.751,0.752,1.738,1.223,2.795,1.333l8.764,0.912l-1.304,13.153c-0.095,0.95,0.107,1.906,0.578,2.736l13.576,23.951l-6.641,12.683
		c-0.401,0.766-0.579,1.629-0.515,2.491l0.528,7.023c0.083,1.107,0.562,2.148,1.35,2.932l4.796,4.77v14.955
		c0,0.992,0.318,1.957,0.909,2.754l7.14,9.628v12.505c0,1.657,0.871,3.111,2.182,3.927c-39.179,44.141-94.754,69.35-153.851,69.481
		c-0.119,0-0.236,0.002-0.354,0.005l-0.118,0.003c-113.863,0-206.498-92.634-206.498-206.496c0-22.719,3.65-44.898,10.868-66.133
		l5.513,2.65v13.792c0,0.822,0.219,1.629,0.635,2.339l8.416,14.352c0.704,1.2,1.91,2.019,3.285,2.23l6.838,1.053
		c0.238,0.037,0.475,0.055,0.709,0.055c0.796,0,1.559-0.207,2.227-0.575c-0.436,1.322-0.257,2.788,0.521,3.979l7.416,11.345
		c0.64,0.978,1.625,1.678,2.76,1.958l18.419,4.557c0.367,0.091,0.74,0.135,1.11,0.135c0.736,0,1.463-0.176,2.12-0.515
		c0.318,1.867,1.769,3.412,3.724,3.771l5.585,1.025l7.417,2.029l11.715,13.353c0.798,0.91,1.921,1.47,3.128,1.561l12.34,0.929
		l0.796,6.636l-8.771,6.131c-1.179,0.824-1.907,2.149-1.97,3.586l-0.5,11.358l-1.493,6.802c-0.299,1.361,0.032,2.785,0.901,3.874
		l15.227,19.09l1.03,5.691c0.317,1.755,1.615,3.17,3.336,3.638c3.383,0.92,5.178,1.353,6.207,1.557
		c1.548,1.008,5.811,4.13,9.851,7.166v33.835c0,2.071,1.378,3.89,3.372,4.45l0.346,0.098l-2.244,12.529
		c-0.226,1.262,0.083,2.561,0.851,3.587l6.313,8.427l-1.216,14.777c-0.076,0.928,0.129,1.857,0.59,2.666l9.743,17.113
		c0.257,0.451,0.587,0.855,0.978,1.196l12.503,10.912c0.819,0.715,1.865,1.118,2.952,1.139l12.557,0.239
		c0.03,0.001,0.059,0.001,0.089,0.001c2.031,0,3.829-1.327,4.422-3.277l1.228-4.037c0.539-1.769-0.029-3.688-1.443-4.881
		l-7.279-6.137l0.12-0.867l1.507-4.3c0.136-0.386,0.219-0.789,0.249-1.198l0.347-4.823c0.091-1.258-0.337-2.498-1.184-3.434
		s-2.039-1.484-3.3-1.52l-2.286-0.062l1.163-1.12c0.694-0.669,1.162-1.538,1.338-2.486l0.699-3.769
		c0.185-0.997,0.035-1.984-0.376-2.841c0.218-0.067,0.432-0.151,0.638-0.25l12.551-6.033c0.874-0.42,1.593-1.104,2.057-1.955
		l4.023-7.383l9.944-12.726l2.987-3.819c0.857-1.096,1.175-2.519,0.866-3.875l-2.596-11.405l1.752-3.043l9.345,0.279
		c0.046,0.002,0.092,0.002,0.138,0.002c1.041,0,2.052-0.351,2.87-0.998l8.146-6.449c0.977-0.773,1.6-1.908,1.729-3.147l2.499-24.073
		l8.204-10.432c0.434-0.553,0.736-1.196,0.885-1.883l1.592-7.376c0.502-2.326-0.844-4.652-3.109-5.378l-6.602-2.114l-4.549-7.463
		c-0.831-1.363-2.307-2.202-3.903-2.217l-17.761-0.172l-4.489-1.708l-6.711-2.557l-0.501-7.559
		c-0.046-0.701-0.252-1.381-0.601-1.991l-4.922-8.601c-0.812-1.419-2.313-2.304-3.949-2.327l-10.831-0.15l-6.386-9.996
		c-0.458-0.717-1.105-1.294-1.87-1.667l-6.838-3.333c-0.641-0.312-1.333-0.468-2.026-0.468c-0.781,0-1.561,0.198-2.262,0.591
		c-1.245,0.699-2.093,1.93-2.308,3.332l-5.962,0.352l-3.078-4.278c-0.68-0.945-1.691-1.599-2.832-1.831l-12.986-2.642
		c-0.307-0.062-0.615-0.093-0.921-0.093c-1.328,0-2.61,0.573-3.498,1.6l-8.991,10.4l-10.678-1.812l-0.986-15.331
		c-0.137-2.137-1.725-3.9-3.836-4.261l-5.999-1.023l1.938-3.661c0.544-1.027,0.681-2.222,0.384-3.346l-1.416-5.352
		c-0.382-1.444-1.438-2.614-2.835-3.142c-0.53-0.2-1.083-0.299-1.634-0.299c-0.903,0-1.8,0.265-2.571,0.78l-14.718,9.843
		l-5.882-0.716l-1.86-4.068l1.636-6.052l4.663-8.58l10.62-5.38l19.132-0.006l-0.027,2.924c-0.017,1.813,1.028,3.469,2.672,4.234
		l8.955,4.168c0.621,0.29,1.287,0.432,1.95,0.432c0.91,0,1.814-0.268,2.592-0.795c1.345-0.911,2.114-2.46,2.024-4.082l-0.6-10.925
		l4.659-4.691l12.62-8.287c1.104-0.725,1.846-1.888,2.037-3.195l0.666-4.546l11.474-11.939l12.639-6.994
		c0.228,0.657,0.604,1.261,1.108,1.763c0.87,0.864,2.043,1.344,3.258,1.344c0.128,0,0.256-0.005,0.385-0.016l4.391-0.366
		c1.085-0.09,2.066-0.554,2.81-1.265c0.746,0.506,1.641,0.797,2.591,0.797c0.129,0,0.259-0.005,0.39-0.016l3.704-0.31
		c0.729-0.061,1.435-0.295,2.056-0.682l2.312-1.438c0.942-0.586,1.637-1.487,1.967-2.536c1.46-0.255,2.719-1.198,3.37-2.548
		l1.176-2.442c0.002-0.006,0.005-0.011,0.008-0.017l7.32,2.261l2.266,0.696c0.691,0.407,1.493,0.639,2.34,0.639
		c0.13,0,0.262-0.005,0.395-0.017l2.701-0.229c2.333-0.197,4.149-2.107,4.231-4.446l0.177-5.08c0.065-1.869-1.002-3.592-2.703-4.368
		l-2.025-0.923c1.522-0.729,2.541-2.243,2.62-3.957l0.339-7.386c0.077-1.687-0.771-3.282-2.214-4.161l-4.361-2.656l-1.578-0.962
		l-0.425-9.984c-0.046-1.089-0.474-2.11-1.185-2.898c0.285-0.358,0.52-0.764,0.692-1.21l1.5-3.883h5.78
		c1.711,0,3.283-0.945,4.084-2.457l3.162-5.962c0.667-1.257,0.717-2.75,0.138-4.049c-0.579-1.299-1.724-2.259-3.104-2.604
		l-2.826-0.705V290.9c0-1.828-1.078-3.485-2.749-4.226l-4.027-1.787l-15.784-6.993c-0.591-0.262-1.229-0.396-1.873-0.396
		c-0.176,0-0.353,0.01-0.529,0.031l-13.698,1.579c-0.564,0.065-1.112,0.233-1.615,0.497l-2.905,1.521
		c-0.811-1.095-2.082-1.798-3.488-1.867l-14.038-0.693c-0.076-0.004-0.152-0.006-0.228-0.006c-0.454,0-0.905,0.067-1.34,0.199
		l-4.032,1.221c-0.265,0.08-0.521,0.184-0.763,0.308l-3.912-1.951c-0.656-0.327-1.361-0.486-2.062-0.486
		c-1.178,0-2.342,0.45-3.225,1.309l-4.145,4.031l-5.095-0.287l-4.319-5.949c-0.87-1.198-2.261-1.907-3.741-1.907h-2.758
		C427.74,262.317,457.314,255.706,487.814,255.706 M469.86,299.333l-8.604,4.582c-1.33,0.708-2.208,2.003-2.407,3.448l-2.801-0.661
		c-0.351-0.083-0.707-0.124-1.061-0.124c-0.031,0-0.062,0-0.093,0.001c0.003-0.126,0.002-0.252-0.005-0.376
		c0.942-0.177,1.81-0.643,2.479-1.339l3.988-4.145c0.043-0.045,0.085-0.09,0.126-0.137c0.044-0.042,0.088-0.086,0.132-0.131
		l0.083-0.086L469.86,299.333 M434.586,311.486l0.132,0.885c0.339,2.275,2.294,3.942,4.57,3.942c0.082,0,0.164-0.002,0.246-0.006
		l4.608-0.243v10.794l-7.96,2.522c-1.217,0.385-2.22,1.257-2.772,2.407l-0.548,1.144v-0.974c0-2.309-1.703-4.263-3.99-4.58
		l-9.498-1.314l-2.92-1.904l-0.721-2.64l15.286-8.949L434.586,311.486 M474.616,315.386l3.995,0.943l-4.338,2.134L474.616,315.386
		 M637.172,363.417l1.486,1.477l-2.058-1.148l-0.117-0.329H637.172 M620.381,369.783c0.201,0.197,0.421,0.377,0.657,0.537
		l7.878,5.316c-0.957,0.392-1.774,1.101-2.294,2.041c-0.355,0.642-0.546,1.345-0.574,2.051c-0.194-0.025-0.391-0.038-0.589-0.038
		c-0.119,0-0.239,0.005-0.359,0.014l-21.932,1.71l7.609-9.892l3.966,0.814c0.309,0.063,0.62,0.095,0.93,0.095
		c1.135,0,2.243-0.418,3.102-1.195L620.381,369.783 M648.048,381.133l6.938,7.387c0.886,0.943,2.11,1.458,3.37,1.458
		c0.384,0,0.771-0.048,1.153-0.146c1.634-0.421,2.909-1.698,3.326-3.333l1.112-4.358c0.191,0.39,0.438,0.752,0.734,1.077
		l5.524,6.058c0.877,0.962,2.117,1.508,3.416,1.508c0.025,0,0.052,0,0.077-0.001l7.756-0.129c1.051,2.836,2.035,5.681,2.945,8.513
		h-10.557l-9.046-6.723c-0.801-0.595-1.769-0.913-2.758-0.913c-0.148,0-0.298,0.007-0.446,0.022l-10.786,1.047
		c-2.369,0.229-4.177,2.221-4.177,4.602v0.057c-0.414-0.263-0.868-0.459-1.345-0.58l-15.205-3.855v-5.765
		c0.645,0.715,1.499,1.216,2.447,1.424l4.58,1.004c0.327,0.072,0.659,0.107,0.99,0.107c0.609,0,1.216-0.121,1.783-0.358l5.347-2.235
		c1.741-0.728,2.866-2.442,2.84-4.329L648.048,381.133 M487.814,251.083c-46.325,0-89.183,15.035-124.04,40.429l10.646-0.084
		l4.743,2.625l8.938,1.93l0.697,3.51l14.215,0.528l-1.925-4.56l-12.629-0.353l2.977-2.802l-1.042-3.34h-11.419l12.461-9.297h11.931
		l5.608,7.726l9.314,0.524l5.6-5.446l4.224,2.106l-7.726,7.547c0,0-10.702,0.18-10.174,0.18c0.529,0,0.886,7.362,0.886,7.362
		l12.962-0.356l1.417-3.503l8.937-0.527l1.057-5.257l-5.263-0.888l1.758-4.732l4.032-1.221l14.038,0.693l-7.747,7.024l1.257,5.43
		l8.068,1.231l-0.529-9.821l7.716-4.039l13.698-1.579l15.784,6.993l4.025,1.786v7.541l6.331,1.579l-3.162,5.962h-7.193h-1.757
		l-2.643,6.84l-20.457-4.827l16.071-8.558l-6.129-5.208l-13.864,1.753l-1.213,1.253l-0.043-0.022l-0.225,0.301l-3.988,4.145
		l-6.587,0.556l0.528,3.288l2.295,0.952l-0.091,1.084l-5.36,0.768l-0.394,3.113l-5.136,0.271l-0.922-6.187l-9.217,2.804
		l-18.813,11.014l2.118,7.753l5.259,3.428l10.522,1.456v11.96l4.857-0.787l4.483-9.343l11.188-3.545v-14.344l6.221-4.697
		l15.048,3.549l-1.057,9.48h4.044l11.05-5.437l0.53,12.449l3.684,2.248l4.364,2.658l-0.339,7.385l-4.025,1.369v5.136l6.131,2.794
		l-0.177,5.08l-2.701,0.229c-0.008-0.083-0.019-0.137-0.019-0.137l-3.235-0.994l-8.499-2.625l-0.492-3.759h-0.018l3.427-2.358
		v-3.427l-3.687-0.924l-0.911,3.165l-6.465,0.998l-0.645-0.215v0.324l-2.241,0.341l-1.829-3.688l-2.116-0.924h-4.606l-2.098,1.711
		v3.815l3.941,1.312l3.89,0.546l-0.869,0.383l-3.548,3.933l-1.568-1.967l-3.425-0.907l-9.349,8.801l1.221,1.002l-13.808,7.641
		l-12.984,13.51l-0.88,6.012l-13.023,8.551l-6.448,6.492l0.713,12.978l-8.955-4.168l0.07-7.592l-24.903,0.008l-12.89,6.53
		l-5.61,10.322l-2.213,8.187l3.63,7.94l10.155,1.236l16.144-10.797l1.416,5.351l-4.928,9.307l12.296,2.099l1.221,18.98l16.851,2.859
		l10.694-12.37l12.986,2.642l4.563,6.344l12.451-0.735l0.35-3.682l6.838,3.333l7.727,12.096l13.322,0.185l4.922,8.601l0.697,10.519
		l9.482,3.612l5.263,2.003l18.588,0.18l5.445,8.934l8.242,2.64l-1.592,7.375l-9.03,11.483l-2.636,25.402l-8.146,6.449l-12.109-0.362
		l-4.025,6.99v0.062l2.987,13.126l-2.987,3.819l-10.18,13.027l-4.206,7.718l-12.551,6.033l-8.254,1.251l-0.341,3.502l5.791,1.661
		l-0.699,3.769l-5.189,4.998l3.155,3.964l6.236,0.173l-0.347,4.823l-1.661,4.736l-0.534,3.852l9.229,7.78l-1.229,4.037
		l-12.557-0.239l-12.503-10.912l-9.744-17.113l1.36-16.524l-7.365-9.831l2.983-16.658l-4.384-1.233v-36.138
		c0,0-12.279-9.307-12.978-9.307c-0.701,0-6.489-1.574-6.489-1.574l-1.237-6.839l-15.955-20.002l1.579-7.191l0.518-11.757
		l11.043-7.719l-1.58-13.162l-16.13-1.214l-12.631-14.396l-8.947-2.448l-5.779-1.061l0.69-5.261l-7.368-1.052v2.981l-18.419-4.557
		l-7.416-11.345l3.021-5.498l-11.671-17.024l-2.005-12.454h-4.736l1.579,12.101l8.065,12.454l-0.876,4.922l-6.838-1.053
		l-8.416-14.352v-16.7l-8.768-4.215V379.58c-10.846,25.39-16.86,53.315-16.86,82.622c0,116.411,94.71,211.119,211.121,211.119
		c0.156,0,0.312-0.008,0.472-0.008c65.804-0.146,124.613-30.569,163.257-78.031h-6.965v-14.032l-8.049-10.854v-16.877l-6.158-6.126
		l-0.528-7.023l7.81-14.915l-14.818-26.143l1.758-17.731l-13.34-1.388l-4.902-4.914h-8.954l-4.551,4.208h-15.796l-0.529,1.403
		h-8.773l-20.17-22.975l0.163-17.9l3.331-1.223l1.238-6.846h-4.732l-1.937-7.19l23.344-16.839v-11.929l11.416-6.343l4.616,0.463
		h9.405l7.345-3.947l23.693-1.847v12.107l18.691,4.74l3.684,2.63h3.421v-6.589l10.786-1.047l10.273,7.636h16.834l1.179-1.08
		c-1.666-5.683-3.575-11.256-5.699-16.734l-11.005,0.184l-5.524-6.058l-1.056-9.733l-5.648,3.084l-3.038,11.902l-8.154-8.682
		l-0.334-8.208l-7.881-6.782l-2.909-2.89h-9.146l2.896,8.142l10.998,6.133l1.909,2.025l-2.378,1.19l0.089,6.451l-5.347,2.235
		l-4.58-1.004l-2.853-4.051l7.433,0.4l2.006-2.707l-16.481-11.121l-1.257-4.736l-6.694,6.056l-6.798-1.396l-10.333,13.433
		l-2.027,5.26l-6.604,0.604l-9.779,0.061l-5.844-2.734l-1.723-11.612l2.098-5.535l9.951-2.177l10.855,2.177l1.319-6.004l-4.61-1.089
		l1.58-9.349l10.915-1.709l7.636-10.785l7.89-1.324l7.118,1.056h2.616l-1.436-10.132l-8.657,3.493l-3.036-7.57l-5.021-0.699
		l-0.94-5.192l4.104-4.459l9.733-3.815l2.511-4.479c-37.107-32.689-85.719-52.622-138.905-52.74
		C488.126,251.088,487.97,251.083,487.814,251.083L487.814,251.083z M587.66,346.248l0.691-7.278l5.098-1.058l-0.428-3.419
		l-4.75-2.985l-3.335-2.277v-3.343l1.935-2.976l6.93-1.404l1.75,8.425l3.689,5.962l2.448,2.813l4.475,1.743l-4.206,5.01
		l-8.156,0.785H587.66L587.66,346.248z M573.532,343.438v-4.383l4.224-6.754l5.687-1.316l4.048,1.756l-0.368,4.559l-8.676,6.14
		H573.532L573.532,343.438z M462.979,363.001v-3.118h6.044l1.255-3.223l2.4-0.05l2.755,0.57l-1.176,2.442l-3.003,0.261l-0.61,2.903
		l-2.312,1.438l-3.704,0.31c-0.123-0.868-0.212-1.534-0.212-1.534H462.979L462.979,363.001z M454.448,365.385l0.235-3.052l1.97-2.45
		l2.634,2.071l-0.448,3.065L454.448,365.385L454.448,365.385z"/>
</g>
<path fill="#00DACE" d="M576.232,663.375l0.008-0.002c-0.48-2.555-0.97-3.721-1.261-4.418l-0.274-0.686
	c-0.315-0.801-0.51-1.287-0.419-1.918c0.05-0.344,0.185-0.715,0.328-1.109c0.063-0.174,0.125-0.352,0.182-0.525l0.194-0.586
	c0.671-2,1.426-4.271,0.396-5.926c-0.494-0.793-1.345-1.33-2.53-1.602c-0.506-3.58-1.163-7.238-1.935-10.773l-0.039-0.184
	c-2.121-9.762-5.184-19.17-9.12-28.025c-3.196-7.148-6.099-11.994-7.515-14.186l-0.129-0.248l-1.007-75.385
	c0-1.383-0.269-4.931-0.529-8.366c-0.247-3.253-0.502-6.618-0.502-7.831c0-12.239-4.606-23.812-13.334-33.509
	c0.895-1.596,1.697-2.951,2.497-4.221c0.193-0.311,0.209-0.686,0.031-0.996c-0.334-0.612-1.321-0.67-1.723-0.069
	c-0.796,1.203-1.574,2.422-2.343,3.645c-0.837-0.86-1.712-1.708-2.617-2.524c0.867-1.325,1.711-2.671,2.53-4.02
	c0.189-0.309,0.202-0.684,0.023-0.992c-0.339-0.624-1.337-0.657-1.718-0.061c-0.824,1.284-1.691,2.526-2.476,3.629
	c-1.319-1.12-2.665-2.173-4.023-3.14c0.632-1.467,1.289-3.075,1.997-4.898l0.144-0.551l-0.24-0.348
	c-0.411-0.601-1.484-0.49-1.771,0.195c-0.649,1.562-1.351,3.083-1.956,4.357c-0.525-0.359-1.072-0.684-1.611-1.023
	c0.767-2.384,1.551-4.597,2.383-6.742l0.136-0.553l-0.239-0.35c-0.408-0.595-1.479-0.492-1.773,0.205
	c-0.867,2.132-1.67,4.237-2.42,6.292c-0.516-0.298-1.025-0.603-1.547-0.885c0.745-1.334,1.479-2.681,2.179-4.036
	c0.17-0.313,0.158-0.676-0.025-0.979c-0.372-0.62-1.379-0.608-1.723,0.025c-0.771,1.406-1.602,2.775-2.35,3.988
	c-0.45-0.227-0.898-0.438-1.352-0.657c0.556-1.723,1.099-3.271,1.655-4.712l0.139-0.551l-0.241-0.348
	c-0.408-0.599-1.493-0.484-1.77,0.201c-0.643,1.578-1.227,3.062-1.767,4.518c-0.46-0.201-0.926-0.396-1.392-0.587
	c0.348-1.028,0.685-2.063,1.013-3.101l0.099-0.548l-0.239-0.327c-0.439-0.603-1.518-0.446-1.765,0.272
	c-0.336,0.989-0.693,1.967-1.062,2.939c-1.136-0.423-2.286-0.809-3.443-1.178c0.176-1.271,0.392-2.596,0.674-4.069
	c0.053-0.292-0.022-0.601-0.21-0.829c-0.489-0.585-1.57-0.348-1.744,0.406c-0.276,1.286-0.531,2.574-0.776,3.866
	c-1.185-0.338-2.374-0.65-3.573-0.925c0.081-1.868,0.197-3.255,0.391-5.072c0.032-0.283-0.055-0.552-0.238-0.755l-0.376-0.32h-0.355
	c-0.518,0-0.95,0.386-1.015,0.888l-0.121,0.928c-0.17,1.324-0.326,2.536-0.46,3.866c-0.218-0.042-0.437-0.097-0.66-0.135
	c-0.027-1.062-0.075-1.912-0.134-2.988l-0.05-0.857c-0.031-0.537-0.464-0.944-1.005-0.944c-0.271,0-0.538,0.108-0.72,0.302
	l-0.284,0.374l0.016,0.342c0.033,1.203,0.037,2.268,0.021,3.39c-0.713-0.11-1.438-0.21-2.163-0.303
	c-0.236-1.524-0.429-3.188-0.601-5.062c-0.045-0.525-0.479-0.917-1.011-0.917c-0.272,0-0.538,0.111-0.722,0.307l-0.282,0.389
	l0.023,0.35c0.099,1.452,0.22,3.017,0.388,4.686c-0.392-0.039-0.776-0.051-1.164-0.087c-0.164-0.756-0.338-1.509-0.51-2.262
	c-0.172-0.744-1.268-0.976-1.75-0.383c-0.189,0.235-0.259,0.545-0.197,0.834c0.12,0.549,0.22,1.105,0.322,1.653
	c-1.035-0.06-2.064-0.089-3.08-0.107c-0.021-0.134-0.047-0.278-0.061-0.408c-0.218-2.282-0.358-4.409-0.421-6.485
	c-0.017-0.546-0.453-0.972-1.002-0.972c-0.265,0-0.525,0.106-0.715,0.294l-0.284,0.369l0.002,0.338
	c0.027,2.28,0.097,4.492,0.221,6.578c0.002,0.085,0.004,0.186,0.008,0.274c-0.576,0.008-1.155,0.032-1.73,0.054
	c0-1.503-0.025-3.088-0.083-4.97c-0.025-0.54-0.466-0.961-1.011-0.961c-0.263,0-0.521,0.107-0.704,0.293l-0.292,0.371l0.008,0.338
	c0.014,1.73-0.051,3.471-0.114,4.948c0,0.027-0.002,0.056-0.006,0.083c-1.108,0.075-2.215,0.16-3.341,0.284
	c-0.251-1.611-0.456-3.332-0.626-5.227c-0.05-0.52-0.484-0.911-1.012-0.911c-0.278,0-0.541,0.113-0.725,0.312l-0.284,0.384
	l0.029,0.348c0.124,1.823,0.278,3.62,0.462,5.349c-0.561,0.079-1.116,0.164-1.675,0.253c-0.01-1.244-0.041-2.489-0.083-3.735
	c-0.018-0.539-0.458-0.964-1-0.964c-0.267,0-0.525,0.108-0.709,0.294l-0.286,0.372v0.336c0.014,1.414-0.027,2.834-0.075,4.093
	c-0.666,0.126-1.335,0.278-2.001,0.429c-0.062-0.154-0.133-0.318-0.18-0.463c-0.612-1.795-1.12-3.423-1.549-4.981
	c-0.203-0.737-1.288-0.937-1.756-0.338c-0.184,0.241-0.251,0.553-0.178,0.85c0.429,1.711,0.877,3.417,1.367,5.116
	c0.033,0.103,0.062,0.228,0.091,0.344c-0.54,0.14-1.087,0.269-1.622,0.423c-0.237-1.29-0.486-2.572-0.765-3.849
	c-0.156-0.752-1.244-0.995-1.738-0.408c-0.189,0.229-0.265,0.533-0.21,0.827c0.231,1.223,0.445,2.545,0.656,4.03
	c-0.738,0.229-1.464,0.474-2.187,0.729c-0.396-1.8-0.8-3.597-1.247-5.389c-0.195-0.745-1.275-0.956-1.75-0.365
	c-0.191,0.24-0.259,0.547-0.191,0.845c0.411,1.804,0.725,3.607,0.983,5.125c0.026,0.174,0.046,0.379,0.065,0.568
	c-0.32,0.121-0.649,0.237-0.966,0.363c-0.22-0.974-0.456-1.945-0.697-2.915c-0.189-0.747-1.272-0.954-1.748-0.364
	c-0.192,0.243-0.259,0.546-0.192,0.842c0.247,1.087,0.463,2.179,0.66,3.275c-0.468,0.205-0.933,0.425-1.396,0.642
	c-0.045-0.106-0.104-0.229-0.145-0.329c-0.674-1.707-1.438-3.491-2.392-5.612c-0.299-0.666-1.317-0.726-1.719-0.117
	c-0.189,0.285-0.222,0.641-0.091,0.952c0.823,1.946,1.528,3.876,2.109,5.512c0.067,0.176,0.121,0.396,0.184,0.589
	c-0.437,0.224-0.873,0.435-1.306,0.664c-0.564-1.379-1.088-2.555-1.729-3.985c-0.302-0.667-1.31-0.725-1.715-0.118
	c-0.195,0.286-0.229,0.641-0.097,0.962c0.646,1.525,1.139,2.815,1.638,4.192c-0.557,0.321-1.1,0.667-1.649,1.003
	c-0.053-0.132-0.114-0.271-0.17-0.396c-0.763-1.948-1.661-4.065-2.818-6.671c-0.297-0.67-1.32-0.728-1.723-0.121
	c-0.189,0.287-0.222,0.646-0.089,0.962c0.877,2.059,1.746,4.299,2.812,7.25c0.026,0.065,0.044,0.141,0.069,0.205
	c-0.562,0.376-1.124,0.745-1.675,1.135c-0.525-1.381-1.063-2.752-1.626-4.119c-0.286-0.686-1.361-0.794-1.768-0.199l-0.251,0.504
	l0.151,0.395c0.625,1.628,1.17,3.242,1.666,4.765c-0.457,0.35-0.907,0.703-1.35,1.061c-0.33-0.774-0.674-1.54-1.014-2.305
	c-0.304-0.674-1.312-0.733-1.721-0.123c-0.188,0.281-0.225,0.641-0.093,0.96c0.401,0.948,0.78,1.91,1.145,2.875
	c-0.415,0.363-0.826,0.732-1.235,1.113c-0.632-1.198-1.25-2.445-1.845-3.717c-0.312-0.652-1.325-0.702-1.721-0.092
	c-0.188,0.285-0.215,0.646-0.075,0.953c0.648,1.478,1.328,2.947,2.027,4.402c-0.714,0.712-1.367,1.389-1.968,2.041
	c-0.678-1.004-1.373-1.997-2.076-2.981c-0.415-0.578-1.395-0.503-1.719,0.109c-0.166,0.317-0.145,0.705,0.063,1.007
	c0.725,1.065,1.45,2.201,2.268,3.53c-7.943,9.407-12.137,20.505-12.137,32.153c0,1.213-0.274,4.469-0.535,7.625
	c-0.279,3.326-0.563,6.767-0.563,8.14l-1.286,72.311l-3.413,7.656c-4.022,7.68-7.511,16.76-10.371,27.014
	c-2.123,7.602-3.353,13.893-3.938,17.24l-0.058-0.109l-0.286,2.158c-1.166,0.271-2.007,0.812-2.493,1.607
	c-1.02,1.654-0.267,3.916,0.401,5.912l0.189,0.582c0.059,0.168,0.124,0.338,0.186,0.516c0.143,0.395,0.28,0.766,0.328,1.115
	c0.087,0.627-0.102,1.109-0.423,1.916l-0.271,0.691c-0.291,0.695-0.78,1.871-1.259,4.416h0.004c-0.35,1.336-0.869,6.613,0.309,9.088
	c0.893,1.861,2.264,2.426,3.963,2.973c0.762,0.242,2.341,0.016,3.735-0.209c0.62-0.092,1.266-0.193,1.706-0.211
	c0.413,0.488,0.792,0.988,1.154,1.475c1.57,2.082,3.166,4.248,7.06,3.688c4.113-0.604,6.46-3.43,6.393-7.625
	c2.468-0.324,4.741-1.781,5.823-3.781c0.944-1.752,0.863-3.691-0.229-5.459c-1.411-2.289-3.192-2.832-4.915-3.363
	c-0.822-0.248-1.667-0.512-2.507-0.971c-1.255-0.688-2.519-1.379-3.759-2.107c-0.119-0.068-0.206-0.125-0.281-0.172
	c0.101-0.207,0.218-0.482,0.293-0.869c0.363-1.803,0.435-3.521,0.512-5.352l0.018-0.332l-0.018-0.422l-0.237-0.248
	c-0.166-0.174-0.378-0.264-0.603-0.309l2.789-13.1l0.938-1.236c3.206,13.949,17.02,25.508,37.47,31.264l-3.111,5.572
	c-2.294,0.365-13.399,2.357-16.123,7.342c-0.728,1.342-0.824,2.777-0.281,4.273l-0.776,0.771l0.633,3.145l0.597,0.053
	c0.061,0.002,5.876,0.525,12.265,0.525c6.688,0,11.559-0.555,14.361-1.605l6.27-1.289v0.652l0.786,0.021
	c0,0,0.366,0.006,0.969,0.006c3.982,0,9.062-0.297,10.649-1.707l0.715-1.293l-0.269-2.922l-0.816-0.615l-0.01-3.086l0.237-1.426
	l-0.979-4.637c1.167,0.041,2.301,0.068,3.425,0.072c-0.723,2.428-2.129,7.838-0.981,9.826l-0.316,4.504l0.711,0.127
	c0.162,0.031,4.019,0.717,6.059,0.717c0.399,0,0.71-0.027,0.959-0.074l0.248-0.059l0.676-0.742
	c2.062,0.955,9.555,4.055,19.956,4.055c4.084,0,8.162-0.488,12.129-1.455l0.592-0.143l0.141-3.842l-0.817-0.746
	c0.223-0.58,0.429-1.543,0.371-3.078c0.081-0.318,0.137-0.896-0.211-1.646c-1.139-2.467-5.557-4.734-13.001-6.703l-5.679-2.689
	c23.57-4.629,40.926-17.07,45.466-32.494l2.05,5.955l1.462,11.664l0.021,0.34c0.07,1.742,0.146,3.541,0.508,5.346
	c0.07,0.355,0.176,0.619,0.292,0.869c-0.071,0.045-0.16,0.1-0.28,0.172c-1.146,0.672-2.312,1.312-3.481,1.955l-0.28,0.152
	c-0.832,0.461-1.687,0.725-2.507,0.973c-1.717,0.531-3.5,1.076-4.913,3.359c-1.09,1.77-1.171,3.707-0.23,5.459
	c1.08,2.002,3.355,3.455,5.827,3.785c-0.065,4.189,2.277,7.018,6.391,7.621c3.89,0.557,5.495-1.6,7.058-3.689
	c0.368-0.486,0.743-0.988,1.164-1.477c0.369,0.012,1.047,0.117,1.698,0.217c1.394,0.223,2.978,0.441,3.731,0.201
	c1.701-0.539,3.074-1.104,3.963-2.969C577.104,669.99,576.586,664.709,576.232,663.375z"/>
<g>
	<path fill="#434A54" stroke="#434A54" stroke-width="3" stroke-miterlimit="10" d="M577.813,664.835l0.01-0.004
		c-0.5-2.661-1.014-3.89-1.322-4.625l-0.272-0.685c-0.308-0.779-0.431-1.112-0.373-1.52c0.035-0.261,0.158-0.595,0.286-0.948
		l0.39-1.151c0.699-2.082,1.564-4.676,0.321-6.673c-0.537-0.863-1.387-1.476-2.53-1.832c-4.148-28.706-15.159-47.803-18.839-53.533
		l-1.014-75.952c0-1.428-0.259-4.871-0.537-8.517c-0.247-3.27-0.502-6.655-0.502-7.843c0-12.731-4.958-24.488-13.305-33.945
		c0.795-1.408,1.52-2.627,2.232-3.751c0.527-0.848,0.284-1.936-0.553-2.476c-0.854-0.549-1.954-0.325-2.521,0.524
		c-0.627,0.949-1.228,1.916-1.84,2.878c-0.483-0.48-0.968-0.962-1.47-1.429c0.751-1.167,1.51-2.329,2.223-3.51
		c0.527-0.857,0.271-1.948-0.587-2.481c-0.859-0.537-1.967-0.29-2.501,0.559c-0.642,0.998-1.335,1.962-2.019,2.93
		c-0.94-0.772-1.908-1.522-2.899-2.248c0.62-1.462,1.238-2.925,1.813-4.407c0.354-0.928-0.087-1.941-1.004-2.311
		c-0.933-0.372-2.005,0.073-2.395,1.001c-0.514,1.235-1.061,2.442-1.572,3.538c-0.104-0.067-0.205-0.136-0.31-0.201
		c0.695-2.128,1.426-4.21,2.185-6.171c0.363-0.929-0.075-1.948-1.002-2.321c-0.935-0.38-2.009,0.075-2.396,1.007
		c-0.085,0.206-0.154,0.411-0.235,0.617c-0.146-0.411-0.433-0.778-0.854-1.004c-0.877-0.468-1.96-0.158-2.441,0.723
		c-0.667,1.215-1.345,2.341-1.992,3.398c-0.016-0.007-0.033-0.015-0.044-0.022c0.479-1.464,0.956-2.836,1.427-4.067
		c0.372-0.93-0.065-1.951-0.99-2.327c-0.928-0.381-2.013,0.067-2.399,1.006c-0.421,1.029-0.809,2.074-1.211,3.117
		c0.191-0.581,0.389-1.155,0.574-1.746c0.285-0.952-0.23-1.938-1.175-2.244c-0.959-0.316-1.967,0.186-2.303,1.151
		c-0.247,0.735-0.529,1.456-0.798,2.187c-0.678-0.248-1.369-0.472-2.061-0.697c0.168-1.138,0.338-2.275,0.553-3.397
		c0.196-0.993-0.43-1.936-1.422-2.146c-0.978-0.207-1.918,0.396-2.137,1.381c-0.224,1.018-0.417,2.041-0.617,3.062
		c-0.711-0.193-1.426-0.367-2.145-0.541c0.08-1.533,0.191-2.812,0.359-4.418c0.104-0.985-0.583-1.849-1.564-1.967
		c-0.977-0.123-1.916,0.583-2.055,1.592l-0.02,0.166c-0.312-0.624-0.962-1.043-1.703-1.006c-1.01,0.038-1.773,0.861-1.738,1.863
		c0.029,0.871,0.035,1.673,0.033,2.474c-0.219-0.032-0.435-0.071-0.655-0.1c-0.196-1.376-0.374-2.826-0.525-4.464
		c-0.089-1.012-0.956-1.748-1.966-1.665c-0.996,0.075-1.727,0.912-1.663,1.92c0.037,0.561,0.087,1.161,0.134,1.752
		c-0.361-0.743-1.157-1.175-1.995-0.983c-0.995,0.225-1.602,1.179-1.389,2.155c0.042,0.205,0.077,0.416,0.119,0.62
		c-0.459-0.018-0.927-0.018-1.387-0.03c-0.2-2.1-0.34-4.182-0.401-6.179c-0.027-0.998-0.822-1.77-1.823-1.77
		c-0.01,0-0.021,0-0.035,0c-1.008,0.018-1.792,0.819-1.782,1.831c0.021,2.042,0.095,4.083,0.201,6.117
		c-0.041,0.002-0.081,0.002-0.122,0.004c-0.008-1.4-0.018-2.803-0.063-4.203c-0.037-0.989-0.832-1.756-1.823-1.756
		c-0.012,0-0.021,0-0.033,0c-1.002,0.018-1.786,0.815-1.786,1.829c0.014,1.439-0.037,2.874-0.099,4.316
		c-0.628,0.049-1.255,0.104-1.881,0.166c-0.197-1.381-0.377-2.831-0.527-4.477c-0.099-1.008-0.927-1.738-1.985-1.646
		c-0.991,0.083-1.711,0.927-1.642,1.916c0.021,0.342,0.067,0.68,0.091,1.023c-0.312-0.575-0.916-0.954-1.64-0.977
		c-1.007,0.022-1.785,0.824-1.777,1.83c0.012,1.159-0.036,2.314-0.075,3.469c-0.231,0.051-0.47,0.089-0.699,0.14
		c-0.585-1.727-1.074-3.295-1.476-4.765c-0.267-0.968-1.236-1.517-2.209-1.273c-0.976,0.255-1.553,1.221-1.313,2.202
		c0.077,0.309,0.17,0.616,0.247,0.927c-0.405-0.488-1.039-0.757-1.707-0.631c-0.987,0.19-1.642,1.145-1.46,2.138
		c0.212,1.122,0.37,2.25,0.538,3.376c-0.233,0.077-0.461,0.156-0.695,0.231c-0.338-1.531-0.682-3.068-1.065-4.607
		c-0.253-0.966-1.195-1.534-2.185-1.299c-0.979,0.24-1.572,1.196-1.353,2.177c0.142,0.624,0.238,1.256,0.359,1.886
		c-0.427-0.367-0.996-0.551-1.589-0.408c-0.989,0.243-1.578,1.205-1.351,2.171c0.199,0.889,0.361,1.785,0.529,2.681
		c-0.02,0.008-0.04,0.018-0.06,0.027c-0.713-1.768-1.464-3.522-2.242-5.261c-0.413-0.91-1.446-1.302-2.354-0.906
		c-0.921,0.403-1.355,1.483-0.964,2.4c0.591,1.4,1.101,2.757,1.572,4.041c-0.263-0.595-0.533-1.197-0.838-1.88
		c-0.402-0.901-1.434-1.296-2.341-0.911c-0.922,0.397-1.36,1.474-0.974,2.408c0.552,1.308,0.987,2.428,1.416,3.591
		c-0.095,0.054-0.188,0.113-0.282,0.17c-0.744-1.864-1.6-3.875-2.681-6.302c-0.408-0.9-1.432-1.302-2.345-0.91
		c-0.92,0.397-1.357,1.474-0.97,2.412c0.84,1.976,1.679,4.133,2.688,6.908c-0.114,0.077-0.229,0.153-0.344,0.234
		c-0.421-1.086-0.824-2.175-1.269-3.243c-0.379-0.931-1.453-1.385-2.394-1.01c-0.927,0.375-1.365,1.393-1.002,2.308
		c0.541,1.408,1.016,2.835,1.485,4.269c-0.029,0.02-0.057,0.044-0.083,0.063c-0.205-0.462-0.4-0.933-0.608-1.391
		c-0.402-0.909-1.424-1.321-2.347-0.923c-0.924,0.397-1.362,1.474-0.974,2.408c0.336,0.798,0.642,1.602,0.952,2.406
		c-0.014,0.01-0.025,0.021-0.037,0.031c-0.465-0.912-0.933-1.851-1.395-2.833c-0.432-0.902-1.479-1.271-2.379-0.854
		c-0.908,0.426-1.315,1.511-0.908,2.411c0.59,1.33,1.215,2.649,1.841,3.969c-0.312,0.314-0.622,0.637-0.927,0.958
		c-0.514-0.746-1.021-1.497-1.547-2.236c-0.587-0.821-1.707-1.017-2.538-0.438c-0.818,0.565-1.027,1.657-0.47,2.497
		c0.692,1.014,1.335,2.057,1.979,3.098c-7.601,9.199-12.089,20.408-12.089,32.503c0,1.182-0.271,4.457-0.535,7.629
		c-0.295,3.536-0.571,6.874-0.571,8.278l-1.333,74.591c-10.861,17.534-17.307,44.206-18.067,52.327
		c-1.147,0.355-2.005,0.972-2.545,1.839c-1.244,1.997-0.377,4.591,0.318,6.677l0.384,1.122c0.132,0.365,0.257,0.707,0.294,0.978
		c0.058,0.401-0.063,0.735-0.371,1.512l-0.272,0.686c-0.307,0.734-0.82,1.965-1.322,4.636l0.013,0.002
		c-0.477,1.863-0.828,7.163,0.369,9.678c1.041,2.171,2.718,2.858,4.488,3.423c0.943,0.305,2.627,0.069,4.148-0.174
		c0.456-0.072,0.889-0.146,1.236-0.184c0.312,0.38,0.599,0.765,0.881,1.142c1.46,1.938,3.109,4.141,6.57,4.141
		c0.413,0,0.854-0.033,1.325-0.103c4.309-0.626,6.941-3.567,7.142-7.818c2.473-0.527,4.689-2.066,5.799-4.121
		c1.097-2.036,1.006-4.282-0.256-6.327c-1.587-2.567-3.623-3.192-5.419-3.743c-0.826-0.255-1.608-0.494-2.396-0.925
		c-1.155-0.634-2.312-1.271-3.452-1.936c0.031-0.114,0.062-0.235,0.09-0.369c0.378-1.883,0.455-3.736,0.532-5.529l0.016-0.342
		l-0.004-0.771l-0.479-0.5c-0.116-0.118-0.243-0.199-0.369-0.274c0.601-4.328,1.412-8.629,2.422-12.872
		c3.749,13.99,17.616,25.266,37.155,31.024l-2.439,4.363c-3.206,0.527-13.674,2.617-16.487,7.77c-0.764,1.4-0.928,2.93-0.491,4.483
		l-0.743,0.743l0.842,4.191l1.209,0.107c0.425,0.039,6.051,0.535,12.374,0.535c5.381,0,11.266-0.361,14.875-1.663l5.244-1.077v0.453
		l1.588,0.039c2.221,0.048,9.355,0.054,11.93-1.691l-0.02,0.267l1.435,0.257c1.331,0.239,5.789,0.992,7.403,0.639l0.512-0.11
		l0.46-0.51c2.73,1.197,10.057,3.94,19.887,3.94c3.833,0,8.046-0.417,12.516-1.507l1.191-0.289l0.182-4.871l-0.717-0.655
		c0.174-0.662,0.294-1.566,0.259-2.782c0.097-0.468,0.116-1.198-0.296-2.084c-1.249-2.702-5.844-5.134-13.658-7.226l-3.411-1.614
		c22.278-4.976,38.973-17.031,43.921-32.205c1.31,5.044,2.325,10.188,3.054,15.357c-0.125,0.075-0.249,0.156-0.361,0.272
		l-0.512,0.581l0.045,1.029c0.077,1.795,0.156,3.65,0.537,5.534c0.026,0.131,0.058,0.253,0.088,0.368
		c-1.027,0.595-2.068,1.169-3.113,1.742l-0.36,0.199c-0.771,0.423-1.554,0.662-2.38,0.915c-1.794,0.553-3.828,1.179-5.417,3.745
		c-1.262,2.043-1.351,4.295-0.253,6.329c1.108,2.053,3.327,3.594,5.798,4.117c0.202,4.251,2.835,7.19,7.14,7.82
		c0.472,0.069,0.91,0.101,1.323,0.101c3.463,0,5.116-2.2,6.578-4.141c0.28-0.377,0.565-0.761,0.879-1.144
		c0.344,0.041,0.774,0.116,1.233,0.186c1.521,0.239,3.218,0.469,4.144,0.176c1.772-0.562,3.451-1.248,4.492-3.425
		C578.641,672.004,578.289,666.697,577.813,664.835z M523.614,453.693c-0.071,0.186-0.146,0.371-0.214,0.561
		c-0.025-0.016-0.047-0.027-0.071-0.039C523.427,454.041,523.518,453.867,523.614,453.693z M475.783,445.258
		c0.019,0.222,0.034,0.442,0.058,0.666c-0.014,0.002-0.031,0.004-0.047,0.006C475.791,445.706,475.787,445.481,475.783,445.258z
		 M467.491,447.259c0.033,0.119,0.062,0.243,0.095,0.363c-0.008,0-0.015,0.003-0.021,0.007
		C467.54,447.506,467.517,447.38,467.491,447.259z M418.576,620.89c0.073,1.827,0.14,3.57,0.174,4.662
		c-2.094,6.952-3.637,14.14-4.623,21.384c-0.213,0.027-0.391,0.046-0.626,0.075c-2.25,0.278-5.229,0.662-8.004,0.365l-0.261-0.027
		c-0.316-0.027-1.095-0.103-1.452-0.201c-0.069-0.27-0.087-0.805-0.037-1.209l0.294-2.116l-0.034,0.004
		c1.158-6.696,5.33-27.598,14.606-45.047l-0.271,15.104C418.343,614.842,418.465,617.955,418.576,620.89z M419.504,659.671
		c1.065,0.587,2.089,0.899,2.993,1.176c1.603,0.493,2.661,0.817,3.604,2.343c0.647,1.045,0.699,2.082,0.16,3.079
		c-0.797,1.482-2.703,2.555-4.637,2.61l-1.717,0.051l0.146,1.711c0.201,2.374-0.386,5.321-4.344,5.896
		c-2.306,0.354-3.21-0.624-4.824-2.775c-0.462-0.614-0.937-1.244-1.476-1.845c-0.554-0.625-1.333-0.625-1.588-0.625
		c-0.546,0-1.294,0.117-2.159,0.255c-0.865,0.137-1.846,0.289-2.456,0.289c-0.091,0-0.17,0-0.195,0
		c-1.547-0.496-2.102-0.799-2.548-1.73c-0.724-1.521-0.498-5.158-0.281-6.821l0.164-0.859c0.435-2.333,0.852-3.326,1.122-3.982
		l0.301-0.745c0.365-0.932,0.744-1.894,0.564-3.162c-0.087-0.608-0.286-1.151-0.46-1.632l-0.355-1.041
		c-0.386-1.159-0.896-2.685-0.769-3.544c0.209,0.579,0.559,1.124,1.128,1.505c0.78,0.512,1.889,0.652,3.052,0.763l0.233,0.021
		c3.056,0.323,6.457-0.089,8.735-0.372c0.369-0.045,0.709-0.087,1.021-0.124c-0.068,1.286-0.169,2.528-0.418,3.763
		c-0.032,0.174-0.081,0.271-0.158,0.419c-0.954,1.885,0.628,2.813,1.304,3.21C416.911,658.249,418.202,658.956,419.504,659.671z
		 M482.877,680.978c-1.039,0.544-4.545,0.954-8.284,0.98v-1.237l-9.263,1.9l-0.239,0.069c-6.041,2.248-20.476,1.393-24.744,1.078
		l-0.02-0.097l1.047-1.049l-0.475-1.027c-0.458-0.989-0.462-1.835-0.014-2.656c1.782-3.266,10.081-5.557,14.895-6.234l0.799-0.109
		l3.608-6.459c6.493,1.663,13.556,2.729,21.024,3.119l0.855,4.027l-0.166,0.986l-0.021,4.734l0.932,0.698l0.107,1.188
		L482.877,680.978z M485.208,672.433l-0.647-3.047c0.458,0.011,0.922,0.013,1.381,0.021
		C485.662,670.405,485.409,671.429,485.208,672.433z M512.761,671.567l0.277,0.104c10.144,2.696,11.542,5.116,11.716,5.566
		l-0.06,0.123l0.02,0.408c0.081,1.717-0.182,2.262-0.158,2.25l-1.074,1.182l1.644,1.501l-0.033,0.896
		c-16.909,3.668-29.957-2.906-30.088-2.974l-1.11-0.572l-1.331,1.466c-0.004,0-0.006,0-0.008,0c-0.869,0-2.58-0.194-4.265-0.453
		l0.186-2.635l0.124-0.608l-0.487-0.518c-0.378-0.804,0.186-4.388,1.219-7.899c5.501-0.085,10.821-0.56,15.899-1.397
		L512.761,671.567z M487.587,666.184c-37.379,0-65.566-17.054-65.566-39.672c0-0.675-0.097-3.137-0.197-5.75
		c-0.11-2.878-0.232-5.937-0.232-6.849l1.724-96.424c0-1.298,0.285-4.724,0.56-8.039c0.282-3.382,0.549-6.581,0.549-7.897
		c0-29.36,28.207-53.247,62.877-53.247c34.675,0,62.883,23.887,62.883,53.247c0,1.31,0.247,4.604,0.512,8.088
		c0.259,3.426,0.527,6.964,0.527,8.293l1.292,96.795c0,1.027,0.085,3.688,0.162,6.118c0.065,2.007,0.125,3.854,0.125,4.454
		C552.801,648.226,524.157,666.184,487.587,666.184z M555.922,620.742c-0.075-2.389-0.16-5.006-0.16-6.037l-0.193-14.334
		c4.64,8.351,12.038,24.429,15.378,46.464l-0.016-0.002l0.293,2.119c0.049,0.352,0.039,0.915-0.034,1.201
		c-0.365,0.101-1.076,0.17-1.404,0.204l-0.318,0.031c-0.684,0.071-1.387,0.103-2.09,0.103c-2.113,0-4.214-0.261-5.902-0.47
		c-0.235-0.028-0.419-0.048-0.634-0.073c-1.041-7.501-2.681-14.94-4.903-22.133c0.069-0.831,0.112-1.671,0.112-2.515
		C556.05,624.687,555.989,622.796,555.922,620.742z M574.508,673.113c-0.446,0.938-1.001,1.239-2.507,1.721
		c-0.518,0.083-1.704-0.124-2.692-0.278c-0.863-0.136-1.611-0.255-2.157-0.255c-0.256,0-1.033,0-1.584,0.624
		c-0.541,0.603-1.014,1.233-1.476,1.842c-1.616,2.157-2.522,3.121-4.832,2.783c-3.952-0.579-4.543-3.528-4.34-5.9l0.143-1.711
		l-1.715-0.05c-1.93-0.055-3.838-1.126-4.636-2.607c-0.54-0.999-0.486-2.036,0.157-3.079c0.944-1.529,2.003-1.852,3.607-2.347
		c0.902-0.275,1.926-0.589,2.989-1.174l0.361-0.199c1.177-0.645,2.349-1.29,3.506-1.97c0.674-0.397,2.25-1.333,1.3-3.212
		c-0.077-0.146-0.128-0.243-0.16-0.417c-0.249-1.236-0.35-2.478-0.417-3.765c0.307,0.035,0.646,0.08,1.018,0.124
		c2.277,0.284,5.676,0.705,8.739,0.375l0.288-0.027c1.186-0.116,2.232-0.253,3.003-0.763c0.565-0.377,0.913-0.918,1.122-1.499
		c0.123,0.859-0.387,2.384-0.774,3.544l-0.363,1.072c-0.172,0.473-0.367,1.006-0.45,1.604c-0.178,1.271,0.201,2.231,0.568,3.164
		l0.299,0.747c0.274,0.657,0.689,1.647,1.128,3.973l0.149,0.786C575,667.855,575.239,671.585,574.508,673.113z"/>
	<path fill="#434A54" stroke="#434A54" stroke-width="3" stroke-miterlimit="10" d="M487.237,453.201
		c-32.141,0-58.291,26.146-58.291,58.288s26.15,58.29,58.291,58.29c32.143,0,58.29-26.148,58.29-58.29
		S519.38,453.201,487.237,453.201z M487.237,566.529c-30.351,0-55.043-24.69-55.043-55.041c0-30.349,24.692-55.039,55.043-55.039
		s55.042,24.689,55.042,55.039C542.279,541.839,517.588,566.529,487.237,566.529z"/>
	<path fill="#434A54" stroke="#434A54" stroke-width="3" stroke-miterlimit="10" d="M478.405,497.079
		c-9.552,0-17.322,7.771-17.322,17.319c0,9.553,7.771,17.322,17.322,17.322c9.551,0,17.324-7.77,17.324-17.322
		C495.729,504.85,487.956,497.079,478.405,497.079z M473.224,513.189c-1.898,0-3.443-1.544-3.443-3.444
		c0-1.902,1.545-3.447,3.443-3.447c1.904,0,3.445,1.545,3.445,3.447C476.669,511.645,475.128,513.189,473.224,513.189z"/>
</g>
<g>
	<g>
		<path fill="#434A54" d="M139.17,455.467c-2.165-20.525-4.228-41.07-6.878-61.54c5.524-2.055,8.293-3.068,13.842-5.057
			c0.249,9.512,0.719,17.998,1.375,25.462c3.259-1.355,4.892-2.026,8.163-3.358c-0.291-4.021-0.617-7.932-0.982-11.733
			c-0.365-3.799-1.552-10.335-0.6-11.835c0.586-0.923,4.513-1.942,7.026-2.822c2.513-0.879,4.248-1.468,5.204-1.779
			c0.564-0.218,0.848-0.328,1.413-0.546c-0.653,12.66,0.431,25.268,1.494,37.858c0.609,7.219,1.379,14.58,2.329,22.056
			c-5.046,2.004-7.562,3.019-12.583,5.08c-0.223-3.417-0.456-6.632-0.698-9.644c-0.243-3.012-0.474-5.997-0.692-8.958
			c-0.219-2.96-0.416-5.498-0.599-7.614c-3.234,1.223-4.848,1.84-8.073,3.086c0.678,7.06,1.408,15.361,2.23,24.899
			C146.333,451.573,143.94,452.863,139.17,455.467z"/>
		<path fill="#434A54" d="M196.526,424.393c-0.181,5.032-0.265,7.548-0.417,12.577c-1.212,0.475-2.62,1.031-4.219,1.667
			c-1.604,0.638-3.194,1.262-4.771,1.872c-1.578,0.611-4.817,1.973-4.884,1.926c-1.027-0.725,0.608-14.403,0.877-19.802
			c0.27-5.397,0.502-9.834,0.679-13.308c0.176-3.471,0.353-6.916,0.532-10.328s0.367-6.717,0.558-9.905
			c0.191-3.187-0.163-7.889,0.486-8.732c2.862-3.724,23.059-8.654,23.604-8.342c0.956,0.546,1.714,11.781,3.011,19.064
			c2.382,13.378,9.456,36.259,7.316,40.199c-0.299,0.551-3.116,1.26-4.619,1.838c-1.504,0.58-3.057,1.201-4.651,1.865
			c-1.596,0.665-4.215,1.894-4.352,1.814c-0.935-0.543-1.251-9.999-1.807-14.212C200.932,423.3,199.462,423.661,196.526,424.393z
			 M196.489,415.755c2.419-0.769,3.631-1.15,6.055-1.905c-0.077-0.32-0.17-0.878-0.273-1.671c-0.103-0.791-0.208-1.728-0.355-2.748
			c-0.823-5.731-1.735-11.236-2.405-16.267c-0.447-2.906-0.669-4.358-1.113-7.265c-0.537,0.163-0.807,0.244-1.344,0.407
			C196.808,396.121,196.617,405.938,196.489,415.755z"/>
		<path fill="#434A54" d="M244.912,413.823c1.383-0.284,2.705-1.422,3.898-3.396c1.213-2.007,1.855-4.008,1.939-5.926
			c4.216,0.74,6.32,1.12,10.515,1.898c-1.43,6.135-3.818,11.266-7.167,15.392c-2.978,3.668-6.313,5.886-10.029,6.661
			c-3.499,0.73-6.688-0.217-9.532-2.854c-3.021-2.802-5.139-6.936-6.328-12.348s-1.602-10.797-1.21-16.16
			c0.392-5.362,1.524-10.337,3.406-14.915c1.882-4.577,4.482-8.5,7.798-11.749s7.268-5.322,11.827-6.2
			c2.941-0.566,5.709,0.004,8.117,1.731c2.408,1.727,3.939,4.433,4.583,7.939c0.077,0.421,0.115,0.63,0.192,1.051
			c0.06,0.324,0.094,0.682,0.108,1.069c-4.377,2.008-6.558,3.022-10.906,5.07c-0.943-1.213-1.886-1.729-2.827-1.545
			c-0.939,0.184-1.822,0.889-2.642,2.113c-0.822,1.226-1.566,2.746-2.233,4.558s-1.249,3.82-1.74,6.02
			c-0.491,2.199-0.848,4.411-1.117,6.57c-0.598,4.802-0.663,8.637-0.088,11.403C242.052,412.972,243.196,414.175,244.912,413.823z"
			/>
		<path fill="#434A54" d="M313.314,413.509c-0.231,0.42-5.451,0.637-8.349,1.082c-2.896,0.444-8.3,2.081-9.115,1.603
			c-2.088-1.223-4.576-14.179-7.036-22.113c-0.528,0.787-0.792,1.181-1.317,1.968c-0.115,1.744-0.207,3.874-0.273,6.386
			c-0.067,2.513-0.145,5.046-0.229,7.59c-0.084,2.545-0.164,5.271-0.235,8.176c-5.345,1.742-8.012,2.628-13.329,4.432
			c0.694-20.792-2.929-59.021,0.163-62.541c0.267-0.304,2.981-0.22,4.702-0.426c1.719-0.207,3.4-0.388,5.038-0.546
			c1.636-0.158,4.999-0.808,5.146-0.667c0.034,0.032-0.045,0.648-0.065,1.262c-0.021,0.615-0.047,1.37-0.082,2.263
			c-0.035,0.894-0.065,1.886-0.097,2.974c-0.032,1.088-0.093,2.545-0.182,4.365c-0.089,1.821-0.174,4.294-0.248,7.419
			c0.2-0.066,0.301-0.1,0.501-0.166c1.217-2.586,2.476-5.329,3.791-8.193c2.609-5.685,4.537-10.937,5.615-11.779
			c3.059-2.391,17.491-4.443,17.491-4.443c0.518,0.66-16.271,23.637-16.475,30.595c-0.103,3.521,4.432,10.571,6.956,15.544
			C308.209,403.267,313.519,413.138,313.314,413.509z"/>
		<path fill="#434A54" d="M350.386,361.334c-0.294-4.306-0.44-6.458-0.731-10.764c3.047-0.11,6.112-0.321,9.196-0.633
			c8.144-0.824,16.042-2.011,23.724-3.575c-0.237,1.836-0.354,2.754-0.588,4.59c-0.188,1.283-0.355,2.604-0.505,3.964
			c-0.149,1.361-0.15,3.191-0.447,3.547c-0.42,0.503-2.609,0.785-3.923,1.037c-1.314,0.251-3.478,0.466-3.847,0.878
			c-1.314,1.465-1.211,9.617-1.662,15.936c-0.725,10.157-1.408,20.333-1.867,30.511c-6.031,1.542-9.04,2.334-15.039,3.955
			c1.666-16.524,6.625-46.96,4.062-49.667c-0.274-0.29-2.79,0.067-4.167,0.268C353.212,361.58,351.811,361.564,350.386,361.334z"/>
		<path fill="#434A54" d="M387.883,407.688c2.516-20.71,2.581-58.77,6.375-62.386c1.246-1.188,14.246-0.68,14.578-0.304
			c1.645,1.867-3.521,19.677-4.138,24.335c3.442-0.619,5.164-0.922,8.613-1.517c0.575-3.989,1.091-7.877,1.547-11.667
			c0.456-3.788,0.691-10.426,1.94-11.686c0.762-0.77,4.784-0.923,7.404-1.24c2.621-0.316,4.427-0.518,5.419-0.615
			c0.594-0.092,0.891-0.138,1.485-0.229c-3.332,12.224-4.968,24.77-6.624,37.288c-0.949,7.179-1.771,14.534-2.443,22.039
			c-5.313,0.868-7.964,1.316-13.261,2.244c0.511-3.385,0.971-6.575,1.377-9.567c0.406-2.993,0.819-5.958,1.238-8.896
			c0.418-2.938,0.766-5.458,1.042-7.563c-3.391,0.496-5.085,0.751-8.47,1.271c-0.849,7.039-1.905,15.301-3.138,24.792
			C395.637,405.438,393.047,406.178,387.883,407.688z"/>
		<path fill="#434A54" d="M434.853,404.737c2.943-20.119,6.041-40.209,9.286-60.282c9.441-1.064,18.896-2.016,28.359-2.863
			c-0.4,1.266-0.74,2.492-1.021,3.673c-0.281,1.182-0.561,2.35-0.841,3.505s-0.422,2.828-0.666,3.052
			c-0.518,0.477-4.116,0.292-7.133,0.341c-2.401,0.039-3.602,0.061-6.002,0.111c-1.125,6.082-1.681,9.124-2.775,15.208
			c3.146-0.239,5.781-0.398,7.902-0.489c2.119-0.091,4.066-0.288,4.123-0.229c0.242,0.249-0.401,3.149-0.58,4.659
			c-0.179,1.512-0.237,4.262-0.658,4.659c-0.179,0.169-1.592,0.121-2.899,0.171c-1.307,0.051-2.672,0.116-4.09,0.2
			c-1.419,0.084-3.011,0.174-4.771,0.272c-1.041,6.249-1.553,9.374-2.562,15.625c4.994-0.926,7.495-1.376,12.506-2.249
			c-0.274,3.856-0.411,5.785-0.679,9.642C451.308,401.612,445.809,402.61,434.853,404.737z"/>
		<path fill="#434A54" d="M511.433,344.114c0.411-0.338,2.797-0.179,4.524-0.296c1.726-0.118,3.424-0.22,5.093-0.304
			c1.667-0.084,5.124-0.408,5.231-0.276c0.838,1.027-3.124,11.998-4.118,15.917c-0.994,3.918-1.783,7.05-2.372,9.391
			c-0.589,2.342-1.098,4.516-1.566,6.457c-0.993,4.115-1.706,6.839-2.024,8.092c-0.956,3.757-1.441,6.19-1.472,7.287
			s0.186,1.938,0.646,2.527s1.097,0.896,1.908,0.919s1.556-0.336,2.225-1.084c0.669-0.747,1.229-1.635,1.684-2.662
			c0.455-1.027,0.815-2.088,1.078-3.177c0.262-1.088,0.539-2.193,0.832-3.307c0.293-1.114,0.687-2.666,1.182-4.652
			c0.495-1.985,0.997-4.055,1.503-6.205c0.505-2.148,1.027-4.347,1.574-6.571c1.402-5.702,3.11-12.947,5.103-21.707
			c5.443-0.108,8.166-0.149,13.614-0.196c-0.22,0.846-0.329,1.269-0.549,2.115c-0.877,3.416-1.848,7.365-2.909,11.843
			s-2.012,8.347-2.853,11.602c-2.185,8.458-3.749,14.476-4.752,18.027c-1.004,3.553-2.294,6.421-3.868,8.606
			c-1.576,2.188-3.372,4.01-5.369,5.391c-3.779,2.613-8.164,3.833-13.044,3.707c-2.996-0.078-5.612-0.95-7.691-2.643
			c-2.401-1.956-3.593-4.644-3.541-7.881c0.003-0.219,0.006-0.439,0.01-0.66c0.003-0.218,0.084-0.958,0.246-2.217
			c0.161-1.257,0.519-3.519,1.082-6.773c0.563-3.252,1.178-6.646,1.842-10.173c0.663-3.526,1.374-7.065,2.135-10.617
			c0.761-3.551,1.46-6.781,2.106-9.67C510.313,348.708,511.133,344.361,511.433,344.114z"/>
		<path fill="#434A54" d="M561.151,344.48c1.017,0.065,1.525,0.097,2.541,0.165c1.166,0.077,8.589-0.765,9.83,0.361
			c1.055,0.957,1.031,7.745,1.44,11.168c1.172,9.802,2.33,19.081,2.33,19.081c0.027,0.001,0.681-2.423,1.084-3.876
			c0.403-1.453,0.841-2.975,1.314-4.559c0.474-1.583,0.949-3.223,1.438-4.878c0.774-2.621,2.413-7.921,4.905-15.86
			c4.417-0.122,6.626-0.175,11.049-0.257c-6.263,19.245-12.095,54.85-16.885,58.399c-0.183,0.135-3.001,0.214-6.987,0.839
			c-3.986,0.626-7.095,1.336-7.168,1.28c-1.736-1.326-1.477-32.111-1.477-32.111c-0.018-0.001-0.556,2.231-0.935,3.606
			c-0.379,1.376-0.761,2.852-1.151,4.418c-1.469,5.889-3.362,13-5.62,21.321c-5.076,0.832-7.609,1.261-12.663,2.147
			c5.421-20.302,10.713-58.315,14.944-61.454C559.344,344.123,560.625,344.446,561.151,344.48z"/>
		<path fill="#434A54" d="M623.663,350.755c-6.338,19.175-13.019,54.161-18.369,57.743c-0.466,0.312-4.265-0.201-8.137-0.085
			c-3.87,0.115-5.976,0.254-5.976,0.254c-0.411-0.414,4.668-12.928,6.925-20.254c3.81-12.367,7.698-24.729,11.379-37.144
			C615.15,351.029,617.985,350.927,623.663,350.755z"/>
		<path fill="#434A54" d="M622.912,412.896c4.443-20.221,7.929-57.877,11.988-60.956c1.041-0.79,8.477,0.916,12.528,1.132
			c0.566,0.011,0.852,0.016,1.418,0.027c-1.524,6.382-2.789,11.62-3.811,15.717c-1.021,4.096-1.83,7.421-2.433,9.968
			c-0.603,2.548-1.175,5.01-1.721,7.366c-0.932,4.019-1.893,7.939-2.851,11.741c0.638,0.084,0.955,0.127,1.593,0.212
			c5.205-14.365,10.491-28.696,15.861-43c1.631,0.178,3.242,0.328,4.824,0.447c1.58,0.12,3.186,0.261,4.822,0.423
			c1.635,0.163,4.553,0.275,4.58,0.322c0.638,1.085-6.875,14.034-9.69,20.631c-2.815,6.598-5.241,12.359-7.297,17.27
			c-2.057,4.912-4.516,11.017-7.345,18.319C636.378,412.581,631.882,412.657,622.912,412.896z"/>
		<path fill="#434A54" d="M660.108,417.346c6.768-19.175,13.681-38.293,20.739-57.363c9.504,0.775,18.998,1.664,28.48,2.662
			c-0.638,1.165-1.209,2.302-1.713,3.406c-0.504,1.105-1.005,2.198-1.502,3.277s-0.96,2.693-1.242,2.867
			c-0.602,0.37-4.112-0.508-7.092-1.042c-2.373-0.425-3.562-0.635-5.937-1.049c-2.278,5.75-3.407,8.628-5.655,14.388
			c3.143,0.372,5.767,0.722,7.871,1.042s4.061,0.504,4.105,0.573c0.189,0.291-0.998,3.013-1.465,4.459
			c-0.467,1.449-1.058,4.135-1.549,4.444c-0.21,0.132-1.591-0.189-2.888-0.393c-1.3-0.203-2.655-0.401-4.066-0.592
			c-1.415-0.192-3-0.409-4.751-0.652c-2.228,5.931-3.334,8.898-5.53,14.837c5.095,0.055,7.645,0.097,12.749,0.208
			c-1.012,3.731-1.517,5.597-2.522,9.329C678.799,417.5,669.454,417.365,660.108,417.346z"/>
		<path fill="#434A54" d="M723.401,427.448c-1.354-14.467-2.029-22.692-1.801-24.661c-0.463,0.04-0.693,0.061-1.155,0.102
			c-0.951,2.381-2.318,5.687-4.094,9.916c-1.776,4.23-3.172,7.616-4.193,10.152c-5.744,0.294-8.613,0.458-14.334,0.825
			c7.591-18.375,15.188-50.378,21.797-55.636c2.486-1.978,14.745-0.058,23.022,1.734c6.206,1.344,9.448,4.203,9.668,8.46
			c0.067,1.304-0.108,2.873-0.521,4.692s-1.258,3.694-2.526,5.628c-1.271,1.936-2.799,3.737-4.579,5.342
			c-3.645,3.285-11.742,5.756-12.326,6.745c-0.783,1.326,2.236,9.643,3.051,14.002c0.815,4.359,1.485,8.038,2.027,11.024
			C731.808,426.409,729,426.744,723.401,427.448z M734.278,380.04c-1.511-0.285-2.267-0.427-3.778-0.707
			c-2.222,5.018-3.324,7.528-5.522,12.554c2.299,0.249,5.432-0.544,9.413-2.317c4.093-1.822,6.36-3.539,6.723-5.201
			c0.338-1.553-1.044-2.802-4.117-3.666C736.101,380.451,735.189,380.232,734.278,380.04z"/>
		<path fill="#434A54" d="M784.465,398.896c0.554-0.99,0.982-2.069,1.284-3.238s0.234-2.192-0.203-3.069s-1.011-1.407-1.718-1.587
			s-1.441-0.196-2.201-0.049s-1.549,0.405-2.359,0.762c-1.884,0.83-3.008,1.948-3.359,3.358c-0.352,1.411-0.245,2.652,0.322,3.728
			c0.566,1.074,1.329,2.129,2.29,3.165c0.961,1.036,2.013,2.124,3.149,3.266c1.138,1.141,2.172,2.487,2.987,4.001
			c1.93,3.583,2.187,7.973,0.886,12.907c-1.566,5.941-5.132,10.241-10.58,12.974c-5.201,2.609-11.008,3.138-17.476,1.57
			c-4.784-1.159-8.576-4.643-11.445-10.482c3.6-4.204,5.411-6.3,9.061-10.479c0.421,1.679,1.627,3.391,3.503,5.147
			c1.896,1.776,3.389,2.85,4.488,3.119s2.048,0.39,2.842,0.36c0.794-0.029,1.546-0.184,2.256-0.458
			c1.607-0.619,2.593-1.599,2.934-2.957c0.34-1.356,0.209-2.704-0.396-4.042s-1.434-2.676-2.488-4.009
			c-1.054-1.332-2.222-2.707-3.502-4.119c-1.28-1.411-2.415-2.902-3.426-4.339c-2.391-3.397-3.414-6.585-2.725-9.523
			c0.689-2.937,2.212-5.428,4.578-7.459s5.12-3.617,8.261-4.747c3.139-1.128,6.455-1.809,9.94-2.037
			c3.481-0.229,6.345-0.048,8.569,0.527c2.227,0.575,3.986,1.234,5.287,1.974c1.298,0.738,2.389,1.62,3.191,2.632
			c1.771,2.234,2.194,5.077,1.31,8.36c-0.214,0.795-0.493,1.544-0.833,2.247c-0.34,0.704-0.688,1.492-1.042,2.361
			C792.485,398.783,789.811,398.811,784.465,398.896z"/>
		<path fill="#434A54" d="M788.866,444.664c8.905-18.285,17.949-36.497,27.13-54.646c9.417,1.858,18.812,3.827,28.182,5.906
			c-0.768,1.085-1.464,2.15-2.091,3.19c-0.628,1.041-1.251,2.07-1.87,3.085s-1.262,2.565-1.563,2.706
			c-0.646,0.301-4.052-0.976-6.974-1.849c-2.325-0.695-3.49-1.039-5.818-1.722c-2.92,5.456-4.374,8.187-7.265,13.655
			c3.103,0.729,5.688,1.378,7.758,1.938c2.068,0.559,4.004,0.965,4.041,1.039c0.155,0.311-1.334,2.88-1.962,4.265
			c-0.629,1.387-1.522,3.99-2.045,4.242c-0.225,0.108-1.567-0.371-2.842-0.722c-1.274-0.35-2.611-0.702-4.003-1.054
			s-2.952-0.751-4.676-1.193c-2.889,5.641-4.325,8.464-7.185,14.116c5.087,0.637,7.634,0.97,12.726,1.666
			c-1.428,3.593-2.142,5.39-3.564,8.984C807.534,446.952,798.207,445.75,788.866,444.664z"/>
	</g>
</g>
<g>
	<g>
		<path fill="#FFFFFF" d="M129.753,447.195c-2.189-20.75-4.278-41.518-6.955-62.212c5.585-2.078,8.384-3.099,13.993-5.109
			c0.252,9.615,0.729,18.194,1.392,25.738c3.294-1.37,4.943-2.05,8.249-3.396c-0.294-4.065-0.624-8.018-0.992-11.86
			c-0.369-3.841-1.569-10.448-0.606-11.964c0.592-0.933,4.564-1.964,7.104-2.854c2.54-0.889,4.292-1.484,5.258-1.8
			c0.571-0.221,0.857-0.329,1.428-0.549c-0.657,12.797,0.437,25.541,1.51,38.267c0.615,7.298,1.393,14.74,2.355,22.297
			c-5.102,2.026-7.645,3.054-12.72,5.138c-0.227-3.455-0.459-6.707-0.705-9.751s-0.48-6.061-0.701-9.055
			c-0.222-2.993-0.422-5.559-0.604-7.699c-3.269,1.236-4.9,1.861-8.16,3.121c0.684,7.136,1.425,15.528,2.256,25.17
			C136.995,443.259,134.575,444.562,129.753,447.195z"/>
		<path fill="#FFFFFF" d="M187.734,415.781c-0.184,5.087-0.268,7.63-0.422,12.714c-1.225,0.48-2.646,1.043-4.265,1.687
			c-1.62,0.644-3.227,1.275-4.822,1.893c-1.596,0.618-4.87,1.994-4.937,1.947c-1.038-0.732,0.614-14.559,0.886-20.018
			c0.273-5.458,0.508-9.944,0.687-13.455c0.178-3.51,0.357-6.991,0.539-10.442c0.18-3.45,0.37-6.789,0.563-10.011
			c0.194-3.223-0.164-7.975,0.492-8.828c2.896-3.766,23.309-8.748,23.861-8.433c0.966,0.553,1.729,11.909,3.042,19.273
			c2.411,13.528,9.562,36.655,7.398,40.638c-0.302,0.557-3.15,1.271-4.67,1.856c-1.52,0.586-3.087,1.214-4.699,1.886
			c-1.614,0.672-4.264,1.915-4.402,1.835c-0.944-0.549-1.266-10.108-1.826-14.367C192.186,414.677,190.702,415.042,187.734,415.781z
			 M187.697,407.047c2.446-0.777,3.668-1.162,6.118-1.925c-0.078-0.323-0.169-0.886-0.274-1.688
			c-0.104-0.802-0.21-1.746-0.359-2.779c-0.834-5.795-1.753-11.358-2.432-16.443c-0.452-2.937-0.676-4.406-1.125-7.344
			c-0.543,0.165-0.816,0.247-1.359,0.412C188.021,387.201,187.826,397.124,187.697,407.047z"/>
		<path fill="#FFFFFF" d="M236.647,405.097c1.398-0.287,2.734-1.437,3.94-3.433c1.226-2.029,1.876-4.052,1.961-5.992
			c4.263,0.748,6.388,1.132,10.63,1.918c-1.446,6.202-3.86,11.389-7.245,15.559c-3.011,3.709-6.383,5.953-10.14,6.736
			c-3.537,0.738-6.762-0.221-9.636-2.887c-3.053-2.833-5.197-7.011-6.398-12.482c-1.201-5.471-1.617-10.917-1.221-16.338
			c0.396-5.42,1.541-10.449,3.444-15.076c1.903-4.626,4.531-8.591,7.883-11.876c3.351-3.284,7.347-5.379,11.954-6.267
			c2.974-0.573,5.771,0.001,8.206,1.747c2.434,1.745,3.984,4.482,4.635,8.028c0.078,0.425,0.117,0.639,0.195,1.064
			c0.06,0.328,0.095,0.688,0.108,1.079c-4.424,2.03-6.63,3.057-11.026,5.128c-0.953-1.227-1.906-1.749-2.856-1.562
			c-0.951,0.186-1.842,0.897-2.671,2.135c-0.83,1.239-1.584,2.777-2.258,4.608c-0.674,1.833-1.261,3.862-1.758,6.085
			c-0.498,2.224-0.858,4.457-1.13,6.64c-0.604,4.854-0.669,8.731-0.088,11.528C233.756,404.235,234.913,405.453,236.647,405.097z"/>
		<path fill="#FFFFFF" d="M305.796,404.779c-0.234,0.425-5.508,0.646-8.438,1.095s-8.392,2.103-9.216,1.62
			c-2.111-1.236-4.624-14.336-7.111-22.357c-0.534,0.796-0.801,1.194-1.333,1.991c-0.116,1.763-0.211,3.915-0.278,6.456
			s-0.143,5.1-0.229,7.672c-0.085,2.573-0.167,5.329-0.24,8.266c-5.404,1.761-8.099,2.658-13.475,4.481
			c0.702-21.017-2.958-59.665,0.164-63.223c0.27-0.307,3.016-0.222,4.755-0.431c1.737-0.208,3.434-0.391,5.091-0.551
			c1.653-0.159,5.052-0.82,5.204-0.676c0.034,0.033-0.046,0.655-0.065,1.275c-0.02,0.621-0.048,1.383-0.083,2.287
			c-0.034,0.904-0.068,1.908-0.1,3.008s-0.093,2.575-0.182,4.413c-0.089,1.84-0.174,4.339-0.251,7.498
			c0.203-0.066,0.303-0.1,0.505-0.167c1.231-2.615,2.503-5.388,3.832-8.283c2.638-5.747,4.588-11.057,5.677-11.908
			c3.092-2.417,17.681-4.491,17.681-4.491c0.524,0.667-16.445,23.893-16.651,30.929c-0.104,3.56,4.479,10.688,7.03,15.715
			C300.635,394.426,306.003,404.403,305.796,404.779z"/>
		<path fill="#FFFFFF" d="M343.273,352.033c-0.299-4.352-0.447-6.527-0.742-10.879c3.081-0.112,6.178-0.327,9.296-0.642
			c8.233-0.833,16.222-2.032,23.988-3.612c-0.24,1.856-0.36,2.783-0.598,4.639c-0.19,1.296-0.361,2.632-0.512,4.007
			c-0.151,1.376-0.148,3.225-0.449,3.585c-0.426,0.509-2.64,0.794-3.967,1.049c-1.33,0.255-3.517,0.47-3.891,0.887
			c-1.329,1.481-1.221,9.724-1.677,16.11c-0.732,10.267-1.423,20.556-1.891,30.846c-6.097,1.56-9.138,2.359-15.204,3.998
			c1.685-16.704,6.696-47.477,4.106-50.211c-0.277-0.293-2.819,0.069-4.211,0.271C346.13,352.284,344.713,352.267,343.273,352.033z"
			/>
		<path fill="#FFFFFF" d="M381.179,398.895c2.548-20.938,2.606-59.409,6.448-63.069c1.261-1.201,14.399-0.686,14.734-0.306
			c1.663,1.887-3.561,19.89-4.184,24.599c3.479-0.625,5.222-0.933,8.708-1.533c0.582-4.033,1.104-7.963,1.565-11.794
			c0.461-3.83,0.7-10.538,1.962-11.812c0.771-0.778,4.837-0.935,7.485-1.255c2.649-0.32,4.474-0.522,5.478-0.622
			c0.6-0.092,0.902-0.139,1.502-0.23c-3.367,12.358-5.022,25.036-6.695,37.693c-0.959,7.259-1.791,14.694-2.47,22.281
			c-5.371,0.877-8.053,1.331-13.408,2.269c0.517-3.422,0.982-6.646,1.393-9.672c0.412-3.026,0.828-6.025,1.251-8.995
			c0.423-2.969,0.775-5.516,1.054-7.645c-3.428,0.501-5.14,0.756-8.562,1.282c-0.857,7.115-1.926,15.47-3.173,25.064
			C389.018,396.619,386.4,397.368,381.179,398.895z"/>
		<path fill="#FFFFFF" d="M428.662,395.911c2.976-20.338,6.105-40.648,9.391-60.938c9.543-1.077,19.1-2.04,28.666-2.895
			c-0.404,1.28-0.749,2.517-1.033,3.711c-0.284,1.196-0.567,2.376-0.85,3.544s-0.427,2.858-0.673,3.085
			c-0.523,0.482-4.162,0.296-7.21,0.346c-2.428,0.039-3.642,0.061-6.069,0.112c-1.138,6.148-1.699,9.223-2.805,15.373
			c3.18-0.242,5.842-0.403,7.984-0.495c2.142-0.091,4.111-0.291,4.169-0.231c0.245,0.252-0.405,3.18-0.585,4.708
			c-0.181,1.529-0.238,4.309-0.665,4.71c-0.182,0.171-1.609,0.123-2.93,0.174c-1.322,0.051-2.701,0.118-4.136,0.202
			c-1.436,0.085-3.045,0.178-4.823,0.276c-1.052,6.317-1.57,9.476-2.591,15.795c5.048-0.936,7.577-1.392,12.643-2.274
			c-0.277,3.898-0.414,5.848-0.685,9.747C447.175,392.433,437.908,394.117,428.662,395.911z"/>
		<path fill="#FFFFFF" d="M506.08,334.627c0.416-0.342,2.824-0.18,4.57-0.299c1.746-0.119,3.464-0.221,5.15-0.307
			c1.688-0.085,5.179-0.415,5.287-0.282c0.847,1.038-3.158,12.128-4.163,16.091s-1.803,7.127-2.397,9.494
			c-0.596,2.368-1.108,4.564-1.582,6.527c-1.003,4.159-1.727,6.914-2.048,8.18c-0.964,3.8-1.456,6.257-1.486,7.365
			c-0.03,1.109,0.188,1.961,0.653,2.557c0.465,0.596,1.107,0.906,1.929,0.93c0.821,0.024,1.567-0.341,2.244-1.097
			c0.675-0.755,1.248-1.653,1.709-2.692c0.461-1.039,0.822-2.108,1.087-3.21c0.265-1.101,0.546-2.217,0.842-3.344
			c0.296-1.126,0.693-2.694,1.194-4.703c0.501-2.008,1.007-4.096,1.519-6.271c0.512-2.173,1.037-4.395,1.59-6.644
			c1.417-5.764,3.146-13.09,5.162-21.945c5.502-0.109,8.252-0.147,13.76-0.195c-0.222,0.855-0.331,1.282-0.553,2.137
			c-0.887,3.453-1.87,7.444-2.942,11.972c-1.073,4.528-2.034,8.439-2.884,11.729c-2.207,8.551-3.789,14.634-4.805,18.224
			c-1.016,3.592-2.319,6.491-3.91,8.701c-1.592,2.21-3.405,4.052-5.424,5.448c-3.819,2.641-8.256,3.875-13.189,3.747
			c-3.027-0.079-5.673-0.961-7.775-2.672c-2.429-1.978-3.634-4.695-3.581-7.967c0.003-0.221,0.008-0.443,0.012-0.665
			c0.003-0.221,0.086-0.97,0.249-2.243c0.163-1.271,0.526-3.555,1.097-6.846c0.57-3.29,1.188-6.719,1.859-10.283
			s1.389-7.144,2.158-10.734c0.769-3.589,1.475-6.854,2.129-9.773C504.946,339.271,505.776,334.877,506.08,334.627z"/>
		<path fill="#FFFFFF" d="M556.338,334.999c1.027,0.066,1.537,0.099,2.564,0.167c1.181,0.078,8.688-0.775,9.942,0.364
			c1.066,0.968,1.042,7.828,1.456,11.288c1.186,9.907,2.354,19.29,2.354,19.29c0.028,0.001,0.685-2.45,1.093-3.919
			s0.853-3.006,1.332-4.609c0.479-1.602,0.959-3.258,1.454-4.932c0.784-2.65,2.439-8.007,4.959-16.032
			c4.465-0.124,6.7-0.175,11.172-0.258c-6.333,19.451-12.233,55.449-17.069,59.036c-0.185,0.137-3.032,0.215-7.062,0.848
			s-7.174,1.351-7.248,1.294c-1.756-1.34-1.494-32.461-1.494-32.461c-0.018-0.001-0.559,2.256-0.941,3.646
			c-0.383,1.391-0.771,2.882-1.166,4.465c-1.486,5.955-3.398,13.142-5.682,21.554c-5.131,0.84-7.692,1.274-12.801,2.17
			c5.482-20.52,10.825-58.944,15.105-62.122C554.51,334.636,555.807,334.964,556.338,334.999z"/>
		<path fill="#FFFFFF" d="M619.53,341.34c-6.415,19.382-13.162,54.754-18.569,58.375c-0.471,0.315-4.31-0.203-8.223-0.087
			c-3.912,0.116-6.043,0.255-6.043,0.255c-0.416-0.419,4.719-13.069,6.999-20.473c3.85-12.501,7.776-25.003,11.505-37.553
			C610.926,341.616,613.79,341.514,619.53,341.34z"/>
		<path fill="#FFFFFF" d="M618.772,404.161c4.495-20.441,8.016-58.509,12.12-61.622c1.053-0.798,8.566,0.926,12.662,1.145
			c0.572,0.011,0.859,0.014,1.432,0.025c-1.539,6.452-2.818,11.75-3.85,15.892c-1.032,4.142-1.85,7.501-2.459,10.076
			c-0.609,2.577-1.188,5.062-1.741,7.445c-0.943,4.065-1.912,8.028-2.882,11.871c0.645,0.085,0.97,0.129,1.614,0.215
			c5.262-14.522,10.604-29.011,16.036-43.471c1.648,0.18,3.274,0.329,4.872,0.45s3.227,0.263,4.88,0.428s4.598,0.279,4.625,0.326
			c0.645,1.097-6.952,14.187-9.796,20.856c-2.846,6.671-5.297,12.492-7.376,17.458c-2.08,4.967-4.564,11.138-7.424,18.52
			C632.385,403.841,627.841,403.918,618.772,404.161z"/>
		<path fill="#FFFFFF" d="M656.375,408.658c6.841-19.386,13.824-38.715,20.967-57.991c9.605,0.787,19.202,1.681,28.787,2.691
			c-0.645,1.178-1.219,2.326-1.729,3.443c-0.51,1.119-1.017,2.222-1.52,3.312s-0.974,2.723-1.259,2.898
			c-0.608,0.374-4.155-0.514-7.167-1.054c-2.399-0.43-3.6-0.643-6-1.061c-2.304,5.813-3.448,8.723-5.721,14.545
			c3.178,0.376,5.83,0.731,7.958,1.054c2.128,0.324,4.106,0.508,4.151,0.578c0.191,0.295-1.012,3.044-1.483,4.508
			c-0.472,1.465-1.064,4.182-1.561,4.494c-0.212,0.133-1.608-0.192-2.919-0.397c-1.312-0.205-2.685-0.404-4.114-0.599
			c-1.431-0.193-3.03-0.413-4.801-0.66c-2.252,5.996-3.37,8.995-5.591,14.999c5.15,0.055,7.729,0.096,12.889,0.208
			c-1.022,3.772-1.532,5.659-2.55,9.433C675.27,408.814,665.822,408.678,656.375,408.658z"/>
		<path fill="#FFFFFF" d="M720.359,418.871c-1.369-14.626-2.055-22.94-1.823-24.931c-0.467,0.04-0.698,0.061-1.165,0.101
			c-0.963,2.408-2.344,5.749-4.139,10.025c-1.796,4.277-3.206,7.699-4.238,10.263c-5.808,0.298-8.706,0.466-14.49,0.836
			c7.671-18.579,15.346-50.93,22.033-56.247c2.516-2,14.907-0.059,23.274,1.753c6.275,1.358,9.546,4.247,9.771,8.554
			c0.068,1.319-0.112,2.903-0.528,4.741c-0.417,1.839-1.271,3.736-2.554,5.692c-1.284,1.957-2.827,3.777-4.627,5.399
			c-3.684,3.32-11.868,5.819-12.459,6.819c-0.792,1.34,2.259,9.748,3.083,14.156c0.824,4.409,1.503,8.124,2.052,11.143
			C728.857,417.819,726.02,418.158,720.359,418.871z M731.355,370.942c-1.527-0.289-2.293-0.431-3.821-0.715
			c-2.245,5.073-3.362,7.611-5.583,12.692c2.323,0.252,5.495-0.55,9.518-2.342c4.138-1.843,6.43-3.579,6.796-5.259
			c0.342-1.571-1.059-2.833-4.165-3.706C733.195,371.358,732.276,371.137,731.355,370.942z"/>
		<path fill="#FFFFFF" d="M782.085,390.005c0.561-1,0.994-2.092,1.299-3.274c0.305-1.181,0.237-2.215-0.205-3.102
			s-1.021-1.422-1.735-1.604s-1.456-0.198-2.225-0.05c-0.768,0.149-1.565,0.41-2.385,0.771c-1.903,0.838-3.041,1.969-3.396,3.395
			c-0.355,1.427-0.249,2.681,0.325,3.768c0.573,1.087,1.346,2.154,2.316,3.2c0.971,1.047,2.034,2.147,3.184,3.301
			c1.149,1.153,2.191,2.512,3.016,4.043c1.95,3.621,2.212,8.061,0.897,13.048c-1.584,6.007-5.184,10.354-10.691,13.118
			c-5.259,2.639-11.13,3.174-17.668,1.589c-4.836-1.172-8.671-4.692-11.57-10.596c3.639-4.25,5.471-6.37,9.16-10.594
			c0.426,1.696,1.646,3.427,3.542,5.203c1.915,1.793,3.424,2.883,4.536,3.155c1.11,0.271,2.069,0.394,2.873,0.363
			c0.803-0.03,1.561-0.186,2.279-0.463c1.625-0.625,2.624-1.618,2.968-2.99s0.211-2.735-0.401-4.088
			c-0.613-1.354-1.453-2.707-2.519-4.053c-1.066-1.348-2.246-2.735-3.539-4.162c-1.295-1.427-2.442-2.931-3.466-4.385
			c-2.418-3.435-3.449-6.66-2.752-9.63c0.696-2.969,2.234-5.485,4.629-7.54c2.394-2.054,5.178-3.657,8.352-4.798
			c3.172-1.141,6.521-1.828,10.044-2.059c3.522-0.231,6.417-0.05,8.666,0.531c2.25,0.581,4.033,1.25,5.347,1.997
			c1.312,0.746,2.409,1.636,3.22,2.659c1.792,2.26,2.223,5.132,1.328,8.452c-0.217,0.803-0.497,1.562-0.84,2.273
			c-0.345,0.712-0.696,1.507-1.054,2.387C790.196,389.892,787.488,389.919,782.085,390.005z"/>
		<path fill="#FFFFFF" d="M786.541,436.275c8.997-18.489,18.141-36.9,27.426-55.246c9.52,1.878,19.016,3.874,28.488,5.973
			c-0.776,1.097-1.481,2.172-2.116,3.225c-0.635,1.053-1.265,2.091-1.89,3.118s-1.278,2.593-1.582,2.735
			c-0.652,0.305-4.098-0.987-7.049-1.869c-2.351-0.703-3.528-1.051-5.882-1.741c-2.951,5.515-4.419,8.276-7.341,13.803
			c3.136,0.738,5.746,1.395,7.838,1.959c2.091,0.566,4.05,0.975,4.087,1.05c0.157,0.314-1.35,2.91-1.984,4.311
			c-0.636,1.402-1.535,4.034-2.063,4.288c-0.228,0.109-1.588-0.375-2.876-0.729c-1.289-0.354-2.637-0.711-4.044-1.068
			c-1.408-0.356-2.985-0.757-4.728-1.204c-2.92,5.702-4.374,8.556-7.265,14.27c5.143,0.644,7.719,0.979,12.866,1.682
			c-1.443,3.632-2.167,5.449-3.605,9.083C805.41,438.585,795.982,437.372,786.541,436.275z"/>
	</g>
</g>
<g>
</g>
<g>
</g>
<g>
</g>
<g>
</g>
<g>
</g>
<g>
</g>
<g>
</g>
<g>
</g>
<g>
</g>
<g>
</g>
<g>
</g>
<g>
</g>
<g>
</g>
<g>
</g>
<g>
</g>
</svg>
