<?xml version="1.0" encoding="utf-8"?>
<!-- Generator: Adobe Illustrator 16.0.4, SVG Export Plug-In . SVG Version: 6.00 Build 0)  -->
<!DOCTYPE svg PUBLIC "-//W3C//DTD SVG 1.1//EN" "http://www.w3.org/Graphics/SVG/1.1/DTD/svg11.dtd">
<svg version="1.1" id="Calque_1" xmlns="http://www.w3.org/2000/svg" xmlns:xlink="http://www.w3.org/1999/xlink" x="0px" y="0px"
	 width="1024px" height="1024px" viewBox="0 0 1024 1024" enable-background="new 0 0 1024 1024" xml:space="preserve">
<path fill="#00DACE" stroke="#434A54" stroke-width="7" stroke-miterlimit="10" d="M488.244,247.626c-0.259,0-0.518-0.01-0.776-0.01
	c-118.107,0-213.757,95.66-213.757,213.665c0,118.003,95.649,213.662,213.757,213.662c0.259,0,0.518-0.008,0.776-0.008
	c117.751-0.419,213.082-95.912,213.082-213.652C701.326,343.535,605.995,248.049,488.244,247.626z"/>
<g>
	<path fill="#FFFFFF" d="M488.253,255.722l0.147,0.002c0.108,0.002,0.216,0.004,0.316,0.004
		c48.833,0.108,96.022,17.542,133.334,49.178l-7.923,3.106c-0.655,0.257-1.243,0.66-1.72,1.177l-4.119,4.475
		c-0.984,1.069-1.411,2.539-1.151,3.969l0.944,5.211c0.357,1.972,1.94,3.491,3.925,3.768l2.374,0.33l2.027,5.056l-4.002,0.672
		c-1.219,0.205-2.305,0.886-3.019,1.895l-1.189,1.681l-2.932-1.142l-1.458-1.676l-3.073-4.967l-1.59-7.652
		c-0.454-2.189-2.384-3.697-4.537-3.697c-0.306,0-0.615,0.03-0.926,0.093l-6.954,1.409c-1.221,0.247-2.29,0.975-2.969,2.019
		l-1.94,2.985c-0.489,0.752-0.749,1.631-0.749,2.528v1.078l-3.613,0.836c-1.197,0.277-2.236,1.018-2.888,2.06l-4.237,6.778
		c-0.461,0.738-0.705,1.59-0.705,2.459v4.398c0,2.562,2.076,4.639,4.639,4.639h4.931c0.96,0,1.896-0.298,2.68-0.853l1.944-1.375
		c-0.114,1.291,0.316,2.57,1.189,3.53c0.879,0.966,2.125,1.518,3.432,1.518h1.172l-1.213,7.176
		c-0.091,0.538-0.085,1.071,0.005,1.582l-2.109-0.423c-0.301-0.06-0.606-0.09-0.912-0.09c-0.333,0-0.665,0.036-0.991,0.107
		l-9.984,2.185c-1.532,0.335-2.791,1.421-3.347,2.888l-2.105,5.554c-0.281,0.741-0.367,1.542-0.251,2.325l1.729,11.652
		c0.229,1.54,1.214,2.862,2.623,3.521l1.587,0.742l-7.195,3.998c-1.473,0.818-2.386,2.371-2.386,4.055v9.596l-21.499,15.508
		c-1.564,1.128-2.268,3.106-1.766,4.969l1.943,7.215c0.343,1.271,1.193,2.298,2.298,2.888c-1.392,0.814-2.279,2.31-2.294,3.961
		l-0.163,17.961c-0.011,1.141,0.399,2.245,1.152,3.103l20.238,23.053c0.881,1.003,2.151,1.579,3.486,1.579h8.804
		c1.281,0,2.473-0.526,3.329-1.408h13.052c1.168,0,2.292-0.44,3.149-1.233l3.233-2.99h5.244l3.56,3.568
		c0.753,0.755,1.743,1.227,2.804,1.337l8.794,0.915l-1.308,13.198c-0.095,0.953,0.108,1.912,0.58,2.745l13.622,24.033l-6.664,12.726
		c-0.402,0.77-0.581,1.635-0.516,2.5l0.53,7.048c0.083,1.111,0.564,2.155,1.354,2.941l4.812,4.786v15.006
		c0,0.995,0.32,1.964,0.913,2.764l7.164,9.66v12.549c0,1.663,0.874,3.121,2.188,3.94c-39.312,44.291-95.078,69.587-154.378,69.719
		c-0.12,0-0.237,0.002-0.354,0.005l-0.119,0.003c-114.253,0-207.205-92.951-207.205-207.203c0-22.796,3.663-45.052,10.905-66.36
		l5.532,2.66v13.84c0,0.825,0.22,1.635,0.637,2.347l8.445,14.4c0.706,1.204,1.917,2.026,3.295,2.238l6.862,1.057
		c0.239,0.037,0.477,0.055,0.712,0.055c0.799,0,1.564-0.207,2.234-0.577c-0.438,1.326-0.258,2.797,0.522,3.991l7.441,11.384
		c0.642,0.981,1.631,1.684,2.769,1.965l18.482,4.572c0.368,0.091,0.742,0.136,1.114,0.136c0.739,0,1.468-0.176,2.127-0.516
		c0.319,1.873,1.775,3.423,3.736,3.783l5.604,1.029l7.442,2.036l11.755,13.398c0.801,0.913,1.928,1.476,3.139,1.566l12.382,0.932
		l0.799,6.659l-8.801,6.152c-1.183,0.827-1.914,2.156-1.977,3.598l-0.502,11.397l-1.498,6.825c-0.3,1.366,0.032,2.794,0.904,3.887
		l15.279,19.155l1.033,5.71c0.318,1.761,1.621,3.182,3.347,3.651c3.395,0.923,5.196,1.357,6.228,1.562
		c1.553,1.012,5.831,4.146,9.885,7.191v33.95c0,2.078,1.382,3.903,3.383,4.466l0.347,0.098l-2.251,12.572
		c-0.227,1.266,0.083,2.569,0.854,3.599l6.334,8.456l-1.22,14.827c-0.077,0.932,0.13,1.864,0.592,2.676l9.777,17.172
		c0.258,0.452,0.589,0.858,0.981,1.2l12.546,10.95c0.822,0.718,1.871,1.122,2.962,1.144l12.6,0.239c0.03,0,0.059,0.001,0.089,0.001
		c2.038,0,3.842-1.333,4.437-3.289l1.233-4.051c0.541-1.775-0.029-3.701-1.448-4.897l-7.304-6.157l0.121-0.871l1.512-4.313
		c0.136-0.388,0.22-0.792,0.25-1.202l0.348-4.84c0.091-1.263-0.338-2.508-1.188-3.446c-0.849-0.938-2.045-1.489-3.311-1.524
		l-2.294-0.063l1.167-1.123c0.697-0.672,1.167-1.544,1.343-2.495l0.702-3.781c0.186-1.001,0.035-1.992-0.377-2.851
		c0.219-0.068,0.433-0.151,0.64-0.251l12.594-6.054c0.876-0.422,1.599-1.108,2.064-1.962l4.037-7.408l9.979-12.77l2.997-3.832
		c0.86-1.1,1.179-2.527,0.869-3.888l-2.604-11.445l1.758-3.054l9.376,0.28c0.046,0.002,0.093,0.003,0.139,0.003
		c1.044,0,2.059-0.353,2.879-1.002l8.174-6.471c0.979-0.776,1.605-1.915,1.734-3.159l2.507-24.154l8.232-10.468
		c0.436-0.555,0.739-1.201,0.889-1.89l1.597-7.401c0.503-2.334-0.847-4.668-3.12-5.396l-6.623-2.121l-4.565-7.489
		c-0.834-1.368-2.314-2.209-3.916-2.225l-17.822-0.172l-4.504-1.715l-6.734-2.565l-0.503-7.585
		c-0.046-0.703-0.252-1.386-0.603-1.998l-4.938-8.63c-0.815-1.424-2.321-2.312-3.962-2.334l-10.869-0.151l-6.408-10.03
		c-0.46-0.72-1.109-1.298-1.877-1.672l-6.862-3.345c-0.643-0.313-1.338-0.469-2.033-0.469c-0.784,0-1.566,0.199-2.27,0.593
		c-1.25,0.701-2.101,1.937-2.316,3.343l-5.983,0.354l-3.088-4.293c-0.682-0.948-1.697-1.604-2.841-1.837l-13.03-2.651
		c-0.308-0.063-0.618-0.093-0.925-0.093c-1.333,0-2.619,0.575-3.509,1.605l-9.021,10.436l-10.714-1.818l-0.989-15.383
		c-0.138-2.145-1.73-3.914-3.849-4.275l-6.019-1.027l1.945-3.673c0.546-1.031,0.683-2.229,0.385-3.357l-1.42-5.37
		c-0.383-1.449-1.443-2.623-2.845-3.153c-0.531-0.201-1.087-0.3-1.64-0.3c-0.906,0-1.806,0.266-2.58,0.783l-14.768,9.877
		l-5.902-0.719l-1.866-4.081l1.642-6.073l4.679-8.608l10.657-5.399l19.197-0.006l-0.027,2.934c-0.017,1.82,1.032,3.481,2.682,4.249
		l8.985,4.182c0.623,0.29,1.292,0.433,1.957,0.433c0.913,0,1.82-0.269,2.601-0.797c1.35-0.914,2.121-2.469,2.032-4.096
		l-0.602-10.962l4.676-4.707l12.663-8.315c1.108-0.728,1.852-1.895,2.044-3.206l0.668-4.562l11.513-11.979l12.682-7.018
		c0.229,0.659,0.606,1.265,1.112,1.768c0.873,0.867,2.05,1.349,3.27,1.349c0.128,0,0.256-0.005,0.385-0.016l4.406-0.367
		c1.089-0.091,2.073-0.555,2.82-1.27c0.748,0.508,1.647,0.8,2.6,0.8c0.129,0,0.26-0.006,0.391-0.017l3.716-0.311
		c0.732-0.061,1.439-0.295,2.063-0.684l2.32-1.443c0.945-0.588,1.643-1.493,1.974-2.544c1.465-0.256,2.729-1.202,3.381-2.557
		l1.18-2.45c0.003-0.006,0.005-0.012,0.008-0.017l7.345,2.269l2.273,0.698c0.693,0.409,1.498,0.642,2.348,0.642
		c0.131,0,0.264-0.006,0.397-0.017l2.71-0.229c2.34-0.198,4.163-2.114,4.245-4.461l0.178-5.098c0.065-1.875-1.005-3.605-2.712-4.383
		l-2.032-0.926c1.527-0.731,2.55-2.25,2.629-3.971l0.34-7.411c0.078-1.693-0.774-3.294-2.221-4.175l-4.376-2.665l-1.583-0.966
		l-0.427-10.018c-0.046-1.093-0.476-2.117-1.188-2.909c0.286-0.359,0.521-0.767,0.695-1.214l1.505-3.896h5.8
		c1.717,0,3.294-0.948,4.099-2.465l3.173-5.982c0.668-1.261,0.72-2.759,0.139-4.063c-0.581-1.303-1.73-2.267-3.114-2.612
		l-2.836-0.707v-3.943c0-1.834-1.081-3.497-2.758-4.241l-4.041-1.792l-15.838-7.017c-0.593-0.263-1.233-0.397-1.879-0.397
		c-0.177,0-0.354,0.01-0.531,0.03l-13.745,1.584c-0.566,0.065-1.115,0.234-1.62,0.499l-2.916,1.526
		c-0.813-1.099-2.088-1.804-3.5-1.874l-14.085-0.696c-0.076-0.003-0.153-0.005-0.229-0.005c-0.455,0-0.909,0.067-1.345,0.199
		l-4.045,1.226c-0.266,0.081-0.522,0.184-0.765,0.309l-3.926-1.958c-0.658-0.328-1.366-0.488-2.069-0.488
		c-1.183,0-2.35,0.452-3.236,1.313l-4.159,4.044l-5.112-0.288l-4.333-5.969c-0.873-1.203-2.269-1.914-3.754-1.914h-2.767
		C427.973,262.355,457.648,255.722,488.253,255.722 M470.237,299.499l-8.633,4.597c-1.334,0.71-2.214,2.01-2.415,3.459l-2.811-0.663
		c-0.353-0.083-0.709-0.124-1.065-0.124c-0.031,0-0.062,0-0.093,0.001c0.003-0.127,0.001-0.253-0.005-0.378
		c0.945-0.177,1.816-0.645,2.488-1.343l4.002-4.159c0.043-0.045,0.085-0.091,0.126-0.138c0.045-0.042,0.089-0.086,0.132-0.131
		l0.084-0.087L470.237,299.499 M434.843,311.693l0.132,0.888c0.34,2.283,2.301,3.956,4.585,3.956c0.082,0,0.165-0.002,0.247-0.006
		l4.624-0.244v10.831l-7.988,2.531c-1.221,0.387-2.228,1.261-2.781,2.416l-0.55,1.146v-0.977c0-2.316-1.709-4.278-4.003-4.595
		l-9.53-1.318l-2.931-1.91l-0.724-2.649l15.338-8.979L434.843,311.693 M475.01,315.606l4.009,0.945l-4.353,2.142L475.01,315.606
		 M638.123,363.801l1.493,1.482l-2.067-1.152l-0.117-0.33H638.123 M621.274,370.189c0.201,0.198,0.422,0.379,0.659,0.539
		l7.905,5.334c-0.96,0.393-1.78,1.105-2.302,2.047c-0.357,0.645-0.548,1.35-0.577,2.058c-0.194-0.025-0.392-0.038-0.59-0.038
		c-0.12,0-0.24,0.004-0.36,0.014l-22.008,1.716l7.636-9.926l3.979,0.817c0.31,0.063,0.622,0.095,0.933,0.095
		c1.139,0,2.251-0.42,3.112-1.199L621.274,370.189 M649.036,381.579l6.962,7.412c0.889,0.946,2.118,1.463,3.382,1.463
		c0.386,0,0.774-0.048,1.157-0.146c1.64-0.422,2.919-1.705,3.338-3.345l1.116-4.373c0.192,0.391,0.439,0.755,0.736,1.082
		l5.544,6.078c0.88,0.964,2.124,1.513,3.428,1.513c0.025,0,0.052,0,0.077,0l7.782-0.13c1.054,2.844,2.041,5.699,2.955,8.543h-10.593
		l-9.076-6.746c-0.804-0.597-1.774-0.916-2.768-0.916c-0.148,0-0.299,0.007-0.448,0.021l-10.823,1.05
		c-2.377,0.231-4.191,2.229-4.191,4.618v0.058c-0.415-0.264-0.87-0.461-1.349-0.583l-15.256-3.869v-5.784
		c0.646,0.718,1.503,1.22,2.455,1.429l4.596,1.007c0.328,0.072,0.661,0.107,0.993,0.107c0.611,0,1.22-0.121,1.789-0.359l5.365-2.243
		c1.748-0.731,2.876-2.451,2.85-4.345L649.036,381.579 M488.253,251.083c-46.483,0-89.488,15.086-124.464,40.567l10.683-0.084
		l4.76,2.634l8.968,1.937l0.7,3.522l14.264,0.53l-1.932-4.576l-12.672-0.354l2.987-2.812l-1.045-3.351h-11.458l12.504-9.329h11.971
		l5.627,7.752l9.347,0.526l5.619-5.465l4.238,2.114l-7.753,7.573c0,0-10.739,0.18-10.209,0.18c0.531,0,0.889,7.387,0.889,7.387
		l13.007-0.357l1.422-3.515l8.968-0.529l1.061-5.275l-5.281-0.891l1.765-4.748l4.045-1.226l14.085,0.696l-7.773,7.048l1.261,5.449
		l8.096,1.235l-0.531-9.855l7.742-4.053l13.745-1.584l15.838,7.017l4.039,1.792v7.567l6.352,1.584l-3.173,5.982h-7.218h-1.764
		l-2.651,6.864l-20.527-4.843l16.126-8.587l-6.15-5.226l-13.912,1.759l-1.218,1.257l-0.043-0.023l-0.226,0.302l-4.002,4.159
		l-6.61,0.558l0.53,3.299l2.303,0.955l-0.092,1.088l-5.378,0.77l-0.395,3.124l-5.153,0.271l-0.925-6.208l-9.249,2.813
		l-18.878,11.052l2.125,7.78l5.277,3.44l10.559,1.46v12.001l4.874-0.79l4.498-9.375l11.226-3.557v-14.393l6.242-4.713l15.1,3.561
		l-1.061,9.513h4.058l11.087-5.456l0.532,12.491l3.697,2.255l4.379,2.667l-0.34,7.411l-4.039,1.374v5.153l6.152,2.804l-0.178,5.098
		l-2.71,0.229c-0.008-0.084-0.019-0.138-0.019-0.138l-3.246-0.997l-8.528-2.634l-0.494-3.771h-0.019l3.439-2.366v-3.438
		l-3.699-0.927l-0.915,3.175l-6.487,1.001l-0.647-0.216v0.325l-2.248,0.342l-1.835-3.7l-2.124-0.927h-4.622l-2.105,1.717v3.829
		l3.955,1.317l3.903,0.548l-0.872,0.384l-3.561,3.947l-1.573-1.974l-3.437-0.91l-9.381,8.831l1.225,1.006l-13.855,7.667
		l-13.028,13.557l-0.883,6.033l-13.067,8.581l-6.471,6.514l0.715,13.022l-8.985-4.182l0.07-7.618l-24.988,0.008l-12.934,6.553
		l-5.629,10.357l-2.221,8.215l3.643,7.967l10.189,1.241l16.199-10.834l1.42,5.37l-4.944,9.339l12.338,2.106l1.225,19.045
		l16.909,2.869l10.73-12.413l13.03,2.651l4.579,6.365l12.494-0.737l0.351-3.695l6.862,3.345l7.753,12.137l13.368,0.186l4.938,8.63
		l0.7,10.555l9.515,3.624l5.281,2.01l18.652,0.18l5.465,8.965l8.27,2.648l-1.597,7.401l-9.062,11.522l-2.646,25.489l-8.174,6.471
		l-12.151-0.363l-4.039,7.015v0.062l2.997,13.171l-2.997,3.832l-10.215,13.072l-4.22,7.744l-12.594,6.054l-8.283,1.256l-0.342,3.514
		l5.811,1.667l-0.702,3.781l-5.207,5.015l3.166,3.978l6.258,0.174l-0.348,4.84l-1.666,4.752l-0.536,3.865l9.261,7.807l-1.233,4.051
		l-12.6-0.239l-12.546-10.95l-9.777-17.172l1.365-16.581l-7.39-9.864l2.993-16.716l-4.399-1.237v-36.261
		c0,0-12.321-9.339-13.022-9.339c-0.703,0-6.512-1.58-6.512-1.58l-1.241-6.862l-16.009-20.07l1.584-7.215l0.52-11.797l11.081-7.746
		l-1.585-13.208l-16.186-1.218l-12.674-14.446l-8.978-2.456l-5.799-1.065l0.692-5.279L350,447.002v2.991l-18.482-4.572
		l-7.441-11.384l3.032-5.516l-11.711-17.082l-2.013-12.497h-4.752l1.584,12.143l8.093,12.497l-0.879,4.939l-6.862-1.057l-8.445-14.4
		v-16.757l-8.798-4.23V380.02c-10.883,25.477-16.917,53.498-16.917,82.904c0,116.81,95.035,211.842,211.844,211.842
		c0.157,0,0.313-0.008,0.474-0.008c66.03-0.146,125.04-30.674,163.816-78.298h-6.988v-14.081l-8.076-10.892v-16.935l-6.18-6.146
		l-0.53-7.048l7.836-14.966l-14.868-26.232l1.764-17.792l-13.386-1.393l-4.919-4.93h-8.985l-4.566,4.223h-15.85l-0.531,1.408h-8.804
		l-20.238-23.053l0.163-17.961l3.343-1.228l1.242-6.87h-4.748l-1.943-7.215l23.424-16.897v-11.97l11.455-6.364l4.632,0.464h9.438
		l7.37-3.961l23.774-1.854v12.148l18.755,4.756l3.696,2.64h3.433v-6.612l10.823-1.05l10.309,7.662h16.892l1.183-1.083
		c-1.672-5.702-3.587-11.295-5.719-16.792l-11.042,0.185l-5.544-6.078l-1.06-9.767l-5.667,3.095l-3.049,11.942l-8.183-8.711
		l-0.335-8.236l-7.907-6.805l-2.92-2.899h-9.177l2.905,8.17l11.036,6.154l1.916,2.032l-2.387,1.194l0.09,6.473l-5.365,2.243
		l-4.596-1.007l-2.862-4.065l7.458,0.401l2.013-2.716l-16.538-11.159l-1.261-4.752l-6.718,6.076l-6.82-1.4l-10.369,13.479
		l-2.034,5.278l-6.627,0.606l-9.812,0.061l-5.864-2.743l-1.729-11.652l2.105-5.554l9.984-2.185l10.894,2.185l1.323-6.025
		l-4.626-1.093l1.586-9.381l10.952-1.715l7.661-10.822l7.917-1.329l7.143,1.06h2.625l-1.44-10.167l-8.687,3.505l-3.047-7.596
		l-5.038-0.701l-0.944-5.21l4.119-4.475l9.767-3.829l2.52-4.494c-37.234-32.801-86.013-52.802-139.381-52.92
		C488.566,251.088,488.41,251.083,488.253,251.083L488.253,251.083z M588.441,346.574l0.694-7.303l5.115-1.061l-0.43-3.431
		l-4.767-2.995l-3.346-2.285v-3.354l1.94-2.985l6.954-1.409l1.756,8.454l3.702,5.983l2.456,2.823l4.49,1.749l-4.221,5.027
		l-8.184,0.788H588.441L588.441,346.574z M574.266,343.754v-4.398l4.237-6.778l5.706-1.321l4.062,1.762l-0.37,4.574l-8.705,6.161
		H574.266L574.266,343.754z M463.333,363.384v-3.129h6.065l1.259-3.234l2.409-0.05l2.764,0.572l-1.18,2.45l-3.014,0.262
		l-0.612,2.913l-2.32,1.443l-3.716,0.311c-0.124-0.871-0.213-1.539-0.213-1.539H463.333L463.333,363.384z M454.772,365.776
		l0.236-3.062l1.977-2.458l2.643,2.078l-0.449,3.076L454.772,365.776L454.772,365.776z"/>
</g>
<g>
	<g>
		<path fill="#434A54" d="M139.17,455.467c-2.164-20.525-4.232-41.069-6.876-61.54c5.525-2.056,8.293-3.067,13.842-5.057
			c0.249,9.512,0.721,17.998,1.376,25.462c3.26-1.355,4.892-2.027,8.162-3.359c-0.291-4.021-0.617-7.933-0.982-11.734
			c-0.365-3.799-1.553-10.335-0.6-11.835c0.586-0.923,4.516-1.942,7.028-2.822c2.513-0.879,4.247-1.468,5.203-1.779
			c0.564-0.218,0.847-0.328,1.412-0.546c-0.652,12.66,0.431,25.266,1.492,37.858c0.608,7.22,1.382,14.58,2.332,22.056
			c-5.047,2.004-7.564,3.021-12.585,5.082c-0.223-3.417-0.455-6.632-0.697-9.644c-0.243-3.012-0.475-5.999-0.694-8.96
			c-0.219-2.96-0.415-5.498-0.597-7.614c-3.234,1.223-4.849,1.84-8.074,3.086c0.677,7.06,1.409,15.361,2.23,24.899
			C146.334,451.573,143.94,452.863,139.17,455.467z"/>
		<path fill="#434A54" d="M196.533,424.393c-0.182,5.032-0.266,7.546-0.419,12.575c-1.212,0.475-2.619,1.031-4.218,1.667
			c-1.604,0.638-3.194,1.263-4.771,1.873c-1.579,0.611-4.819,1.973-4.886,1.926c-1.027-0.725,0.608-14.403,0.878-19.802
			c0.27-5.397,0.502-9.835,0.679-13.308c0.176-3.471,0.354-6.917,0.533-10.33s0.367-6.716,0.558-9.904
			c0.191-3.187-0.161-7.889,0.487-8.732c2.862-3.724,23.062-8.654,23.607-8.342c0.956,0.547,1.713,11.78,3.01,19.063
			c2.383,13.379,9.456,36.259,7.316,40.199c-0.299,0.551-3.117,1.261-4.619,1.839c-1.504,0.58-3.058,1.201-4.652,1.865
			c-1.596,0.665-4.216,1.893-4.353,1.813c-0.935-0.543-1.252-9.997-1.807-14.21C200.938,423.299,199.469,423.661,196.533,424.393z
			 M196.497,415.753c2.419-0.769,3.629-1.149,6.053-1.904c-0.077-0.32-0.17-0.878-0.272-1.671c-0.103-0.791-0.209-1.729-0.355-2.75
			c-0.823-5.731-1.733-11.236-2.403-16.267c-0.447-2.906-0.67-4.357-1.114-7.264c-0.537,0.163-0.807,0.243-1.344,0.406
			C196.814,396.119,196.625,405.936,196.497,415.753z"/>
		<path fill="#434A54" d="M244.924,413.821c1.383-0.284,2.705-1.422,3.898-3.396c1.213-2.007,1.856-4.009,1.939-5.927
			c4.216,0.74,6.32,1.12,10.516,1.897c-1.43,6.135-3.818,11.266-7.167,15.392c-2.978,3.668-6.315,5.887-10.032,6.662
			c-3.499,0.73-6.689-0.217-9.532-2.854c-3.021-2.802-5.14-6.937-6.328-12.349s-1.601-10.798-1.209-16.161
			c0.392-5.362,1.523-10.336,3.406-14.915c1.882-4.577,4.484-8.499,7.8-11.748s7.268-5.323,11.827-6.201
			c2.941-0.566,5.709,0.004,8.118,1.731c2.408,1.727,3.939,4.432,4.583,7.939c0.077,0.421,0.117,0.631,0.194,1.052
			c0.06,0.324,0.093,0.681,0.107,1.068c-4.377,2.008-6.559,3.023-10.907,5.071c-0.943-1.213-1.886-1.73-2.827-1.546
			c-0.939,0.184-1.821,0.889-2.641,2.114c-0.822,1.226-1.568,2.746-2.235,4.558s-1.249,3.819-1.74,6.019
			c-0.491,2.199-0.848,4.411-1.117,6.57c-0.599,4.802-0.663,8.637-0.088,11.403C242.063,412.969,243.208,414.173,244.924,413.821z"
			/>
		<path fill="#434A54" d="M313.332,413.504c-0.231,0.42-5.45,0.64-8.349,1.084c-2.896,0.444-8.3,2.082-9.116,1.604
			c-2.088-1.223-4.575-14.18-7.035-22.114c-0.528,0.787-0.793,1.181-1.319,1.969c-0.115,1.744-0.207,3.872-0.273,6.385
			c-0.067,2.513-0.146,5.046-0.229,7.591c-0.084,2.545-0.165,5.27-0.236,8.175c-5.346,1.742-8.012,2.629-13.329,4.433
			c0.696-20.791-2.925-59.022,0.164-62.541c0.267-0.304,2.982-0.22,4.703-0.426c1.719-0.207,3.398-0.389,5.037-0.546
			c1.636-0.158,5.002-0.807,5.15-0.667c0.034,0.032-0.046,0.647-0.067,1.261c-0.021,0.615-0.047,1.371-0.082,2.264
			c-0.035,0.894-0.065,1.887-0.097,2.974c-0.032,1.088-0.092,2.544-0.182,4.364c-0.089,1.821-0.175,4.294-0.249,7.419
			c0.2-0.066,0.3-0.1,0.5-0.166c1.218-2.586,2.479-5.328,3.794-8.192c2.61-5.685,4.537-10.938,5.615-11.78
			c3.06-2.392,17.492-4.444,17.492-4.444c0.518,0.66-16.272,23.638-16.476,30.596c-0.103,3.521,4.431,10.573,6.956,15.546
			C308.227,403.266,313.536,413.133,313.332,413.504z"/>
		<path fill="#434A54" d="M350.409,361.333c-0.294-4.306-0.44-6.458-0.732-10.765c3.047-0.11,6.112-0.322,9.196-0.634
			c8.145-0.824,16.042-2.01,23.722-3.573c-0.237,1.836-0.355,2.753-0.589,4.589c-0.188,1.283-0.354,2.606-0.504,3.966
			c-0.149,1.361-0.151,3.189-0.448,3.545c-0.42,0.503-2.609,0.785-3.923,1.037s-3.476,0.466-3.845,0.878
			c-1.314,1.465-1.212,9.617-1.663,15.936c-0.724,10.158-1.407,20.333-1.866,30.511c-6.029,1.542-9.039,2.332-15.039,3.953
			c1.667-16.523,6.625-46.958,4.063-49.666c-0.274-0.29-2.791,0.067-4.167,0.267C353.235,361.578,351.834,361.563,350.409,361.333z"
			/>
		<path fill="#434A54" d="M387.902,407.686c2.517-20.712,2.576-58.768,6.374-62.387c1.246-1.188,14.243-0.678,14.574-0.301
			c1.646,1.867-3.521,19.677-4.138,24.335c3.441-0.619,5.164-0.923,8.612-1.518c0.575-3.989,1.09-7.878,1.546-11.668
			c0.456-3.788,0.691-10.425,1.94-11.685c0.762-0.769,4.783-0.921,7.403-1.238c2.62-0.316,4.426-0.521,5.418-0.618
			c0.594-0.092,0.89-0.137,1.484-0.228c-3.324,12.227-4.965,24.768-6.621,37.289c-0.949,7.18-1.77,14.534-2.442,22.039
			c-5.312,0.868-7.963,1.316-13.259,2.244c0.511-3.385,0.97-6.575,1.376-9.567c0.406-2.993,0.818-5.958,1.237-8.896
			c0.418-2.938,0.767-5.457,1.042-7.562c-3.39,0.495-5.083,0.75-8.468,1.27c-0.849,7.039-1.905,15.3-3.139,24.791
			C395.653,405.437,393.065,406.176,387.902,407.686z"/>
		<path fill="#434A54" d="M434.863,404.737c2.939-20.12,6.038-40.21,9.283-60.282c9.439-1.063,18.89-2.017,28.351-2.863
			c-0.4,1.266-0.737,2.492-1.018,3.673c-0.281,1.182-0.562,2.35-0.843,3.505s-0.421,2.828-0.666,3.052
			c-0.518,0.477-4.115,0.292-7.131,0.341c-2.401,0.039-3.601,0.062-6.001,0.112c-1.125,6.082-1.681,9.123-2.774,15.207
			c3.146-0.239,5.779-0.398,7.899-0.489c2.118-0.091,4.066-0.288,4.123-0.229c0.242,0.249-0.401,3.149-0.58,4.659
			c-0.179,1.512-0.236,4.262-0.658,4.659c-0.179,0.169-1.592,0.121-2.899,0.171c-1.307,0.051-2.671,0.115-4.09,0.199
			s-3.01,0.176-4.769,0.274c-1.041,6.249-1.553,9.373-2.562,15.624c4.993-0.926,7.493-1.375,12.503-2.248
			c-0.274,3.856-0.412,5.785-0.68,9.642C451.313,401.612,445.816,402.61,434.863,404.737z"/>
		<path fill="#434A54" d="M511.428,344.114c0.411-0.338,2.793-0.179,4.521-0.296c1.726-0.118,3.425-0.219,5.094-0.304
			c1.667-0.084,5.122-0.409,5.229-0.278c0.838,1.027-3.122,11.997-4.116,15.916s-1.781,7.052-2.37,9.393
			c-0.589,2.342-1.099,4.516-1.567,6.457c-0.993,4.115-1.706,6.839-2.024,8.092c-0.956,3.757-1.441,6.189-1.472,7.286
			s0.187,1.94,0.647,2.529s1.097,0.895,1.908,0.918s1.553-0.336,2.222-1.084c0.669-0.747,1.229-1.636,1.685-2.663
			s0.815-2.086,1.078-3.175c0.262-1.088,0.539-2.193,0.832-3.307c0.293-1.114,0.688-2.666,1.183-4.652
			c0.495-1.985,0.997-4.056,1.503-6.206c0.505-2.148,1.023-4.347,1.57-6.571c1.401-5.702,3.112-12.946,5.104-21.706
			c5.442-0.108,8.164-0.149,13.611-0.196c-0.22,0.846-0.327,1.268-0.547,2.114c-0.877,3.416-1.85,7.365-2.91,11.843
			s-2.013,8.347-2.853,11.602c-2.184,8.458-3.75,14.477-4.753,18.028c-1.003,3.553-2.292,6.421-3.865,8.606
			c-1.575,2.188-3.369,4.01-5.366,5.391c-3.778,2.613-8.164,3.833-13.042,3.707c-2.995-0.078-5.612-0.95-7.691-2.643
			c-2.401-1.956-3.592-4.645-3.54-7.881c0.003-0.219,0.008-0.438,0.011-0.659c0.003-0.218,0.083-0.958,0.244-2.217
			c0.161-1.257,0.52-3.519,1.083-6.773c0.562-3.252,1.178-6.646,1.841-10.174c0.663-3.526,1.375-7.065,2.135-10.617
			c0.76-3.551,1.459-6.78,2.106-9.669C510.308,348.708,511.128,344.361,511.428,344.114z"/>
		<path fill="#434A54" d="M561.137,344.479c1.016,0.065,1.524,0.098,2.54,0.165c1.166,0.077,8.586-0.765,9.827,0.361
			c1.055,0.957,1.033,7.743,1.442,11.167c1.172,9.801,2.327,19.083,2.327,19.083c0.027,0.001,0.681-2.423,1.084-3.876
			c0.403-1.453,0.841-2.975,1.314-4.559c0.474-1.583,0.95-3.223,1.439-4.878c0.774-2.621,2.41-7.921,4.901-15.86
			c4.416-0.123,6.629-0.175,11.051-0.257c-6.265,19.244-12.095,54.85-16.884,58.399c-0.183,0.135-3.001,0.212-6.986,0.838
			c-3.985,0.627-7.095,1.337-7.168,1.281c-1.736-1.326-1.475-32.109-1.475-32.109c-0.018-0.001-0.554,2.232-0.933,3.607
			c-0.379,1.376-0.762,2.85-1.152,4.416c-1.468,5.889-3.361,13.002-5.619,21.323c-5.075,0.832-7.608,1.26-12.661,2.146
			c5.426-20.304,10.703-58.312,14.943-61.454C559.33,344.122,560.611,344.445,561.137,344.479z"/>
		<path fill="#434A54" d="M623.643,350.751c-6.338,19.176-13.019,54.16-18.373,57.744c-0.466,0.312-4.264-0.201-8.135-0.086
			c-3.869,0.115-5.975,0.254-5.975,0.254c-0.411-0.414,4.666-12.927,6.923-20.253c3.81-12.367,7.696-24.73,11.379-37.145
			C615.127,351.026,617.964,350.924,623.643,350.751z"/>
		<path fill="#434A54" d="M622.892,412.893c4.444-20.221,7.928-57.875,11.989-60.955c1.042-0.79,8.477,0.917,12.528,1.133
			c0.566,0.011,0.852,0.015,1.418,0.026c-1.524,6.382-2.789,11.621-3.811,15.718c-1.021,4.096-1.831,7.423-2.434,9.97
			c-0.603,2.548-1.175,5.009-1.721,7.365c-0.932,4.019-1.893,7.939-2.851,11.741c0.638,0.084,0.956,0.127,1.594,0.212
			c5.205-14.366,10.493-28.696,15.864-43.001c1.631,0.178,3.238,0.326,4.82,0.446c1.58,0.12,3.189,0.264,4.826,0.426
			c1.635,0.163,4.552,0.275,4.579,0.322c0.638,1.085-6.874,14.033-9.689,20.63c-2.815,6.598-5.245,12.358-7.302,17.268
			c-2.057,4.912-4.515,11.018-7.345,18.32C636.355,412.578,631.862,412.653,622.892,412.893z"/>
		<path fill="#434A54" d="M660.094,417.341c6.766-19.175,13.68-38.292,20.738-57.361c9.505,0.775,19,1.667,28.484,2.664
			c-0.638,1.165-1.211,2.301-1.715,3.406c-0.504,1.105-1.006,2.198-1.503,3.276c-0.497,1.079-0.959,2.692-1.241,2.865
			c-0.603,0.37-4.115-0.507-7.095-1.042c-2.373-0.426-3.558-0.635-5.933-1.049c-2.278,5.751-3.411,8.628-5.659,14.387
			c3.143,0.372,5.77,0.725,7.874,1.044s4.061,0.502,4.105,0.571c0.189,0.291-0.998,3.013-1.465,4.46
			c-0.467,1.449-1.058,4.134-1.549,4.443c-0.21,0.132-1.59-0.189-2.887-0.393c-1.3-0.203-2.657-0.4-4.068-0.592
			c-1.416-0.192-3.001-0.41-4.752-0.653c-2.228,5.931-3.333,8.899-5.53,14.838c5.096,0.055,7.644,0.097,12.749,0.208
			c-1.012,3.731-1.515,5.596-2.521,9.329C678.785,417.497,669.439,417.363,660.094,417.341z"/>
		<path fill="#434A54" d="M723.393,427.445c-1.355-14.467-2.033-22.692-1.805-24.661c-0.463,0.04-0.689,0.06-1.152,0.1
			c-0.951,2.381-2.32,5.687-4.096,9.916c-1.776,4.23-3.172,7.616-4.193,10.152c-5.745,0.294-8.612,0.461-14.334,0.827
			c7.591-18.374,15.187-50.38,21.796-55.637c2.486-1.978,14.747-0.058,23.025,1.734c6.207,1.344,9.449,4.204,9.669,8.461
			c0.067,1.304-0.111,2.873-0.523,4.692s-1.256,3.694-2.524,5.628c-1.271,1.936-2.798,3.737-4.578,5.341
			c-3.645,3.285-11.745,5.756-12.329,6.746c-0.783,1.326,2.237,9.643,3.053,14.002s1.488,8.038,2.03,11.024
			C731.8,426.407,728.991,426.741,723.393,427.445z M734.268,380.037c-1.511-0.285-2.268-0.427-3.779-0.707
			c-2.222,5.018-3.324,7.528-5.522,12.554c2.299,0.249,5.434-0.544,9.415-2.316c4.093-1.822,6.36-3.54,6.723-5.202
			c0.338-1.553-1.046-2.801-4.12-3.665C736.088,380.448,735.179,380.229,734.268,380.037z"/>
		<path fill="#434A54" d="M784.459,398.895c0.554-0.99,0.981-2.069,1.283-3.238s0.237-2.193-0.2-3.07s-1.012-1.406-1.719-1.587
			s-1.442-0.198-2.202-0.051s-1.549,0.406-2.359,0.763c-1.884,0.83-3.011,1.949-3.362,3.359c-0.352,1.411-0.242,2.652,0.325,3.727
			c0.566,1.074,1.33,2.13,2.291,3.165c0.961,1.036,2.012,2.123,3.148,3.265c1.138,1.141,2.17,2.487,2.986,4.002
			c1.93,3.583,2.188,7.972,0.888,12.906c-1.566,5.941-5.133,10.242-10.581,12.975c-5.202,2.609-11.008,3.138-17.477,1.571
			c-4.784-1.159-8.575-4.643-11.445-10.482c3.6-4.204,5.41-6.3,9.06-10.478c0.422,1.679,1.627,3.391,3.503,5.147
			c1.897,1.776,3.391,2.85,4.49,3.119s2.047,0.391,2.841,0.36c0.794-0.029,1.548-0.185,2.258-0.458
			c1.607-0.618,2.59-1.599,2.931-2.957c0.34-1.356,0.209-2.705-0.396-4.043s-1.433-2.677-2.487-4.01
			c-1.054-1.333-2.223-2.706-3.503-4.118c-1.28-1.411-2.415-2.901-3.426-4.338c-2.391-3.398-3.413-6.587-2.724-9.525
			c0.689-2.937,2.21-5.427,4.577-7.458c2.366-2.031,5.119-3.616,8.26-4.745c3.139-1.128,6.455-1.81,9.941-2.038
			c3.482-0.228,6.348-0.048,8.572,0.527c2.227,0.575,3.986,1.234,5.287,1.973c1.299,0.738,2.387,1.62,3.189,2.632
			c1.771,2.234,2.197,5.077,1.312,8.36c-0.214,0.795-0.493,1.544-0.833,2.248c-0.341,0.704-0.687,1.491-1.041,2.36
			C792.482,398.781,789.805,398.81,784.459,398.895z"/>
		<path fill="#434A54" d="M788.862,444.662c8.903-18.286,17.947-36.498,27.134-54.644c9.418,1.854,18.811,3.829,28.182,5.906
			c-0.768,1.085-1.464,2.149-2.091,3.189c-0.628,1.041-1.251,2.07-1.87,3.086s-1.262,2.565-1.563,2.706
			c-0.646,0.301-4.056-0.976-6.978-1.849c-2.325-0.695-3.486-1.04-5.814-1.723c-2.92,5.456-4.376,8.187-7.267,13.654
			c3.103,0.729,5.688,1.379,7.758,1.939c2.068,0.559,4.005,0.964,4.042,1.038c0.155,0.311-1.336,2.881-1.964,4.266
			c-0.629,1.387-1.519,3.989-2.041,4.241c-0.225,0.108-1.569-0.371-2.844-0.721c-1.274-0.35-2.61-0.702-4.002-1.054
			s-2.953-0.751-4.677-1.193c-2.889,5.641-4.326,8.463-7.186,14.114c5.088,0.637,7.635,0.971,12.727,1.667
			c-1.428,3.593-2.144,5.388-3.566,8.982C807.53,446.95,798.203,445.749,788.862,444.662z"/>
	</g>
</g>
<circle fill="none" stroke="#FFFFFF" stroke-width="4.0176" stroke-miterlimit="10" cx="488.778" cy="461.991" r="209.763"/>
<g>
	<g>
		<path fill="#FFFFFF" d="M129.753,447.195c-2.188-20.75-4.275-41.519-6.954-62.212c5.585-2.078,8.384-3.099,13.994-5.11
			c0.252,9.615,0.729,18.193,1.391,25.738c3.295-1.37,4.945-2.048,8.251-3.395c-0.294-4.065-0.624-8.018-0.992-11.86
			c-0.369-3.841-1.567-10.449-0.605-11.965c0.592-0.933,4.563-1.964,7.103-2.854c2.54-0.889,4.293-1.484,5.26-1.8
			c0.571-0.221,0.857-0.329,1.428-0.549c-0.657,12.797,0.435,25.542,1.509,38.267c0.616,7.297,1.393,14.741,2.355,22.298
			c-5.102,2.026-7.647,3.054-12.723,5.138c-0.227-3.455-0.46-6.706-0.705-9.75s-0.478-6.063-0.699-9.058
			c-0.221-2.993-0.422-5.558-0.605-7.698c-3.27,1.236-4.901,1.862-8.162,3.122c0.684,7.136,1.425,15.528,2.257,25.17
			C136.997,443.258,134.576,444.562,129.753,447.195z"/>
		<path fill="#FFFFFF" d="M187.739,415.78c-0.184,5.087-0.268,7.63-0.423,12.714c-1.225,0.48-2.646,1.043-4.265,1.687
			c-1.62,0.644-3.229,1.276-4.824,1.893c-1.596,0.618-4.868,1.993-4.936,1.946c-1.038-0.732,0.614-14.559,0.887-20.018
			c0.273-5.458,0.507-9.943,0.686-13.454c0.179-3.51,0.359-6.992,0.54-10.443c0.181-3.45,0.37-6.787,0.563-10.01
			c0.194-3.223-0.164-7.975,0.493-8.829c2.896-3.766,23.311-8.748,23.862-8.433c0.966,0.553,1.731,11.908,3.043,19.272
			c2.41,13.527,9.56,36.654,7.396,40.637c-0.303,0.557-3.149,1.273-4.669,1.858c-1.52,0.586-3.086,1.213-4.699,1.885
			c-1.614,0.672-4.267,1.915-4.404,1.835c-0.944-0.549-1.264-10.107-1.824-14.366C192.194,414.676,190.707,415.041,187.739,415.78z
			 M187.704,407.045c2.446-0.777,3.669-1.161,6.12-1.925c-0.078-0.323-0.169-0.886-0.274-1.688c-0.104-0.802-0.211-1.747-0.36-2.779
			c-0.834-5.795-1.752-11.359-2.43-16.444c-0.452-2.937-0.677-4.405-1.126-7.343c-0.543,0.165-0.816,0.247-1.359,0.412
			C188.025,387.2,187.832,397.122,187.704,407.045z"/>
		<path fill="#FFFFFF" d="M236.66,405.094c1.398-0.287,2.733-1.437,3.94-3.433c1.227-2.029,1.876-4.052,1.961-5.991
			c4.263,0.748,6.39,1.131,10.632,1.917c-1.446,6.202-3.862,11.392-7.248,15.562c-3.011,3.709-6.383,5.952-10.141,6.735
			c-3.537,0.738-6.762-0.221-9.636-2.887c-3.054-2.833-5.197-7.011-6.398-12.483c-1.201-5.471-1.617-10.917-1.22-16.338
			c0.396-5.42,1.538-10.449,3.441-15.076c1.904-4.626,4.534-8.592,7.886-11.877c3.352-3.284,7.348-5.379,11.956-6.267
			c2.975-0.573,5.773,0.002,8.208,1.748c2.434,1.745,3.982,4.481,4.633,8.027c0.078,0.425,0.117,0.638,0.195,1.063
			c0.06,0.328,0.096,0.689,0.109,1.08c-4.425,2.03-6.631,3.056-11.027,5.127c-0.954-1.227-1.907-1.749-2.857-1.562
			c-0.951,0.186-1.842,0.899-2.672,2.137c-0.83,1.239-1.585,2.776-2.259,4.607c-0.674,1.833-1.261,3.862-1.758,6.085
			c-0.498,2.224-0.858,4.456-1.13,6.639c-0.605,4.854-0.67,8.733-0.09,11.529C233.767,404.233,234.924,405.45,236.66,405.094z"/>
		<path fill="#FFFFFF" d="M305.814,404.775c-0.234,0.425-5.51,0.646-8.439,1.096s-8.391,2.103-9.215,1.62
			c-2.111-1.236-4.625-14.335-7.112-22.356c-0.534,0.796-0.801,1.194-1.333,1.991c-0.116,1.763-0.21,3.913-0.278,6.455
			s-0.143,5.101-0.229,7.672c-0.085,2.573-0.169,5.331-0.241,8.268c-5.404,1.761-8.1,2.657-13.476,4.48
			c0.706-21.018-2.958-59.664,0.166-63.223c0.27-0.307,3.016-0.222,4.755-0.431c1.738-0.208,3.436-0.393,5.092-0.553
			c1.653-0.159,5.053-0.818,5.204-0.674c0.034,0.033-0.046,0.655-0.065,1.275c-0.02,0.621-0.049,1.384-0.083,2.288
			c-0.034,0.904-0.067,1.906-0.099,3.005s-0.093,2.575-0.182,4.413c-0.089,1.84-0.174,4.34-0.251,7.499
			c0.203-0.067,0.304-0.1,0.506-0.167c1.231-2.615,2.503-5.386,3.832-8.28c2.639-5.747,4.588-11.059,5.677-11.91
			c3.092-2.417,17.684-4.491,17.684-4.491c0.524,0.667-16.447,23.895-16.654,30.929c-0.105,3.559,4.48,10.688,7.031,15.716
			C300.653,394.424,306.021,404.399,305.814,404.775z"/>
		<path fill="#FFFFFF" d="M343.297,352.031c-0.299-4.352-0.447-6.526-0.743-10.878c3.082-0.112,6.179-0.328,9.297-0.644
			c8.234-0.833,16.218-2.032,23.983-3.611c-0.24,1.856-0.359,2.784-0.597,4.64c-0.19,1.296-0.36,2.632-0.511,4.007
			c-0.151,1.376-0.151,3.224-0.452,3.584c-0.425,0.509-2.637,0.795-3.964,1.049c-1.33,0.254-3.517,0.471-3.89,0.888
			c-1.329,1.481-1.221,9.722-1.677,16.108c-0.732,10.267-1.421,20.557-1.891,30.847c-6.096,1.56-9.138,2.359-15.204,3.998
			c1.686-16.705,6.698-47.478,4.109-50.211c-0.277-0.293-2.819,0.069-4.212,0.271C346.153,352.281,344.737,352.265,343.297,352.031z
			"/>
		<path fill="#FFFFFF" d="M381.199,398.894c2.546-20.939,2.604-59.409,6.445-63.069c1.261-1.201,14.396-0.686,14.731-0.306
			c1.663,1.887-3.56,19.89-4.183,24.599c3.479-0.625,5.221-0.932,8.707-1.532c0.581-4.033,1.104-7.963,1.564-11.794
			c0.461-3.83,0.7-10.539,1.962-11.812c0.771-0.777,4.836-0.934,7.484-1.254c2.649-0.32,4.472-0.522,5.476-0.622
			c0.6-0.092,0.901-0.139,1.501-0.231c-3.362,12.36-5.021,25.035-6.694,37.692c-0.959,7.259-1.79,14.695-2.469,22.282
			c-5.37,0.877-8.051,1.33-13.405,2.268c0.517-3.422,0.982-6.646,1.393-9.672c0.412-3.026,0.827-6.024,1.25-8.994
			c0.423-2.969,0.775-5.517,1.054-7.646c-3.427,0.501-5.138,0.757-8.56,1.282c-0.857,7.115-1.927,15.47-3.174,25.064
			C389.035,396.619,386.419,397.367,381.199,398.894z"/>
		<path fill="#FFFFFF" d="M428.672,395.91c2.975-20.338,6.102-40.647,9.388-60.938c9.542-1.074,19.096-2.042,28.66-2.895
			c-0.404,1.28-0.748,2.517-1.032,3.711c-0.284,1.196-0.565,2.376-0.848,3.544s-0.428,2.858-0.674,3.085
			c-0.522,0.482-4.16,0.296-7.208,0.346c-2.427,0.039-3.642,0.061-6.068,0.112c-1.138,6.148-1.698,9.223-2.804,15.373
			c3.18-0.242,5.842-0.403,7.983-0.495c2.142-0.091,4.109-0.291,4.167-0.231c0.245,0.252-0.405,3.18-0.585,4.708
			c-0.181,1.529-0.239,4.31-0.665,4.711c-0.182,0.171-1.609,0.122-2.929,0.172c-1.321,0.051-2.701,0.118-4.135,0.202
			c-1.436,0.085-3.043,0.177-4.821,0.275c-1.052,6.317-1.569,9.477-2.59,15.796c5.047-0.936,7.576-1.392,12.641-2.274
			c-0.277,3.898-0.414,5.848-0.686,9.746C447.181,392.433,437.916,394.117,428.672,395.91z"/>
		<path fill="#FFFFFF" d="M506.074,334.628c0.416-0.342,2.824-0.181,4.569-0.299c1.746-0.119,3.464-0.222,5.15-0.308
			c1.688-0.085,5.177-0.415,5.285-0.282c0.847,1.038-3.157,12.128-4.162,16.091s-1.804,7.128-2.397,9.495
			c-0.596,2.368-1.107,4.562-1.581,6.525c-1.003,4.159-1.725,6.914-2.046,8.18c-0.964,3.8-1.458,6.257-1.489,7.366
			c-0.03,1.109,0.187,1.961,0.653,2.556c0.465,0.596,1.108,0.904,1.93,0.929c0.821,0.024,1.568-0.339,2.244-1.096
			c0.675-0.755,1.246-1.653,1.707-2.692c0.461-1.039,0.824-2.108,1.089-3.21c0.265-1.101,0.543-2.217,0.839-3.344
			c0.296-1.126,0.696-2.694,1.197-4.703c0.501-2.008,1.005-4.097,1.517-6.271c0.512-2.173,1.037-4.394,1.59-6.643
			c1.417-5.764,3.146-13.09,5.161-21.945c5.501-0.109,8.252-0.147,13.758-0.195c-0.222,0.855-0.332,1.282-0.554,2.137
			c-0.887,3.453-1.869,7.443-2.941,11.971c-1.073,4.528-2.035,8.439-2.884,11.729c-2.207,8.551-3.789,14.634-4.804,18.224
			c-1.015,3.592-2.318,6.491-3.909,8.701c-1.592,2.21-3.404,4.053-5.423,5.449c-3.818,2.641-8.254,3.875-13.187,3.747
			c-3.026-0.079-5.67-0.96-7.772-2.672c-2.428-1.978-3.635-4.695-3.582-7.968c0.003-0.221,0.009-0.444,0.012-0.666
			c0.003-0.221,0.087-0.968,0.25-2.241c0.163-1.271,0.525-3.556,1.096-6.847c0.57-3.29,1.188-6.718,1.858-10.283
			s1.388-7.145,2.157-10.735c0.769-3.589,1.475-6.854,2.128-9.773C504.941,339.271,505.771,334.878,506.074,334.628z"/>
		<path fill="#FFFFFF" d="M556.322,334.997c1.026,0.066,1.538,0.099,2.564,0.167c1.181,0.078,8.685-0.774,9.939,0.364
			c1.066,0.967,1.041,7.829,1.455,11.289c1.185,9.907,2.354,19.289,2.354,19.289c0.028,0.001,0.685-2.45,1.093-3.919
			c0.407-1.469,0.853-3.005,1.332-4.608c0.479-1.602,0.959-3.259,1.454-4.933c0.784-2.65,2.438-8.007,4.957-16.032
			c4.464-0.124,6.698-0.175,11.169-0.258c-6.33,19.452-12.229,55.448-17.066,59.035c-0.185,0.137-3.03,0.216-7.06,0.849
			s-7.17,1.352-7.244,1.295c-1.757-1.341-1.498-32.462-1.498-32.462c-0.018-0.001-0.559,2.257-0.941,3.647
			c-0.383,1.391-0.771,2.883-1.167,4.466c-1.486,5.955-3.396,13.141-5.678,21.553c-5.13,0.84-7.689,1.275-12.797,2.171
			c5.479-20.525,10.814-58.942,15.102-62.123C554.494,334.635,555.791,334.963,556.322,334.997z"/>
		<path fill="#FFFFFF" d="M619.509,341.336c-6.414,19.382-13.166,54.757-18.568,58.376c-0.471,0.315-4.312-0.204-8.225-0.088
			c-3.911,0.116-6.044,0.256-6.044,0.256c-0.416-0.419,4.719-13.069,6.999-20.473c3.85-12.501,7.777-25.002,11.505-37.552
			C610.903,341.614,613.768,341.51,619.509,341.336z"/>
		<path fill="#FFFFFF" d="M618.752,404.157c4.494-20.442,8.012-58.508,12.119-61.622c1.054-0.799,8.566,0.927,12.663,1.146
			c0.572,0.011,0.86,0.015,1.433,0.026c-1.539,6.451-2.819,11.748-3.851,15.89c-1.032,4.142-1.848,7.502-2.457,10.077
			c-0.609,2.577-1.189,5.062-1.742,7.446c-0.943,4.065-1.91,8.026-2.88,11.87c0.645,0.085,0.968,0.129,1.612,0.215
			c5.262-14.522,10.606-29.01,16.036-43.471c1.648,0.18,3.273,0.329,4.871,0.451s3.226,0.264,4.879,0.429s4.602,0.279,4.629,0.326
			c0.645,1.097-6.95,14.186-9.795,20.855c-2.846,6.671-5.3,12.493-7.379,17.458c-2.08,4.967-4.562,11.139-7.421,18.521
			C632.367,403.839,627.821,403.915,618.752,404.157z"/>
		<path fill="#FFFFFF" d="M656.358,408.655c6.841-19.385,13.829-38.712,20.964-57.99c9.607,0.784,19.206,1.683,28.793,2.691
			c-0.645,1.178-1.219,2.326-1.729,3.443c-0.51,1.119-1.016,2.222-1.519,3.312s-0.973,2.721-1.258,2.896
			c-0.608,0.374-4.159-0.514-7.172-1.054c-2.399-0.43-3.598-0.64-5.998-1.059c-2.304,5.813-3.449,8.722-5.722,14.544
			c3.179,0.376,5.833,0.732,7.961,1.055c2.128,0.324,4.105,0.51,4.15,0.58c0.191,0.295-1.011,3.042-1.482,4.507
			c-0.472,1.465-1.065,4.18-1.562,4.492c-0.212,0.133-1.61-0.191-2.921-0.396c-1.312-0.205-2.684-0.404-4.113-0.599
			c-1.431-0.193-3.031-0.413-4.802-0.659c-2.252,5.996-3.37,8.995-5.591,14.999c5.15,0.055,7.729,0.096,12.89,0.208
			c-1.022,3.772-1.533,5.66-2.551,9.434C675.254,408.811,665.807,408.675,656.358,408.655z"/>
		<path fill="#FFFFFF" d="M720.35,418.868c-1.369-14.626-2.055-22.941-1.823-24.932c-0.467,0.04-0.7,0.062-1.167,0.103
			c-0.963,2.408-2.344,5.748-4.139,10.024c-1.796,4.277-3.204,7.7-4.236,10.264c-5.809,0.298-8.708,0.465-14.492,0.836
			c7.671-18.579,15.343-50.93,22.032-56.248c2.517-2,14.908-0.058,23.276,1.753c6.275,1.358,9.547,4.247,9.771,8.553
			c0.068,1.319-0.111,2.904-0.527,4.743c-0.417,1.839-1.269,3.736-2.552,5.692c-1.284,1.957-2.828,3.777-4.628,5.399
			c-3.684,3.32-11.871,5.818-12.462,6.818c-0.792,1.34,2.26,9.748,3.084,14.156c0.824,4.409,1.504,8.125,2.054,11.145
			C728.849,417.818,726.011,418.156,720.35,418.868z M731.343,370.94c-1.527-0.289-2.293-0.432-3.821-0.716
			c-2.245,5.073-3.361,7.612-5.582,12.692c2.323,0.252,5.492-0.552,9.516-2.343c4.139-1.842,6.435-3.578,6.801-5.258
			c0.342-1.571-1.058-2.834-4.165-3.707C733.187,371.355,732.264,371.135,731.343,370.94z"/>
		<path fill="#FFFFFF" d="M782.082,390.004c0.561-1,0.993-2.093,1.298-3.275c0.305-1.181,0.237-2.215-0.205-3.102
			s-1.025-1.422-1.739-1.604c-0.717-0.183-1.456-0.199-2.225-0.051c-0.768,0.149-1.565,0.41-2.385,0.771
			c-1.904,0.838-3.043,1.969-3.398,3.395c-0.355,1.427-0.247,2.681,0.327,3.768c0.573,1.087,1.349,2.154,2.319,3.201
			c0.971,1.047,2.032,2.146,3.183,3.3c1.15,1.153,2.195,2.513,3.02,4.044c1.95,3.621,2.209,8.06,0.895,13.047
			c-1.583,6.007-5.185,10.354-10.693,13.118c-5.259,2.638-11.13,3.173-17.669,1.588c-4.837-1.172-8.67-4.692-11.57-10.596
			c3.64-4.25,5.472-6.369,9.161-10.593c0.426,1.696,1.644,3.427,3.54,5.203c1.915,1.793,3.426,2.882,4.538,3.154
			c1.11,0.271,2.067,0.394,2.871,0.363c0.803-0.029,1.562-0.186,2.282-0.462c1.625-0.625,2.625-1.619,2.969-2.99
			s0.208-2.736-0.404-4.089c-0.613-1.354-1.452-2.706-2.518-4.052c-1.066-1.348-2.246-2.737-3.539-4.163
			c-1.295-1.427-2.442-2.932-3.466-4.386c-2.418-3.435-3.449-6.658-2.752-9.628c0.696-2.969,2.233-5.485,4.628-7.54
			c2.394-2.054,5.177-3.655,8.351-4.797c3.172-1.141,6.524-1.83,10.048-2.061c3.522-0.231,6.417-0.048,8.666,0.533
			c2.25,0.581,4.033,1.248,5.347,1.995c1.312,0.746,2.411,1.637,3.222,2.659c1.792,2.26,2.223,5.132,1.328,8.452
			c-0.217,0.803-0.499,1.562-0.842,2.273c-0.345,0.712-0.697,1.506-1.055,2.386C790.19,389.89,787.486,389.918,782.082,390.004z"/>
		<path fill="#FFFFFF" d="M786.537,436.273c9.001-18.487,18.142-36.899,27.429-55.244c9.52,1.877,19.016,3.875,28.489,5.973
			c-0.776,1.097-1.48,2.172-2.115,3.225c-0.635,1.053-1.266,2.091-1.891,3.118s-1.278,2.593-1.582,2.735
			c-0.652,0.305-4.1-0.987-7.052-1.869c-2.351-0.703-3.526-1.051-5.88-1.741c-2.951,5.515-4.421,8.275-7.343,13.802
			c3.136,0.738,5.75,1.396,7.842,1.961c2.092,0.566,4.05,0.975,4.087,1.049c0.157,0.314-1.352,2.91-1.986,4.311
			c-0.636,1.402-1.535,4.034-2.063,4.288c-0.228,0.109-1.586-0.375-2.874-0.729c-1.289-0.354-2.641-0.71-4.048-1.067
			c-1.409-0.356-2.986-0.757-4.729-1.205c-2.92,5.702-4.372,8.555-7.263,14.269c5.143,0.644,7.718,0.98,12.865,1.683
			c-1.443,3.632-2.163,5.449-3.602,9.083C805.409,438.587,795.98,437.37,786.537,436.273z"/>
	</g>
</g>
<path fill="#00DACE" d="M576.232,663.375l0.008-0.002c-0.48-2.555-0.97-3.721-1.261-4.418l-0.274-0.686
	c-0.315-0.801-0.51-1.287-0.419-1.918c0.05-0.344,0.185-0.715,0.328-1.109c0.063-0.174,0.125-0.352,0.182-0.525l0.194-0.586
	c0.671-2,1.426-4.271,0.396-5.926c-0.494-0.793-1.345-1.33-2.53-1.602c-0.506-3.58-1.163-7.238-1.935-10.773l-0.039-0.184
	c-2.121-9.762-5.184-19.17-9.12-28.025c-3.196-7.148-6.099-11.994-7.515-14.186l-0.129-0.248l-1.007-75.385
	c0-1.383-0.269-4.931-0.529-8.366c-0.247-3.253-0.502-6.618-0.502-7.831c0-12.239-4.606-23.812-13.334-33.509
	c0.895-1.596,1.697-2.951,2.497-4.221c0.193-0.311,0.209-0.686,0.031-0.996c-0.334-0.612-1.321-0.67-1.723-0.069
	c-0.796,1.203-1.574,2.422-2.343,3.645c-0.837-0.86-1.712-1.708-2.617-2.524c0.867-1.325,1.711-2.671,2.53-4.02
	c0.189-0.309,0.202-0.684,0.023-0.992c-0.339-0.624-1.337-0.657-1.718-0.061c-0.824,1.284-1.691,2.526-2.476,3.629
	c-1.319-1.12-2.665-2.173-4.023-3.14c0.632-1.467,1.289-3.075,1.997-4.898l0.144-0.551l-0.24-0.348
	c-0.411-0.601-1.484-0.49-1.771,0.195c-0.649,1.562-1.351,3.083-1.956,4.357c-0.525-0.359-1.072-0.684-1.611-1.023
	c0.767-2.384,1.551-4.597,2.383-6.742l0.136-0.553l-0.239-0.35c-0.408-0.595-1.479-0.492-1.773,0.205
	c-0.867,2.132-1.67,4.237-2.42,6.292c-0.516-0.298-1.025-0.603-1.547-0.885c0.745-1.334,1.479-2.681,2.179-4.036
	c0.17-0.313,0.158-0.676-0.025-0.979c-0.372-0.62-1.379-0.608-1.723,0.025c-0.771,1.406-1.602,2.775-2.35,3.988
	c-0.45-0.227-0.898-0.438-1.352-0.657c0.556-1.723,1.099-3.271,1.655-4.712l0.139-0.551l-0.241-0.348
	c-0.408-0.599-1.493-0.484-1.77,0.201c-0.643,1.578-1.227,3.062-1.767,4.518c-0.46-0.201-0.926-0.396-1.392-0.587
	c0.348-1.028,0.685-2.063,1.013-3.101l0.099-0.548l-0.239-0.327c-0.439-0.603-1.518-0.446-1.765,0.272
	c-0.336,0.989-0.693,1.967-1.062,2.939c-1.136-0.423-2.286-0.809-3.443-1.178c0.176-1.271,0.392-2.596,0.674-4.069
	c0.053-0.292-0.022-0.601-0.21-0.829c-0.489-0.585-1.57-0.348-1.744,0.406c-0.276,1.286-0.531,2.574-0.776,3.866
	c-1.185-0.338-2.374-0.65-3.573-0.925c0.081-1.868,0.197-3.255,0.391-5.072c0.032-0.283-0.055-0.552-0.238-0.755l-0.376-0.32h-0.355
	c-0.518,0-0.95,0.386-1.015,0.888l-0.121,0.928c-0.17,1.324-0.326,2.536-0.46,3.866c-0.218-0.042-0.437-0.097-0.66-0.135
	c-0.027-1.062-0.075-1.912-0.134-2.988l-0.05-0.857c-0.031-0.537-0.464-0.944-1.005-0.944c-0.271,0-0.538,0.108-0.72,0.302
	l-0.284,0.374l0.016,0.342c0.033,1.203,0.037,2.268,0.021,3.39c-0.713-0.11-1.438-0.21-2.163-0.303
	c-0.236-1.524-0.429-3.188-0.601-5.062c-0.045-0.525-0.479-0.917-1.011-0.917c-0.272,0-0.538,0.111-0.722,0.307l-0.282,0.389
	l0.023,0.35c0.099,1.452,0.22,3.017,0.388,4.686c-0.392-0.039-0.776-0.051-1.164-0.087c-0.164-0.756-0.338-1.509-0.51-2.262
	c-0.172-0.744-1.268-0.976-1.75-0.383c-0.189,0.235-0.259,0.545-0.197,0.834c0.12,0.549,0.22,1.105,0.322,1.653
	c-1.035-0.06-2.064-0.089-3.08-0.107c-0.021-0.134-0.047-0.278-0.061-0.408c-0.218-2.282-0.358-4.409-0.421-6.485
	c-0.017-0.546-0.453-0.972-1.002-0.972c-0.265,0-0.525,0.106-0.715,0.294l-0.284,0.369l0.002,0.338
	c0.027,2.28,0.097,4.492,0.221,6.578c0.002,0.085,0.004,0.186,0.008,0.274c-0.576,0.008-1.155,0.032-1.73,0.054
	c0-1.503-0.025-3.088-0.083-4.97c-0.025-0.54-0.466-0.961-1.011-0.961c-0.263,0-0.521,0.107-0.704,0.293l-0.292,0.371l0.008,0.338
	c0.014,1.73-0.051,3.471-0.114,4.948c0,0.027-0.002,0.056-0.006,0.083c-1.108,0.075-2.215,0.16-3.341,0.284
	c-0.251-1.611-0.456-3.332-0.626-5.227c-0.05-0.52-0.484-0.911-1.012-0.911c-0.278,0-0.541,0.113-0.725,0.312l-0.284,0.384
	l0.029,0.348c0.124,1.823,0.278,3.62,0.462,5.349c-0.561,0.079-1.116,0.164-1.675,0.253c-0.01-1.244-0.041-2.489-0.083-3.735
	c-0.018-0.539-0.458-0.964-1-0.964c-0.267,0-0.525,0.108-0.709,0.294l-0.286,0.372v0.336c0.014,1.414-0.027,2.834-0.075,4.093
	c-0.666,0.126-1.335,0.278-2.001,0.429c-0.062-0.154-0.133-0.318-0.18-0.463c-0.612-1.795-1.12-3.423-1.549-4.981
	c-0.203-0.737-1.288-0.937-1.756-0.338c-0.184,0.241-0.251,0.553-0.178,0.85c0.429,1.711,0.877,3.417,1.367,5.116
	c0.033,0.103,0.062,0.228,0.091,0.344c-0.54,0.14-1.087,0.269-1.622,0.423c-0.237-1.29-0.486-2.572-0.765-3.849
	c-0.156-0.752-1.244-0.995-1.738-0.408c-0.189,0.229-0.265,0.533-0.21,0.827c0.231,1.223,0.445,2.545,0.656,4.03
	c-0.738,0.229-1.464,0.474-2.187,0.729c-0.396-1.8-0.8-3.597-1.247-5.389c-0.195-0.745-1.275-0.956-1.75-0.365
	c-0.191,0.24-0.259,0.547-0.191,0.845c0.411,1.804,0.725,3.607,0.983,5.125c0.026,0.174,0.046,0.379,0.065,0.568
	c-0.32,0.121-0.649,0.237-0.966,0.363c-0.22-0.974-0.456-1.945-0.697-2.915c-0.189-0.747-1.272-0.954-1.748-0.364
	c-0.192,0.243-0.259,0.546-0.192,0.842c0.247,1.087,0.463,2.179,0.66,3.275c-0.468,0.205-0.933,0.425-1.396,0.642
	c-0.045-0.106-0.104-0.229-0.145-0.329c-0.674-1.707-1.438-3.491-2.392-5.612c-0.299-0.666-1.317-0.726-1.719-0.117
	c-0.189,0.285-0.222,0.641-0.091,0.952c0.823,1.946,1.528,3.876,2.109,5.512c0.067,0.176,0.121,0.396,0.184,0.589
	c-0.437,0.224-0.873,0.435-1.306,0.664c-0.564-1.379-1.088-2.555-1.729-3.985c-0.302-0.667-1.31-0.725-1.715-0.118
	c-0.195,0.286-0.229,0.641-0.097,0.962c0.646,1.525,1.139,2.815,1.638,4.192c-0.557,0.321-1.1,0.667-1.649,1.003
	c-0.053-0.132-0.114-0.271-0.17-0.396c-0.763-1.948-1.661-4.065-2.818-6.671c-0.297-0.67-1.32-0.728-1.723-0.121
	c-0.189,0.287-0.222,0.646-0.089,0.962c0.877,2.059,1.746,4.299,2.812,7.25c0.026,0.065,0.044,0.141,0.069,0.205
	c-0.562,0.376-1.124,0.745-1.675,1.135c-0.525-1.381-1.063-2.752-1.626-4.119c-0.286-0.686-1.361-0.794-1.768-0.199l-0.251,0.504
	l0.151,0.395c0.625,1.628,1.17,3.242,1.666,4.765c-0.457,0.35-0.907,0.703-1.35,1.061c-0.33-0.774-0.674-1.54-1.014-2.305
	c-0.304-0.674-1.312-0.733-1.721-0.123c-0.188,0.281-0.225,0.641-0.093,0.96c0.401,0.948,0.78,1.91,1.145,2.875
	c-0.415,0.363-0.826,0.732-1.235,1.113c-0.632-1.198-1.25-2.445-1.845-3.717c-0.312-0.652-1.325-0.702-1.721-0.092
	c-0.188,0.285-0.215,0.646-0.075,0.953c0.648,1.478,1.328,2.947,2.027,4.402c-0.714,0.712-1.367,1.389-1.968,2.041
	c-0.678-1.004-1.373-1.997-2.076-2.981c-0.415-0.578-1.395-0.503-1.719,0.109c-0.166,0.317-0.145,0.705,0.063,1.007
	c0.725,1.065,1.45,2.201,2.268,3.53c-7.943,9.407-12.137,20.505-12.137,32.153c0,1.213-0.274,4.469-0.535,7.625
	c-0.279,3.326-0.563,6.767-0.563,8.14l-1.286,72.311l-3.413,7.656c-4.022,7.68-7.511,16.76-10.371,27.014
	c-2.123,7.602-3.353,13.893-3.938,17.24l-0.058-0.109l-0.286,2.158c-1.166,0.271-2.007,0.812-2.493,1.607
	c-1.02,1.654-0.267,3.916,0.401,5.912l0.189,0.582c0.059,0.168,0.124,0.338,0.186,0.516c0.143,0.395,0.28,0.766,0.328,1.115
	c0.087,0.627-0.102,1.109-0.423,1.916l-0.271,0.691c-0.291,0.695-0.78,1.871-1.259,4.416h0.004c-0.35,1.336-0.869,6.613,0.309,9.088
	c0.893,1.861,2.264,2.426,3.963,2.973c0.762,0.242,2.341,0.016,3.735-0.209c0.62-0.092,1.266-0.193,1.706-0.211
	c0.413,0.488,0.792,0.988,1.154,1.475c1.57,2.082,3.166,4.248,7.06,3.688c4.113-0.604,6.46-3.43,6.393-7.625
	c2.468-0.324,4.741-1.781,5.823-3.781c0.944-1.752,0.863-3.691-0.229-5.459c-1.411-2.289-3.192-2.832-4.915-3.363
	c-0.822-0.248-1.667-0.512-2.507-0.971c-1.255-0.688-2.519-1.379-3.759-2.107c-0.119-0.068-0.206-0.125-0.281-0.172
	c0.101-0.207,0.218-0.482,0.293-0.869c0.363-1.803,0.435-3.521,0.512-5.352l0.018-0.332l-0.018-0.422l-0.237-0.248
	c-0.166-0.174-0.378-0.264-0.603-0.309l2.789-13.1l0.938-1.236c3.206,13.949,17.02,25.508,37.47,31.264l-3.111,5.572
	c-2.294,0.365-13.399,2.357-16.123,7.342c-0.728,1.342-0.824,2.777-0.281,4.273l-0.776,0.771l0.633,3.145l0.597,0.053
	c0.061,0.002,5.876,0.525,12.265,0.525c6.688,0,11.559-0.555,14.361-1.605l6.27-1.289v0.652l0.786,0.021
	c0,0,0.366,0.006,0.969,0.006c3.982,0,9.062-0.297,10.649-1.707l0.715-1.293l-0.269-2.922l-0.816-0.615l-0.01-3.086l0.237-1.426
	l-0.979-4.637c1.167,0.041,2.301,0.068,3.425,0.072c-0.723,2.428-2.129,7.838-0.981,9.826l-0.316,4.504l0.711,0.127
	c0.162,0.031,4.019,0.717,6.059,0.717c0.399,0,0.71-0.027,0.959-0.074l0.248-0.059l0.676-0.742
	c2.062,0.955,9.555,4.055,19.956,4.055c4.084,0,8.162-0.488,12.129-1.455l0.592-0.143l0.141-3.842l-0.817-0.746
	c0.223-0.58,0.429-1.543,0.371-3.078c0.081-0.318,0.137-0.896-0.211-1.646c-1.139-2.467-5.557-4.734-13.001-6.703l-5.679-2.689
	c23.57-4.629,40.926-17.07,45.466-32.494l2.05,5.955l1.462,11.664l0.021,0.34c0.07,1.742,0.146,3.541,0.508,5.346
	c0.07,0.355,0.176,0.619,0.292,0.869c-0.071,0.045-0.16,0.1-0.28,0.172c-1.146,0.672-2.312,1.312-3.481,1.955l-0.28,0.152
	c-0.832,0.461-1.687,0.725-2.507,0.973c-1.717,0.531-3.5,1.076-4.913,3.359c-1.09,1.77-1.171,3.707-0.23,5.459
	c1.08,2.002,3.355,3.455,5.827,3.785c-0.065,4.189,2.277,7.018,6.391,7.621c3.89,0.557,5.495-1.6,7.058-3.689
	c0.368-0.486,0.743-0.988,1.164-1.477c0.369,0.012,1.047,0.117,1.698,0.217c1.394,0.223,2.978,0.441,3.731,0.201
	c1.701-0.539,3.074-1.104,3.963-2.969C577.104,669.99,576.586,664.709,576.232,663.375z"/>
<g>
	<path fill="#434A54" stroke="#434A54" stroke-width="3" stroke-miterlimit="10" d="M577.813,664.835l0.01-0.004
		c-0.5-2.661-1.014-3.89-1.322-4.625l-0.272-0.685c-0.308-0.779-0.431-1.112-0.373-1.52c0.035-0.261,0.158-0.595,0.286-0.948
		l0.39-1.151c0.699-2.082,1.564-4.676,0.321-6.673c-0.537-0.863-1.387-1.476-2.53-1.832c-4.148-28.706-15.159-47.803-18.839-53.533
		l-1.014-75.952c0-1.428-0.259-4.871-0.537-8.517c-0.247-3.27-0.502-6.655-0.502-7.843c0-12.731-4.958-24.488-13.305-33.945
		c0.795-1.408,1.52-2.627,2.232-3.751c0.527-0.848,0.284-1.936-0.553-2.476c-0.854-0.549-1.954-0.325-2.521,0.524
		c-0.627,0.949-1.228,1.916-1.84,2.878c-0.483-0.48-0.968-0.962-1.47-1.429c0.751-1.167,1.51-2.329,2.223-3.51
		c0.527-0.857,0.271-1.948-0.587-2.481c-0.859-0.537-1.967-0.29-2.501,0.559c-0.642,0.998-1.335,1.962-2.019,2.93
		c-0.94-0.772-1.908-1.522-2.899-2.248c0.62-1.462,1.238-2.925,1.813-4.407c0.354-0.928-0.087-1.941-1.004-2.311
		c-0.933-0.372-2.005,0.073-2.395,1.001c-0.514,1.235-1.061,2.442-1.572,3.538c-0.104-0.067-0.205-0.136-0.31-0.201
		c0.695-2.128,1.426-4.21,2.185-6.171c0.363-0.929-0.075-1.948-1.002-2.321c-0.935-0.38-2.009,0.075-2.396,1.007
		c-0.085,0.206-0.154,0.411-0.235,0.617c-0.146-0.411-0.433-0.778-0.854-1.004c-0.877-0.468-1.96-0.158-2.441,0.723
		c-0.667,1.215-1.345,2.341-1.992,3.398c-0.016-0.007-0.033-0.015-0.044-0.022c0.479-1.464,0.956-2.836,1.427-4.067
		c0.372-0.93-0.065-1.951-0.99-2.327c-0.928-0.381-2.013,0.067-2.399,1.006c-0.421,1.029-0.809,2.074-1.211,3.117
		c0.191-0.581,0.389-1.155,0.574-1.746c0.285-0.952-0.23-1.938-1.175-2.244c-0.959-0.316-1.967,0.186-2.303,1.151
		c-0.247,0.735-0.529,1.456-0.798,2.187c-0.678-0.248-1.369-0.472-2.061-0.697c0.168-1.138,0.338-2.275,0.553-3.397
		c0.196-0.993-0.43-1.936-1.422-2.146c-0.978-0.207-1.918,0.396-2.137,1.381c-0.224,1.018-0.417,2.041-0.617,3.062
		c-0.711-0.193-1.426-0.367-2.145-0.541c0.08-1.533,0.191-2.812,0.359-4.418c0.104-0.985-0.583-1.849-1.564-1.967
		c-0.977-0.123-1.916,0.583-2.055,1.592l-0.02,0.166c-0.312-0.624-0.962-1.043-1.703-1.006c-1.01,0.038-1.773,0.861-1.738,1.863
		c0.029,0.871,0.035,1.673,0.033,2.474c-0.219-0.032-0.435-0.071-0.655-0.1c-0.196-1.376-0.374-2.826-0.525-4.464
		c-0.089-1.012-0.956-1.748-1.966-1.665c-0.996,0.075-1.727,0.912-1.663,1.92c0.037,0.561,0.087,1.161,0.134,1.752
		c-0.361-0.743-1.157-1.175-1.995-0.983c-0.995,0.225-1.602,1.179-1.389,2.155c0.042,0.205,0.077,0.416,0.119,0.62
		c-0.459-0.018-0.927-0.018-1.387-0.03c-0.2-2.1-0.34-4.182-0.401-6.179c-0.027-0.998-0.822-1.77-1.823-1.77
		c-0.01,0-0.021,0-0.035,0c-1.008,0.018-1.792,0.819-1.782,1.831c0.021,2.042,0.095,4.083,0.201,6.117
		c-0.041,0.002-0.081,0.002-0.122,0.004c-0.008-1.4-0.018-2.803-0.063-4.203c-0.037-0.989-0.832-1.756-1.823-1.756
		c-0.012,0-0.021,0-0.033,0c-1.002,0.018-1.786,0.815-1.786,1.829c0.014,1.439-0.037,2.874-0.099,4.316
		c-0.628,0.049-1.255,0.104-1.881,0.166c-0.197-1.381-0.377-2.831-0.527-4.477c-0.099-1.008-0.927-1.738-1.985-1.646
		c-0.991,0.083-1.711,0.927-1.642,1.916c0.021,0.342,0.067,0.68,0.091,1.023c-0.312-0.575-0.916-0.954-1.64-0.977
		c-1.007,0.022-1.785,0.824-1.777,1.83c0.012,1.159-0.036,2.314-0.075,3.469c-0.231,0.051-0.47,0.089-0.699,0.14
		c-0.585-1.727-1.074-3.295-1.476-4.765c-0.267-0.968-1.236-1.517-2.209-1.273c-0.976,0.255-1.553,1.221-1.313,2.202
		c0.077,0.309,0.17,0.616,0.247,0.927c-0.405-0.488-1.039-0.757-1.707-0.631c-0.987,0.19-1.642,1.145-1.46,2.138
		c0.212,1.122,0.37,2.25,0.538,3.376c-0.233,0.077-0.461,0.156-0.695,0.231c-0.338-1.531-0.682-3.068-1.065-4.607
		c-0.253-0.966-1.195-1.534-2.185-1.299c-0.979,0.24-1.572,1.196-1.353,2.177c0.142,0.624,0.238,1.256,0.359,1.886
		c-0.427-0.367-0.996-0.551-1.589-0.408c-0.989,0.243-1.578,1.205-1.351,2.171c0.199,0.889,0.361,1.785,0.529,2.681
		c-0.02,0.008-0.04,0.018-0.06,0.027c-0.713-1.768-1.464-3.522-2.242-5.261c-0.413-0.91-1.446-1.302-2.354-0.906
		c-0.921,0.403-1.355,1.483-0.964,2.4c0.591,1.4,1.101,2.757,1.572,4.041c-0.263-0.595-0.533-1.197-0.838-1.88
		c-0.402-0.901-1.434-1.296-2.341-0.911c-0.922,0.397-1.36,1.474-0.974,2.408c0.552,1.308,0.987,2.428,1.416,3.591
		c-0.095,0.054-0.188,0.113-0.282,0.17c-0.744-1.864-1.6-3.875-2.681-6.302c-0.408-0.9-1.432-1.302-2.345-0.91
		c-0.92,0.397-1.357,1.474-0.97,2.412c0.84,1.976,1.679,4.133,2.688,6.908c-0.114,0.077-0.229,0.153-0.344,0.234
		c-0.421-1.086-0.824-2.175-1.269-3.243c-0.379-0.931-1.453-1.385-2.394-1.01c-0.927,0.375-1.365,1.393-1.002,2.308
		c0.541,1.408,1.016,2.835,1.485,4.269c-0.029,0.02-0.057,0.044-0.083,0.063c-0.205-0.462-0.4-0.933-0.608-1.391
		c-0.402-0.909-1.424-1.321-2.347-0.923c-0.924,0.397-1.362,1.474-0.974,2.408c0.336,0.798,0.642,1.602,0.952,2.406
		c-0.014,0.01-0.025,0.021-0.037,0.031c-0.465-0.912-0.933-1.851-1.395-2.833c-0.432-0.902-1.479-1.271-2.379-0.854
		c-0.908,0.426-1.315,1.511-0.908,2.411c0.59,1.33,1.215,2.649,1.841,3.969c-0.312,0.314-0.622,0.637-0.927,0.958
		c-0.514-0.746-1.021-1.497-1.547-2.236c-0.587-0.821-1.707-1.017-2.538-0.438c-0.818,0.565-1.027,1.657-0.47,2.497
		c0.692,1.014,1.335,2.057,1.979,3.098c-7.601,9.199-12.089,20.408-12.089,32.503c0,1.182-0.271,4.457-0.535,7.629
		c-0.295,3.536-0.571,6.874-0.571,8.278l-1.333,74.591c-10.861,17.534-17.307,44.206-18.067,52.327
		c-1.147,0.355-2.005,0.972-2.545,1.839c-1.244,1.997-0.377,4.591,0.318,6.677l0.384,1.122c0.132,0.365,0.257,0.707,0.294,0.978
		c0.058,0.401-0.063,0.735-0.371,1.512l-0.272,0.686c-0.307,0.734-0.82,1.965-1.322,4.636l0.013,0.002
		c-0.477,1.863-0.828,7.163,0.369,9.678c1.041,2.171,2.718,2.858,4.488,3.423c0.943,0.305,2.627,0.069,4.148-0.174
		c0.456-0.072,0.889-0.146,1.236-0.184c0.312,0.38,0.599,0.765,0.881,1.142c1.46,1.938,3.109,4.141,6.57,4.141
		c0.413,0,0.854-0.033,1.325-0.103c4.309-0.626,6.941-3.567,7.142-7.818c2.473-0.527,4.689-2.066,5.799-4.121
		c1.097-2.036,1.006-4.282-0.256-6.327c-1.587-2.567-3.623-3.192-5.419-3.743c-0.826-0.255-1.608-0.494-2.396-0.925
		c-1.155-0.634-2.312-1.271-3.452-1.936c0.031-0.114,0.062-0.235,0.09-0.369c0.378-1.883,0.455-3.736,0.532-5.529l0.016-0.342
		l-0.004-0.771l-0.479-0.5c-0.116-0.118-0.243-0.199-0.369-0.274c0.601-4.328,1.412-8.629,2.422-12.872
		c3.749,13.99,17.616,25.266,37.155,31.024l-2.439,4.363c-3.206,0.527-13.674,2.617-16.487,7.77c-0.764,1.4-0.928,2.93-0.491,4.483
		l-0.743,0.743l0.842,4.191l1.209,0.107c0.425,0.039,6.051,0.535,12.374,0.535c5.381,0,11.266-0.361,14.875-1.663l5.244-1.077v0.453
		l1.588,0.039c2.221,0.048,9.355,0.054,11.93-1.691l-0.02,0.267l1.435,0.257c1.331,0.239,5.789,0.992,7.403,0.639l0.512-0.11
		l0.46-0.51c2.73,1.197,10.057,3.94,19.887,3.94c3.833,0,8.046-0.417,12.516-1.507l1.191-0.289l0.182-4.871l-0.717-0.655
		c0.174-0.662,0.294-1.566,0.259-2.782c0.097-0.468,0.116-1.198-0.296-2.084c-1.249-2.702-5.844-5.134-13.658-7.226l-3.411-1.614
		c22.278-4.976,38.973-17.031,43.921-32.205c1.31,5.044,2.325,10.188,3.054,15.357c-0.125,0.075-0.249,0.156-0.361,0.272
		l-0.512,0.581l0.045,1.029c0.077,1.795,0.156,3.65,0.537,5.534c0.026,0.131,0.058,0.253,0.088,0.368
		c-1.027,0.595-2.068,1.169-3.113,1.742l-0.36,0.199c-0.771,0.423-1.554,0.662-2.38,0.915c-1.794,0.553-3.828,1.179-5.417,3.745
		c-1.262,2.043-1.351,4.295-0.253,6.329c1.108,2.053,3.327,3.594,5.798,4.117c0.202,4.251,2.835,7.19,7.14,7.82
		c0.472,0.069,0.91,0.101,1.323,0.101c3.463,0,5.116-2.2,6.578-4.141c0.28-0.377,0.565-0.761,0.879-1.144
		c0.344,0.041,0.774,0.116,1.233,0.186c1.521,0.239,3.218,0.469,4.144,0.176c1.772-0.562,3.451-1.248,4.492-3.425
		C578.641,672.004,578.289,666.697,577.813,664.835z M523.614,453.693c-0.071,0.186-0.146,0.371-0.214,0.561
		c-0.025-0.016-0.047-0.027-0.071-0.039C523.427,454.041,523.518,453.867,523.614,453.693z M475.783,445.258
		c0.019,0.222,0.034,0.442,0.058,0.666c-0.014,0.002-0.031,0.004-0.047,0.006C475.791,445.706,475.787,445.481,475.783,445.258z
		 M467.491,447.259c0.033,0.119,0.062,0.243,0.095,0.363c-0.008,0-0.015,0.003-0.021,0.007
		C467.54,447.506,467.517,447.38,467.491,447.259z M418.576,620.89c0.073,1.827,0.14,3.57,0.174,4.662
		c-2.094,6.952-3.637,14.14-4.623,21.384c-0.213,0.027-0.391,0.046-0.626,0.075c-2.25,0.278-5.229,0.662-8.004,0.365l-0.261-0.027
		c-0.316-0.027-1.095-0.103-1.452-0.201c-0.069-0.27-0.087-0.805-0.037-1.209l0.294-2.116l-0.034,0.004
		c1.158-6.696,5.33-27.598,14.606-45.047l-0.271,15.104C418.343,614.842,418.465,617.955,418.576,620.89z M419.504,659.671
		c1.065,0.587,2.089,0.899,2.993,1.176c1.603,0.493,2.661,0.817,3.604,2.343c0.647,1.045,0.699,2.082,0.16,3.079
		c-0.797,1.482-2.703,2.555-4.637,2.61l-1.717,0.051l0.146,1.711c0.201,2.374-0.386,5.321-4.344,5.896
		c-2.306,0.354-3.21-0.624-4.824-2.775c-0.462-0.614-0.937-1.244-1.476-1.845c-0.554-0.625-1.333-0.625-1.588-0.625
		c-0.546,0-1.294,0.117-2.159,0.255c-0.865,0.137-1.846,0.289-2.456,0.289c-0.091,0-0.17,0-0.195,0
		c-1.547-0.496-2.102-0.799-2.548-1.73c-0.724-1.521-0.498-5.158-0.281-6.821l0.164-0.859c0.435-2.333,0.852-3.326,1.122-3.982
		l0.301-0.745c0.365-0.932,0.744-1.894,0.564-3.162c-0.087-0.608-0.286-1.151-0.46-1.632l-0.355-1.041
		c-0.386-1.159-0.896-2.685-0.769-3.544c0.209,0.579,0.559,1.124,1.128,1.505c0.78,0.512,1.889,0.652,3.052,0.763l0.233,0.021
		c3.056,0.323,6.457-0.089,8.735-0.372c0.369-0.045,0.709-0.087,1.021-0.124c-0.068,1.286-0.169,2.528-0.418,3.763
		c-0.032,0.174-0.081,0.271-0.158,0.419c-0.954,1.885,0.628,2.813,1.304,3.21C416.911,658.249,418.202,658.956,419.504,659.671z
		 M482.877,680.978c-1.039,0.544-4.545,0.954-8.284,0.98v-1.237l-9.263,1.9l-0.239,0.069c-6.041,2.248-20.476,1.393-24.744,1.078
		l-0.02-0.097l1.047-1.049l-0.475-1.027c-0.458-0.989-0.462-1.835-0.014-2.656c1.782-3.266,10.081-5.557,14.895-6.234l0.799-0.109
		l3.608-6.459c6.493,1.663,13.556,2.729,21.024,3.119l0.855,4.027l-0.166,0.986l-0.021,4.734l0.932,0.698l0.107,1.188
		L482.877,680.978z M485.208,672.433l-0.647-3.047c0.458,0.011,0.922,0.013,1.381,0.021
		C485.662,670.405,485.409,671.429,485.208,672.433z M512.761,671.567l0.277,0.104c10.144,2.696,11.542,5.116,11.716,5.566
		l-0.06,0.123l0.02,0.408c0.081,1.717-0.182,2.262-0.158,2.25l-1.074,1.182l1.644,1.501l-0.033,0.896
		c-16.909,3.668-29.957-2.906-30.088-2.974l-1.11-0.572l-1.331,1.466c-0.004,0-0.006,0-0.008,0c-0.869,0-2.58-0.194-4.265-0.453
		l0.186-2.635l0.124-0.608l-0.487-0.518c-0.378-0.804,0.186-4.388,1.219-7.899c5.501-0.085,10.821-0.56,15.899-1.397
		L512.761,671.567z M487.587,666.184c-37.379,0-65.566-17.054-65.566-39.672c0-0.675-0.097-3.137-0.197-5.75
		c-0.11-2.878-0.232-5.937-0.232-6.849l1.724-96.424c0-1.298,0.285-4.724,0.56-8.039c0.282-3.382,0.549-6.581,0.549-7.897
		c0-29.36,28.207-53.247,62.877-53.247c34.675,0,62.883,23.887,62.883,53.247c0,1.31,0.247,4.604,0.512,8.088
		c0.259,3.426,0.527,6.964,0.527,8.293l1.292,96.795c0,1.027,0.085,3.688,0.162,6.118c0.065,2.007,0.125,3.854,0.125,4.454
		C552.801,648.226,524.157,666.184,487.587,666.184z M555.922,620.742c-0.075-2.389-0.16-5.006-0.16-6.037l-0.193-14.334
		c4.64,8.351,12.038,24.429,15.378,46.464l-0.016-0.002l0.293,2.119c0.049,0.352,0.039,0.915-0.034,1.201
		c-0.365,0.101-1.076,0.17-1.404,0.204l-0.318,0.031c-0.684,0.071-1.387,0.103-2.09,0.103c-2.113,0-4.214-0.261-5.902-0.47
		c-0.235-0.028-0.419-0.048-0.634-0.073c-1.041-7.501-2.681-14.94-4.903-22.133c0.069-0.831,0.112-1.671,0.112-2.515
		C556.05,624.687,555.989,622.796,555.922,620.742z M574.508,673.113c-0.446,0.938-1.001,1.239-2.507,1.721
		c-0.518,0.083-1.704-0.124-2.692-0.278c-0.863-0.136-1.611-0.255-2.157-0.255c-0.256,0-1.033,0-1.584,0.624
		c-0.541,0.603-1.014,1.233-1.476,1.842c-1.616,2.157-2.522,3.121-4.832,2.783c-3.952-0.579-4.543-3.528-4.34-5.9l0.143-1.711
		l-1.715-0.05c-1.93-0.055-3.838-1.126-4.636-2.607c-0.54-0.999-0.486-2.036,0.157-3.079c0.944-1.529,2.003-1.852,3.607-2.347
		c0.902-0.275,1.926-0.589,2.989-1.174l0.361-0.199c1.177-0.645,2.349-1.29,3.506-1.97c0.674-0.397,2.25-1.333,1.3-3.212
		c-0.077-0.146-0.128-0.243-0.16-0.417c-0.249-1.236-0.35-2.478-0.417-3.765c0.307,0.035,0.646,0.08,1.018,0.124
		c2.277,0.284,5.676,0.705,8.739,0.375l0.288-0.027c1.186-0.116,2.232-0.253,3.003-0.763c0.565-0.377,0.913-0.918,1.122-1.499
		c0.123,0.859-0.387,2.384-0.774,3.544l-0.363,1.072c-0.172,0.473-0.367,1.006-0.45,1.604c-0.178,1.271,0.201,2.231,0.568,3.164
		l0.299,0.747c0.274,0.657,0.689,1.647,1.128,3.973l0.149,0.786C575,667.855,575.239,671.585,574.508,673.113z"/>
	<path fill="#434A54" stroke="#434A54" stroke-width="3" stroke-miterlimit="10" d="M487.237,453.201
		c-32.141,0-58.291,26.146-58.291,58.288s26.15,58.29,58.291,58.29c32.143,0,58.29-26.148,58.29-58.29
		S519.38,453.201,487.237,453.201z M487.237,566.529c-30.351,0-55.043-24.69-55.043-55.041c0-30.349,24.692-55.039,55.043-55.039
		s55.042,24.689,55.042,55.039C542.279,541.839,517.588,566.529,487.237,566.529z"/>
	<path fill="#434A54" stroke="#434A54" stroke-width="3" stroke-miterlimit="10" d="M478.405,497.079
		c-9.552,0-17.322,7.771-17.322,17.319c0,9.553,7.771,17.322,17.322,17.322c9.551,0,17.324-7.77,17.324-17.322
		C495.729,504.85,487.956,497.079,478.405,497.079z M473.224,513.189c-1.898,0-3.443-1.544-3.443-3.444
		c0-1.902,1.545-3.447,3.443-3.447c1.904,0,3.445,1.545,3.445,3.447C476.669,511.645,475.128,513.189,473.224,513.189z"/>
</g>
<g>
</g>
<g>
</g>
<g>
</g>
<g>
</g>
<g>
</g>
<g>
</g>
<g>
</g>
<g>
</g>
<g>
</g>
<g>
</g>
<g>
</g>
<g>
</g>
<g>
</g>
<g>
</g>
<g>
</g>
</svg>
