<?xml version="1.0" encoding="utf-8"?>
<!-- Generator: Adobe Illustrator 16.0.4, SVG Export Plug-In . SVG Version: 6.00 Build 0)  -->
<!DOCTYPE svg PUBLIC "-//W3C//DTD SVG 1.1//EN" "http://www.w3.org/Graphics/SVG/1.1/DTD/svg11.dtd">
<svg version="1.1" id="Calque_1" xmlns="http://www.w3.org/2000/svg" xmlns:xlink="http://www.w3.org/1999/xlink" x="0px" y="0px"
	 width="35px" height="50px" viewBox="0 0 35 50" enable-background="new 0 0 35 50" xml:space="preserve">
<g>
	<g>
		<path fill="none" stroke="#FFFFFF" stroke-width="0.5149" stroke-miterlimit="10" d="M25.085,4.814
			c0.527-0.673,1.166-1.273,1.777-1.84c0.035-0.033-0.014-0.098-0.053-0.068c-0.708,0.535-1.366,1.127-1.883,1.812"/>
	</g>
	<path fill="none" stroke="#FFFFFF" stroke-width="0.5149" stroke-miterlimit="10" d="M30.159,13.284
		c0-5.78-5.508-10.466-12.304-10.466c-6.795,0-12.304,4.686-12.304,10.466c0,0.484-0.211,2.526-0.211,3.041L5.013,34.711
		c0,0.342,0.082,2.14,0.082,2.409c0,4.808,6.025,7.877,12.816,7.877c6.792,0,12.749-3.3,12.749-8.108
		c0-0.253-0.055-1.658-0.055-2.017l-0.246-18.468C30.358,15.891,30.159,13.768,30.159,13.284z"/>
	<g>
		<path fill="none" stroke="#ECB94E" stroke-width="0.5149" stroke-miterlimit="10" stroke-dasharray="0.5081,0.5081" d="
			M20.88,36.57"/>
		<path fill="none" stroke="#ECB94E" stroke-width="0.5149" stroke-miterlimit="10" stroke-dasharray="0.5081,0.5081" d="
			M20.88,43.941"/>
	</g>
	<g>
		<path fill="none" stroke="#ECB94E" stroke-width="0.5149" stroke-miterlimit="10" stroke-dasharray="0.5081,0.5081" d="
			M21.305,36.57"/>
		<path fill="none" stroke="#ECB94E" stroke-width="0.5149" stroke-miterlimit="10" stroke-dasharray="0.5081,0.5081" d="
			M21.305,43.941"/>
		<path fill="none" stroke="#ECB94E" stroke-width="0.5149" stroke-miterlimit="10" d="M21.305,36.414"/>
	</g>
	<path fill="none" stroke="#ECB94E" stroke-width="0.5149" stroke-miterlimit="10" stroke-dasharray="0.5149" d="M12.417,26.956"/>
	<path fill="none" stroke="#ECB94E" stroke-width="0.5149" stroke-miterlimit="10" stroke-dasharray="0.5149" d="M4.628,22.544"/>
	<path fill="none" stroke="#ECB94E" stroke-width="0.5149" stroke-miterlimit="10" stroke-dasharray="0.5149" d="M13.549,25.347"/>
	<path fill="none" stroke="#ECB94E" stroke-width="0.1931" stroke-miterlimit="10" stroke-dasharray="0.5149" d="M5.006,20.32"/>
	<path fill="#FBFBFB" stroke="#FFFFFF" stroke-width="0.2575" stroke-miterlimit="10" d="M17.94,29.528
		c-3.086,0-5.283-0.934-5.315-0.947c-0.04-0.018-0.059-0.064-0.042-0.104c0.018-0.04,0.064-0.06,0.105-0.042
		c0.049,0.021,4.934,2.095,10.369-0.001c0.041-0.016,0.087,0.005,0.103,0.046s-0.004,0.087-0.045,0.103
		C21.273,29.292,19.493,29.528,17.94,29.528z"/>
	<path fill="none" stroke="#FFFFFF" stroke-width="0.5149" stroke-miterlimit="10" d="M22.509,3.592
		c0.42-0.99,1.096-1.892,1.738-2.729"/>
	<path fill="none" stroke="#FFFFFF" stroke-width="0.5149" stroke-linecap="round" stroke-miterlimit="10" d="M24.179,0.81
		c-0.769,0.821-1.441,1.716-1.825,2.729"/>
	<g>
		<path fill="none" stroke="#FFFFFF" stroke-width="0.5149" stroke-miterlimit="10" d="M24.635,4.548
			c0.527-0.875,1.272-1.588,2.155-2.212c0.041-0.028,0.089,0.036,0.052,0.068c-0.755,0.669-1.508,1.384-2.068,2.223"/>
	</g>
	<path fill="none" stroke="#FFFFFF" stroke-width="0.5149" stroke-linecap="round" stroke-miterlimit="10" d="M22.747,3.677
		c0.356-1.271,1.146-2.365,2.055-3.338"/>
	<path fill="none" stroke="#FFFFFF" stroke-width="0.5149" stroke-linecap="round" stroke-miterlimit="10" d="M24.892,0.408
		c-0.723,1.031-1.521,2.132-1.959,3.339"/>
	<g>
		<path fill="none" stroke="#FFFFFF" stroke-width="0.5149" stroke-miterlimit="10" d="M26.558,5.884
			c0.453-0.905,1.006-1.722,1.693-2.508c0.042-0.047,0.123,0.015,0.088,0.066c-0.566,0.823-1.139,1.69-1.609,2.59"/>
	</g>
	<g>
		<path fill="none" stroke="#FFFFFF" stroke-width="0.5149" stroke-miterlimit="10" d="M25.199,4.885
			c0.477-0.606,1.067-1.132,1.737-1.604c0.04-0.028,0.088,0.035,0.052,0.068c-0.573,0.507-1.146,1.042-1.632,1.637"/>
	</g>
	<g>
		<path fill="none" stroke="#FFFFFF" stroke-width="0.5149" stroke-miterlimit="10" d="M23.173,3.843
			c0.414-0.948,1.059-1.792,1.775-2.56c0.043-0.046,0.125,0.016,0.089,0.068c-0.569,0.812-1.186,1.669-1.636,2.586"/>
	</g>
	<g>
		<path fill="none" stroke="#FFFFFF" stroke-width="0.5149" stroke-miterlimit="10" d="M26.995,6.283
			c0.395-0.693,0.857-1.338,1.403-1.963c0.04-0.047,0.121,0.015,0.086,0.066c-0.452,0.659-0.91,1.348-1.316,2.057"/>
	</g>
	<g>
		<path fill="none" stroke="#FFFFFF" stroke-width="0.5149" stroke-miterlimit="10" d="M25.575,5.133
			c0.531-0.934,1.306-1.685,2.23-2.339c0.04-0.027,0.09,0.036,0.053,0.068c-0.795,0.705-1.589,1.461-2.157,2.358"/>
	</g>
	<path fill="none" stroke="#FFFFFF" stroke-width="0.5149" stroke-linecap="round" stroke-miterlimit="10" d="M23.772,4.105
		c0.359-1.259,1.146-2.343,2.046-3.307"/>
	<path fill="none" stroke="#FFFFFF" stroke-width="0.5149" stroke-linecap="round" stroke-miterlimit="10" d="M25.907,0.867
		c-0.719,1.027-1.514,2.123-1.954,3.324"/>
	<g>
		<path fill="none" stroke="#FFFFFF" stroke-width="0.5149" stroke-miterlimit="10" d="M27.407,6.686
			c0.484-1.044,1.087-1.967,1.861-2.852c0.04-0.047,0.121,0.015,0.086,0.066c-0.64,0.931-1.288,1.917-1.789,2.943"/>
	</g>
	<g>
		<path fill="none" stroke="#FFFFFF" stroke-width="0.5149" stroke-miterlimit="10" d="M25.88,5.35
			c0.521-0.811,1.233-1.48,2.068-2.069c0.04-0.028,0.088,0.035,0.052,0.068c-0.718,0.636-1.435,1.313-1.985,2.101"/>
	</g>
	<g>
		<path fill="none" stroke="#FFFFFF" stroke-width="0.5149" stroke-miterlimit="10" d="M24.04,4.202
			c0.399-1.095,1.113-2.055,1.92-2.918c0.043-0.046,0.125,0.016,0.088,0.068c-0.642,0.918-1.346,1.892-1.801,2.945"/>
	</g>
	<g>
		<path fill="none" stroke="#FFFFFF" stroke-width="0.5149" stroke-miterlimit="10" d="M27.653,6.953
			c0.465-0.955,1.037-1.811,1.757-2.633c0.04-0.047,0.121,0.015,0.086,0.066c-0.597,0.87-1.203,1.789-1.688,2.742"/>
	</g>
	<g>
		<path fill="none" stroke="#FFFFFF" stroke-width="0.5149" stroke-miterlimit="10" d="M27.012,6.292
			c0.597-0.454,1.205-0.896,1.816-1.33c0.052-0.036,0.007-0.115-0.049-0.085c-0.687,0.369-1.341,0.777-1.947,1.249"/>
	</g>
	<g>
		<path fill="none" stroke="#FFFFFF" stroke-width="0.5149" stroke-miterlimit="10" d="M10.766,4.757
			C10.238,4.084,9.6,3.484,8.989,2.917C8.953,2.884,9.002,2.82,9.041,2.849c0.708,0.535,1.367,1.127,1.884,1.812"/>
	</g>
	<path fill="none" stroke="#FFFFFF" stroke-width="0.5149" stroke-miterlimit="10" d="M13.342,3.535
		c-0.42-0.989-1.096-1.891-1.738-2.729"/>
	<path fill="none" stroke="#FFFFFF" stroke-width="0.5149" stroke-linecap="round" stroke-miterlimit="10" d="M11.672,0.753
		c0.769,0.821,1.442,1.716,1.826,2.729"/>
	<g>
		<path fill="none" stroke="#FFFFFF" stroke-width="0.5149" stroke-miterlimit="10" d="M11.216,4.491
			C10.688,3.616,9.943,2.904,9.061,2.28C9.021,2.252,8.972,2.316,9.009,2.348c0.755,0.669,1.508,1.384,2.068,2.223"/>
	</g>
	<path fill="none" stroke="#FFFFFF" stroke-width="0.5149" stroke-linecap="round" stroke-miterlimit="10" d="M13.104,3.621
		c-0.356-1.271-1.147-2.365-2.055-3.337"/>
	<path fill="none" stroke="#FFFFFF" stroke-width="0.5149" stroke-linecap="round" stroke-miterlimit="10" d="M10.96,0.351
		c0.722,1.031,1.52,2.133,1.959,3.34"/>
	<g>
		<path fill="none" stroke="#FFFFFF" stroke-width="0.5149" stroke-miterlimit="10" d="M9.293,5.828
			C8.84,4.922,8.287,4.105,7.599,3.32C7.558,3.273,7.478,3.334,7.513,3.386c0.565,0.823,1.138,1.691,1.609,2.59"/>
	</g>
	<g>
		<path fill="none" stroke="#FFFFFF" stroke-width="0.5149" stroke-miterlimit="10" d="M10.652,4.829
			c-0.477-0.607-1.067-1.132-1.737-1.604C8.874,3.196,8.826,3.259,8.862,3.292c0.573,0.508,1.145,1.042,1.633,1.637"/>
	</g>
	<g>
		<path fill="none" stroke="#FFFFFF" stroke-width="0.5149" stroke-miterlimit="10" d="M12.678,3.786
			c-0.415-0.947-1.059-1.791-1.776-2.559c-0.043-0.046-0.125,0.016-0.088,0.068C11.383,2.108,12,2.964,12.45,3.881"/>
	</g>
	<g>
		<path fill="none" stroke="#FFFFFF" stroke-width="0.5149" stroke-miterlimit="10" d="M8.855,6.225
			C8.46,5.533,7.999,4.888,7.453,4.263C7.412,4.216,7.331,4.279,7.366,4.33c0.453,0.659,0.911,1.348,1.317,2.057"/>
	</g>
	<g>
		<path fill="none" stroke="#FFFFFF" stroke-width="0.5149" stroke-miterlimit="10" d="M10.275,5.077
			c-0.53-0.934-1.305-1.685-2.23-2.338C8.005,2.71,7.956,2.774,7.993,2.806c0.795,0.705,1.589,1.461,2.157,2.358"/>
	</g>
	<path fill="none" stroke="#FFFFFF" stroke-width="0.5149" stroke-linecap="round" stroke-miterlimit="10" d="M12.079,4.048
		c-0.36-1.259-1.146-2.343-2.046-3.307"/>
	<path fill="none" stroke="#FFFFFF" stroke-width="0.5149" stroke-linecap="round" stroke-miterlimit="10" d="M9.944,0.81
		c0.718,1.026,1.514,2.123,1.954,3.324"/>
	<g>
		<path fill="none" stroke="#FFFFFF" stroke-width="0.5149" stroke-miterlimit="10" d="M8.443,6.629
			C7.96,5.585,7.356,4.662,6.583,3.778C6.542,3.731,6.462,3.792,6.497,3.844c0.639,0.931,1.288,1.917,1.788,2.943"/>
	</g>
	<g>
		<path fill="none" stroke="#FFFFFF" stroke-width="0.5149" stroke-miterlimit="10" d="M9.971,5.293
			c-0.521-0.811-1.233-1.48-2.067-2.069C7.863,3.196,7.814,3.259,7.851,3.292c0.718,0.636,1.434,1.313,1.985,2.101"/>
	</g>
	<g>
		<path fill="none" stroke="#FFFFFF" stroke-width="0.5149" stroke-miterlimit="10" d="M11.811,4.145
			c-0.399-1.095-1.114-2.055-1.92-2.918C9.848,1.181,9.766,1.243,9.802,1.295c0.643,0.918,1.346,1.892,1.802,2.945"/>
	</g>
	<g>
		<path fill="none" stroke="#FFFFFF" stroke-width="0.5149" stroke-miterlimit="10" d="M8.197,6.896
			C7.732,5.941,7.161,5.085,6.441,4.263C6.4,4.216,6.32,4.279,6.355,4.33C6.952,5.2,7.558,6.119,8.043,7.072"/>
	</g>
	<g>
		<path fill="none" stroke="#FFFFFF" stroke-width="0.5149" stroke-miterlimit="10" d="M8.839,6.235
			c-0.598-0.454-1.206-0.896-1.817-1.33C6.971,4.869,7.016,4.79,7.072,4.82c0.687,0.369,1.341,0.777,1.947,1.249"/>
	</g>
	<circle fill="none" stroke="#FFFFFF" stroke-width="0.5149" stroke-miterlimit="10" cx="20.662" cy="24.071" r="2.624"/>
	<circle fill="none" stroke="#FFFFFF" stroke-width="0.5149" stroke-miterlimit="10" cx="14.856" cy="24.071" r="2.624"/>
	<defs>
		<filter id="Adobe_OpacityMaskFilter" filterUnits="userSpaceOnUse" x="1.234" y="29.265" width="4.144" height="11.074">
			<feColorMatrix  type="matrix" values="1 0 0 0 0  0 1 0 0 0  0 0 1 0 0  0 0 0 1 0"/>
		</filter>
	</defs>
	<mask maskUnits="userSpaceOnUse" x="1.234" y="29.265" width="4.144" height="11.074" id="SVGID_1_">
		<g filter="url(#Adobe_OpacityMaskFilter)">
			
				<linearGradient id="SVGID_2_" gradientUnits="userSpaceOnUse" x1="-360.3779" y1="510.9492" x2="-363.4951" y2="513.4575" gradientTransform="matrix(1.9799 -3.0191 -0.0394 3.0249 745.1123 -2617.0005)">
				<stop  offset="0.7039" style="stop-color:#221E20"/>
				<stop  offset="0.7251" style="stop-color:#5C595A"/>
				<stop  offset="0.7486" style="stop-color:#959394"/>
				<stop  offset="0.7703" style="stop-color:#C3C2C2"/>
				<stop  offset="0.7894" style="stop-color:#E4E3E4"/>
				<stop  offset="0.8052" style="stop-color:#F8F8F8"/>
				<stop  offset="0.8159" style="stop-color:#FFFFFF"/>
			</linearGradient>
			<polygon fill="url(#SVGID_2_)" points="9.695,28.629 3.974,44.191 -0.742,42.458 4.979,26.895 			"/>
		</g>
	</mask>
	<path mask="url(#SVGID_1_)" fill="none" stroke="#FFFFFF" stroke-width="0.5149" stroke-miterlimit="10" d="M1.501,40.017
		c-0.11,0.801,0.705-5.912,3.658-10.615"/>
	<defs>
		<filter id="Adobe_OpacityMaskFilter_1_" filterUnits="userSpaceOnUse" x="3.937" y="35.985" width="1.477" height="4.689">
			<feColorMatrix  type="matrix" values="1 0 0 0 0  0 1 0 0 0  0 0 1 0 0  0 0 0 1 0"/>
		</filter>
	</defs>
	<mask maskUnits="userSpaceOnUse" x="3.937" y="35.985" width="1.477" height="4.689" id="SVGID_3_">
		<g filter="url(#Adobe_OpacityMaskFilter_1_)">
			
				<linearGradient id="SVGID_4_" gradientUnits="userSpaceOnUse" x1="-360.3779" y1="510.9492" x2="-363.4951" y2="513.4575" gradientTransform="matrix(1.9799 -3.0191 -0.0394 3.0249 745.1123 -2617.0005)">
				<stop  offset="0.7039" style="stop-color:#221E20"/>
				<stop  offset="0.7251" style="stop-color:#5C595A"/>
				<stop  offset="0.7486" style="stop-color:#959394"/>
				<stop  offset="0.7703" style="stop-color:#C3C2C2"/>
				<stop  offset="0.7894" style="stop-color:#E4E3E4"/>
				<stop  offset="0.8052" style="stop-color:#F8F8F8"/>
				<stop  offset="0.8159" style="stop-color:#FFFFFF"/>
			</linearGradient>
			<polygon fill="url(#SVGID_4_)" points="9.695,28.629 3.974,44.191 -0.742,42.458 4.979,26.895 			"/>
		</g>
	</mask>
	<path mask="url(#SVGID_3_)" fill="none" stroke="#FFFFFF" stroke-width="0.5149" stroke-miterlimit="10" d="M5.167,36.061
		c-0.405,1.334-0.76,2.87-0.975,4.582"/>
	<path fill="none" stroke="#FFFFFF" stroke-width="0.5149" stroke-miterlimit="10" d="M1.512,40.06
		c-0.9,0.12-0.584,0.867-0.393,1.454c0.038,0.116,0.093,0.236,0.11,0.357c0.027,0.194-0.043,0.336-0.125,0.546
		c-0.051,0.133-0.161,0.339-0.272,0.929c-0.017-0.004-0.198,1.216,0.051,1.738c0.152,0.317,0.381,0.414,0.705,0.518
		c0.239,0.075,1.07-0.154,1.138-0.078c0.468,0.525,0.676,1.159,1.553,1.031c0.858-0.125,1.214-0.74,1.146-1.53
		c0.857-0.025,1.665-0.824,1.164-1.636c-0.383-0.62-0.898-0.521-1.441-0.819c-0.257-0.141-0.513-0.281-0.765-0.43
		c-0.275-0.162-0.124-0.135-0.075-0.383c0.075-0.375,0.087-0.743,0.104-1.125c0.006-0.144-1.228,0.193-2.259,0.084
		c-0.142-0.016-0.4-0.031-0.514-0.106C1.453,40.486,1.512,40.06,1.512,40.06z"/>
	<defs>
		<filter id="Adobe_OpacityMaskFilter_2_" filterUnits="userSpaceOnUse" x="30.292" y="35.933" width="1.51" height="4.716">
			<feColorMatrix  type="matrix" values="1 0 0 0 0  0 1 0 0 0  0 0 1 0 0  0 0 0 1 0"/>
		</filter>
	</defs>
	<mask maskUnits="userSpaceOnUse" x="30.292" y="35.933" width="1.51" height="4.716" id="SVGID_5_">
		<g filter="url(#Adobe_OpacityMaskFilter_2_)">
			
				<linearGradient id="SVGID_6_" gradientUnits="userSpaceOnUse" x1="-798.6025" y1="73.5898" x2="-801.7198" y2="76.0982" gradientTransform="matrix(-1.9799 -3.0191 0.0394 3.0249 -1559.7686 -2617.0005)">
				<stop  offset="0.7039" style="stop-color:#221E20"/>
				<stop  offset="0.7251" style="stop-color:#5C595A"/>
				<stop  offset="0.7486" style="stop-color:#959394"/>
				<stop  offset="0.7703" style="stop-color:#C3C2C2"/>
				<stop  offset="0.7894" style="stop-color:#E4E3E4"/>
				<stop  offset="0.8052" style="stop-color:#F8F8F8"/>
				<stop  offset="0.8159" style="stop-color:#FFFFFF"/>
			</linearGradient>
			<polygon fill="url(#SVGID_6_)" points="26.058,28.699 31.778,44.263 36.495,42.529 30.774,26.966 			"/>
		</g>
	</mask>
	<path mask="url(#SVGID_5_)" fill="none" stroke="#FFFFFF" stroke-width="0.5149" stroke-miterlimit="10" d="M30.538,36.009
		c0.414,1.339,0.782,2.885,1.008,4.606"/>
	<defs>
		<filter id="Adobe_OpacityMaskFilter_3_" filterUnits="userSpaceOnUse" x="30.227" y="29.1" width="4.27" height="10.194">
			<feColorMatrix  type="matrix" values="1 0 0 0 0  0 1 0 0 0  0 0 1 0 0  0 0 0 1 0"/>
		</filter>
	</defs>
	<mask maskUnits="userSpaceOnUse" x="30.227" y="29.1" width="4.27" height="10.194" id="SVGID_7_">
		<g filter="url(#Adobe_OpacityMaskFilter_3_)">
			
				<linearGradient id="SVGID_8_" gradientUnits="userSpaceOnUse" x1="-798.6069" y1="73.3203" x2="-801.7242" y2="75.8287" gradientTransform="matrix(-1.9799 -3.0191 0.0394 3.0249 -1559.7686 -2617.0005)">
				<stop  offset="0.7039" style="stop-color:#221E20"/>
				<stop  offset="0.7251" style="stop-color:#5C595A"/>
				<stop  offset="0.7486" style="stop-color:#959394"/>
				<stop  offset="0.7703" style="stop-color:#C3C2C2"/>
				<stop  offset="0.7894" style="stop-color:#E4E3E4"/>
				<stop  offset="0.8052" style="stop-color:#F8F8F8"/>
				<stop  offset="0.8159" style="stop-color:#FFFFFF"/>
			</linearGradient>
			<polygon fill="url(#SVGID_8_)" points="26.058,27.898 31.778,43.463 36.495,41.729 30.774,26.165 			"/>
		</g>
	</mask>
	<path mask="url(#SVGID_7_)" fill="none" stroke="#FFFFFF" stroke-width="0.5149" stroke-miterlimit="10" d="M34.241,39.259
		c-0.83-5.951-3.18-9.07-3.799-10.019"/>
	<path fill="none" stroke="#FFFFFF" stroke-width="0.5149" stroke-miterlimit="10" d="M34.241,39.329
		c0.9,0.122,0.584,0.867,0.393,1.455c-0.037,0.116-0.092,0.237-0.109,0.358c-0.027,0.193,0.043,0.335,0.123,0.545
		c0.053,0.133,0.162,0.339,0.273,0.929c0.017-0.005,0.198,1.217-0.051,1.739c-0.151,0.316-0.382,0.413-0.705,0.516
		c-0.238,0.076-1.069-0.153-1.138-0.077c-0.469,0.525-0.676,1.96-1.553,1.832c-0.858-0.126-1.214-0.74-1.146-1.53
		c-0.858-0.025-1.665-0.824-1.164-1.636c0.384-0.62,0.898-0.521,1.442-0.82c0.256-0.141,0.513-0.28,0.764-0.429
		c0.276-0.163,0.125-0.135,0.075-0.383c-0.075-0.375-0.087-0.744-0.104-1.125c-0.007-0.145,1.228-0.608,2.259-0.717
		c0.143-0.016,0.4-0.03,0.514-0.106C34.3,39.757,34.241,39.329,34.241,39.329z"/>
	<path fill="none" stroke="#FFFFFF" stroke-width="0.5149" stroke-miterlimit="10" d="M12.816,44.453l-0.77,1.377
		c0,0-4.006,0.561-3.23,2.239l-0.172,0.173l0.086,0.432c0,0,3.833,0.345,5.34-0.217l1.465-0.301v0.173c0,0,1.853,0.042,2.24-0.303
		l0.086-0.171l-0.043-0.475l-0.172-0.13V46.52l0.043-0.259l-0.231-1.09"/>
	<path fill="none" stroke="#FFFFFF" stroke-width="0.5149" stroke-miterlimit="10" d="M18.541,45.257c0,0-0.529,1.696-0.225,2.02
		L18.258,48.1c0,0,1.071,0.191,1.356,0.13l0.184-0.201c0,0,2.819,1.461,6.494,0.567l0.021-0.58l-0.2-0.184
		c0,0,0.137-0.151,0.111-0.681c0,0,0.354-0.74-2.579-1.521l-1.602-0.758"/>
	<path fill="#FFFFFF" d="M14.856,23.156c-0.506,0-0.916,0.41-0.916,0.916c0,0.506,0.41,0.916,0.916,0.916
		c0.505,0,0.916-0.409,0.916-0.916C15.772,23.566,15.362,23.156,14.856,23.156z M14.402,24.042c-0.093,0-0.167-0.074-0.167-0.167
		c0-0.092,0.074-0.167,0.167-0.167c0.092,0,0.167,0.075,0.167,0.167C14.568,23.968,14.494,24.042,14.402,24.042z"/>
	<path fill="#FFFFFF" d="M20.662,23.156c-0.506,0-0.916,0.41-0.916,0.916c0,0.506,0.41,0.916,0.916,0.916
		c0.505,0,0.915-0.409,0.915-0.916C21.577,23.566,21.167,23.156,20.662,23.156z M20.207,24.042c-0.093,0-0.167-0.074-0.167-0.167
		c0-0.092,0.074-0.167,0.167-0.167s0.167,0.075,0.167,0.167C20.374,23.968,20.3,24.042,20.207,24.042z"/>
</g>
<g>
</g>
<g>
</g>
<g>
</g>
<g>
</g>
<g>
</g>
<g>
</g>
<g>
</g>
<g>
</g>
<g>
</g>
<g>
</g>
<g>
</g>
<g>
</g>
<g>
</g>
<g>
</g>
<g>
</g>
</svg>
