<?xml version="1.0" encoding="utf-8"?>
<!-- Generator: Adobe Illustrator 16.0.4, SVG Export Plug-In . SVG Version: 6.00 Build 0)  -->
<!DOCTYPE svg PUBLIC "-//W3C//DTD SVG 1.1//EN" "http://www.w3.org/Graphics/SVG/1.1/DTD/svg11.dtd">
<svg version="1.1" id="Calque_1" xmlns="http://www.w3.org/2000/svg" xmlns:xlink="http://www.w3.org/1999/xlink" x="0px" y="0px"
	 width="35px" height="50px" viewBox="0 0 35 50" enable-background="new 0 0 35 50" xml:space="preserve">
<g>
	<defs>
		<filter id="Adobe_OpacityMaskFilter" filterUnits="userSpaceOnUse" x="3.146" y="34.433" width="3.217" height="8.425">
			<feColorMatrix  type="matrix" values="1 0 0 0 0  0 1 0 0 0  0 0 1 0 0  0 0 0 1 0"/>
		</filter>
	</defs>
	<mask maskUnits="userSpaceOnUse" x="3.146" y="34.433" width="3.217" height="8.425" id="SVGID_1_">
		<g filter="url(#Adobe_OpacityMaskFilter)">
			
				<linearGradient id="SVGID_2_" gradientUnits="userSpaceOnUse" x1="-360.6104" y1="513.4688" x2="-362.959" y2="515.3586" gradientTransform="matrix(1.9799 -3.0191 -0.0394 3.0249 745.1123 -2617.0005)">
				<stop  offset="0.7039" style="stop-color:#221E20"/>
				<stop  offset="0.7251" style="stop-color:#5C595A"/>
				<stop  offset="0.7486" style="stop-color:#959394"/>
				<stop  offset="0.7703" style="stop-color:#C3C2C2"/>
				<stop  offset="0.7894" style="stop-color:#E4E3E4"/>
				<stop  offset="0.8052" style="stop-color:#F8F8F8"/>
				<stop  offset="0.8159" style="stop-color:#FFFFFF"/>
			</linearGradient>
			<polygon fill="url(#SVGID_2_)" points="9.572,33.98 5.262,45.708 1.708,44.4 6.019,32.676 			"/>
		</g>
	</mask>
	<path mask="url(#SVGID_1_)" fill="none" stroke="#FFFFFF" stroke-width="0.4903" stroke-miterlimit="10" d="M3.398,42.562
		c-0.082,0.604,0.531-4.456,2.757-7.999"/>
	<defs>
		<filter id="Adobe_OpacityMaskFilter_1_" filterUnits="userSpaceOnUse" x="5.183" y="39.511" width="1.211" height="3.554">
			<feColorMatrix  type="matrix" values="1 0 0 0 0  0 1 0 0 0  0 0 1 0 0  0 0 0 1 0"/>
		</filter>
	</defs>
	<mask maskUnits="userSpaceOnUse" x="5.183" y="39.511" width="1.211" height="3.554" id="SVGID_3_">
		<g filter="url(#Adobe_OpacityMaskFilter_1_)">
			
				<linearGradient id="SVGID_4_" gradientUnits="userSpaceOnUse" x1="-360.6104" y1="513.4688" x2="-362.959" y2="515.3586" gradientTransform="matrix(1.9799 -3.0191 -0.0394 3.0249 745.1123 -2617.0005)">
				<stop  offset="0.7039" style="stop-color:#221E20"/>
				<stop  offset="0.7251" style="stop-color:#5C595A"/>
				<stop  offset="0.7486" style="stop-color:#959394"/>
				<stop  offset="0.7703" style="stop-color:#C3C2C2"/>
				<stop  offset="0.7894" style="stop-color:#E4E3E4"/>
				<stop  offset="0.8052" style="stop-color:#F8F8F8"/>
				<stop  offset="0.8159" style="stop-color:#FFFFFF"/>
			</linearGradient>
			<polygon fill="url(#SVGID_4_)" points="9.572,33.98 5.262,45.708 1.708,44.4 6.019,32.676 			"/>
		</g>
	</mask>
	<path mask="url(#SVGID_3_)" fill="none" stroke="#FFFFFF" stroke-width="0.4903" stroke-miterlimit="10" d="M6.16,39.582
		c-0.305,1.004-0.572,2.162-0.734,3.452"/>
	<path fill="none" stroke="#FFFFFF" stroke-width="0.4903" stroke-miterlimit="10" d="M3.407,42.596
		c-0.679,0.09-0.44,0.651-0.296,1.095c0.028,0.087,0.07,0.177,0.083,0.271c0.021,0.145-0.033,0.253-0.093,0.41
		c-0.039,0.099-0.123,0.255-0.206,0.699c-0.013-0.004-0.149,0.916,0.039,1.31c0.114,0.24,0.287,0.312,0.53,0.391
		c0.181,0.057,0.807-0.116,0.857-0.059c0.354,0.396,0.51,0.873,1.17,0.776c0.647-0.093,0.915-0.558,0.864-1.153
		c0.646-0.018,1.255-0.62,0.877-1.231c-0.289-0.469-0.676-0.393-1.086-0.618c-0.193-0.105-0.386-0.211-0.577-0.324
		c-0.207-0.12-0.093-0.102-0.056-0.287c0.056-0.283,0.066-0.562,0.078-0.849c0.006-0.108-0.924,0.145-1.702,0.062
		c-0.107-0.011-0.302-0.021-0.387-0.077C3.362,42.917,3.407,42.596,3.407,42.596z"/>
	<defs>
		<filter id="Adobe_OpacityMaskFilter_2_" filterUnits="userSpaceOnUse" x="26.25" y="39.471" width="1.236" height="3.573">
			<feColorMatrix  type="matrix" values="1 0 0 0 0  0 1 0 0 0  0 0 1 0 0  0 0 0 1 0"/>
		</filter>
	</defs>
	<mask maskUnits="userSpaceOnUse" x="26.25" y="39.471" width="1.236" height="3.573" id="SVGID_5_">
		<g filter="url(#Adobe_OpacityMaskFilter_2_)">
			
				<linearGradient id="SVGID_6_" gradientUnits="userSpaceOnUse" x1="-797.2515" y1="77.6826" x2="-799.6003" y2="79.5726" gradientTransform="matrix(-1.9799 -3.0191 0.0394 3.0249 -1559.7686 -2617.0005)">
				<stop  offset="0.7039" style="stop-color:#221E20"/>
				<stop  offset="0.7251" style="stop-color:#5C595A"/>
				<stop  offset="0.7486" style="stop-color:#959394"/>
				<stop  offset="0.7703" style="stop-color:#C3C2C2"/>
				<stop  offset="0.7894" style="stop-color:#E4E3E4"/>
				<stop  offset="0.8052" style="stop-color:#F8F8F8"/>
				<stop  offset="0.8159" style="stop-color:#FFFFFF"/>
			</linearGradient>
			<polygon fill="url(#SVGID_6_)" points="23.108,34.034 27.419,45.762 30.971,44.455 26.662,32.729 			"/>
		</g>
	</mask>
	<path mask="url(#SVGID_5_)" fill="none" stroke="#FFFFFF" stroke-width="0.4903" stroke-miterlimit="10" d="M26.484,39.543
		c0.312,1.009,0.589,2.173,0.759,3.469"/>
	<defs>
		<filter id="Adobe_OpacityMaskFilter_3_" filterUnits="userSpaceOnUse" x="26.206" y="34.31" width="3.311" height="8.32">
			<feColorMatrix  type="matrix" values="1 0 0 0 0  0 1 0 0 0  0 0 1 0 0  0 0 0 1 0"/>
		</filter>
	</defs>
	<mask maskUnits="userSpaceOnUse" x="26.206" y="34.31" width="3.311" height="8.32" id="SVGID_7_">
		<g filter="url(#Adobe_OpacityMaskFilter_3_)">
			
				<linearGradient id="SVGID_8_" gradientUnits="userSpaceOnUse" x1="-797.2515" y1="77.6826" x2="-799.6003" y2="79.5726" gradientTransform="matrix(-1.9799 -3.0191 0.0394 3.0249 -1559.7686 -2617.0005)">
				<stop  offset="0.7039" style="stop-color:#221E20"/>
				<stop  offset="0.7251" style="stop-color:#5C595A"/>
				<stop  offset="0.7486" style="stop-color:#959394"/>
				<stop  offset="0.7703" style="stop-color:#C3C2C2"/>
				<stop  offset="0.7894" style="stop-color:#E4E3E4"/>
				<stop  offset="0.8052" style="stop-color:#F8F8F8"/>
				<stop  offset="0.8159" style="stop-color:#FFFFFF"/>
			</linearGradient>
			<polygon fill="url(#SVGID_8_)" points="23.108,34.034 27.419,45.762 30.971,44.455 26.662,32.729 			"/>
		</g>
	</mask>
	<path mask="url(#SVGID_7_)" fill="none" stroke="#FFFFFF" stroke-width="0.4903" stroke-miterlimit="10" d="M29.273,42.596
		c-0.624-4.484-2.396-7.438-2.862-8.152"/>
	<path fill="none" stroke="#FFFFFF" stroke-width="0.4903" stroke-miterlimit="10" d="M29.273,42.647
		c0.68,0.091,0.441,0.654,0.296,1.098c-0.028,0.086-0.069,0.177-0.082,0.27c-0.021,0.145,0.032,0.251,0.093,0.411
		c0.039,0.099,0.123,0.254,0.205,0.699c0.013-0.004,0.151,0.916-0.038,1.31c-0.113,0.239-0.287,0.311-0.529,0.388
		c-0.181,0.059-0.807-0.114-0.858-0.058c-0.353,0.396-0.51,0.875-1.171,0.777c-0.646-0.095-0.913-0.558-0.862-1.153
		c-0.647-0.02-1.254-0.62-0.878-1.231c0.289-0.469,0.678-0.394,1.086-0.618c0.194-0.105,0.387-0.212,0.576-0.323
		c0.208-0.124,0.095-0.102,0.058-0.288c-0.058-0.282-0.065-0.562-0.078-0.849c-0.005-0.108,0.925,0.145,1.702,0.062
		c0.106-0.011,0.301-0.021,0.387-0.08C29.319,42.969,29.273,42.647,29.273,42.647z"/>
	<path fill="none" stroke="#FFFFFF" stroke-width="0.4903" stroke-miterlimit="10" d="M26.118,16.784
		c0-5.417-4.358-9.808-9.737-9.808c-5.376,0-9.735,4.391-9.735,9.808c0,0.455-0.167,2.368-0.167,2.849L6.22,36.864
		c0,0.319,0.064,2.005,0.064,2.258c0,4.506,4.768,7.381,10.142,7.381s10.086-3.093,10.086-7.6c0-0.235-0.043-1.553-0.043-1.888
		l-0.194-17.307C26.275,19.228,26.118,17.239,26.118,16.784z"/>
	<path fill="#FFFFFF" stroke="#FFFFFF" stroke-width="0.2451" stroke-miterlimit="10" d="M17.115,28.448
		c-1.694,0.229-2.977-0.173-2.996-0.18c-0.023-0.009-0.038-0.034-0.031-0.06c0.007-0.026,0.03-0.041,0.054-0.032
		c0.029,0.008,2.881,0.902,5.691-0.774c0.021-0.013,0.049-0.004,0.06,0.021c0.013,0.023,0.005,0.054-0.016,0.066
		C18.925,28.055,17.966,28.331,17.115,28.448z"/>
	<g>
		<path fill="none" stroke="#FFFFFF" stroke-width="0.4903" stroke-miterlimit="10" d="M16.387,6.757
			c-0.465-1.823-0.233-3.728-0.096-5.573c0.004-0.057-0.086-0.054-0.094,0c-0.256,1.864-0.418,3.757,0.102,5.596
			C16.314,6.833,16.401,6.81,16.387,6.757L16.387,6.757z"/>
	</g>
	<g>
		<path fill="none" stroke="#FFFFFF" stroke-width="0.4903" stroke-miterlimit="10" d="M16.454,6.805
			c0.079-1.97,1.377-3.679,2.682-5.226c0.023-0.027-0.028-0.062-0.054-0.037c-1.468,1.517-2.662,3.242-2.69,5.263
			C16.392,6.838,16.453,6.838,16.454,6.805L16.454,6.805z"/>
	</g>
	<g>
		<path fill="none" stroke="#FFFFFF" stroke-width="0.4903" stroke-miterlimit="10" d="M16.495,6.574
			c-0.074-1.771,0.54-3.493,1.062-5.183c0.017-0.052-0.071-0.071-0.09-0.021c-0.643,1.686-1.188,3.41-1.063,5.205
			C16.406,6.625,16.496,6.626,16.495,6.574L16.495,6.574z"/>
	</g>
	<g>
		<path fill="none" stroke="#FFFFFF" stroke-width="0.4903" stroke-miterlimit="10" d="M16.27,6.747
			c-0.241-1.976-1.362-3.737-2.661-5.27c-0.032-0.037-0.097,0.012-0.07,0.051c1.104,1.6,2.283,3.321,2.63,5.232
			C16.179,6.812,16.277,6.801,16.27,6.747L16.27,6.747z"/>
	</g>
	<g>
		<path fill="none" stroke="#FFFFFF" stroke-width="0.4903" stroke-miterlimit="10" d="M16.731,6.763
			c0.289-1.682,0.801-3.332,1.295-4.975c0.013-0.042-0.058-0.057-0.075-0.018c-0.672,1.618-1.101,3.278-1.312,4.981
			C16.633,6.796,16.723,6.807,16.731,6.763L16.731,6.763z"/>
	</g>
	<g>
		<path fill="none" stroke="#FFFFFF" stroke-width="0.4903" stroke-miterlimit="10" d="M16.165,6.808
			c0.241-1.445-0.174-2.833-0.698-4.194c-0.02-0.05-0.105-0.03-0.09,0.021c0.399,1.356,0.887,2.746,0.698,4.162
			C16.069,6.843,16.157,6.853,16.165,6.808L16.165,6.808z"/>
	</g>
	<g>
		<path fill="none" stroke="#FFFFFF" stroke-width="0.4903" stroke-miterlimit="10" d="M16.86,6.626
			c0.089-1.896,0.87-3.694,1.545-5.459c0.021-0.055-0.067-0.075-0.091-0.024c-0.793,1.753-1.505,3.557-1.546,5.483
			C16.767,6.681,16.857,6.681,16.86,6.626L16.86,6.626z"/>
	</g>
	<g>
		<path fill="none" stroke="#FFFFFF" stroke-width="0.4903" stroke-miterlimit="10" d="M16.739,6.797
			c0.71-1.946,2.524-3.337,4.293-4.565c0.03-0.021-0.009-0.068-0.041-0.049c-1.919,1.158-3.636,2.59-4.312,4.599
			C16.667,6.816,16.727,6.831,16.739,6.797L16.739,6.797z"/>
	</g>
	<g>
		<path fill="none" stroke="#FFFFFF" stroke-width="0.4903" stroke-miterlimit="10" d="M16.888,6.845
			c0.484-1.863,1.625-3.497,2.664-5.123c0.031-0.05-0.047-0.093-0.081-0.046c-1.156,1.591-2.228,3.246-2.67,5.146
			C16.787,6.876,16.875,6.9,16.888,6.845L16.888,6.845z"/>
	</g>
	<g>
		<path fill="none" stroke="#FFFFFF" stroke-width="0.4903" stroke-miterlimit="10" d="M16.771,6.514
			c0.341-1.962-0.226-3.943-1.032-5.748c-0.02-0.044-0.097-0.014-0.082,0.031c0.6,1.82,1.235,3.776,1.014,5.703
			C16.665,6.555,16.762,6.567,16.771,6.514L16.771,6.514z"/>
	</g>
	<g>
		<path fill="none" stroke="#FFFFFF" stroke-width="0.4903" stroke-miterlimit="10" d="M17.034,6.803
			c0.819-1.602,1.844-3.119,2.85-4.635c0.026-0.039-0.037-0.071-0.066-0.035c-1.171,1.447-2.12,2.995-2.87,4.638
			C16.928,6.814,17.012,6.845,17.034,6.803L17.034,6.803z"/>
	</g>
	<g>
		<path fill="none" stroke="#FFFFFF" stroke-width="0.4903" stroke-miterlimit="10" d="M16.562,6.785
			c0.659-1.374,0.684-2.856,0.599-4.339c-0.004-0.054-0.091-0.056-0.092,0c-0.03,1.445,0.013,2.946-0.589,4.306
			C16.461,6.794,16.542,6.827,16.562,6.785L16.562,6.785z"/>
	</g>
	<g>
		<path fill="none" stroke="#FFFFFF" stroke-width="0.4903" stroke-miterlimit="10" d="M15.792,6.788
			c0.466-1.848,0.233-3.776,0.097-5.647c-0.005-0.058,0.086-0.054,0.093,0c0.257,1.889,0.418,3.807-0.101,5.67
			C15.866,6.865,15.779,6.842,15.792,6.788L15.792,6.788z"/>
	</g>
	<g>
		<path fill="none" stroke="#FFFFFF" stroke-width="0.4903" stroke-miterlimit="10" d="M15.707,6.804
			c-0.078-1.985-1.356-3.708-2.643-5.266c-0.022-0.028,0.028-0.062,0.054-0.037c1.447,1.527,2.624,3.267,2.651,5.302
			C15.768,6.837,15.708,6.837,15.707,6.804L15.707,6.804z"/>
	</g>
	<g>
		<path fill="none" stroke="#FFFFFF" stroke-width="0.4903" stroke-miterlimit="10" d="M15.686,6.767
			c0.074-1.84-0.541-3.629-1.062-5.386c-0.017-0.053,0.071-0.075,0.089-0.022c0.643,1.753,1.188,3.544,1.064,5.409
			C15.774,6.82,15.684,6.821,15.686,6.767L15.686,6.767z"/>
	</g>
	<g>
		<path fill="none" stroke="#FFFFFF" stroke-width="0.4903" stroke-miterlimit="10" d="M15.911,6.702
			c0.24-1.975,1.36-3.737,2.661-5.27c0.032-0.037,0.098,0.012,0.069,0.051c-1.104,1.6-2.283,3.321-2.629,5.232
			C16.001,6.769,15.904,6.756,15.911,6.702L15.911,6.702z"/>
	</g>
	<g>
		<path fill="none" stroke="#FFFFFF" stroke-width="0.4903" stroke-miterlimit="10" d="M15.437,6.779
			c-0.284-1.7-0.785-3.37-1.269-5.032c-0.013-0.042,0.057-0.058,0.073-0.018c0.658,1.636,1.078,3.316,1.286,5.039
			C15.533,6.814,15.445,6.824,15.437,6.779L15.437,6.779z"/>
	</g>
	<g>
		<path fill="none" stroke="#FFFFFF" stroke-width="0.4903" stroke-miterlimit="10" d="M16.016,6.767
			c-0.241-1.445,0.173-2.833,0.698-4.194c0.019-0.051,0.104-0.03,0.09,0.021c-0.4,1.356-0.888,2.746-0.698,4.163
			C16.112,6.801,16.024,6.812,16.016,6.767L16.016,6.767z"/>
	</g>
	<g>
		<path fill="none" stroke="#FFFFFF" stroke-width="0.4903" stroke-miterlimit="10" d="M15.321,6.583
			c-0.088-1.896-0.872-3.695-1.546-5.46c-0.021-0.055,0.067-0.074,0.09-0.024c0.795,1.753,1.505,3.557,1.547,5.483
			C15.413,6.636,15.323,6.636,15.321,6.583L15.321,6.583z"/>
	</g>
	<g>
		<path fill="none" stroke="#FFFFFF" stroke-width="0.4903" stroke-miterlimit="10" d="M15.403,6.688
			c-0.7-1.92-2.491-3.293-4.237-4.505c-0.03-0.021,0.009-0.067,0.041-0.047c1.894,1.142,3.588,2.556,4.256,4.539
			C15.473,6.708,15.415,6.722,15.403,6.688L15.403,6.688z"/>
	</g>
	<g>
		<path fill="none" stroke="#FFFFFF" stroke-width="0.4903" stroke-miterlimit="10" d="M15.255,6.734
			c-0.478-1.84-1.603-3.452-2.628-5.057c-0.031-0.049,0.047-0.092,0.081-0.045c1.141,1.57,2.198,3.204,2.636,5.08
			C15.356,6.764,15.269,6.788,15.255,6.734L15.255,6.734z"/>
	</g>
	<g>
		<path fill="none" stroke="#FFFFFF" stroke-width="0.4903" stroke-miterlimit="10" d="M15.409,6.47
			c-0.341-1.963,0.227-3.944,1.033-5.749c0.02-0.044,0.097-0.014,0.081,0.032c-0.599,1.82-1.233,3.776-1.014,5.704
			C15.515,6.51,15.417,6.523,15.409,6.47L15.409,6.47z"/>
	</g>
	<g>
		<path fill="none" stroke="#FFFFFF" stroke-width="0.4903" stroke-miterlimit="10" d="M15.215,6.986
			c-0.848-1.661-1.905-3.236-2.945-4.809c-0.026-0.04,0.04-0.072,0.069-0.036c1.207,1.501,2.186,3.106,2.962,4.811
			C15.323,6.997,15.237,7.03,15.215,6.986L15.215,6.986z"/>
	</g>
	<g>
		<path fill="none" stroke="#FFFFFF" stroke-width="0.4903" stroke-miterlimit="10" d="M15.617,6.772
			c-0.655-1.385-0.682-2.877-0.598-4.371c0.003-0.054,0.089-0.056,0.09,0c0.03,1.456-0.01,2.968,0.588,4.337
			C15.716,6.782,15.637,6.814,15.617,6.772L15.617,6.772z"/>
	</g>
	<g>
		<path fill="none" stroke="#FFFFFF" stroke-width="0.4903" stroke-miterlimit="10" d="M15.506,6.723
			c0.007-1.898,0.711-3.724,1.31-5.514c0.019-0.055-0.07-0.071-0.091-0.02c-0.719,1.781-1.352,3.611-1.31,5.537
			C15.417,6.781,15.506,6.778,15.506,6.723L15.506,6.723z"/>
	</g>
	<g>
		<path fill="none" stroke="#FFFFFF" stroke-width="0.4903" stroke-miterlimit="10" d="M15.581,6.555
			c0.579-1.841,2.212-3.199,3.812-4.404c0.028-0.022-0.011-0.064-0.04-0.044c-1.742,1.144-3.284,2.539-3.828,4.436
			C15.515,6.575,15.572,6.585,15.581,6.555L15.581,6.555z"/>
	</g>
	<g>
		<path fill="none" stroke="#FFFFFF" stroke-width="0.4903" stroke-miterlimit="10" d="M15.608,6.785
			C16,4.959,17.037,3.333,17.977,1.718c0.028-0.05-0.051-0.088-0.081-0.042c-1.055,1.585-2.025,3.229-2.375,5.089
			C15.51,6.818,15.596,6.837,15.608,6.785L15.608,6.785z"/>
	</g>
	<g>
		<path fill="none" stroke="#FFFFFF" stroke-width="0.4903" stroke-miterlimit="10" d="M15.414,6.615
			c0.256-1.973-0.396-3.932-1.279-5.705c-0.022-0.042-0.098-0.01-0.082,0.034c0.677,1.796,1.396,3.726,1.26,5.661
			C15.308,6.659,15.407,6.668,15.414,6.615L15.414,6.615z"/>
	</g>
	<g>
		<path fill="none" stroke="#FFFFFF" stroke-width="0.4903" stroke-miterlimit="10" d="M15.751,6.783
			c0.729-1.596,1.658-3.119,2.571-4.638c0.023-0.039-0.04-0.068-0.065-0.033c-1.076,1.458-1.929,3.007-2.589,4.643
			C15.65,6.797,15.733,6.826,15.751,6.783L15.751,6.783z"/>
	</g>
	<g>
		<path fill="none" stroke="#FFFFFF" stroke-width="0.4903" stroke-miterlimit="10" d="M15.195,6.651
			c0.618-1.356,0.583-2.79,0.434-4.221c-0.006-0.053-0.095-0.051-0.094,0.002c0.03,1.401,0.135,2.852-0.424,4.19
			C15.093,6.665,15.176,6.693,15.195,6.651L15.195,6.651z"/>
	</g>
	<g>
		<path fill="none" stroke="#FFFFFF" stroke-width="0.4903" stroke-miterlimit="10" d="M16.017,6.626
			c0.557-1.826,1.765-3.404,2.86-4.974c0.033-0.047-0.047-0.086-0.082-0.042c-1.208,1.532-2.348,3.132-2.867,4.996
			C15.914,6.659,16.001,6.679,16.017,6.626L16.017,6.626z"/>
	</g>
	<g>
		<path fill="none" stroke="#FFFFFF" stroke-width="0.4903" stroke-miterlimit="10" d="M15.812,6.7
			c1.19-1.725,3.296-2.696,5.316-3.518c0.035-0.014,0.009-0.067-0.027-0.054c-2.145,0.724-4.167,1.753-5.342,3.545
			C15.739,6.704,15.792,6.729,15.812,6.7L15.812,6.7z"/>
	</g>
	<g>
		<path fill="none" stroke="#FFFFFF" stroke-width="0.4903" stroke-miterlimit="10" d="M16.042,6.788
			c0.921-1.685,2.417-3.008,3.812-4.346c0.042-0.04-0.022-0.099-0.066-0.062c-1.499,1.279-2.934,2.638-3.825,4.366
			C15.938,6.795,16.016,6.836,16.042,6.788L16.042,6.788z"/>
	</g>
	<g>
		<path fill="none" stroke="#FFFFFF" stroke-width="0.4903" stroke-miterlimit="10" d="M15.958,6.497
			c0.819-1.834,0.76-3.884,0.424-5.815c-0.009-0.047-0.09-0.035-0.087,0.012c0.13,1.902,0.263,3.942-0.431,5.769
			C15.845,6.513,15.937,6.548,15.958,6.497L15.958,6.497z"/>
	</g>
	<g>
		<path fill="none" stroke="#FFFFFF" stroke-width="0.4903" stroke-miterlimit="10" d="M16.052,6.821
			c1.219-1.393,2.615-2.662,3.99-3.93c0.036-0.033-0.017-0.077-0.055-0.048c-1.517,1.17-2.844,2.484-4.009,3.928
			C15.949,6.81,16.02,6.858,16.052,6.821L16.052,6.821z"/>
	</g>
	<g>
		<path fill="none" stroke="#FFFFFF" stroke-width="0.4903" stroke-miterlimit="10" d="M15.625,6.856
			c1.015-1.236,1.425-2.72,1.725-4.229c0.011-0.055-0.076-0.075-0.091-0.021c-0.405,1.446-0.754,2.964-1.707,4.199
			C15.522,6.844,15.593,6.894,15.625,6.856L15.625,6.856z"/>
	</g>
	<g>
		<path fill="none" stroke="#FFFFFF" stroke-width="0.4903" stroke-miterlimit="10" d="M14.939,6.55
			c0.912-1.696,1.165-3.622,1.497-5.472c0.01-0.056,0.097-0.033,0.091,0.021c-0.22,1.894-0.54,3.793-1.508,5.494
			C14.991,6.641,14.913,6.6,14.939,6.55L14.939,6.55z"/>
	</g>
	<g>
		<path fill="none" stroke="#FFFFFF" stroke-width="0.4903" stroke-miterlimit="10" d="M14.812,7.02
			c0.476-2.104-0.354-4.195-1.235-6.116c-0.015-0.034,0.046-0.058,0.064-0.026c1.054,1.924,1.773,4.009,1.233,6.155
			C14.864,7.07,14.803,7.057,14.812,7.02L14.812,7.02z"/>
	</g>
	<g>
		<path fill="none" stroke="#FFFFFF" stroke-width="0.4903" stroke-miterlimit="10" d="M14.868,6.878
			c0.562-1.891,0.416-3.883,0.354-5.822c-0.002-0.059,0.092-0.062,0.098-0.003c0.184,1.962,0.259,3.94-0.359,5.846
			C14.943,6.953,14.852,6.934,14.868,6.878L14.868,6.878z"/>
	</g>
	<g>
		<path fill="none" stroke="#FFFFFF" stroke-width="0.4903" stroke-miterlimit="10" d="M15.075,6.493
			c0.726-1.868,2.253-3.337,3.897-4.545c0.04-0.029,0.092,0.033,0.056,0.065c-1.472,1.314-3.046,2.731-3.857,4.515
			C15.147,6.577,15.055,6.543,15.075,6.493L15.075,6.493z"/>
	</g>
	<g>
		<path fill="none" stroke="#FFFFFF" stroke-width="0.4903" stroke-miterlimit="10" d="M14.532,6.962
			c0.186-1.86,0.139-3.737,0.106-5.602c-0.001-0.046,0.075-0.048,0.08-0.002c0.218,1.875,0.178,3.746-0.091,5.614
			C14.621,7.02,14.527,7.011,14.532,6.962L14.532,6.962z"/>
	</g>
	<g>
		<path fill="none" stroke="#FFFFFF" stroke-width="0.4903" stroke-miterlimit="10" d="M15.062,6.58
			c0.147-1.454,0.92-2.719,1.791-3.937c0.032-0.044,0.11-0.008,0.082,0.04c-0.748,1.237-1.592,2.489-1.783,3.905
			C15.146,6.633,15.057,6.625,15.062,6.58L15.062,6.58z"/>
	</g>
	<g>
		<path fill="none" stroke="#FFFFFF" stroke-width="0.4903" stroke-miterlimit="10" d="M14.586,6.457
			c0.399-1.932,0.073-3.922-0.152-5.855c-0.007-0.06,0.087-0.06,0.097-0.003c0.35,1.948,0.602,3.927,0.148,5.879
			C14.665,6.533,14.575,6.513,14.586,6.457L14.586,6.457z"/>
	</g>
	<g>
		<path fill="none" stroke="#FFFFFF" stroke-width="0.4903" stroke-miterlimit="10" d="M14.548,7.125
			c-0.183-2.274-1.612-4.203-3.042-5.941c-0.024-0.03,0.027-0.071,0.053-0.043c1.598,1.696,2.92,3.647,3.052,5.982
			C14.614,7.162,14.551,7.164,14.548,7.125L14.548,7.125z"/>
	</g>
	<g>
		<path fill="none" stroke="#FFFFFF" stroke-width="0.4903" stroke-miterlimit="10" d="M14.481,6.75
			c-0.007-2.016-0.727-3.946-1.347-5.846c-0.02-0.058,0.07-0.084,0.092-0.029c0.746,1.891,1.392,3.827,1.35,5.871
			C14.575,6.804,14.481,6.808,14.481,6.75L14.481,6.75z"/>
	</g>
	<g>
		<path fill="none" stroke="#FFFFFF" stroke-width="0.4903" stroke-miterlimit="10" d="M14.574,6.136
			c0.155-1.983,1.2-3.786,2.432-5.366c0.03-0.038,0.098,0.007,0.072,0.048c-1.035,1.64-2.139,3.403-2.403,5.326
			C14.668,6.199,14.57,6.19,14.574,6.136L14.574,6.136z"/>
	</g>
	<g>
		<path fill="none" stroke="#FFFFFF" stroke-width="0.4903" stroke-miterlimit="10" d="M14.253,7.162
			c-0.383-1.961-0.994-3.877-1.588-5.786c-0.015-0.048,0.058-0.069,0.077-0.024c0.775,1.872,1.301,3.803,1.605,5.793
			C14.355,7.198,14.263,7.213,14.253,7.162L14.253,7.162z"/>
	</g>
	<g>
		<path fill="none" stroke="#FFFFFF" stroke-width="0.4903" stroke-miterlimit="10" d="M14.833,7.003
			c-0.318-1.632,0.045-3.225,0.524-4.793c0.018-0.057,0.107-0.038,0.094,0.021c-0.35,1.556-0.788,3.155-0.525,4.755
			C14.935,7.038,14.844,7.053,14.833,7.003L14.833,7.003z"/>
	</g>
	<circle fill="none" stroke="#FFFFFF" stroke-width="0.4903" stroke-miterlimit="10" cx="23.048" cy="17.603" r="2.529"/>
	<path fill="#FFFFFF" d="M9.691,16.835c-0.381,0-0.689,0.309-0.689,0.69s0.309,0.69,0.689,0.69c0.381,0,0.69-0.309,0.69-0.69
		S10.072,16.835,9.691,16.835z M9.475,17.563c-0.128,0-0.232-0.104-0.232-0.232s0.104-0.233,0.232-0.233s0.232,0.105,0.232,0.233
		S9.603,17.563,9.475,17.563z"/>
	<path fill="#FFFFFF" d="M23.048,16.835c-0.381,0-0.689,0.309-0.689,0.69s0.309,0.69,0.689,0.69c0.383,0,0.691-0.309,0.691-0.69
		S23.431,16.835,23.048,16.835z M22.831,17.563c-0.127,0-0.231-0.104-0.231-0.232s0.104-0.233,0.231-0.233
		c0.128,0,0.233,0.105,0.233,0.233S22.959,17.563,22.831,17.563z"/>
	<circle fill="none" stroke="#FFFFFF" stroke-width="0.4903" stroke-miterlimit="10" cx="9.693" cy="17.603" r="2.529"/>
	<path fill="none" stroke="#FFFFFF" stroke-width="0.4903" stroke-miterlimit="10" d="M12.42,45.904l-0.58,1.04
		c0,0-3.019,0.421-2.434,1.687l-0.13,0.13l0.065,0.323c0,0,2.888,0.26,4.024-0.161l1.104-0.227v0.129c0,0,1.396,0.032,1.688-0.227
		l0.065-0.13l-0.032-0.358l-0.131-0.098v-0.551l0.033-0.194l-0.175-0.821"/>
	<path fill="none" stroke="#FFFFFF" stroke-width="0.4903" stroke-miterlimit="10" d="M16.734,46.512c0,0-0.399,1.276-0.17,1.521
		l-0.044,0.62c0,0,0.807,0.146,1.022,0.097l0.139-0.15c0,0,2.124,1.102,4.893,0.428l0.016-0.437l-0.151-0.138
		c0,0,0.104-0.115,0.084-0.515c0,0,0.266-0.558-1.943-1.145l-1.207-0.573"/>
</g>
<g>
</g>
<g>
</g>
<g>
</g>
<g>
</g>
<g>
</g>
<g>
</g>
<g>
</g>
<g>
</g>
<g>
</g>
<g>
</g>
<g>
</g>
<g>
</g>
<g>
</g>
<g>
</g>
<g>
</g>
</svg>
