<?xml version="1.0" encoding="utf-8"?>
<!-- Generator: Adobe Illustrator 16.0.4, SVG Export Plug-In . SVG Version: 6.00 Build 0)  -->
<!DOCTYPE svg PUBLIC "-//W3C//DTD SVG 1.1//EN" "http://www.w3.org/Graphics/SVG/1.1/DTD/svg11.dtd">
<svg version="1.1" id="Calque_1" xmlns="http://www.w3.org/2000/svg" xmlns:xlink="http://www.w3.org/1999/xlink" x="0px" y="0px"
	 width="35px" height="50px" viewBox="0 0 35 50" enable-background="new 0 0 35 50" xml:space="preserve">
<g>
	<path fill="#FFFFFF" d="M21.386,8.958c0.168-0.469-0.076-0.985-0.545-1.153c-0.469-0.169-0.984,0.075-1.153,0.543
		c-0.167,0.469,0.076,0.985,0.546,1.154C20.701,9.671,21.218,9.427,21.386,8.958z M20.586,8.37c0.056-0.158,0.23-0.24,0.388-0.182
		c0.158,0.056,0.24,0.231,0.185,0.388c-0.057,0.158-0.23,0.242-0.39,0.185C20.61,8.702,20.528,8.528,20.586,8.37z"/>
	<path fill="#FFFFFF" d="M16.053,8.958c0.169-0.469-0.077-0.985-0.545-1.153c-0.469-0.169-0.985,0.075-1.153,0.543
		c-0.168,0.469,0.075,0.985,0.544,1.154C15.368,9.671,15.885,9.427,16.053,8.958z M15.252,8.37c0.057-0.158,0.231-0.24,0.389-0.182
		c0.158,0.056,0.24,0.231,0.184,0.388c-0.056,0.158-0.231,0.242-0.389,0.185C15.278,8.702,15.196,8.528,15.252,8.37z"/>
	<defs>
		<filter id="Adobe_OpacityMaskFilter" filterUnits="userSpaceOnUse" x="2.393" y="29.582" width="4.206" height="11.016">
			<feColorMatrix  type="matrix" values="1 0 0 0 0  0 1 0 0 0  0 0 1 0 0  0 0 0 1 0"/>
		</filter>
	</defs>
	<mask maskUnits="userSpaceOnUse" x="2.393" y="29.582" width="4.206" height="11.016" id="SVGID_1_">
		<g filter="url(#Adobe_OpacityMaskFilter)">
			
				<linearGradient id="SVGID_2_" gradientUnits="userSpaceOnUse" x1="-359.8193" y1="511.6855" x2="-362.8911" y2="514.1573" gradientTransform="matrix(1.9799 -3.0191 -0.0394 3.0249 745.1123 -2617.0005)">
				<stop  offset="0.7039" style="stop-color:#221E20"/>
				<stop  offset="0.7251" style="stop-color:#5C595A"/>
				<stop  offset="0.7486" style="stop-color:#959394"/>
				<stop  offset="0.7703" style="stop-color:#C3C2C2"/>
				<stop  offset="0.7894" style="stop-color:#E4E3E4"/>
				<stop  offset="0.8052" style="stop-color:#F8F8F8"/>
				<stop  offset="0.8159" style="stop-color:#FFFFFF"/>
			</linearGradient>
			<polygon fill="url(#SVGID_2_)" points="10.796,28.99 5.161,44.324 0.514,42.619 6.15,27.285 			"/>
		</g>
	</mask>
	<path mask="url(#SVGID_1_)" fill="none" stroke="#FFFFFF" stroke-width="0.6411" stroke-miterlimit="10" d="M2.723,40.213
		c-0.108,0.789,0.694-5.826,3.604-10.459"/>
	<defs>
		<filter id="Adobe_OpacityMaskFilter_1_" filterUnits="userSpaceOnUse" x="5.057" y="36.221" width="1.583" height="4.648">
			<feColorMatrix  type="matrix" values="1 0 0 0 0  0 1 0 0 0  0 0 1 0 0  0 0 0 1 0"/>
		</filter>
	</defs>
	<mask maskUnits="userSpaceOnUse" x="5.057" y="36.221" width="1.583" height="4.648" id="SVGID_3_">
		<g filter="url(#Adobe_OpacityMaskFilter_1_)">
			
				<linearGradient id="SVGID_4_" gradientUnits="userSpaceOnUse" x1="-359.8193" y1="511.6855" x2="-362.8911" y2="514.1573" gradientTransform="matrix(1.9799 -3.0191 -0.0394 3.0249 745.1123 -2617.0005)">
				<stop  offset="0.7039" style="stop-color:#221E20"/>
				<stop  offset="0.7251" style="stop-color:#5C595A"/>
				<stop  offset="0.7486" style="stop-color:#959394"/>
				<stop  offset="0.7703" style="stop-color:#C3C2C2"/>
				<stop  offset="0.7894" style="stop-color:#E4E3E4"/>
				<stop  offset="0.8052" style="stop-color:#F8F8F8"/>
				<stop  offset="0.8159" style="stop-color:#FFFFFF"/>
			</linearGradient>
			<polygon fill="url(#SVGID_4_)" points="10.796,28.99 5.161,44.324 0.514,42.619 6.15,27.285 			"/>
		</g>
	</mask>
	<path mask="url(#SVGID_3_)" fill="none" stroke="#FFFFFF" stroke-width="0.6411" stroke-miterlimit="10" d="M6.334,36.314
		c-0.398,1.314-0.748,2.828-0.959,4.516"/>
	<path fill="none" stroke="#FFFFFF" stroke-width="0.6411" stroke-miterlimit="10" d="M2.734,40.254
		c-0.888,0.119-0.576,0.854-0.387,1.432c0.038,0.115,0.091,0.234,0.109,0.354c0.027,0.189-0.043,0.33-0.123,0.537
		c-0.05,0.131-0.159,0.334-0.268,0.914c-0.018-0.004-0.197,1.199,0.05,1.715c0.149,0.311,0.375,0.406,0.694,0.508
		c0.236,0.076,1.054-0.15,1.121-0.076c0.462,0.518,0.667,1.143,1.53,1.018c0.846-0.125,1.196-0.73,1.129-1.51
		c0.845-0.023,1.641-0.812,1.147-1.611c-0.377-0.611-0.885-0.514-1.42-0.807c-0.252-0.139-0.505-0.277-0.753-0.424
		c-0.271-0.158-0.123-0.133-0.073-0.377c0.074-0.367,0.086-0.732,0.102-1.107c0.006-0.143-1.209,0.189-2.226,0.08
		c-0.14-0.014-0.395-0.029-0.506-0.102C2.676,40.674,2.734,40.254,2.734,40.254z"/>
	<defs>
		<filter id="Adobe_OpacityMaskFilter_2_" filterUnits="userSpaceOnUse" x="28.432" y="36.168" width="1.617" height="4.676">
			<feColorMatrix  type="matrix" values="1 0 0 0 0  0 1 0 0 0  0 0 1 0 0  0 0 0 1 0"/>
		</filter>
	</defs>
	<mask maskUnits="userSpaceOnUse" x="28.432" y="36.168" width="1.617" height="4.676" id="SVGID_5_">
		<g filter="url(#Adobe_OpacityMaskFilter_2_)">
			
				<linearGradient id="SVGID_6_" gradientUnits="userSpaceOnUse" x1="-797.7183" y1="74.6504" x2="-800.7894" y2="77.1216" gradientTransform="matrix(-1.9799 -3.0191 0.0394 3.0249 -1559.7686 -2617.0005)">
				<stop  offset="0.7039" style="stop-color:#221E20"/>
				<stop  offset="0.7251" style="stop-color:#5C595A"/>
				<stop  offset="0.7486" style="stop-color:#959394"/>
				<stop  offset="0.7703" style="stop-color:#C3C2C2"/>
				<stop  offset="0.7894" style="stop-color:#E4E3E4"/>
				<stop  offset="0.8052" style="stop-color:#F8F8F8"/>
				<stop  offset="0.8159" style="stop-color:#FFFFFF"/>
			</linearGradient>
			<polygon fill="url(#SVGID_6_)" points="24.323,29.062 29.959,44.395 34.606,42.688 28.97,27.354 			"/>
		</g>
	</mask>
	<path mask="url(#SVGID_5_)" fill="none" stroke="#FFFFFF" stroke-width="0.6411" stroke-miterlimit="10" d="M28.737,36.262
		c0.408,1.32,0.771,2.842,0.993,4.539"/>
	<defs>
		<filter id="Adobe_OpacityMaskFilter_3_" filterUnits="userSpaceOnUse" x="28.376" y="29.42" width="4.327" height="10.879">
			<feColorMatrix  type="matrix" values="1 0 0 0 0  0 1 0 0 0  0 0 1 0 0  0 0 0 1 0"/>
		</filter>
	</defs>
	<mask maskUnits="userSpaceOnUse" x="28.376" y="29.42" width="4.327" height="10.879" id="SVGID_7_">
		<g filter="url(#Adobe_OpacityMaskFilter_3_)">
			
				<linearGradient id="SVGID_8_" gradientUnits="userSpaceOnUse" x1="-797.7183" y1="74.6504" x2="-800.7894" y2="77.1216" gradientTransform="matrix(-1.9799 -3.0191 0.0394 3.0249 -1559.7686 -2617.0005)">
				<stop  offset="0.7039" style="stop-color:#221E20"/>
				<stop  offset="0.7251" style="stop-color:#5C595A"/>
				<stop  offset="0.7486" style="stop-color:#959394"/>
				<stop  offset="0.7703" style="stop-color:#C3C2C2"/>
				<stop  offset="0.7894" style="stop-color:#E4E3E4"/>
				<stop  offset="0.8052" style="stop-color:#F8F8F8"/>
				<stop  offset="0.8159" style="stop-color:#FFFFFF"/>
			</linearGradient>
			<polygon fill="url(#SVGID_8_)" points="24.323,29.062 29.959,44.395 34.606,42.688 28.97,27.354 			"/>
		</g>
	</mask>
	<path mask="url(#SVGID_7_)" fill="none" stroke="#FFFFFF" stroke-width="0.6411" stroke-miterlimit="10" d="M32.385,40.254
		c-0.818-5.863-3.132-9.725-3.741-10.66"/>
	<path fill="none" stroke="#FFFFFF" stroke-width="0.6411" stroke-miterlimit="10" d="M32.385,40.324
		c0.889,0.119,0.577,0.854,0.389,1.432c-0.039,0.115-0.093,0.234-0.109,0.354c-0.028,0.191,0.043,0.33,0.122,0.537
		c0.052,0.131,0.16,0.334,0.269,0.914c0.018-0.004,0.196,1.199-0.05,1.715c-0.15,0.311-0.377,0.406-0.695,0.508
		c-0.234,0.074-1.053-0.152-1.12-0.076c-0.462,0.518-0.665,1.143-1.529,1.016c-0.846-0.125-1.196-0.729-1.129-1.508
		c-0.847-0.025-1.641-0.811-1.147-1.611c0.377-0.611,0.885-0.514,1.42-0.807c0.252-0.139,0.506-0.277,0.755-0.424
		c0.27-0.16,0.122-0.133,0.073-0.375c-0.075-0.371-0.086-0.734-0.104-1.111c-0.006-0.141,1.21,0.191,2.227,0.082
		c0.14-0.014,0.394-0.029,0.506-0.104C32.443,40.744,32.385,40.324,32.385,40.324z"/>
	<path fill="none" stroke="#FFFFFF" stroke-width="0.6411" stroke-miterlimit="10" d="M12.275,44.582l-0.758,1.357
		c0,0-3.947,0.553-3.183,2.207l-0.169,0.17l0.085,0.422c0,0,3.776,0.342,5.261-0.211l1.443-0.297v0.17c0,0,1.824,0.043,2.206-0.297
		l0.085-0.17l-0.042-0.467l-0.169-0.127v-0.721l0.042-0.256l-0.228-1.074"/>
	<path fill="none" stroke="#FFFFFF" stroke-width="0.6411" stroke-miterlimit="10" d="M17.916,45.375c0,0-0.522,1.67-0.223,1.988
		l-0.057,0.812c0,0,1.053,0.188,1.334,0.127l0.182-0.197c0,0,2.774,1.439,6.396,0.559l0.021-0.57L25.37,47.91
		c0,0,0.135-0.148,0.111-0.67c0,0,0.348-0.729-2.542-1.498l-1.578-0.748"/>
	<path fill="none" stroke="#FFFFFF" stroke-width="0.6411" stroke-miterlimit="10" d="M28.179,12.694
		c0-5.938-4.777-10.751-10.667-10.751c-5.893,0-10.67,4.813-10.67,10.751c0,0.498-0.184,2.595-0.184,3.123L6.372,34.703
		c0,0.35,0.072,2.195,0.072,2.473c0,4.939,5.224,8.09,11.116,8.09c5.888,0,11.052-3.389,11.052-8.326
		c0-0.26-0.047-1.705-0.047-2.072l-0.213-18.968C28.352,15.372,28.179,13.192,28.179,12.694z"/>
	<path fill="none" stroke="#ECB94E" stroke-width="0.6411" stroke-miterlimit="10" stroke-dasharray="0.6411" d="M28.645,30.557"/>
	<path fill="none" stroke="#ECB94E" stroke-width="0.6411" stroke-miterlimit="10" stroke-dasharray="0.6411" d="M28.481,29.051"/>
	<path fill="#FFFFFF" stroke="#FFFFFF" stroke-width="0.3205" stroke-miterlimit="10" d="M17.139,26.395
		c-1.519-0.104-2.543-1-2.559-1.012c-0.018-0.019-0.024-0.06-0.014-0.096c0.011-0.035,0.036-0.049,0.054-0.031
		c0.023,0.02,2.301,2.01,5.1,0.35c0.021-0.012,0.042,0.006,0.046,0.041c0.006,0.039-0.006,0.079-0.026,0.091
		C18.791,26.299,17.903,26.449,17.139,26.395z"/>
	<g>
		<g>
			<g>
				<path fill="#FFFFFF" d="M19.865,5.057c-1.146,0-2.149,0.604-2.715,1.509c-0.57-0.88-1.561-1.461-2.687-1.461
					c-1.768,0-3.201,1.434-3.201,3.201c0,1.769,1.433,3.202,3.201,3.202c1.147,0,2.151-0.603,2.717-1.509
					c0.571,0.878,1.56,1.46,2.685,1.46c1.768,0,3.2-1.433,3.2-3.201C23.065,6.491,21.633,5.057,19.865,5.057z M14.44,10.632
					c-1.297,0-2.35-1.053-2.35-2.349c0-1.298,1.052-2.35,2.35-2.35s2.349,1.052,2.349,2.35C16.789,9.579,15.737,10.632,14.44,10.632
					z M19.889,10.632c-1.296,0-2.346-1.053-2.346-2.349c0-1.298,1.05-2.35,2.346-2.35c1.298,0,2.35,1.052,2.35,2.35
					C22.238,9.579,21.187,10.632,19.889,10.632z"/>
				<g opacity="0.14">
					<path fill="#FFFFFF" d="M14.464,11.264c-1.63,0-2.957-1.326-2.957-2.958c0-1.63,1.327-2.957,2.957-2.957
						c1.006,0,1.934,0.504,2.482,1.348l0.208,0.321l0.202-0.325c0.545-0.873,1.481-1.394,2.509-1.394
						c1.63,0,2.956,1.327,2.956,2.957c0,1.631-1.326,2.958-2.956,2.958c-1.006,0-1.931-0.504-2.479-1.349l-0.208-0.321l-0.202,0.325
						C16.43,10.742,15.492,11.264,14.464,11.264z M19.889,5.69c-1.427,0-2.589,1.162-2.589,2.593c0,1.428,1.162,2.591,2.589,2.591
						c1.43,0,2.593-1.163,2.593-2.591C22.481,6.852,21.318,5.69,19.889,5.69z M14.44,5.69c-1.43,0-2.593,1.162-2.593,2.593
						c0,1.428,1.163,2.591,2.593,2.591c1.429,0,2.592-1.163,2.592-2.591C17.032,6.852,15.869,5.69,14.44,5.69z"/>
				</g>
				<path fill="#FFFFFF" d="M11.933,6.923c0,0,0.681-1.294,2.369-1.542C14.301,5.381,12.488,5.311,11.933,6.923z"/>
				<path fill="#FFFFFF" d="M17.324,6.866c0,0,0.626-1.188,2.171-1.415C19.495,5.451,17.834,5.385,17.324,6.866z"/>
			</g>
		</g>
	</g>
	<g>
		<path fill="none" stroke="#FFFFFF" stroke-width="0.3205" stroke-miterlimit="10" d="M16.134,2.033
			c-0.898-0.166-1.79-0.338-2.715-0.315c-1.499,0.037-2.836,0.704-3.851,1.791C9.534,3.544,9.585,3.596,9.621,3.563
			c1.11-1.047,2.415-1.61,3.938-1.673c0.765-0.032,1.524,0.07,2.279,0.186"/>
	</g>
	<g>
		<path fill="none" stroke="#FFFFFF" stroke-width="0.3205" stroke-miterlimit="10" d="M14.697,2.321
			c-0.59-0.033-1.181-0.033-1.771,0.051c-1.432,0.204-2.668,0.868-3.641,1.938C9.254,4.347,9.304,4.398,9.339,4.363
			c1.092-1.056,2.391-1.669,3.896-1.853c0.347-0.042,0.694-0.061,1.042-0.063"/>
	</g>
	<g>
		<path fill="none" stroke="#FFFFFF" stroke-width="0.3205" stroke-miterlimit="10" d="M13.148,2.88
			c-1.23,0.201-2.376,0.681-3.324,1.695C9.792,4.61,9.842,4.662,9.877,4.628c0.787-0.728,1.683-1.173,2.638-1.436"/>
	</g>
	<g>
		<path fill="none" stroke="#FFFFFF" stroke-width="0.3205" stroke-miterlimit="10" d="M18.994,2.046
			c0.755-0.112,1.508-0.215,2.277-0.212c1.563,0.006,2.947,0.608,4.078,1.675c0.035,0.034,0.087-0.019,0.053-0.053
			c-0.994-1.063-2.254-1.687-3.709-1.784c-1.024-0.068-2.021,0.149-3.019,0.334"/>
	</g>
	<g>
		<path fill="none" stroke="#FFFFFF" stroke-width="0.3205" stroke-miterlimit="10" d="M20.596,2.401
			c0.381,0.001,0.76,0.017,1.14,0.057c1.497,0.154,2.818,0.811,3.894,1.854c0.037,0.033,0.087-0.018,0.056-0.054
			c-0.973-1.07-2.209-1.733-3.641-1.938c-0.631-0.09-1.263-0.083-1.895-0.043"/>
	</g>
	<g>
		<path fill="none" stroke="#FFFFFF" stroke-width="0.3205" stroke-miterlimit="10" d="M22.348,3.11
			c0.996,0.259,1.931,0.711,2.744,1.465c0.035,0.034,0.088-0.018,0.053-0.053C24.169,3.479,22.983,3,21.711,2.811"/>
	</g>
	<g>
		<path fill="none" stroke="#FFFFFF" stroke-width="0.3205" stroke-miterlimit="10" d="M17.928,1.952
			c0.914-0.5,1.8-1.042,2.783-1.409c1.464-0.546,2.971-0.471,4.406,0.127c0.045,0.018,0.074-0.046,0.029-0.067
			c-1.305-0.646-2.704-0.783-4.1-0.359c-1.188,0.359-2.19,1.097-3.252,1.704"/>
	</g>
	<g>
		<path fill="none" stroke="#FFFFFF" stroke-width="0.3205" stroke-miterlimit="10" d="M18.637,2.003
			c0.889-0.398,1.78-0.791,2.727-1.041c1.456-0.385,2.924-0.237,4.299,0.358c0.046,0.018,0.074-0.047,0.033-0.069
			c-1.289-0.658-2.681-0.842-4.092-0.527C20.498,0.97,19.5,1.502,18.488,1.988"/>
	</g>
	<g>
		<path fill="none" stroke="#FFFFFF" stroke-width="0.3205" stroke-miterlimit="10" d="M19.334,2.1
			c1.916-0.74,3.925-1.153,5.917-0.342c0.047,0.019,0.075-0.047,0.033-0.068c-2.071-1.021-4.136-0.467-6.114,0.384"/>
	</g>
	<g>
		<path fill="none" stroke="#FFFFFF" stroke-width="0.3205" stroke-miterlimit="10" d="M16.884,1.963
			c-0.904-0.497-1.785-1.032-2.755-1.395c-1.466-0.546-2.973-0.471-4.407,0.128C9.677,0.715,9.646,0.649,9.69,0.628
			c1.306-0.646,2.706-0.782,4.101-0.359c1.177,0.356,2.171,1.081,3.223,1.687"/>
	</g>
	<g>
		<path fill="none" stroke="#FFFFFF" stroke-width="0.3205" stroke-miterlimit="10" d="M16.191,2.024
			c-0.887-0.395-1.774-0.787-2.717-1.035c-1.456-0.384-2.922-0.238-4.3,0.357C9.13,1.365,9.101,1.3,9.145,1.278
			c1.288-0.657,2.679-0.842,4.09-0.528c1.101,0.245,2.096,0.774,3.104,1.259"/>
	</g>
	<g>
		<path fill="none" stroke="#FFFFFF" stroke-width="0.3205" stroke-miterlimit="10" d="M15.515,2.131
			c-1.919-0.744-3.932-1.159-5.93-0.347C9.541,1.803,9.51,1.737,9.555,1.715c2.073-1.022,4.139-0.465,6.121,0.388"/>
	</g>
</g>
<g>
</g>
<g>
</g>
<g>
</g>
<g>
</g>
<g>
</g>
<g>
</g>
<g>
</g>
<g>
</g>
<g>
</g>
<g>
</g>
<g>
</g>
<g>
</g>
<g>
</g>
<g>
</g>
<g>
</g>
</svg>
