<?xml version="1.0" encoding="utf-8"?>
<!-- Generator: Adobe Illustrator 16.0.4, SVG Export Plug-In . SVG Version: 6.00 Build 0)  -->
<!DOCTYPE svg PUBLIC "-//W3C//DTD SVG 1.1//EN" "http://www.w3.org/Graphics/SVG/1.1/DTD/svg11.dtd">
<svg version="1.1" id="Calque_1" xmlns="http://www.w3.org/2000/svg" xmlns:xlink="http://www.w3.org/1999/xlink" x="0px" y="0px"
	 width="35px" height="50px" viewBox="0 0 35 50" enable-background="new 0 0 35 50" xml:space="preserve">
<g>
	<g>
		<path fill="none" stroke="#FFFFFF" stroke-width="0.6051" stroke-miterlimit="10" d="M8.188,6.074
			c-0.166-0.301-0.321-0.609-0.467-0.92C7.701,5.11,7.638,5.147,7.658,5.19C7.803,5.519,7.953,5.844,8.11,6.167"/>
	</g>
	<g>
		<path fill="none" stroke="#FFFFFF" stroke-width="0.6051" stroke-miterlimit="10" d="M9.303,5.161
			C9.177,4.82,9.044,4.48,8.905,4.145c-0.018-0.043-0.087-0.026-0.07,0.018C8.954,4.47,9.059,4.783,9.161,5.097
			c0.013,0.041,0.026,0.084,0.037,0.131"/>
	</g>
	<g>
		<path fill="none" stroke="#FFFFFF" stroke-width="0.6051" stroke-miterlimit="10" d="M16.461,2.586
			c0.003-0.347-0.005-0.697-0.017-1.045c-0.002-0.047-0.073-0.047-0.073,0c0.003,0.314-0.008,0.625-0.021,0.939
			c-0.001,0.047-0.005,0.097-0.012,0.149"/>
	</g>
	<g>
		<path fill="none" stroke="#FFFFFF" stroke-width="0.6051" stroke-miterlimit="10" d="M13.233,3.193
			c-0.054-0.305-0.113-0.609-0.178-0.914c-0.01-0.045-0.079-0.026-0.071,0.02c0.058,0.304,0.104,0.609,0.146,0.914"/>
	</g>
	<g>
		<path fill="none" stroke="#FFFFFF" stroke-width="0.6051" stroke-miterlimit="10" d="M14.699,2.855
			c0-0.305-0.006-0.609-0.017-0.914c-0.001-0.047-0.074-0.047-0.074,0c0.003,0.314-0.006,0.627-0.02,0.94"/>
	</g>
	<g>
		<path fill="none" stroke="#FFFFFF" stroke-width="0.6051" stroke-miterlimit="10" d="M18.407,4.133"/>
		<path fill="none" stroke="#FFFFFF" stroke-width="0.6051" stroke-miterlimit="10" d="M18.214,2.618
			c-0.036-0.165-0.073-0.332-0.112-0.497c-0.011-0.045-0.08-0.026-0.07,0.019c0.033,0.161,0.064,0.323,0.094,0.483"/>
	</g>
	<g>
		<path fill="none" stroke="#FFFFFF" stroke-width="0.6051" stroke-miterlimit="10" d="M19.643,2.882
			c-0.006-0.348-0.021-0.544-0.04-0.893c-0.002-0.047-0.074-0.047-0.072,0c0.01,0.314,0.007,0.575,0,0.89"/>
	</g>
	<g>
		<path fill="none" stroke="#FFFFFF" stroke-width="0.6051" stroke-miterlimit="10" d="M21.683,4.738"/>
		<path fill="none" stroke="#FFFFFF" stroke-width="0.6051" stroke-miterlimit="10" d="M22.203,3.579
			c0.083-0.243,0.164-0.488,0.241-0.732c0.014-0.045-0.057-0.065-0.071-0.02c-0.082,0.243-0.171,0.483-0.264,0.721"/>
	</g>
	<g>
		<path fill="none" stroke="#FFFFFF" stroke-width="0.6051" stroke-miterlimit="10" d="M23.392,4.216
			c0.183-0.324,0.362-0.649,0.533-0.98c0.022-0.042-0.04-0.078-0.063-0.038C23.696,3.5,23.52,3.792,23.337,4.083"/>
	</g>
	<g>
		<path fill="none" stroke="#FFFFFF" stroke-width="0.6051" stroke-miterlimit="10" d="M24.747,4.955
			c0.154-0.348,0.297-0.701,0.435-1.056c0.017-0.044-0.053-0.062-0.07-0.02c-0.144,0.345-0.301,0.682-0.463,1.018"/>
	</g>
	<g>
		<path fill="none" stroke="#FFFFFF" stroke-width="0.6051" stroke-miterlimit="10" d="M25.79,5.802
			c0.196-0.296,0.387-0.598,0.569-0.901c0.025-0.041-0.038-0.076-0.062-0.037c-0.177,0.277-0.365,0.544-0.557,0.81"/>
	</g>
	<g>
		<path fill="none" stroke="#FFFFFF" stroke-width="0.6051" stroke-miterlimit="10" d="M10.641,4.294
			c-0.141-0.355-0.252-0.604-0.408-0.951c-0.02-0.044-0.081-0.007-0.063,0.037C10.315,3.723,10.418,4,10.543,4.352"/>
	</g>
	<g>
		<path fill="none" stroke="#FFFFFF" stroke-width="0.6051" stroke-miterlimit="10" d="M11.864,3.685
			c-0.056-0.253-0.116-0.506-0.179-0.757c-0.012-0.045-0.081-0.026-0.07,0.02c0.054,0.245,0.102,0.491,0.145,0.737"/>
	</g>
	<path fill="none" stroke="#FFFFFF" stroke-width="0.6051" stroke-miterlimit="10" d="M11.939,43.129l-0.716,1.279
		c0,0-3.724,0.521-3.003,2.084L8.06,46.65l0.08,0.402c0,0,3.564,0.32,4.965-0.201l1.363-0.278v0.158c0,0,1.723,0.042,2.083-0.278
		l0.079-0.162l-0.039-0.44l-0.16-0.12V45.05l0.04-0.24l-0.215-1.013"/>
	<path fill="none" stroke="#FFFFFF" stroke-width="0.6051" stroke-miterlimit="10" d="M17.266,43.876c0,0-0.495,1.579-0.211,1.877
		l-0.054,0.765c0,0,0.997,0.182,1.264,0.123l0.168-0.188c0,0,2.621,1.357,6.038,0.528l0.02-0.538l-0.187-0.172
		c0,0,0.127-0.143,0.104-0.635c0,0,0.327-0.688-2.399-1.412l-1.489-0.707"/>
	<path fill="none" stroke="#FFFFFF" stroke-width="0.6051" stroke-miterlimit="10" d="M29.153,12.828
		c0-5.645-5.38-10.221-12.014-10.221c-6.638,0-12.018,4.576-12.018,10.221c0,0.473-0.207,2.468-0.207,2.97L4.594,33.752
		c0,0.334,0.081,2.089,0.081,2.353c0,4.694,5.884,7.692,12.517,7.692c6.632,0,12.449-3.224,12.449-7.919
		c0-0.248-0.054-1.618-0.054-1.969l-0.241-18.034C29.346,15.375,29.153,13.301,29.153,12.828z"/>
	<path fill="none" stroke="#ECB94E" stroke-width="0.6051" stroke-miterlimit="10" stroke-dasharray="0.6051" d="M4.304,26.826"/>
	<path fill="none" stroke="#ECB94E" stroke-width="0.6051" stroke-miterlimit="10" stroke-dasharray="0.6051" d="M4.589,25.144"/>
	<path fill="none" stroke="#ECB94E" stroke-width="0.6051" stroke-miterlimit="10" stroke-dasharray="0.6051" d="M29.677,27.232"/>
	<path fill="none" stroke="#ECB94E" stroke-width="0.6051" stroke-miterlimit="10" stroke-dasharray="0.6051" d="M29.495,25.538"/>
	<defs>
		<filter id="Adobe_OpacityMaskFilter" filterUnits="userSpaceOnUse" x="0.952" y="29.611" width="3.97" height="10.396">
			<feColorMatrix  type="matrix" values="1 0 0 0 0  0 1 0 0 0  0 0 1 0 0  0 0 0 1 0"/>
		</filter>
	</defs>
	<mask maskUnits="userSpaceOnUse" x="0.952" y="29.611" width="3.97" height="10.396" id="SVGID_1_">
		<g filter="url(#Adobe_OpacityMaskFilter)">
			
				<linearGradient id="SVGID_2_" gradientUnits="userSpaceOnUse" x1="-360.8511" y1="510.8965" x2="-363.7498" y2="513.229" gradientTransform="matrix(1.9799 -3.0191 -0.0394 3.0249 745.1123 -2617.0005)">
				<stop  offset="0.7039" style="stop-color:#221E20"/>
				<stop  offset="0.7251" style="stop-color:#5C595A"/>
				<stop  offset="0.7486" style="stop-color:#959394"/>
				<stop  offset="0.7703" style="stop-color:#C3C2C2"/>
				<stop  offset="0.7894" style="stop-color:#E4E3E4"/>
				<stop  offset="0.8052" style="stop-color:#F8F8F8"/>
				<stop  offset="0.8159" style="stop-color:#FFFFFF"/>
			</linearGradient>
			<polygon fill="url(#SVGID_2_)" points="8.883,29.052 3.564,43.524 -0.822,41.912 4.498,27.439 			"/>
		</g>
	</mask>
	<path mask="url(#SVGID_1_)" fill="none" stroke="#FFFFFF" stroke-width="0.6051" stroke-miterlimit="10" d="M1.263,39.642
		c-0.102,0.746,0.655-5.497,3.402-9.87"/>
	<defs>
		<filter id="Adobe_OpacityMaskFilter_1_" filterUnits="userSpaceOnUse" x="3.465" y="35.877" width="1.497" height="4.386">
			<feColorMatrix  type="matrix" values="1 0 0 0 0  0 1 0 0 0  0 0 1 0 0  0 0 0 1 0"/>
		</filter>
	</defs>
	<mask maskUnits="userSpaceOnUse" x="3.465" y="35.877" width="1.497" height="4.386" id="SVGID_3_">
		<g filter="url(#Adobe_OpacityMaskFilter_1_)">
			
				<linearGradient id="SVGID_4_" gradientUnits="userSpaceOnUse" x1="-360.8511" y1="510.8965" x2="-363.7498" y2="513.229" gradientTransform="matrix(1.9799 -3.0191 -0.0394 3.0249 745.1123 -2617.0005)">
				<stop  offset="0.7039" style="stop-color:#221E20"/>
				<stop  offset="0.7251" style="stop-color:#5C595A"/>
				<stop  offset="0.7486" style="stop-color:#959394"/>
				<stop  offset="0.7703" style="stop-color:#C3C2C2"/>
				<stop  offset="0.7894" style="stop-color:#E4E3E4"/>
				<stop  offset="0.8052" style="stop-color:#F8F8F8"/>
				<stop  offset="0.8159" style="stop-color:#FFFFFF"/>
			</linearGradient>
			<polygon fill="url(#SVGID_4_)" points="8.883,29.052 3.564,43.524 -0.822,41.912 4.498,27.439 			"/>
		</g>
	</mask>
	<path mask="url(#SVGID_3_)" fill="none" stroke="#FFFFFF" stroke-width="0.6051" stroke-miterlimit="10" d="M4.672,35.964
		c-0.377,1.239-0.707,2.669-0.907,4.26"/>
	<path fill="none" stroke="#FFFFFF" stroke-width="0.6051" stroke-miterlimit="10" d="M1.274,39.681
		c-0.838,0.113-0.544,0.808-0.366,1.354c0.036,0.108,0.087,0.22,0.102,0.333c0.026,0.179-0.04,0.312-0.115,0.506
		c-0.047,0.125-0.15,0.316-0.253,0.865c-0.016-0.005-0.185,1.13,0.047,1.618c0.141,0.292,0.355,0.382,0.656,0.479
		c0.223,0.071,0.995-0.146,1.058-0.071c0.436,0.486,0.628,1.076,1.444,0.956c0.798-0.113,1.128-0.688,1.066-1.423
		c0.797-0.022,1.548-0.766,1.083-1.521c-0.356-0.577-0.836-0.484-1.342-0.762c-0.238-0.131-0.476-0.263-0.71-0.4
		c-0.256-0.15-0.116-0.124-0.069-0.354c0.069-0.349,0.081-0.692,0.096-1.047c0.006-0.135-1.142,0.18-2.101,0.078
		c-0.132-0.015-0.372-0.029-0.478-0.099C1.218,40.079,1.274,39.681,1.274,39.681z"/>
	<defs>
		<filter id="Adobe_OpacityMaskFilter_2_" filterUnits="userSpaceOnUse" x="29.337" y="36.32" width="1.527" height="4.413">
			<feColorMatrix  type="matrix" values="1 0 0 0 0  0 1 0 0 0  0 0 1 0 0  0 0 0 1 0"/>
		</filter>
	</defs>
	<mask maskUnits="userSpaceOnUse" x="29.337" y="36.32" width="1.527" height="4.413" id="SVGID_5_">
		<g filter="url(#Adobe_OpacityMaskFilter_2_)">
			
				<linearGradient id="SVGID_6_" gradientUnits="userSpaceOnUse" x1="-798.3462" y1="74.4268" x2="-801.2449" y2="76.7593" gradientTransform="matrix(-1.9799 -3.0191 0.0394 3.0249 -1559.7686 -2617.0005)">
				<stop  offset="0.7039" style="stop-color:#221E20"/>
				<stop  offset="0.7251" style="stop-color:#5C595A"/>
				<stop  offset="0.7486" style="stop-color:#959394"/>
				<stop  offset="0.7703" style="stop-color:#C3C2C2"/>
				<stop  offset="0.7894" style="stop-color:#E4E3E4"/>
				<stop  offset="0.8052" style="stop-color:#F8F8F8"/>
				<stop  offset="0.8159" style="stop-color:#FFFFFF"/>
			</linearGradient>
			<polygon fill="url(#SVGID_6_)" points="25.459,29.612 30.779,44.085 35.166,42.473 29.845,28 			"/>
		</g>
	</mask>
	<path mask="url(#SVGID_5_)" fill="none" stroke="#FFFFFF" stroke-width="0.6051" stroke-miterlimit="10" d="M29.626,36.409
		c0.386,1.245,0.728,2.682,0.938,4.284"/>
	<defs>
		<filter id="Adobe_OpacityMaskFilter_3_" filterUnits="userSpaceOnUse" x="29.283" y="29.95" width="4.086" height="10.27">
			<feColorMatrix  type="matrix" values="1 0 0 0 0  0 1 0 0 0  0 0 1 0 0  0 0 0 1 0"/>
		</filter>
	</defs>
	<mask maskUnits="userSpaceOnUse" x="29.283" y="29.95" width="4.086" height="10.27" id="SVGID_7_">
		<g filter="url(#Adobe_OpacityMaskFilter_3_)">
			
				<linearGradient id="SVGID_8_" gradientUnits="userSpaceOnUse" x1="-798.3462" y1="74.4268" x2="-801.2449" y2="76.7593" gradientTransform="matrix(-1.9799 -3.0191 0.0394 3.0249 -1559.7686 -2617.0005)">
				<stop  offset="0.7039" style="stop-color:#221E20"/>
				<stop  offset="0.7251" style="stop-color:#5C595A"/>
				<stop  offset="0.7486" style="stop-color:#959394"/>
				<stop  offset="0.7703" style="stop-color:#C3C2C2"/>
				<stop  offset="0.7894" style="stop-color:#E4E3E4"/>
				<stop  offset="0.8052" style="stop-color:#F8F8F8"/>
				<stop  offset="0.8159" style="stop-color:#FFFFFF"/>
			</linearGradient>
			<polygon fill="url(#SVGID_8_)" points="25.459,29.612 30.779,44.085 35.166,42.473 29.845,28 			"/>
		</g>
	</mask>
	<path mask="url(#SVGID_7_)" fill="none" stroke="#FFFFFF" stroke-width="0.6051" stroke-miterlimit="10" d="M33.069,40.177
		c-0.771-5.535-2.956-9.179-3.532-10.062"/>
	<path fill="none" stroke="#FFFFFF" stroke-width="0.6051" stroke-miterlimit="10" d="M33.069,40.243
		c0.838,0.111,0.544,0.806,0.366,1.352c-0.036,0.108-0.088,0.22-0.104,0.334c-0.024,0.18,0.042,0.311,0.116,0.507
		c0.049,0.123,0.149,0.314,0.253,0.862c0.017-0.004,0.185,1.133-0.047,1.619c-0.142,0.292-0.355,0.382-0.656,0.479
		c-0.221,0.071-0.995-0.143-1.057-0.071c-0.438,0.486-0.629,1.076-1.445,0.959c-0.797-0.119-1.128-0.69-1.066-1.426
		c-0.796-0.022-1.547-0.766-1.081-1.521c0.356-0.575,0.835-0.484,1.341-0.762c0.238-0.131,0.477-0.261,0.711-0.398
		c0.256-0.152,0.115-0.126,0.07-0.356c-0.071-0.349-0.081-0.691-0.098-1.047c-0.007-0.135,1.141,0.18,2.1,0.078
		c0.133-0.013,0.373-0.029,0.479-0.099C33.124,40.64,33.069,40.243,33.069,40.243z"/>
	<g>
		<path fill="none" stroke="#FFFFFF" stroke-width="0.6051" stroke-miterlimit="10" d="M24.137,4.459
			c0.144-0.449,0.3-0.895,0.47-1.335c0.017-0.044-0.054-0.062-0.071-0.02c-0.179,0.439-0.349,0.88-0.509,1.325"/>
	</g>
	<g>
		<path fill="none" stroke="#FFFFFF" stroke-width="0.6051" stroke-miterlimit="10" d="M22.85,3.83
			c0.108-0.342,0.225-0.682,0.354-1.017c0.017-0.045-0.054-0.063-0.07-0.02c-0.137,0.332-0.269,0.669-0.392,1.008"/>
	</g>
	<g>
		<path fill="none" stroke="#FFFFFF" stroke-width="0.6051" stroke-miterlimit="10" d="M21.066,4.151"/>
		<path fill="none" stroke="#FFFFFF" stroke-width="0.6051" stroke-miterlimit="10" d="M21.079,3.365"/>
		<path fill="none" stroke="#FFFFFF" stroke-width="0.6051" stroke-miterlimit="10" d="M21.218,3.19
			c0.038-0.293,0.086-0.585,0.143-0.875c0.009-0.045-0.062-0.065-0.071-0.02c-0.062,0.284-0.118,0.567-0.171,0.852"/>
	</g>
	<g>
		<path fill="none" stroke="#FFFFFF" stroke-width="0.6051" stroke-miterlimit="10" d="M26.595,6.567
			c0.172-0.311,0.351-0.619,0.541-0.92c0.025-0.041-0.037-0.076-0.063-0.037c-0.196,0.296-0.39,0.598-0.575,0.901"/>
	</g>
	<g>
		<path fill="none" stroke="#FFFFFF" stroke-width="0.6051" stroke-miterlimit="10" d="M9.942,4.602
			C9.911,4.53,9.881,4.462,9.855,4.397c-0.166-0.42-0.345-0.836-0.529-1.25C9.308,3.104,9.246,3.142,9.263,3.186
			c0.192,0.452,0.366,0.909,0.532,1.371c0.017,0.049,0.034,0.097,0.05,0.147"/>
	</g>
	<g>
		<path fill="none" stroke="#FFFFFF" stroke-width="0.6051" stroke-miterlimit="10" d="M11.24,3.897
			c-0.029-0.067-0.057-0.128-0.08-0.185c-0.14-0.353-0.292-0.703-0.447-1.05c-0.02-0.044-0.081-0.006-0.063,0.036
			c0.144,0.345,0.274,0.693,0.399,1.045c0.026,0.071,0.048,0.152,0.072,0.237"/>
	</g>
	<g>
		<path fill="none" stroke="#FFFFFF" stroke-width="0.6051" stroke-miterlimit="10" d="M12.437,3.419
			c-0.01-0.039-0.018-0.076-0.025-0.11c-0.076-0.356-0.157-0.71-0.246-1.062c-0.012-0.047-0.081-0.027-0.07,0.02
			c0.073,0.323,0.131,0.646,0.186,0.972c0.012,0.07,0.019,0.147,0.027,0.227"/>
	</g>
	<g>
		<path fill="none" stroke="#FFFFFF" stroke-width="0.6051" stroke-miterlimit="10" d="M8.694,5.559
			c-0.087-0.208-0.177-0.413-0.27-0.617C8.405,4.898,8.343,4.936,8.361,4.979c0.091,0.212,0.175,0.428,0.255,0.645"/>
	</g>
	<g>
		<path fill="none" stroke="#FFFFFF" stroke-width="0.6051" stroke-miterlimit="10" d="M7.513,6.708
			C7.352,6.466,7.185,6.227,7.017,5.99c-0.027-0.039-0.09-0.003-0.063,0.037c0.169,0.25,0.331,0.506,0.487,0.763"/>
	</g>
	<g>
		<path fill="none" stroke="#FFFFFF" stroke-width="0.6051" stroke-miterlimit="10" d="M17.288,3.469"/>
		<path fill="none" stroke="#FFFFFF" stroke-width="0.6051" stroke-miterlimit="10" d="M17.229,2.607
			c-0.014-0.071-0.021-0.139-0.027-0.208c-0.041-0.408-0.068-0.818-0.08-1.229c-0.002-0.047-0.076-0.047-0.075,0
			c0.004,0.41,0.018,0.821,0.04,1.229c0.006,0.065,0.006,0.135,0.008,0.208"/>
	</g>
	<g>
		<path fill="none" stroke="#FFFFFF" stroke-width="0.6051" stroke-miterlimit="10" d="M15.447,2.742
			c-0.065-0.386-0.111-0.776-0.147-1.167c-0.004-0.045-0.076-0.047-0.072,0c0.026,0.396,0.061,0.791,0.104,1.183"/>
	</g>
	<g>
		<path fill="none" stroke="#FFFFFF" stroke-width="0.6051" stroke-miterlimit="10" d="M13.971,2.967
			c-0.031-0.075-0.06-0.146-0.083-0.211c-0.107-0.312-0.206-0.627-0.294-0.946c-0.012-0.045-0.082-0.026-0.069,0.02
			c0.079,0.321,0.164,0.64,0.255,0.958c0.017,0.059,0.034,0.128,0.053,0.203"/>
	</g>
	<g>
		<path fill="none" stroke="#FFFFFF" stroke-width="0.6051" stroke-miterlimit="10" d="M18.853,2.763
			C18.846,2.72,18.846,2.72,18.84,2.678c-0.056-0.345-0.096-0.693-0.127-1.042c-0.005-0.047-0.076-0.047-0.073,0
			c0.021,0.316,0.049,0.66,0.088,1.029c0.006,0.052,0.006,0.052,0.012,0.104"/>
	</g>
	<g>
		<path fill="none" stroke="#FFFFFF" stroke-width="0.6051" stroke-miterlimit="10" d="M20.168,2.868
			c0.016-0.377,0.038-0.645,0.077-1.021c0.005-0.047-0.067-0.045-0.072,0c-0.049,0.376-0.091,0.684-0.125,1.06"/>
	</g>
	<circle fill="none" stroke="#FFFFFF" stroke-width="0.6051" stroke-miterlimit="10" cx="17.125" cy="14.68" r="10.555"/>
	<path fill="#FFFFFF" d="M15.48,11.995c-1.779,0-3.227,1.448-3.227,3.226c0,1.781,1.448,3.228,3.227,3.228
		c1.78,0,3.228-1.447,3.228-3.228C18.708,13.443,17.26,11.995,15.48,11.995z M14.516,14.998c-0.354,0-0.642-0.289-0.642-0.644
		c0-0.353,0.288-0.642,0.642-0.642s0.642,0.289,0.642,0.642C15.157,14.709,14.87,14.998,14.516,14.998z"/>
</g>
<g>
</g>
<g>
</g>
<g>
</g>
<g>
</g>
<g>
</g>
<g>
</g>
<g>
</g>
<g>
</g>
<g>
</g>
<g>
</g>
<g>
</g>
<g>
</g>
<g>
</g>
<g>
</g>
<g>
</g>
</svg>
